G75*
%MOIN*%
%OFA0B0*%
%FSLAX24Y24*%
%IPPOS*%
%LPD*%
%AMOC8*
5,1,8,0,0,1.08239X$1,22.5*
%
%ADD10R,0.0640X0.0170*%
%ADD11R,0.0170X0.0640*%
%ADD12C,0.0946*%
%ADD13C,0.0800*%
%ADD14R,0.0690X0.0572*%
%ADD15C,0.0660*%
%ADD16R,0.0651X0.0572*%
%ADD17R,0.0493X0.0572*%
%ADD18R,0.0572X0.0651*%
%ADD19C,0.0454*%
%ADD20R,0.0532X0.0532*%
%ADD21C,0.0887*%
%ADD22R,0.0690X0.1438*%
%ADD23C,0.0436*%
D10*
X009352Y010792D03*
X009352Y010992D03*
X009352Y011192D03*
X009352Y011382D03*
X009352Y011582D03*
X009352Y011782D03*
X009352Y011972D03*
X009352Y012172D03*
X009352Y012372D03*
X009352Y012572D03*
X009352Y012762D03*
X009352Y012962D03*
X009352Y013162D03*
X009352Y013352D03*
X009352Y013552D03*
X009352Y013752D03*
X013772Y013752D03*
X013772Y013552D03*
X013772Y013352D03*
X013772Y013162D03*
X013772Y012962D03*
X013772Y012762D03*
X013772Y012572D03*
X013772Y012372D03*
X013772Y012172D03*
X013772Y011972D03*
X013772Y011782D03*
X013772Y011582D03*
X013772Y011382D03*
X013772Y011192D03*
X013772Y010992D03*
X013772Y010792D03*
D11*
X013042Y010062D03*
X012842Y010062D03*
X012642Y010062D03*
X012452Y010062D03*
X012252Y010062D03*
X012052Y010062D03*
X011862Y010062D03*
X011662Y010062D03*
X011462Y010062D03*
X011262Y010062D03*
X011072Y010062D03*
X010872Y010062D03*
X010672Y010062D03*
X010482Y010062D03*
X010282Y010062D03*
X010082Y010062D03*
X010082Y014482D03*
X010282Y014482D03*
X010482Y014482D03*
X010672Y014482D03*
X010872Y014482D03*
X011072Y014482D03*
X011262Y014482D03*
X011462Y014482D03*
X011662Y014482D03*
X011862Y014482D03*
X012052Y014482D03*
X012252Y014482D03*
X012452Y014482D03*
X012642Y014482D03*
X012842Y014482D03*
X013042Y014482D03*
D12*
X013562Y022329D02*
X013562Y023215D01*
X015562Y023215D02*
X015562Y022329D01*
X017562Y022329D02*
X017562Y023215D01*
X011062Y023215D02*
X011062Y022329D01*
X009062Y022329D02*
X009062Y023215D01*
X007062Y023215D02*
X007062Y022329D01*
X004505Y022772D02*
X003619Y022772D01*
X003619Y020772D02*
X004505Y020772D01*
X004505Y018772D02*
X003619Y018772D01*
X003619Y016272D02*
X004505Y016272D01*
X004505Y014272D02*
X003619Y014272D01*
X003619Y012272D02*
X004505Y012272D01*
X010562Y006215D02*
X010562Y005329D01*
X012562Y005329D02*
X012562Y006215D01*
X014562Y006215D02*
X014562Y005329D01*
X017062Y005329D02*
X017062Y006215D01*
X019062Y006215D02*
X019062Y005329D01*
X021062Y005329D02*
X021062Y006215D01*
D13*
X016856Y009871D03*
X015716Y009871D03*
X015132Y008772D03*
X013992Y008772D03*
X008062Y008822D03*
X007062Y008722D03*
X006062Y008822D03*
X005062Y008722D03*
X004062Y008822D03*
X009562Y019202D03*
X010562Y019202D03*
X010562Y020342D03*
X009562Y020342D03*
D14*
X020000Y014955D03*
X020000Y014207D03*
X019978Y010280D03*
X019978Y009532D03*
X008143Y006211D03*
X008143Y005463D03*
D15*
X004582Y004882D02*
X003982Y004882D01*
X003982Y006662D02*
X004582Y006662D01*
X006542Y006662D02*
X007142Y006662D01*
X007142Y004882D02*
X006542Y004882D01*
D16*
X009141Y007233D03*
X009141Y007981D03*
X011588Y008136D03*
X011588Y007388D03*
X017334Y012458D03*
X017334Y013206D03*
X018312Y017537D03*
X018312Y018285D03*
X012265Y016660D03*
X012265Y015912D03*
X010797Y015894D03*
X010797Y016642D03*
D17*
X015400Y013179D03*
X016109Y013179D03*
X016109Y012273D03*
X015400Y012273D03*
D18*
X015387Y011453D03*
X016135Y011453D03*
X016130Y014006D03*
X015382Y014006D03*
X020804Y012205D03*
X021552Y012205D03*
D19*
X020668Y011406D03*
X020668Y013138D03*
D20*
X021540Y014283D03*
X021540Y015109D03*
X021462Y010263D03*
X021462Y009436D03*
X019062Y008186D03*
X019062Y007359D03*
X017062Y007359D03*
X017062Y008186D03*
X012562Y008186D03*
X012562Y007359D03*
X010562Y007359D03*
X010562Y008186D03*
X006475Y014272D03*
X005649Y014272D03*
X005649Y016272D03*
X006475Y016272D03*
X008322Y015740D03*
X008322Y014913D03*
X009293Y014878D03*
X009293Y015705D03*
X013442Y017285D03*
X013442Y018112D03*
X015035Y018127D03*
X015035Y017300D03*
X015562Y020359D03*
X015562Y021186D03*
X017562Y021186D03*
X017562Y020359D03*
X006475Y019772D03*
X005649Y019772D03*
X005649Y021272D03*
X006475Y021272D03*
D21*
X020649Y020772D02*
X021475Y020772D01*
X021475Y022772D02*
X020649Y022772D01*
D22*
X020562Y018835D03*
X020562Y016709D03*
D23*
X021994Y016248D03*
X019351Y015689D03*
X018789Y015001D03*
X017331Y015001D03*
X017912Y016172D03*
X015094Y016275D03*
X013461Y016666D03*
X015323Y019533D03*
X017486Y019205D03*
X017546Y019717D03*
X018374Y019932D03*
X018529Y011622D03*
X018068Y011044D03*
X018359Y010009D03*
X019059Y008982D03*
X021272Y008135D03*
X016266Y008263D03*
X014547Y011459D03*
X012565Y008963D03*
X010978Y008951D03*
X009092Y009239D03*
X008767Y009700D03*
X011793Y006797D03*
X005960Y012906D03*
X007310Y014263D03*
X006787Y015545D03*
X008621Y016413D03*
X009587Y016378D03*
X007034Y019774D03*
X007320Y020926D03*
X003007Y013154D03*
M02*
