%
M48
M72
T01C0.0236
T02C0.0394
T03C0.0400
T04C0.0551
T05C0.0591
%
T01
X9092Y9239
X8767Y9700
X10978Y8951
X12565Y8963
X11793Y6797
X16266Y8263
X18359Y10009
X18068Y11044
X18529Y11622
X19059Y8982
X21272Y8135
X18789Y15001
X19351Y15689
X17912Y16172
X17331Y15001
X15094Y16275
X13461Y16666
X15323Y19533
X17486Y19205
X17546Y19717
X18374Y19932
X21994Y16248
X14547Y11459
X9587Y16378
X8621Y16413
X6787Y15545
X7310Y14263
X5960Y12906
X3007Y13154
X7034Y19774
X7320Y20926
T02
X20668Y13138
X20668Y11406
T03
X4282Y4882
X4282Y6662
X4062Y8822
X5062Y8722
X6062Y8822
X7062Y8722
X8062Y8822
X6842Y6662
X6842Y4882
X13992Y8772
X15132Y8772
X15716Y9871
X16856Y9871
X10562Y19202
X9562Y19202
X9562Y20342
X10562Y20342
T04
X21062Y20772
X21062Y22772
T05
X17562Y22772
X15562Y22772
X13562Y22772
X11062Y22772
X9062Y22772
X7062Y22772
X4062Y22772
X4062Y20772
X4062Y18772
X4062Y16272
X4062Y14272
X4062Y12272
X10562Y5772
X12562Y5772
X14562Y5772
X17062Y5772
X19062Y5772
X21062Y5772
M30
