%
M48
M72
T01C0.0236
T02C0.0354
T03C0.0400
T04C0.0590
T05C0.0591
T06C0.1250
T07C0.2165
%
T01
X8760Y22520
X10160Y24000
X10880Y25740
X10020Y28020
X10580Y28840
X13200Y27860
X13560Y28460
X13700Y29100
X14340Y30420
X16080Y30180
X15860Y27640
X12740Y25360
X12580Y23740
X15960Y23240
X18980Y22000
X19860Y24620
X23480Y22200
X25180Y22060
X27020Y23440
X28600Y24640
X28400Y27500
X28880Y29540
X32000Y30620
X32000Y31300
X31960Y34000
X25560Y31140
X22840Y30320
X22780Y32100
X21160Y32120
X21140Y30280
X19480Y30880
X21360Y19960
X23480Y19240
X24080Y16780
X27000Y16820
X27080Y18000
X8460Y25680
X7140Y25140
T02
X2600Y25159
X2600Y25946
X2600Y26734
X2600Y27521
X24480Y33006
X24480Y33794
T03
X31130Y33070
X31130Y34850
X15360Y33180
X15360Y32180
X14360Y32080
X14360Y33080
X13360Y33180
X13360Y32180
T04
X30150Y32580
X30150Y35340
T05
X30460Y30980
X30460Y28980
X30460Y26980
X30460Y24980
T06
X25290Y39160
X8032Y39160
X2160Y10260
X31160Y10260
T07
X3240Y3320
X30200Y3240
X30020Y38460
X2960Y38460
M30
