G75*
%MOIN*%
%OFA0B0*%
%FSLAX24Y24*%
%IPPOS*%
%LPD*%
%AMOC8*
5,1,8,0,0,1.08239X$1,22.5*
%
%ADD10C,0.0000*%
D10*
X002562Y004272D02*
X002562Y024142D01*
X022554Y024142D01*
X022554Y004272D01*
X002562Y004272D01*
X020471Y011406D02*
X020473Y011433D01*
X020479Y011460D01*
X020488Y011486D01*
X020501Y011510D01*
X020517Y011533D01*
X020536Y011552D01*
X020558Y011569D01*
X020582Y011583D01*
X020607Y011593D01*
X020634Y011600D01*
X020661Y011603D01*
X020689Y011602D01*
X020716Y011597D01*
X020742Y011589D01*
X020766Y011577D01*
X020789Y011561D01*
X020810Y011543D01*
X020827Y011522D01*
X020842Y011498D01*
X020853Y011473D01*
X020861Y011447D01*
X020865Y011420D01*
X020865Y011392D01*
X020861Y011365D01*
X020853Y011339D01*
X020842Y011314D01*
X020827Y011290D01*
X020810Y011269D01*
X020789Y011251D01*
X020767Y011235D01*
X020742Y011223D01*
X020716Y011215D01*
X020689Y011210D01*
X020661Y011209D01*
X020634Y011212D01*
X020607Y011219D01*
X020582Y011229D01*
X020558Y011243D01*
X020536Y011260D01*
X020517Y011279D01*
X020501Y011302D01*
X020488Y011326D01*
X020479Y011352D01*
X020473Y011379D01*
X020471Y011406D01*
X020471Y013138D02*
X020473Y013165D01*
X020479Y013192D01*
X020488Y013218D01*
X020501Y013242D01*
X020517Y013265D01*
X020536Y013284D01*
X020558Y013301D01*
X020582Y013315D01*
X020607Y013325D01*
X020634Y013332D01*
X020661Y013335D01*
X020689Y013334D01*
X020716Y013329D01*
X020742Y013321D01*
X020766Y013309D01*
X020789Y013293D01*
X020810Y013275D01*
X020827Y013254D01*
X020842Y013230D01*
X020853Y013205D01*
X020861Y013179D01*
X020865Y013152D01*
X020865Y013124D01*
X020861Y013097D01*
X020853Y013071D01*
X020842Y013046D01*
X020827Y013022D01*
X020810Y013001D01*
X020789Y012983D01*
X020767Y012967D01*
X020742Y012955D01*
X020716Y012947D01*
X020689Y012942D01*
X020661Y012941D01*
X020634Y012944D01*
X020607Y012951D01*
X020582Y012961D01*
X020558Y012975D01*
X020536Y012992D01*
X020517Y013011D01*
X020501Y013034D01*
X020488Y013058D01*
X020479Y013084D01*
X020473Y013111D01*
X020471Y013138D01*
M02*
