G75*
G70*
%OFA0B0*%
%FSLAX24Y24*%
%IPPOS*%
%LPD*%
%AMOC8*
5,1,8,0,0,1.08239X$1,22.5*
%
%ADD10C,0.1330*%
%ADD11R,0.3623X0.3623*%
%ADD12C,0.0966*%
%ADD13C,0.0634*%
%ADD14OC8,0.0780*%
%ADD15C,0.1080*%
%ADD16OC8,0.0820*%
%ADD17C,0.0476*%
D10*
X002160Y010260D03*
X008032Y039160D03*
X025290Y039160D03*
X031160Y010260D03*
D11*
X003240Y003320D03*
X030200Y003240D03*
X030020Y038460D03*
X002960Y038460D03*
D12*
X030017Y030980D02*
X030903Y030980D01*
X030903Y028980D02*
X030017Y028980D01*
X030017Y026980D02*
X030903Y026980D01*
X030903Y024980D02*
X030017Y024980D01*
D13*
X024480Y033006D03*
X024480Y033794D03*
X002600Y027521D03*
X002600Y026734D03*
X002600Y025946D03*
X002600Y025159D03*
D14*
X031130Y033070D03*
X031130Y034850D03*
D15*
X030150Y035340D03*
X030150Y032580D03*
D16*
X015360Y032180D03*
X015360Y033180D03*
X014360Y033080D03*
X014360Y032080D03*
X013360Y032180D03*
X013360Y033180D03*
D17*
X014340Y030420D03*
X013700Y029100D03*
X013560Y028460D03*
X013200Y027860D03*
X012740Y025360D03*
X012580Y023740D03*
X010880Y025740D03*
X010160Y024000D03*
X008760Y022520D03*
X007140Y025140D03*
X008460Y025680D03*
X010020Y028020D03*
X010580Y028840D03*
X015860Y027640D03*
X016080Y030180D03*
X019480Y030880D03*
X021140Y030280D03*
X021160Y032120D03*
X022780Y032100D03*
X022840Y030320D03*
X025560Y031140D03*
X028400Y027500D03*
X028880Y029540D03*
X032000Y030620D03*
X032000Y031300D03*
X031960Y034000D03*
X028600Y024640D03*
X027020Y023440D03*
X025180Y022060D03*
X023480Y022200D03*
X023480Y019240D03*
X024080Y016780D03*
X021360Y019960D03*
X018980Y022000D03*
X019860Y024620D03*
X015960Y023240D03*
X027080Y018000D03*
X027000Y016820D03*
M02*
