G75*
G70*
%OFA0B0*%
%FSLAX24Y24*%
%IPPOS*%
%LPD*%
%AMOC8*
5,1,8,0,0,1.08239X$1,22.5*
%
%ADD10C,0.0000*%
%ADD11R,0.2126X0.2441*%
%ADD12R,0.0394X0.0630*%
%ADD13R,0.3543X0.3543*%
%ADD14C,0.0886*%
%ADD15R,0.0591X0.0945*%
%ADD16R,0.0748X0.0630*%
%ADD17R,0.0315X0.0472*%
%ADD18R,0.0579X0.0500*%
%ADD19C,0.0591*%
%ADD20R,0.0315X0.0315*%
%ADD21R,0.0709X0.0394*%
%ADD22R,0.0472X0.0315*%
%ADD23R,0.0630X0.1181*%
%ADD24R,0.1900X0.2250*%
%ADD25C,0.0554*%
%ADD26R,0.0197X0.0591*%
%ADD27R,0.0591X0.0197*%
%ADD28R,0.0800X0.0260*%
%ADD29OC8,0.0700*%
%ADD30C,0.1000*%
%ADD31R,0.0394X0.1614*%
%ADD32OC8,0.0740*%
%ADD33C,0.0160*%
%ADD34C,0.0396*%
%ADD35C,0.0240*%
%ADD36C,0.0320*%
%ADD37C,0.0120*%
D10*
X000222Y000235D02*
X000182Y041260D01*
X009360Y041260D01*
X009280Y041300D01*
X023920Y041300D01*
X024000Y041260D01*
X033160Y041260D01*
X033200Y000235D01*
X000222Y000235D01*
X001535Y010260D02*
X001537Y010310D01*
X001543Y010359D01*
X001553Y010408D01*
X001566Y010455D01*
X001584Y010502D01*
X001605Y010547D01*
X001629Y010590D01*
X001657Y010631D01*
X001688Y010670D01*
X001722Y010706D01*
X001759Y010740D01*
X001799Y010770D01*
X001840Y010797D01*
X001884Y010821D01*
X001929Y010841D01*
X001976Y010857D01*
X002024Y010870D01*
X002073Y010879D01*
X002123Y010884D01*
X002172Y010885D01*
X002222Y010882D01*
X002271Y010875D01*
X002320Y010864D01*
X002367Y010850D01*
X002413Y010831D01*
X002458Y010809D01*
X002501Y010784D01*
X002541Y010755D01*
X002579Y010723D01*
X002615Y010689D01*
X002648Y010651D01*
X002677Y010611D01*
X002703Y010569D01*
X002726Y010525D01*
X002745Y010479D01*
X002761Y010432D01*
X002773Y010383D01*
X002781Y010334D01*
X002785Y010285D01*
X002785Y010235D01*
X002781Y010186D01*
X002773Y010137D01*
X002761Y010088D01*
X002745Y010041D01*
X002726Y009995D01*
X002703Y009951D01*
X002677Y009909D01*
X002648Y009869D01*
X002615Y009831D01*
X002579Y009797D01*
X002541Y009765D01*
X002501Y009736D01*
X002458Y009711D01*
X002413Y009689D01*
X002367Y009670D01*
X002320Y009656D01*
X002271Y009645D01*
X002222Y009638D01*
X002172Y009635D01*
X002123Y009636D01*
X002073Y009641D01*
X002024Y009650D01*
X001976Y009663D01*
X001929Y009679D01*
X001884Y009699D01*
X001840Y009723D01*
X001799Y009750D01*
X001759Y009780D01*
X001722Y009814D01*
X001688Y009850D01*
X001657Y009889D01*
X001629Y009930D01*
X001605Y009973D01*
X001584Y010018D01*
X001566Y010065D01*
X001553Y010112D01*
X001543Y010161D01*
X001537Y010210D01*
X001535Y010260D01*
X007407Y039160D02*
X007409Y039210D01*
X007415Y039259D01*
X007425Y039308D01*
X007438Y039355D01*
X007456Y039402D01*
X007477Y039447D01*
X007501Y039490D01*
X007529Y039531D01*
X007560Y039570D01*
X007594Y039606D01*
X007631Y039640D01*
X007671Y039670D01*
X007712Y039697D01*
X007756Y039721D01*
X007801Y039741D01*
X007848Y039757D01*
X007896Y039770D01*
X007945Y039779D01*
X007995Y039784D01*
X008044Y039785D01*
X008094Y039782D01*
X008143Y039775D01*
X008192Y039764D01*
X008239Y039750D01*
X008285Y039731D01*
X008330Y039709D01*
X008373Y039684D01*
X008413Y039655D01*
X008451Y039623D01*
X008487Y039589D01*
X008520Y039551D01*
X008549Y039511D01*
X008575Y039469D01*
X008598Y039425D01*
X008617Y039379D01*
X008633Y039332D01*
X008645Y039283D01*
X008653Y039234D01*
X008657Y039185D01*
X008657Y039135D01*
X008653Y039086D01*
X008645Y039037D01*
X008633Y038988D01*
X008617Y038941D01*
X008598Y038895D01*
X008575Y038851D01*
X008549Y038809D01*
X008520Y038769D01*
X008487Y038731D01*
X008451Y038697D01*
X008413Y038665D01*
X008373Y038636D01*
X008330Y038611D01*
X008285Y038589D01*
X008239Y038570D01*
X008192Y038556D01*
X008143Y038545D01*
X008094Y038538D01*
X008044Y038535D01*
X007995Y038536D01*
X007945Y038541D01*
X007896Y038550D01*
X007848Y038563D01*
X007801Y038579D01*
X007756Y038599D01*
X007712Y038623D01*
X007671Y038650D01*
X007631Y038680D01*
X007594Y038714D01*
X007560Y038750D01*
X007529Y038789D01*
X007501Y038830D01*
X007477Y038873D01*
X007456Y038918D01*
X007438Y038965D01*
X007425Y039012D01*
X007415Y039061D01*
X007409Y039110D01*
X007407Y039160D01*
X024665Y039160D02*
X024667Y039210D01*
X024673Y039259D01*
X024683Y039308D01*
X024696Y039355D01*
X024714Y039402D01*
X024735Y039447D01*
X024759Y039490D01*
X024787Y039531D01*
X024818Y039570D01*
X024852Y039606D01*
X024889Y039640D01*
X024929Y039670D01*
X024970Y039697D01*
X025014Y039721D01*
X025059Y039741D01*
X025106Y039757D01*
X025154Y039770D01*
X025203Y039779D01*
X025253Y039784D01*
X025302Y039785D01*
X025352Y039782D01*
X025401Y039775D01*
X025450Y039764D01*
X025497Y039750D01*
X025543Y039731D01*
X025588Y039709D01*
X025631Y039684D01*
X025671Y039655D01*
X025709Y039623D01*
X025745Y039589D01*
X025778Y039551D01*
X025807Y039511D01*
X025833Y039469D01*
X025856Y039425D01*
X025875Y039379D01*
X025891Y039332D01*
X025903Y039283D01*
X025911Y039234D01*
X025915Y039185D01*
X025915Y039135D01*
X025911Y039086D01*
X025903Y039037D01*
X025891Y038988D01*
X025875Y038941D01*
X025856Y038895D01*
X025833Y038851D01*
X025807Y038809D01*
X025778Y038769D01*
X025745Y038731D01*
X025709Y038697D01*
X025671Y038665D01*
X025631Y038636D01*
X025588Y038611D01*
X025543Y038589D01*
X025497Y038570D01*
X025450Y038556D01*
X025401Y038545D01*
X025352Y038538D01*
X025302Y038535D01*
X025253Y038536D01*
X025203Y038541D01*
X025154Y038550D01*
X025106Y038563D01*
X025059Y038579D01*
X025014Y038599D01*
X024970Y038623D01*
X024929Y038650D01*
X024889Y038680D01*
X024852Y038714D01*
X024818Y038750D01*
X024787Y038789D01*
X024759Y038830D01*
X024735Y038873D01*
X024714Y038918D01*
X024696Y038965D01*
X024683Y039012D01*
X024673Y039061D01*
X024667Y039110D01*
X024665Y039160D01*
X030535Y010260D02*
X030537Y010310D01*
X030543Y010359D01*
X030553Y010408D01*
X030566Y010455D01*
X030584Y010502D01*
X030605Y010547D01*
X030629Y010590D01*
X030657Y010631D01*
X030688Y010670D01*
X030722Y010706D01*
X030759Y010740D01*
X030799Y010770D01*
X030840Y010797D01*
X030884Y010821D01*
X030929Y010841D01*
X030976Y010857D01*
X031024Y010870D01*
X031073Y010879D01*
X031123Y010884D01*
X031172Y010885D01*
X031222Y010882D01*
X031271Y010875D01*
X031320Y010864D01*
X031367Y010850D01*
X031413Y010831D01*
X031458Y010809D01*
X031501Y010784D01*
X031541Y010755D01*
X031579Y010723D01*
X031615Y010689D01*
X031648Y010651D01*
X031677Y010611D01*
X031703Y010569D01*
X031726Y010525D01*
X031745Y010479D01*
X031761Y010432D01*
X031773Y010383D01*
X031781Y010334D01*
X031785Y010285D01*
X031785Y010235D01*
X031781Y010186D01*
X031773Y010137D01*
X031761Y010088D01*
X031745Y010041D01*
X031726Y009995D01*
X031703Y009951D01*
X031677Y009909D01*
X031648Y009869D01*
X031615Y009831D01*
X031579Y009797D01*
X031541Y009765D01*
X031501Y009736D01*
X031458Y009711D01*
X031413Y009689D01*
X031367Y009670D01*
X031320Y009656D01*
X031271Y009645D01*
X031222Y009638D01*
X031172Y009635D01*
X031123Y009636D01*
X031073Y009641D01*
X031024Y009650D01*
X030976Y009663D01*
X030929Y009679D01*
X030884Y009699D01*
X030840Y009723D01*
X030799Y009750D01*
X030759Y009780D01*
X030722Y009814D01*
X030688Y009850D01*
X030657Y009889D01*
X030629Y009930D01*
X030605Y009973D01*
X030584Y010018D01*
X030566Y010065D01*
X030553Y010112D01*
X030543Y010161D01*
X030537Y010210D01*
X030535Y010260D01*
D11*
X025200Y019216D03*
D12*
X024302Y022090D03*
X026098Y022090D03*
D13*
X030020Y038460D03*
X002960Y038460D03*
X003240Y003320D03*
X030200Y003240D03*
D14*
X030017Y024980D02*
X030903Y024980D01*
X030903Y026980D02*
X030017Y026980D01*
X030017Y028980D02*
X030903Y028980D01*
X030903Y030980D02*
X030017Y030980D01*
D15*
X027806Y023420D03*
X025994Y023420D03*
D16*
X024310Y023080D03*
X023010Y023080D03*
X003810Y023460D03*
X002510Y023460D03*
D17*
X004046Y025940D03*
X004754Y025940D03*
X011146Y021820D03*
X011854Y021820D03*
X014726Y024520D03*
X015434Y024520D03*
X017706Y030220D03*
X018414Y030220D03*
X023466Y024120D03*
X024174Y024120D03*
X026326Y024460D03*
X027034Y024460D03*
X029266Y023540D03*
X029974Y023540D03*
X029974Y022580D03*
X030666Y022580D03*
X031374Y022580D03*
X029266Y022580D03*
X029354Y015240D03*
X028646Y015240D03*
X027534Y030500D03*
X026826Y030500D03*
D18*
X026220Y032554D03*
X026220Y034246D03*
X027740Y026846D03*
X027740Y025154D03*
D19*
X029620Y012560D03*
X003100Y034420D03*
D20*
X030725Y023520D03*
X031315Y023520D03*
X031255Y015280D03*
X030665Y015280D03*
X030565Y013620D03*
X031155Y013620D03*
D21*
X026360Y025249D03*
X026360Y026351D03*
D22*
X028940Y033286D03*
X028940Y033994D03*
X011860Y028634D03*
X011860Y027926D03*
X008260Y024854D03*
X008260Y024146D03*
D23*
X020102Y031169D03*
X021898Y031169D03*
D24*
X021000Y033885D03*
D25*
X024480Y033794D03*
X024480Y033006D03*
X002600Y027521D03*
X002600Y026734D03*
X002600Y025946D03*
X002600Y025159D03*
D26*
X009945Y027143D03*
X010260Y027143D03*
X010575Y027143D03*
X010890Y027143D03*
X011205Y027143D03*
X011520Y027143D03*
X011835Y027143D03*
X012150Y027143D03*
X012465Y027143D03*
X012780Y027143D03*
X013095Y027143D03*
X013095Y022577D03*
X012780Y022577D03*
X012465Y022577D03*
X012150Y022577D03*
X011835Y022577D03*
X011520Y022577D03*
X011205Y022577D03*
X010890Y022577D03*
X010575Y022577D03*
X010260Y022577D03*
X009945Y022577D03*
D27*
X009237Y023285D03*
X009237Y023600D03*
X009237Y023915D03*
X009237Y024230D03*
X009237Y024545D03*
X009237Y024860D03*
X009237Y025175D03*
X009237Y025490D03*
X009237Y025805D03*
X009237Y026120D03*
X009237Y026435D03*
X013803Y026435D03*
X013803Y026120D03*
X013803Y025805D03*
X013803Y025490D03*
X013803Y025175D03*
X013803Y024860D03*
X013803Y024545D03*
X013803Y024230D03*
X013803Y023915D03*
X013803Y023600D03*
X013803Y023285D03*
D28*
X025130Y028070D03*
X025130Y028570D03*
X025130Y029070D03*
X025130Y029570D03*
X027550Y029570D03*
X027550Y029070D03*
X027550Y028570D03*
X027550Y028070D03*
D29*
X031130Y033070D03*
X031130Y034850D03*
D30*
X030150Y035340D03*
X030150Y032580D03*
D31*
X011951Y030600D03*
X011360Y030600D03*
X010769Y030600D03*
D32*
X013360Y032180D03*
X013360Y033180D03*
X014360Y033080D03*
X014360Y032080D03*
X015360Y032180D03*
X015360Y033180D03*
D33*
X014360Y034040D02*
X014660Y034340D01*
X016180Y034340D01*
X016300Y034220D01*
X016300Y030400D01*
X016080Y030180D01*
X016417Y030058D02*
X017388Y030058D01*
X017388Y029918D02*
X017406Y029900D01*
X016306Y029900D01*
X016384Y029977D01*
X016438Y030109D01*
X016438Y030199D01*
X016503Y030264D01*
X016540Y030352D01*
X016540Y034268D01*
X016503Y034356D01*
X016436Y034423D01*
X016316Y034543D01*
X016228Y034580D01*
X014612Y034580D01*
X014524Y034543D01*
X014457Y034476D01*
X014157Y034176D01*
X014120Y034088D01*
X014120Y033590D01*
X013890Y033360D01*
X013890Y033400D01*
X013580Y033710D01*
X013140Y033710D01*
X012830Y033400D01*
X012830Y032960D01*
X013110Y032680D01*
X012830Y032400D01*
X012830Y031960D01*
X000671Y031960D01*
X000671Y031802D02*
X012989Y031802D01*
X013120Y031670D02*
X012830Y031960D01*
X012830Y032119D02*
X000671Y032119D01*
X000671Y032277D02*
X012830Y032277D01*
X012866Y032436D02*
X000671Y032436D01*
X000670Y032594D02*
X013025Y032594D01*
X013038Y032753D02*
X000670Y032753D01*
X000670Y032911D02*
X012879Y032911D01*
X012830Y033070D02*
X000670Y033070D01*
X000670Y033228D02*
X012830Y033228D01*
X012830Y033387D02*
X000670Y033387D01*
X000669Y033545D02*
X012976Y033545D01*
X013134Y033704D02*
X000669Y033704D01*
X000669Y033862D02*
X014120Y033862D01*
X014120Y033704D02*
X013586Y033704D01*
X013744Y033545D02*
X014076Y033545D01*
X013917Y033387D02*
X013890Y033387D01*
X014360Y033080D02*
X014360Y034040D01*
X014120Y034021D02*
X003325Y034021D01*
X003358Y034034D02*
X003191Y033965D01*
X003009Y033965D01*
X002842Y034034D01*
X002714Y034162D01*
X002645Y034329D01*
X002645Y034511D01*
X002714Y034678D01*
X002842Y034806D01*
X003009Y034875D01*
X003191Y034875D01*
X003358Y034806D01*
X003486Y034678D01*
X003555Y034511D01*
X003555Y034329D01*
X003486Y034162D01*
X003358Y034034D01*
X003493Y034179D02*
X014160Y034179D01*
X014318Y034338D02*
X003555Y034338D01*
X003555Y034496D02*
X014477Y034496D01*
X016363Y034496D02*
X019890Y034496D01*
X019890Y034338D02*
X016511Y034338D01*
X016540Y034179D02*
X019890Y034179D01*
X019890Y034021D02*
X016540Y034021D01*
X016540Y033862D02*
X019890Y033862D01*
X019890Y033704D02*
X016540Y033704D01*
X016540Y033545D02*
X019890Y033545D01*
X019890Y033387D02*
X016540Y033387D01*
X016540Y033228D02*
X019890Y033228D01*
X019890Y033070D02*
X016540Y033070D01*
X016540Y032911D02*
X019890Y032911D01*
X019890Y032753D02*
X016540Y032753D01*
X016540Y032594D02*
X024333Y032594D01*
X024393Y032569D02*
X024567Y032569D01*
X024728Y032636D01*
X024778Y032686D01*
X025635Y032686D01*
X025771Y032550D01*
X025771Y032237D01*
X025864Y032144D01*
X025900Y032144D01*
X025900Y031556D01*
X025949Y031439D01*
X026269Y031119D01*
X026359Y031029D01*
X026476Y030980D01*
X027967Y030980D01*
X028160Y030787D01*
X028160Y030659D01*
X028136Y030683D01*
X028116Y030703D01*
X028028Y030740D01*
X027852Y030740D01*
X027852Y030802D01*
X027758Y030896D01*
X027311Y030896D01*
X027217Y030802D01*
X027217Y030198D01*
X027294Y030120D01*
X027294Y029860D01*
X027084Y029860D01*
X027024Y029800D01*
X026692Y029800D01*
X026604Y029763D01*
X026537Y029696D01*
X026317Y029476D01*
X026280Y029388D01*
X026280Y027559D01*
X025941Y027220D01*
X024492Y027220D01*
X024404Y027183D01*
X024337Y027116D01*
X023971Y026750D01*
X023934Y026662D01*
X023934Y024500D01*
X023857Y024422D01*
X023857Y023818D01*
X023894Y023780D01*
X023894Y023555D01*
X023869Y023555D01*
X023776Y023461D01*
X023776Y022699D01*
X023869Y022605D01*
X023912Y022605D01*
X023912Y022420D01*
X023766Y022420D01*
X023683Y022504D01*
X023551Y022558D01*
X023409Y022558D01*
X023277Y022504D01*
X023176Y022403D01*
X023122Y022271D01*
X023122Y022129D01*
X023176Y021997D01*
X023277Y021896D01*
X023409Y021842D01*
X023551Y021842D01*
X023683Y021896D01*
X023766Y021980D01*
X023946Y021980D01*
X023946Y021709D01*
X024039Y021615D01*
X024565Y021615D01*
X024659Y021709D01*
X024659Y022471D01*
X024565Y022565D01*
X024472Y022565D01*
X024472Y022605D01*
X024750Y022605D01*
X024844Y022699D01*
X024844Y023461D01*
X024750Y023555D01*
X024454Y023555D01*
X024454Y023780D01*
X024492Y023818D01*
X024492Y024422D01*
X024414Y024500D01*
X024414Y026515D01*
X024639Y026740D01*
X026088Y026740D01*
X026176Y026777D01*
X026656Y027257D01*
X026723Y027324D01*
X026760Y027412D01*
X026760Y029241D01*
X026839Y029320D01*
X027044Y029320D01*
X026990Y029266D01*
X026990Y028874D01*
X027044Y028820D01*
X026990Y028766D01*
X026990Y028374D01*
X027030Y028334D01*
X027006Y028311D01*
X026982Y028269D01*
X026970Y028224D01*
X026970Y028070D01*
X027550Y028070D01*
X028130Y028070D01*
X028130Y028224D01*
X028118Y028269D01*
X028094Y028311D01*
X028075Y028330D01*
X028820Y028330D01*
X028820Y027092D01*
X028857Y027004D01*
X029037Y026824D01*
X029104Y026757D01*
X029192Y026720D01*
X029472Y026720D01*
X029506Y026638D01*
X029676Y026469D01*
X029897Y026377D01*
X031023Y026377D01*
X031244Y026469D01*
X031414Y026638D01*
X031506Y026860D01*
X031506Y027100D01*
X031414Y027322D01*
X031244Y027491D01*
X031023Y027583D01*
X029897Y027583D01*
X029676Y027491D01*
X029506Y027322D01*
X029456Y027200D01*
X029339Y027200D01*
X029300Y027239D01*
X029300Y028488D01*
X029263Y028576D01*
X029196Y028643D01*
X029066Y028773D01*
X028978Y028810D01*
X028066Y028810D01*
X028056Y028820D01*
X028066Y028830D01*
X029427Y028830D01*
X029506Y028638D01*
X029676Y028469D01*
X029897Y028377D01*
X031023Y028377D01*
X031244Y028469D01*
X031414Y028638D01*
X031506Y028860D01*
X031506Y029100D01*
X031414Y029322D01*
X031244Y029491D01*
X031023Y029583D01*
X029897Y029583D01*
X029676Y029491D01*
X029506Y029322D01*
X029501Y029310D01*
X029156Y029310D01*
X029184Y029337D01*
X029238Y029469D01*
X029238Y029611D01*
X029184Y029743D01*
X029126Y029800D01*
X031247Y029800D01*
X031600Y029447D01*
X031600Y024500D01*
X031276Y024500D01*
X031414Y024638D01*
X031506Y024860D01*
X031506Y025100D01*
X031414Y025322D01*
X031244Y025491D01*
X031023Y025583D01*
X029897Y025583D01*
X029676Y025491D01*
X029658Y025474D01*
X028186Y025474D01*
X028096Y025564D01*
X027384Y025564D01*
X027291Y025470D01*
X027291Y024847D01*
X027261Y024864D01*
X027216Y024876D01*
X027034Y024876D01*
X026853Y024876D01*
X026807Y024864D01*
X026766Y024840D01*
X026733Y024807D01*
X026709Y024766D01*
X026697Y024720D01*
X026697Y024460D01*
X026697Y024200D01*
X026709Y024154D01*
X026733Y024113D01*
X026766Y024080D01*
X026807Y024056D01*
X026853Y024044D01*
X027034Y024044D01*
X027034Y024460D01*
X026697Y024460D01*
X027034Y024460D01*
X027034Y024460D01*
X027034Y024460D01*
X027034Y024876D01*
X027034Y024460D01*
X027034Y024460D01*
X027034Y024044D01*
X027216Y024044D01*
X027261Y024056D01*
X027302Y024080D01*
X027336Y024113D01*
X027360Y024154D01*
X027372Y024200D01*
X027372Y024460D01*
X027372Y024720D01*
X027360Y024766D01*
X027356Y024772D01*
X027384Y024744D01*
X028096Y024744D01*
X028186Y024834D01*
X029425Y024834D01*
X029506Y024638D01*
X029644Y024500D01*
X028776Y024500D01*
X028659Y024451D01*
X028459Y024251D01*
X028369Y024161D01*
X028320Y024044D01*
X028320Y022640D01*
X026274Y022640D01*
X026274Y022788D01*
X026356Y022788D01*
X026450Y022881D01*
X026450Y023474D01*
X026479Y023503D01*
X026557Y023581D01*
X026600Y023684D01*
X026600Y024114D01*
X026643Y024158D01*
X026643Y024762D01*
X026606Y024800D01*
X026606Y024892D01*
X026781Y024892D01*
X026874Y024986D01*
X027291Y024986D01*
X027291Y025145D02*
X026874Y025145D01*
X026874Y025303D02*
X027291Y025303D01*
X027291Y025462D02*
X026874Y025462D01*
X026874Y025512D02*
X026781Y025606D01*
X025939Y025606D01*
X025846Y025512D01*
X025846Y024986D01*
X024414Y024986D01*
X024414Y024828D02*
X026046Y024828D01*
X026046Y024800D02*
X026008Y024762D01*
X026008Y024158D01*
X026040Y024126D01*
X026040Y024052D01*
X025633Y024052D01*
X025539Y023959D01*
X025539Y022881D01*
X025633Y022788D01*
X025714Y022788D01*
X025714Y022137D01*
X025741Y022074D01*
X025741Y021709D01*
X025835Y021615D01*
X026361Y021615D01*
X026454Y021709D01*
X026454Y021994D01*
X026460Y022000D01*
X027249Y022000D01*
X027200Y021951D01*
X026860Y021611D01*
X026860Y018286D01*
X026776Y018203D01*
X026722Y018071D01*
X026722Y017929D01*
X026776Y017797D01*
X026877Y017696D01*
X027009Y017642D01*
X027151Y017642D01*
X027283Y017696D01*
X027384Y017797D01*
X027438Y017929D01*
X027438Y018071D01*
X027384Y018203D01*
X027300Y018286D01*
X027300Y021429D01*
X027511Y021640D01*
X029711Y021640D01*
X029840Y021769D01*
X030071Y022000D01*
X030071Y022000D01*
X030200Y022129D01*
X030200Y022186D01*
X030292Y022278D01*
X030292Y022340D01*
X030348Y022340D01*
X030348Y022278D01*
X030442Y022184D01*
X030889Y022184D01*
X030983Y022278D01*
X030983Y022882D01*
X030889Y022976D01*
X030442Y022976D01*
X030348Y022882D01*
X030348Y022820D01*
X030292Y022820D01*
X030292Y022882D01*
X030198Y022976D01*
X029751Y022976D01*
X029657Y022882D01*
X029657Y022278D01*
X029692Y022243D01*
X029529Y022080D01*
X028713Y022080D01*
X028771Y022139D01*
X028911Y022279D01*
X028937Y022340D01*
X028948Y022340D01*
X028948Y022278D01*
X029042Y022184D01*
X029489Y022184D01*
X029583Y022278D01*
X029583Y022882D01*
X029489Y022976D01*
X029042Y022976D01*
X028960Y022894D01*
X028960Y023226D01*
X029042Y023144D01*
X029489Y023144D01*
X029583Y023238D01*
X029583Y023842D01*
X029566Y023860D01*
X029674Y023860D01*
X029657Y023842D01*
X029657Y023238D01*
X029751Y023144D01*
X030198Y023144D01*
X030292Y023238D01*
X030292Y023300D01*
X030407Y023300D01*
X030407Y023296D01*
X030501Y023203D01*
X030948Y023203D01*
X031008Y023262D01*
X031014Y023252D01*
X031047Y023218D01*
X031088Y023195D01*
X031134Y023183D01*
X031315Y023183D01*
X031315Y023520D01*
X031315Y023520D01*
X031315Y023857D01*
X031134Y023857D01*
X031088Y023845D01*
X031047Y023822D01*
X031014Y023788D01*
X031008Y023778D01*
X030948Y023837D01*
X030501Y023837D01*
X030443Y023780D01*
X030292Y023780D01*
X030292Y023842D01*
X030274Y023860D01*
X031844Y023860D01*
X031961Y023909D01*
X032051Y023999D01*
X032191Y024139D01*
X032240Y024256D01*
X032240Y029644D01*
X032191Y029761D01*
X032101Y029851D01*
X031561Y030391D01*
X031444Y030440D01*
X031215Y030440D01*
X031229Y030447D01*
X031309Y030505D01*
X031378Y030574D01*
X031436Y030654D01*
X031480Y030741D01*
X031510Y030834D01*
X031523Y030912D01*
X030528Y030912D01*
X030528Y031048D01*
X030392Y031048D01*
X030392Y030912D01*
X029397Y030912D01*
X029410Y030834D01*
X029440Y030741D01*
X029484Y030654D01*
X029542Y030574D01*
X029611Y030505D01*
X029691Y030447D01*
X029705Y030440D01*
X028853Y030440D01*
X028800Y030493D01*
X028800Y030984D01*
X028751Y031101D01*
X028661Y031191D01*
X028281Y031571D01*
X028164Y031620D01*
X026673Y031620D01*
X026540Y031753D01*
X026540Y032144D01*
X026576Y032144D01*
X026669Y032237D01*
X026669Y032870D01*
X026576Y032964D01*
X026263Y032964D01*
X025949Y033278D01*
X025831Y033326D01*
X024778Y033326D01*
X024728Y033377D01*
X024672Y033400D01*
X024728Y033423D01*
X024778Y033474D01*
X025831Y033474D01*
X025949Y033522D01*
X026263Y033836D01*
X026576Y033836D01*
X026669Y033930D01*
X026669Y034563D01*
X026576Y034656D01*
X025864Y034656D01*
X025771Y034563D01*
X025771Y034250D01*
X025635Y034114D01*
X024778Y034114D01*
X024728Y034164D01*
X024567Y034231D01*
X024393Y034231D01*
X024331Y034205D01*
X022110Y034205D01*
X022110Y035076D01*
X022016Y035170D01*
X019984Y035170D01*
X019890Y035076D01*
X019890Y032694D01*
X019984Y032600D01*
X022016Y032600D01*
X022110Y032694D01*
X022110Y033565D01*
X024101Y033565D01*
X024109Y033546D01*
X024232Y033423D01*
X024288Y033400D01*
X024232Y033377D01*
X024109Y033254D01*
X024043Y033093D01*
X024043Y032919D01*
X024109Y032759D01*
X024232Y032636D01*
X024393Y032569D01*
X024627Y032594D02*
X025727Y032594D01*
X025771Y032436D02*
X016540Y032436D01*
X016540Y032277D02*
X025771Y032277D01*
X025900Y032119D02*
X016540Y032119D01*
X016540Y031960D02*
X025900Y031960D01*
X025900Y031802D02*
X022388Y031802D01*
X022393Y031784D02*
X022380Y031829D01*
X022357Y031871D01*
X022323Y031904D01*
X022282Y031928D01*
X022236Y031940D01*
X021975Y031940D01*
X021975Y031247D01*
X021820Y031247D01*
X021820Y031092D01*
X021403Y031092D01*
X021403Y030555D01*
X021415Y030509D01*
X021439Y030468D01*
X021472Y030435D01*
X021513Y030411D01*
X021559Y030399D01*
X021820Y030399D01*
X021820Y031092D01*
X021975Y031092D01*
X021975Y030399D01*
X022236Y030399D01*
X022282Y030411D01*
X022323Y030435D01*
X022357Y030468D01*
X022380Y030509D01*
X022393Y030555D01*
X022393Y031092D01*
X021975Y031092D01*
X021975Y031247D01*
X022393Y031247D01*
X022393Y031784D01*
X022393Y031643D02*
X025900Y031643D01*
X025930Y031485D02*
X025664Y031485D01*
X025631Y031498D02*
X025489Y031498D01*
X025357Y031444D01*
X025256Y031343D01*
X025202Y031211D01*
X025202Y031069D01*
X025256Y030937D01*
X025357Y030836D01*
X025489Y030782D01*
X025579Y030782D01*
X025640Y030721D01*
X025640Y029816D01*
X025596Y029860D01*
X024664Y029860D01*
X024614Y029810D01*
X018762Y029810D01*
X018674Y029773D01*
X018281Y029380D01*
X013926Y029380D01*
X013903Y029404D01*
X013863Y029420D01*
X017668Y029420D01*
X017756Y029457D01*
X017856Y029557D01*
X017923Y029624D01*
X017960Y029712D01*
X017960Y029854D01*
X018023Y029918D01*
X018023Y030522D01*
X017929Y030616D01*
X017482Y030616D01*
X017388Y030522D01*
X017388Y029918D01*
X017388Y030217D02*
X016456Y030217D01*
X016540Y030375D02*
X017388Y030375D01*
X017399Y030534D02*
X016540Y030534D01*
X016540Y030692D02*
X018981Y030692D01*
X019122Y030833D02*
X018732Y030443D01*
X018732Y030522D01*
X018638Y030616D01*
X018191Y030616D01*
X018097Y030522D01*
X018097Y029918D01*
X018191Y029824D01*
X018638Y029824D01*
X018732Y029918D01*
X018732Y030000D01*
X018911Y030000D01*
X019433Y030522D01*
X019551Y030522D01*
X019627Y030553D01*
X019627Y030513D01*
X019721Y030419D01*
X020484Y030419D01*
X020577Y030513D01*
X020577Y031826D01*
X020484Y031920D01*
X019721Y031920D01*
X019627Y031826D01*
X019627Y031207D01*
X019551Y031238D01*
X019409Y031238D01*
X019277Y031184D01*
X019176Y031083D01*
X019122Y030951D01*
X019122Y030833D01*
X019122Y030851D02*
X016540Y030851D01*
X016540Y031009D02*
X019146Y031009D01*
X019261Y031168D02*
X016540Y031168D01*
X016540Y031326D02*
X019627Y031326D01*
X019627Y031485D02*
X016540Y031485D01*
X016540Y031643D02*
X019627Y031643D01*
X019627Y031802D02*
X016540Y031802D01*
X015180Y031020D02*
X015180Y029780D01*
X015300Y029660D01*
X017620Y029660D01*
X017720Y029760D01*
X017720Y030180D01*
X018023Y030217D02*
X018097Y030217D01*
X018097Y030375D02*
X018023Y030375D01*
X018012Y030534D02*
X018108Y030534D01*
X018097Y030058D02*
X018023Y030058D01*
X018005Y029900D02*
X018115Y029900D01*
X017960Y029741D02*
X018642Y029741D01*
X018714Y029900D02*
X025640Y029900D01*
X025640Y030058D02*
X018969Y030058D01*
X019128Y030217D02*
X025640Y030217D01*
X025640Y030375D02*
X019286Y030375D01*
X019579Y030534D02*
X019627Y030534D01*
X018822Y030534D02*
X018721Y030534D01*
X018810Y029570D02*
X018380Y029140D01*
X013740Y029140D01*
X013700Y029100D01*
X013480Y029660D02*
X015300Y029660D01*
X014940Y029900D02*
X014159Y029900D01*
X014321Y030062D01*
X014411Y030062D01*
X014543Y030116D01*
X014644Y030217D01*
X014698Y030349D01*
X014698Y030491D01*
X014644Y030623D01*
X014543Y030724D01*
X014411Y030778D01*
X014269Y030778D01*
X014137Y030724D01*
X014036Y030623D01*
X013982Y030491D01*
X013982Y030401D01*
X013881Y030300D01*
X012992Y030300D01*
X012904Y030263D01*
X012837Y030196D01*
X012261Y029621D01*
X012225Y029533D01*
X012225Y028918D01*
X012207Y028936D01*
X012166Y028960D01*
X012120Y028972D01*
X011860Y028972D01*
X011603Y028972D01*
X011671Y029040D01*
X011831Y029040D01*
X011960Y029169D01*
X012171Y029379D01*
X012171Y029633D01*
X012214Y029633D01*
X012307Y029727D01*
X012307Y031473D01*
X012214Y031567D01*
X011687Y031567D01*
X011669Y031549D01*
X011667Y031551D01*
X011626Y031575D01*
X011581Y031587D01*
X011378Y031587D01*
X011378Y030618D01*
X011342Y030618D01*
X011342Y031587D01*
X011139Y031587D01*
X011094Y031575D01*
X011053Y031551D01*
X011051Y031549D01*
X011033Y031567D01*
X010506Y031567D01*
X010413Y031473D01*
X010413Y029727D01*
X010506Y029633D01*
X010549Y029633D01*
X010549Y029579D01*
X010820Y029309D01*
X010820Y029106D01*
X010783Y029144D01*
X010651Y029198D01*
X010509Y029198D01*
X010377Y029144D01*
X010276Y029043D01*
X010222Y028911D01*
X010222Y028769D01*
X010276Y028637D01*
X010340Y028574D01*
X010340Y028183D01*
X010324Y028223D01*
X010223Y028324D01*
X010091Y028378D01*
X009949Y028378D01*
X009817Y028324D01*
X009716Y028223D01*
X009662Y028091D01*
X009662Y027949D01*
X009716Y027817D01*
X009817Y027716D01*
X009949Y027662D01*
X010020Y027662D01*
X010020Y027599D01*
X009780Y027599D01*
X009687Y027505D01*
X009687Y027360D01*
X004409Y027360D01*
X004280Y027231D01*
X004003Y026954D01*
X002982Y026954D01*
X002971Y026981D01*
X002848Y027104D01*
X002815Y027118D01*
X002840Y027130D01*
X002898Y027172D01*
X002949Y027223D01*
X002991Y027281D01*
X003024Y027346D01*
X003046Y027414D01*
X003057Y027485D01*
X003057Y027513D01*
X002609Y027513D01*
X002609Y027530D01*
X003057Y027530D01*
X003057Y027557D01*
X003046Y027628D01*
X003024Y027697D01*
X002991Y027761D01*
X002949Y027819D01*
X002898Y027870D01*
X002840Y027912D01*
X002775Y027945D01*
X002707Y027967D01*
X002636Y027978D01*
X002609Y027978D01*
X002609Y027530D01*
X002591Y027530D01*
X002591Y027513D01*
X002143Y027513D01*
X002143Y027485D01*
X002154Y027414D01*
X002176Y027346D01*
X002209Y027281D01*
X002251Y027223D01*
X002302Y027172D01*
X002360Y027130D01*
X002385Y027118D01*
X002352Y027104D01*
X002229Y026981D01*
X002163Y026821D01*
X002163Y026647D01*
X002229Y026486D01*
X002352Y026363D01*
X002408Y026340D01*
X002352Y026317D01*
X002229Y026194D01*
X002163Y026033D01*
X002163Y025859D01*
X002229Y025699D01*
X002352Y025576D01*
X002408Y025553D01*
X002352Y025530D01*
X002229Y025407D01*
X002163Y025246D01*
X002163Y025072D01*
X002229Y024911D01*
X002352Y024788D01*
X002380Y024777D01*
X002380Y023935D01*
X002070Y023935D01*
X001976Y023841D01*
X001976Y023079D01*
X002070Y022985D01*
X002951Y022985D01*
X003044Y023079D01*
X003044Y023841D01*
X002951Y023935D01*
X002820Y023935D01*
X002820Y024777D01*
X002848Y024788D01*
X002971Y024911D01*
X002982Y024939D01*
X004570Y024939D01*
X004720Y024789D01*
X004720Y021509D01*
X004960Y021269D01*
X005089Y021140D01*
X018609Y021140D01*
X019620Y020129D01*
X019749Y020000D01*
X021002Y020000D01*
X021002Y019889D01*
X021056Y019757D01*
X021157Y019656D01*
X021289Y019602D01*
X021431Y019602D01*
X021563Y019656D01*
X021664Y019757D01*
X021718Y019889D01*
X021718Y020031D01*
X021664Y020163D01*
X021563Y020264D01*
X021431Y020318D01*
X021313Y020318D01*
X021211Y020420D01*
X021669Y020420D01*
X021840Y020249D01*
X021840Y015589D01*
X021969Y015460D01*
X024029Y013400D01*
X030247Y013400D01*
X030247Y013396D01*
X030341Y013303D01*
X030788Y013303D01*
X030848Y013362D01*
X030854Y013352D01*
X030887Y013318D01*
X030928Y013295D01*
X030974Y013283D01*
X031155Y013283D01*
X031155Y013620D01*
X031155Y013957D01*
X030974Y013957D01*
X030928Y013945D01*
X030887Y013922D01*
X030854Y013888D01*
X030848Y013878D01*
X030788Y013937D01*
X030341Y013937D01*
X030247Y013844D01*
X030247Y013840D01*
X024211Y013840D01*
X022280Y015771D01*
X022280Y020431D01*
X021980Y020731D01*
X021851Y020860D01*
X020371Y020860D01*
X019920Y021311D01*
X019920Y024262D01*
X019931Y024262D01*
X020063Y024316D01*
X020164Y024417D01*
X020218Y024549D01*
X020218Y024691D01*
X020164Y024823D01*
X020063Y024924D01*
X019975Y024960D01*
X020109Y024960D01*
X020320Y024749D01*
X020320Y022269D01*
X020449Y022140D01*
X021169Y021420D01*
X022549Y021420D01*
X022640Y021329D01*
X022640Y016309D01*
X022769Y016180D01*
X023929Y015020D01*
X028328Y015020D01*
X028328Y014938D01*
X028422Y014844D01*
X028869Y014844D01*
X028963Y014938D01*
X028963Y015542D01*
X028869Y015636D01*
X028422Y015636D01*
X028328Y015542D01*
X028328Y015460D01*
X024111Y015460D01*
X023080Y016491D01*
X023080Y021511D01*
X022860Y021731D01*
X022731Y021860D01*
X021351Y021860D01*
X020760Y022451D01*
X020760Y024931D01*
X020420Y025271D01*
X020291Y025400D01*
X014259Y025400D01*
X014259Y026600D01*
X014165Y026693D01*
X013693Y026693D01*
X013979Y026980D01*
X024028Y026980D01*
X024116Y027017D01*
X024439Y027340D01*
X025768Y027340D01*
X025856Y027377D01*
X026016Y027537D01*
X026083Y027604D01*
X026120Y027692D01*
X026120Y030868D01*
X026083Y030956D01*
X025918Y031121D01*
X025918Y031211D01*
X025864Y031343D01*
X025763Y031444D01*
X025631Y031498D01*
X025456Y031485D02*
X022393Y031485D01*
X022393Y031326D02*
X025249Y031326D01*
X025202Y031168D02*
X021975Y031168D01*
X021820Y031168D02*
X020577Y031168D01*
X020577Y031326D02*
X021403Y031326D01*
X021403Y031247D02*
X021820Y031247D01*
X021820Y031940D01*
X021559Y031940D01*
X021513Y031928D01*
X021472Y031904D01*
X021439Y031871D01*
X021415Y031829D01*
X021403Y031784D01*
X021403Y031247D01*
X021403Y031485D02*
X020577Y031485D01*
X020577Y031643D02*
X021403Y031643D01*
X021407Y031802D02*
X020577Y031802D01*
X020577Y031009D02*
X021403Y031009D01*
X021403Y030851D02*
X020577Y030851D01*
X020577Y030692D02*
X021403Y030692D01*
X021408Y030534D02*
X020577Y030534D01*
X021820Y030534D02*
X021975Y030534D01*
X021975Y030692D02*
X021820Y030692D01*
X021820Y030851D02*
X021975Y030851D01*
X021975Y031009D02*
X021820Y031009D01*
X021820Y031326D02*
X021975Y031326D01*
X021975Y031485D02*
X021820Y031485D01*
X021820Y031643D02*
X021975Y031643D01*
X021975Y031802D02*
X021820Y031802D01*
X022393Y031009D02*
X025227Y031009D01*
X025343Y030851D02*
X022393Y030851D01*
X022393Y030692D02*
X025640Y030692D01*
X025640Y030534D02*
X022387Y030534D01*
X022110Y032753D02*
X024116Y032753D01*
X024046Y032911D02*
X022110Y032911D01*
X022110Y033070D02*
X024043Y033070D01*
X024099Y033228D02*
X022110Y033228D01*
X022110Y033387D02*
X024256Y033387D01*
X024110Y033545D02*
X022110Y033545D01*
X022110Y034338D02*
X025771Y034338D01*
X025771Y034496D02*
X022110Y034496D01*
X022110Y034655D02*
X025862Y034655D01*
X025700Y034179D02*
X024692Y034179D01*
X024704Y033387D02*
X028544Y033387D01*
X028544Y033509D02*
X028544Y033062D01*
X028638Y032968D01*
X029242Y032968D01*
X029320Y033046D01*
X029593Y033046D01*
X029682Y033082D01*
X029749Y033150D01*
X030359Y033760D01*
X031694Y033760D01*
X031757Y033696D01*
X031889Y033642D01*
X032031Y033642D01*
X032163Y033696D01*
X032264Y033797D01*
X032318Y033929D01*
X032318Y034071D01*
X032264Y034203D01*
X032163Y034304D01*
X032031Y034358D01*
X031889Y034358D01*
X031757Y034304D01*
X031694Y034240D01*
X030212Y034240D01*
X030124Y034203D01*
X029446Y033526D01*
X029320Y033526D01*
X029242Y033603D01*
X028638Y033603D01*
X028544Y033509D01*
X028579Y033545D02*
X025971Y033545D01*
X026130Y033704D02*
X028611Y033704D01*
X028638Y033677D02*
X028544Y033771D01*
X028544Y034218D01*
X028638Y034312D01*
X029242Y034312D01*
X029312Y034242D01*
X029404Y034244D01*
X029777Y034616D01*
X029844Y034683D01*
X029927Y034718D01*
X029776Y034780D01*
X029590Y034966D01*
X029490Y035209D01*
X029490Y035471D01*
X029590Y035714D01*
X029663Y035786D01*
X027726Y035786D01*
X027552Y035858D01*
X027418Y035992D01*
X027346Y036166D01*
X027346Y040754D01*
X027357Y040780D01*
X024078Y040780D01*
X024061Y040774D01*
X023983Y040780D01*
X023905Y040780D01*
X023888Y040787D01*
X023871Y040788D01*
X023807Y040820D01*
X009558Y040820D01*
X009528Y040810D01*
X009455Y040780D01*
X009438Y040780D01*
X009421Y040774D01*
X009343Y040780D01*
X005623Y040780D01*
X005634Y040754D01*
X005634Y036166D01*
X005562Y035992D01*
X005428Y035858D01*
X005254Y035786D01*
X000667Y035786D01*
X000696Y005846D01*
X000772Y005922D01*
X000946Y005994D01*
X005534Y005994D01*
X005708Y005922D01*
X005842Y005788D01*
X005914Y005614D01*
X005914Y001026D01*
X005842Y000852D01*
X005708Y000718D01*
X005700Y000715D01*
X027655Y000715D01*
X027598Y000772D01*
X027526Y000946D01*
X027526Y005534D01*
X027598Y005708D01*
X027732Y005842D01*
X027906Y005914D01*
X032494Y005914D01*
X032668Y005842D01*
X032715Y005795D01*
X032685Y036145D01*
X032622Y035992D01*
X032488Y035858D01*
X032314Y035786D01*
X030637Y035786D01*
X030710Y035714D01*
X030810Y035471D01*
X030810Y035251D01*
X030919Y035360D01*
X031341Y035360D01*
X031640Y035061D01*
X031640Y034639D01*
X031341Y034340D01*
X030959Y034340D01*
X030896Y034277D01*
X030808Y034240D01*
X030079Y034240D01*
X029677Y033838D01*
X029646Y033805D01*
X029643Y033804D01*
X029642Y033802D01*
X029600Y033785D01*
X029558Y033767D01*
X029556Y033767D01*
X029553Y033766D01*
X029508Y033766D01*
X029328Y033762D01*
X029242Y033677D01*
X028638Y033677D01*
X028544Y033862D02*
X026601Y033862D01*
X026669Y034021D02*
X028544Y034021D01*
X028544Y034179D02*
X026669Y034179D01*
X026669Y034338D02*
X029498Y034338D01*
X029657Y034496D02*
X026669Y034496D01*
X026578Y034655D02*
X029815Y034655D01*
X029744Y034813D02*
X022110Y034813D01*
X022110Y034972D02*
X029588Y034972D01*
X029523Y035130D02*
X022056Y035130D01*
X019944Y035130D02*
X000668Y035130D01*
X000668Y034972D02*
X019890Y034972D01*
X019890Y034813D02*
X003341Y034813D01*
X003496Y034655D02*
X019890Y034655D01*
X018810Y029570D02*
X025130Y029570D01*
X025130Y029070D02*
X025130Y028570D01*
X013670Y028570D01*
X013560Y028460D01*
X013970Y028070D02*
X013200Y027860D01*
X013591Y027640D02*
X013095Y027143D01*
X012780Y027143D02*
X012780Y028960D01*
X013480Y029660D01*
X013040Y030060D02*
X013980Y030060D01*
X014340Y030420D01*
X013999Y030534D02*
X012307Y030534D01*
X012307Y030692D02*
X014106Y030692D01*
X013956Y030375D02*
X012307Y030375D01*
X012307Y030217D02*
X012857Y030217D01*
X012699Y030058D02*
X012307Y030058D01*
X012307Y029900D02*
X012540Y029900D01*
X012382Y029741D02*
X012307Y029741D01*
X012246Y029583D02*
X012171Y029583D01*
X012171Y029424D02*
X012225Y029424D01*
X012225Y029266D02*
X012057Y029266D01*
X011960Y029169D02*
X011960Y029169D01*
X011898Y029107D02*
X012225Y029107D01*
X012225Y028949D02*
X012185Y028949D01*
X011860Y028949D02*
X011860Y028949D01*
X011860Y028972D02*
X011860Y028634D01*
X011860Y028634D01*
X011860Y028972D01*
X011860Y028790D02*
X011860Y028790D01*
X012465Y029485D02*
X013040Y030060D01*
X012465Y029485D02*
X012465Y027143D01*
X012150Y027143D02*
X012150Y026550D01*
X012300Y026400D01*
X013060Y026400D01*
X013880Y027220D01*
X023980Y027220D01*
X024340Y027580D01*
X025720Y027580D01*
X025880Y027740D01*
X025880Y030820D01*
X025560Y031140D01*
X025918Y031168D02*
X026220Y031168D01*
X026061Y031326D02*
X025871Y031326D01*
X026030Y031009D02*
X026406Y031009D01*
X026558Y030880D02*
X026524Y030847D01*
X026500Y030806D01*
X026488Y030760D01*
X026488Y030500D01*
X026826Y030500D01*
X027163Y030500D01*
X027163Y030760D01*
X027151Y030806D01*
X027127Y030847D01*
X027094Y030880D01*
X027053Y030904D01*
X027007Y030916D01*
X026826Y030916D01*
X026826Y030500D01*
X026826Y030500D01*
X027163Y030500D01*
X027163Y030240D01*
X027151Y030194D01*
X027127Y030153D01*
X027094Y030120D01*
X027053Y030096D01*
X027007Y030084D01*
X026826Y030084D01*
X026826Y030500D01*
X026826Y030500D01*
X026826Y030500D01*
X026826Y030916D01*
X026644Y030916D01*
X026599Y030904D01*
X026558Y030880D01*
X026528Y030851D02*
X026120Y030851D01*
X026120Y030692D02*
X026488Y030692D01*
X026488Y030534D02*
X026120Y030534D01*
X026120Y030375D02*
X026488Y030375D01*
X026488Y030500D02*
X026488Y030240D01*
X026500Y030194D01*
X026524Y030153D01*
X026558Y030120D01*
X026599Y030096D01*
X026644Y030084D01*
X026826Y030084D01*
X026826Y030500D01*
X026488Y030500D01*
X026494Y030217D02*
X026120Y030217D01*
X026120Y030058D02*
X027294Y030058D01*
X027294Y029900D02*
X026120Y029900D01*
X026120Y029741D02*
X026582Y029741D01*
X026423Y029583D02*
X026120Y029583D01*
X026120Y029424D02*
X026295Y029424D01*
X026280Y029266D02*
X026120Y029266D01*
X026120Y029107D02*
X026280Y029107D01*
X026280Y028949D02*
X026120Y028949D01*
X026120Y028790D02*
X026280Y028790D01*
X026280Y028632D02*
X026120Y028632D01*
X026120Y028473D02*
X026280Y028473D01*
X026280Y028315D02*
X026120Y028315D01*
X026120Y028156D02*
X026280Y028156D01*
X026280Y027998D02*
X026120Y027998D01*
X026120Y027839D02*
X026280Y027839D01*
X026280Y027681D02*
X026115Y027681D01*
X026001Y027522D02*
X026243Y027522D01*
X026084Y027364D02*
X025825Y027364D01*
X026040Y026980D02*
X026520Y027460D01*
X026520Y029340D01*
X026740Y029560D01*
X027540Y029560D01*
X027550Y029570D01*
X027534Y029586D01*
X027534Y030500D01*
X027980Y030500D01*
X028000Y030480D01*
X028000Y030120D01*
X028200Y029920D01*
X028200Y029740D01*
X028360Y029580D01*
X028840Y029580D01*
X028880Y029540D01*
X029220Y029424D02*
X029608Y029424D01*
X029896Y029583D02*
X029238Y029583D01*
X029184Y029741D02*
X031306Y029741D01*
X031465Y029583D02*
X031024Y029583D01*
X031312Y029424D02*
X031600Y029424D01*
X031600Y029266D02*
X031437Y029266D01*
X031503Y029107D02*
X031600Y029107D01*
X031600Y028949D02*
X031506Y028949D01*
X031477Y028790D02*
X031600Y028790D01*
X031600Y028632D02*
X031407Y028632D01*
X031249Y028473D02*
X031600Y028473D01*
X031600Y028315D02*
X029300Y028315D01*
X029300Y028473D02*
X029671Y028473D01*
X029513Y028632D02*
X029208Y028632D01*
X029026Y028790D02*
X029443Y028790D01*
X029060Y028440D02*
X029060Y027140D01*
X029240Y026960D01*
X030440Y026960D01*
X030460Y026980D01*
X031108Y026413D02*
X031600Y026413D01*
X031600Y026571D02*
X031347Y026571D01*
X031452Y026730D02*
X031600Y026730D01*
X031600Y026888D02*
X031506Y026888D01*
X031506Y027047D02*
X031600Y027047D01*
X031600Y027205D02*
X031462Y027205D01*
X031372Y027364D02*
X031600Y027364D01*
X031600Y027522D02*
X031170Y027522D01*
X031600Y027681D02*
X029300Y027681D01*
X029300Y027839D02*
X031600Y027839D01*
X031600Y027998D02*
X029300Y027998D01*
X029300Y028156D02*
X031600Y028156D01*
X032240Y028156D02*
X032693Y028156D01*
X032693Y027998D02*
X032240Y027998D01*
X032240Y027839D02*
X032693Y027839D01*
X032693Y027681D02*
X032240Y027681D01*
X032240Y027522D02*
X032693Y027522D01*
X032694Y027364D02*
X032240Y027364D01*
X032240Y027205D02*
X032694Y027205D01*
X032694Y027047D02*
X032240Y027047D01*
X032240Y026888D02*
X032694Y026888D01*
X032694Y026730D02*
X032240Y026730D01*
X032240Y026571D02*
X032694Y026571D01*
X032694Y026413D02*
X032240Y026413D01*
X032240Y026254D02*
X032695Y026254D01*
X032695Y026096D02*
X032240Y026096D01*
X032240Y025937D02*
X032695Y025937D01*
X032695Y025779D02*
X032240Y025779D01*
X032240Y025620D02*
X032695Y025620D01*
X032695Y025462D02*
X032240Y025462D01*
X032240Y025303D02*
X032696Y025303D01*
X032696Y025145D02*
X032240Y025145D01*
X032240Y024986D02*
X032696Y024986D01*
X032696Y024828D02*
X032240Y024828D01*
X032240Y024669D02*
X032696Y024669D01*
X032696Y024511D02*
X032240Y024511D01*
X032240Y024352D02*
X032696Y024352D01*
X032697Y024194D02*
X032214Y024194D01*
X032088Y024035D02*
X032697Y024035D01*
X032697Y023877D02*
X031884Y023877D01*
X031640Y023747D02*
X031617Y023788D01*
X031583Y023822D01*
X031542Y023845D01*
X031496Y023857D01*
X031315Y023857D01*
X031315Y023520D01*
X031315Y023520D01*
X031315Y023183D01*
X031496Y023183D01*
X031542Y023195D01*
X031583Y023218D01*
X031617Y023252D01*
X031640Y023293D01*
X031653Y023339D01*
X031653Y023520D01*
X031653Y023701D01*
X031640Y023747D01*
X031648Y023718D02*
X032697Y023718D01*
X032697Y023560D02*
X031653Y023560D01*
X031653Y023520D02*
X031315Y023520D01*
X031315Y023520D01*
X031653Y023520D01*
X031653Y023401D02*
X032697Y023401D01*
X032698Y023243D02*
X031607Y023243D01*
X031556Y022996D02*
X031374Y022996D01*
X031193Y022996D01*
X031147Y022984D01*
X031106Y022960D01*
X031073Y022927D01*
X031049Y022886D01*
X031037Y022840D01*
X031037Y022580D01*
X031037Y022320D01*
X031049Y022274D01*
X031073Y022233D01*
X031106Y022200D01*
X031147Y022176D01*
X031193Y022164D01*
X031374Y022164D01*
X031374Y022580D01*
X031037Y022580D01*
X031374Y022580D01*
X031374Y022580D01*
X031374Y022996D01*
X031374Y022580D01*
X031374Y022580D01*
X031374Y022580D01*
X031374Y022164D01*
X031556Y022164D01*
X031601Y022176D01*
X031642Y022200D01*
X031676Y022233D01*
X031700Y022274D01*
X031712Y022320D01*
X031712Y022580D01*
X031712Y022840D01*
X031700Y022886D01*
X031676Y022927D01*
X031642Y022960D01*
X031601Y022984D01*
X031556Y022996D01*
X031677Y022926D02*
X032698Y022926D01*
X032698Y023084D02*
X028960Y023084D01*
X028960Y022926D02*
X028991Y022926D01*
X028720Y022580D02*
X028640Y022660D01*
X028720Y022580D02*
X029266Y022580D01*
X029583Y022609D02*
X029657Y022609D01*
X029657Y022767D02*
X029583Y022767D01*
X029540Y022926D02*
X029700Y022926D01*
X029657Y023243D02*
X029583Y023243D01*
X029583Y023401D02*
X029657Y023401D01*
X029657Y023560D02*
X029583Y023560D01*
X029583Y023718D02*
X029657Y023718D01*
X029974Y023540D02*
X030705Y023540D01*
X030725Y023520D01*
X030988Y023243D02*
X031023Y023243D01*
X031315Y023243D02*
X031315Y023243D01*
X031315Y023401D02*
X031315Y023401D01*
X031315Y023560D02*
X031315Y023560D01*
X031315Y023718D02*
X031315Y023718D01*
X031286Y024511D02*
X031600Y024511D01*
X031600Y024669D02*
X031427Y024669D01*
X031492Y024828D02*
X031600Y024828D01*
X031600Y024986D02*
X031506Y024986D01*
X031487Y025145D02*
X031600Y025145D01*
X031600Y025303D02*
X031422Y025303D01*
X031274Y025462D02*
X031600Y025462D01*
X031600Y025620D02*
X024414Y025620D01*
X024414Y025462D02*
X025846Y025462D01*
X025846Y025303D02*
X024414Y025303D01*
X024414Y025145D02*
X025846Y025145D01*
X025846Y024986D02*
X025939Y024892D01*
X026046Y024892D01*
X026046Y024800D01*
X026008Y024669D02*
X024414Y024669D01*
X024414Y024511D02*
X026008Y024511D01*
X026008Y024352D02*
X024492Y024352D01*
X024492Y024194D02*
X026008Y024194D01*
X025616Y024035D02*
X024492Y024035D01*
X024492Y023877D02*
X025539Y023877D01*
X025539Y023718D02*
X024454Y023718D01*
X024454Y023560D02*
X025539Y023560D01*
X025539Y023401D02*
X024844Y023401D01*
X024844Y023243D02*
X025539Y023243D01*
X025539Y023084D02*
X024844Y023084D01*
X024844Y022926D02*
X025539Y022926D01*
X025714Y022767D02*
X024844Y022767D01*
X024753Y022609D02*
X025714Y022609D01*
X025714Y022450D02*
X024659Y022450D01*
X024659Y022292D02*
X025714Y022292D01*
X025716Y022133D02*
X024659Y022133D01*
X024659Y021975D02*
X025741Y021975D01*
X025741Y021816D02*
X024659Y021816D01*
X024608Y021658D02*
X025792Y021658D01*
X026403Y021658D02*
X026906Y021658D01*
X026860Y021499D02*
X023080Y021499D01*
X023080Y021341D02*
X026860Y021341D01*
X026860Y021182D02*
X023080Y021182D01*
X023080Y021024D02*
X026860Y021024D01*
X026860Y020865D02*
X023080Y020865D01*
X023080Y020707D02*
X026860Y020707D01*
X026860Y020548D02*
X026406Y020548D01*
X026407Y020547D02*
X026374Y020580D01*
X026332Y020604D01*
X026287Y020616D01*
X025280Y020616D01*
X025280Y019296D01*
X025120Y019296D01*
X025120Y020616D01*
X024113Y020616D01*
X024068Y020604D01*
X024026Y020580D01*
X023993Y020547D01*
X023969Y020506D01*
X023957Y020460D01*
X023957Y019296D01*
X025120Y019296D01*
X025120Y019136D01*
X023957Y019136D01*
X023957Y017972D01*
X023969Y017926D01*
X023993Y017885D01*
X024026Y017851D01*
X024068Y017828D01*
X024113Y017815D01*
X025120Y017815D01*
X025120Y019136D01*
X025280Y019136D01*
X025280Y019296D01*
X026443Y019296D01*
X026443Y020460D01*
X026431Y020506D01*
X026407Y020547D01*
X026443Y020390D02*
X026860Y020390D01*
X026860Y020231D02*
X026443Y020231D01*
X026443Y020073D02*
X026860Y020073D01*
X026860Y019914D02*
X026443Y019914D01*
X026443Y019756D02*
X026860Y019756D01*
X026860Y019597D02*
X026443Y019597D01*
X026443Y019439D02*
X026860Y019439D01*
X026860Y019280D02*
X025280Y019280D01*
X025280Y019136D02*
X026443Y019136D01*
X026443Y017972D01*
X026431Y017926D01*
X026407Y017885D01*
X026374Y017851D01*
X026332Y017828D01*
X026287Y017815D01*
X025280Y017815D01*
X025280Y019136D01*
X025280Y019122D02*
X025120Y019122D01*
X025120Y019280D02*
X023080Y019280D01*
X023080Y019122D02*
X023957Y019122D01*
X023957Y018963D02*
X023080Y018963D01*
X023080Y018805D02*
X023957Y018805D01*
X023957Y018646D02*
X023080Y018646D01*
X023080Y018488D02*
X023957Y018488D01*
X023957Y018329D02*
X023080Y018329D01*
X023080Y018171D02*
X023957Y018171D01*
X023957Y018012D02*
X023080Y018012D01*
X023080Y017854D02*
X024024Y017854D01*
X023080Y017695D02*
X026880Y017695D01*
X026753Y017854D02*
X026376Y017854D01*
X026443Y018012D02*
X026722Y018012D01*
X026763Y018171D02*
X026443Y018171D01*
X026443Y018329D02*
X026860Y018329D01*
X026860Y018488D02*
X026443Y018488D01*
X026443Y018646D02*
X026860Y018646D01*
X026860Y018805D02*
X026443Y018805D01*
X026443Y018963D02*
X026860Y018963D01*
X026860Y019122D02*
X026443Y019122D01*
X027300Y019122D02*
X032702Y019122D01*
X032701Y019280D02*
X027300Y019280D01*
X027300Y019439D02*
X032701Y019439D01*
X032701Y019597D02*
X027300Y019597D01*
X027300Y019756D02*
X032701Y019756D01*
X032701Y019914D02*
X027300Y019914D01*
X027300Y020073D02*
X032701Y020073D01*
X032701Y020231D02*
X027300Y020231D01*
X027300Y020390D02*
X032700Y020390D01*
X032700Y020548D02*
X027300Y020548D01*
X027300Y020707D02*
X032700Y020707D01*
X032700Y020865D02*
X027300Y020865D01*
X027300Y021024D02*
X032700Y021024D01*
X032700Y021182D02*
X027300Y021182D01*
X027300Y021341D02*
X032699Y021341D01*
X032699Y021499D02*
X027370Y021499D01*
X027065Y021816D02*
X026454Y021816D01*
X026454Y021975D02*
X027223Y021975D01*
X027441Y022780D02*
X027487Y022768D01*
X027738Y022768D01*
X027738Y023352D01*
X027873Y023352D01*
X027873Y022768D01*
X028124Y022768D01*
X028170Y022780D01*
X028211Y022804D01*
X028245Y022837D01*
X028269Y022878D01*
X028281Y022924D01*
X028281Y023352D01*
X027873Y023352D01*
X027873Y023488D01*
X027738Y023488D01*
X027738Y024072D01*
X027487Y024072D01*
X027441Y024060D01*
X027400Y024036D01*
X027366Y024003D01*
X027343Y023962D01*
X027330Y023916D01*
X027330Y023488D01*
X027738Y023488D01*
X027738Y023352D01*
X027330Y023352D01*
X027330Y022924D01*
X027343Y022878D01*
X027366Y022837D01*
X027400Y022804D01*
X027441Y022780D01*
X027330Y022926D02*
X026450Y022926D01*
X026450Y023084D02*
X027330Y023084D01*
X027330Y023243D02*
X026450Y023243D01*
X026450Y023401D02*
X027738Y023401D01*
X027873Y023401D02*
X028320Y023401D01*
X028281Y023488D02*
X028281Y023916D01*
X028269Y023962D01*
X028245Y024003D01*
X028211Y024036D01*
X028170Y024060D01*
X028124Y024072D01*
X027873Y024072D01*
X027873Y023488D01*
X028281Y023488D01*
X028281Y023560D02*
X028320Y023560D01*
X028320Y023718D02*
X028281Y023718D01*
X028281Y023877D02*
X028320Y023877D01*
X028320Y024035D02*
X028213Y024035D01*
X028401Y024194D02*
X027370Y024194D01*
X027372Y024352D02*
X028559Y024352D01*
X028180Y024828D02*
X029428Y024828D01*
X029493Y024669D02*
X027372Y024669D01*
X027372Y024511D02*
X029634Y024511D01*
X029266Y023540D02*
X028800Y023540D01*
X028640Y023700D01*
X028320Y023243D02*
X028281Y023243D01*
X028281Y023084D02*
X028320Y023084D01*
X028320Y022926D02*
X028281Y022926D01*
X028320Y022767D02*
X026274Y022767D01*
X026536Y023560D02*
X027330Y023560D01*
X027330Y023718D02*
X026600Y023718D01*
X026600Y023877D02*
X027330Y023877D01*
X027398Y024035D02*
X026600Y024035D01*
X026643Y024194D02*
X026699Y024194D01*
X026697Y024352D02*
X026643Y024352D01*
X026643Y024511D02*
X026697Y024511D01*
X026697Y024669D02*
X026643Y024669D01*
X026606Y024828D02*
X026754Y024828D01*
X026874Y024986D02*
X026874Y025512D01*
X026781Y025994D02*
X026817Y026031D01*
X027315Y026031D01*
X027432Y026080D01*
X027789Y026436D01*
X028096Y026436D01*
X028189Y026530D01*
X028189Y027163D01*
X028096Y027256D01*
X027384Y027256D01*
X027291Y027163D01*
X027291Y026843D01*
X027119Y026671D01*
X026817Y026671D01*
X026781Y026708D01*
X025939Y026708D01*
X025846Y026614D01*
X025846Y026088D01*
X025939Y025994D01*
X026781Y025994D01*
X027448Y026096D02*
X031600Y026096D01*
X031600Y026254D02*
X027607Y026254D01*
X027765Y026413D02*
X029812Y026413D01*
X029573Y026571D02*
X028189Y026571D01*
X028189Y026730D02*
X029169Y026730D01*
X028973Y026888D02*
X028189Y026888D01*
X028189Y027047D02*
X028839Y027047D01*
X028820Y027205D02*
X028147Y027205D01*
X027974Y027760D02*
X028019Y027772D01*
X028061Y027796D01*
X028094Y027829D01*
X028118Y027871D01*
X028130Y027916D01*
X028130Y028070D01*
X027550Y028070D01*
X027550Y028070D01*
X027550Y027760D01*
X027974Y027760D01*
X028100Y027839D02*
X028820Y027839D01*
X028820Y027681D02*
X026760Y027681D01*
X026760Y027839D02*
X027000Y027839D01*
X027006Y027829D02*
X027039Y027796D01*
X027081Y027772D01*
X027126Y027760D01*
X027550Y027760D01*
X027550Y028070D01*
X027550Y028070D01*
X027550Y028070D01*
X026970Y028070D01*
X026970Y027916D01*
X026982Y027871D01*
X027006Y027829D01*
X026970Y027998D02*
X026760Y027998D01*
X026760Y028156D02*
X026970Y028156D01*
X027010Y028315D02*
X026760Y028315D01*
X026760Y028473D02*
X026990Y028473D01*
X026990Y028632D02*
X026760Y028632D01*
X026760Y028790D02*
X027014Y028790D01*
X026990Y028949D02*
X026760Y028949D01*
X026760Y029107D02*
X026990Y029107D01*
X026990Y029266D02*
X026785Y029266D01*
X027550Y029070D02*
X030370Y029070D01*
X030460Y028980D01*
X029750Y027522D02*
X029300Y027522D01*
X029300Y027364D02*
X029548Y027364D01*
X029458Y027205D02*
X029334Y027205D01*
X028820Y027364D02*
X026740Y027364D01*
X026760Y027522D02*
X028820Y027522D01*
X028820Y027998D02*
X028130Y027998D01*
X028130Y028156D02*
X028820Y028156D01*
X028820Y028315D02*
X028090Y028315D01*
X027550Y028570D02*
X028930Y028570D01*
X029060Y028440D01*
X027550Y027998D02*
X027550Y027998D01*
X027550Y027839D02*
X027550Y027839D01*
X027333Y027205D02*
X026604Y027205D01*
X026446Y027047D02*
X027291Y027047D01*
X027291Y026888D02*
X026287Y026888D01*
X026040Y026980D02*
X024540Y026980D01*
X024174Y026614D01*
X024174Y024120D01*
X023857Y024194D02*
X023803Y024194D01*
X023803Y024120D02*
X023803Y024380D01*
X023791Y024426D01*
X023767Y024467D01*
X023734Y024500D01*
X023693Y024524D01*
X023647Y024536D01*
X023466Y024536D01*
X023466Y024120D01*
X023803Y024120D01*
X023466Y024120D01*
X023466Y024120D01*
X023466Y024120D01*
X023466Y023704D01*
X023647Y023704D01*
X023693Y023716D01*
X023734Y023740D01*
X023767Y023773D01*
X023791Y023814D01*
X023803Y023860D01*
X023803Y024120D01*
X023803Y024035D02*
X023857Y024035D01*
X023857Y023877D02*
X023803Y023877D01*
X023894Y023718D02*
X023696Y023718D01*
X023466Y023718D02*
X023466Y023718D01*
X023466Y023704D02*
X023284Y023704D01*
X023239Y023716D01*
X023198Y023740D01*
X023164Y023773D01*
X023140Y023814D01*
X023128Y023860D01*
X023128Y024120D01*
X023466Y024120D01*
X023466Y024120D01*
X023466Y024536D01*
X023284Y024536D01*
X023239Y024524D01*
X023198Y024500D01*
X023164Y024467D01*
X023140Y024426D01*
X023128Y024380D01*
X023128Y024120D01*
X023466Y024120D01*
X023466Y023704D01*
X023408Y023575D02*
X023088Y023575D01*
X023088Y023157D01*
X023564Y023157D01*
X023564Y023419D01*
X023552Y023464D01*
X023528Y023505D01*
X023495Y023539D01*
X023454Y023563D01*
X023408Y023575D01*
X023459Y023560D02*
X023894Y023560D01*
X023776Y023401D02*
X023564Y023401D01*
X023564Y023243D02*
X023776Y023243D01*
X023776Y023084D02*
X023088Y023084D01*
X023088Y023157D02*
X023088Y023003D01*
X023564Y023003D01*
X023564Y022741D01*
X023552Y022696D01*
X023528Y022655D01*
X023495Y022621D01*
X023454Y022597D01*
X023408Y022585D01*
X023088Y022585D01*
X023088Y023003D01*
X022933Y023003D01*
X022456Y023003D01*
X022456Y022741D01*
X022469Y022696D01*
X022492Y022655D01*
X022526Y022621D01*
X022567Y022597D01*
X022613Y022585D01*
X022933Y022585D01*
X022933Y023003D01*
X022933Y023157D01*
X022456Y023157D01*
X022456Y023419D01*
X022469Y023464D01*
X022492Y023505D01*
X022526Y023539D01*
X022567Y023563D01*
X022613Y023575D01*
X022933Y023575D01*
X022933Y023157D01*
X023088Y023157D01*
X023088Y023243D02*
X022933Y023243D01*
X022933Y023401D02*
X023088Y023401D01*
X023088Y023560D02*
X022933Y023560D01*
X023235Y023718D02*
X020760Y023718D01*
X020760Y023560D02*
X022561Y023560D01*
X022456Y023401D02*
X020760Y023401D01*
X020760Y023243D02*
X022456Y023243D01*
X022456Y022926D02*
X020760Y022926D01*
X020760Y023084D02*
X022933Y023084D01*
X022933Y022926D02*
X023088Y022926D01*
X023088Y022767D02*
X022933Y022767D01*
X022933Y022609D02*
X023088Y022609D01*
X023224Y022450D02*
X020761Y022450D01*
X020760Y022609D02*
X022547Y022609D01*
X022456Y022767D02*
X020760Y022767D01*
X020920Y022292D02*
X023130Y022292D01*
X023122Y022133D02*
X021078Y022133D01*
X021237Y021975D02*
X023199Y021975D01*
X022934Y021658D02*
X023997Y021658D01*
X023946Y021816D02*
X022775Y021816D01*
X022628Y021341D02*
X019920Y021341D01*
X019920Y021499D02*
X021090Y021499D01*
X020931Y021658D02*
X019920Y021658D01*
X019920Y021816D02*
X020773Y021816D01*
X020614Y021975D02*
X019920Y021975D01*
X019920Y022133D02*
X020456Y022133D01*
X020320Y022292D02*
X019920Y022292D01*
X019920Y022450D02*
X020320Y022450D01*
X020320Y022609D02*
X019920Y022609D01*
X019920Y022767D02*
X020320Y022767D01*
X020320Y022926D02*
X019920Y022926D01*
X019920Y023084D02*
X020320Y023084D01*
X020320Y023243D02*
X019920Y023243D01*
X019920Y023401D02*
X020320Y023401D01*
X020320Y023560D02*
X019920Y023560D01*
X019920Y023718D02*
X020320Y023718D01*
X020320Y023877D02*
X019920Y023877D01*
X019920Y024035D02*
X020320Y024035D01*
X020320Y024194D02*
X019920Y024194D01*
X020098Y024352D02*
X020320Y024352D01*
X020320Y024511D02*
X020202Y024511D01*
X020218Y024669D02*
X020320Y024669D01*
X020241Y024828D02*
X020159Y024828D01*
X019745Y024960D02*
X019657Y024924D01*
X019556Y024823D01*
X019502Y024691D01*
X019502Y024573D01*
X019480Y024551D01*
X019480Y021129D01*
X019609Y021000D01*
X020060Y020549D01*
X020060Y020549D01*
X020169Y020440D01*
X019931Y020440D01*
X018791Y021580D01*
X012172Y021580D01*
X012172Y022121D01*
X013260Y022121D01*
X013353Y022215D01*
X013353Y022938D01*
X013260Y023032D01*
X012055Y023032D01*
X012055Y023356D01*
X012020Y023391D01*
X011891Y023520D01*
X011420Y023520D01*
X011420Y024089D01*
X011656Y024325D01*
X013348Y024325D01*
X013348Y023120D01*
X013442Y023027D01*
X014165Y023027D01*
X014259Y023120D01*
X014259Y023695D01*
X018034Y023695D01*
X018500Y023229D01*
X018500Y022169D01*
X018622Y022047D01*
X018622Y021929D01*
X018676Y021797D01*
X018777Y021696D01*
X018909Y021642D01*
X019051Y021642D01*
X019183Y021696D01*
X019284Y021797D01*
X019338Y021929D01*
X019338Y022071D01*
X019284Y022203D01*
X019183Y022304D01*
X019051Y022358D01*
X018940Y022358D01*
X018940Y023411D01*
X018811Y023540D01*
X018216Y024135D01*
X015694Y024135D01*
X015702Y024140D01*
X015736Y024173D01*
X015760Y024214D01*
X015772Y024260D01*
X015772Y024520D01*
X015772Y024780D01*
X015760Y024826D01*
X015736Y024867D01*
X015702Y024900D01*
X015661Y024924D01*
X015616Y024936D01*
X015434Y024936D01*
X015253Y024936D01*
X015207Y024924D01*
X015166Y024900D01*
X015133Y024867D01*
X015109Y024826D01*
X015097Y024780D01*
X015097Y024520D01*
X015097Y024260D01*
X015109Y024214D01*
X015133Y024173D01*
X015166Y024140D01*
X015174Y024135D01*
X014961Y024135D01*
X015043Y024218D01*
X015043Y024822D01*
X014949Y024916D01*
X014502Y024916D01*
X014408Y024822D01*
X014408Y024765D01*
X014279Y024765D01*
X014279Y024860D01*
X014279Y024960D01*
X019745Y024960D01*
X019561Y024828D02*
X015758Y024828D01*
X015772Y024669D02*
X019502Y024669D01*
X019480Y024511D02*
X015772Y024511D01*
X015772Y024520D02*
X015434Y024520D01*
X015097Y024520D01*
X015434Y024520D01*
X015434Y024520D01*
X015434Y024936D01*
X015434Y024520D01*
X015434Y024520D01*
X015772Y024520D01*
X015772Y024352D02*
X019480Y024352D01*
X019480Y024194D02*
X015748Y024194D01*
X015434Y024520D02*
X015434Y024520D01*
X015434Y024669D02*
X015434Y024669D01*
X015434Y024828D02*
X015434Y024828D01*
X015110Y024828D02*
X015038Y024828D01*
X015043Y024669D02*
X015097Y024669D01*
X015097Y024511D02*
X015043Y024511D01*
X015043Y024352D02*
X015097Y024352D01*
X015121Y024194D02*
X015019Y024194D01*
X014413Y024828D02*
X014279Y024828D01*
X014279Y024860D02*
X013803Y024860D01*
X013328Y024860D01*
X013328Y024765D01*
X012055Y024765D01*
X012055Y026306D01*
X012097Y026264D01*
X012164Y026197D01*
X012252Y026160D01*
X013108Y026160D01*
X013196Y026197D01*
X013348Y026349D01*
X013348Y026270D01*
X013348Y025041D01*
X013340Y025028D01*
X013328Y024982D01*
X013328Y024860D01*
X013803Y024860D01*
X013803Y024860D01*
X014279Y024860D01*
X013803Y024860D02*
X013803Y024860D01*
X013328Y024828D02*
X012055Y024828D01*
X012055Y024986D02*
X013329Y024986D01*
X013348Y025145D02*
X012055Y025145D01*
X012055Y025303D02*
X013348Y025303D01*
X013348Y025462D02*
X012055Y025462D01*
X012055Y025620D02*
X013348Y025620D01*
X013348Y025779D02*
X012055Y025779D01*
X012055Y025937D02*
X013348Y025937D01*
X013348Y026096D02*
X012055Y026096D01*
X012055Y026254D02*
X012107Y026254D01*
X011615Y026254D02*
X009692Y026254D01*
X009692Y026096D02*
X011615Y026096D01*
X011615Y025937D02*
X009692Y025937D01*
X009692Y025779D02*
X011615Y025779D01*
X011615Y025620D02*
X009692Y025620D01*
X009692Y025462D02*
X011615Y025462D01*
X011615Y025303D02*
X009692Y025303D01*
X009692Y025145D02*
X011615Y025145D01*
X011615Y024986D02*
X010965Y024986D01*
X010871Y025080D02*
X009692Y025080D01*
X009692Y026600D01*
X009598Y026693D01*
X008875Y026693D01*
X008842Y026660D01*
X008229Y026660D01*
X008100Y026531D01*
X007729Y026160D01*
X005072Y026160D01*
X005072Y026242D01*
X004978Y026336D01*
X004531Y026336D01*
X004437Y026242D01*
X004437Y025638D01*
X004531Y025544D01*
X004978Y025544D01*
X005072Y025638D01*
X005072Y025720D01*
X007911Y025720D01*
X008411Y026220D01*
X008541Y026220D01*
X008337Y026017D01*
X008257Y025984D01*
X008156Y025883D01*
X008102Y025751D01*
X008102Y025609D01*
X008156Y025477D01*
X008257Y025376D01*
X008389Y025322D01*
X008531Y025322D01*
X008663Y025376D01*
X008764Y025477D01*
X008781Y025520D01*
X008781Y025080D01*
X008654Y025080D01*
X008562Y025172D01*
X007958Y025172D01*
X007866Y025080D01*
X007689Y025080D01*
X007424Y024815D01*
X007380Y024859D01*
X007380Y024874D01*
X007444Y024937D01*
X007498Y025069D01*
X007498Y025211D01*
X007444Y025343D01*
X007343Y025444D01*
X007211Y025498D01*
X007069Y025498D01*
X006937Y025444D01*
X006836Y025343D01*
X006782Y025211D01*
X006782Y025069D01*
X006836Y024937D01*
X006900Y024874D01*
X006900Y024712D01*
X006937Y024624D01*
X007277Y024284D01*
X007280Y024281D01*
X007280Y021580D01*
X005271Y021580D01*
X005160Y021691D01*
X005160Y024971D01*
X005031Y025100D01*
X004752Y025379D01*
X002982Y025379D01*
X002971Y025407D01*
X002848Y025530D01*
X002792Y025553D01*
X002848Y025576D01*
X002971Y025699D01*
X002982Y025726D01*
X003728Y025726D01*
X003728Y025638D01*
X003822Y025544D01*
X004269Y025544D01*
X004363Y025638D01*
X004363Y026242D01*
X004269Y026336D01*
X003822Y026336D01*
X003728Y026242D01*
X003728Y026166D01*
X002982Y026166D01*
X002971Y026194D01*
X002848Y026317D01*
X002792Y026340D01*
X002848Y026363D01*
X002971Y026486D01*
X002982Y026514D01*
X004185Y026514D01*
X004591Y026920D01*
X009687Y026920D01*
X009687Y026782D01*
X009780Y026688D01*
X011339Y026688D01*
X011352Y026680D01*
X011398Y026668D01*
X011520Y026668D01*
X011615Y026668D01*
X011615Y024906D01*
X011345Y024636D01*
X011330Y024621D01*
X011291Y024660D01*
X010871Y025080D01*
X011124Y024828D02*
X011536Y024828D01*
X011378Y024669D02*
X011282Y024669D01*
X010977Y024352D02*
X009692Y024352D01*
X009692Y024364D02*
X009700Y024377D01*
X009712Y024423D01*
X009712Y024545D01*
X009237Y024545D01*
X009237Y024545D01*
X009712Y024545D01*
X009712Y024640D01*
X010689Y024640D01*
X010980Y024349D01*
X010980Y023032D01*
X009780Y023032D01*
X009687Y022938D01*
X009687Y022215D01*
X009780Y022121D01*
X010819Y022121D01*
X010808Y022080D01*
X010808Y021820D01*
X011146Y021820D01*
X010808Y021820D01*
X010808Y021580D01*
X007720Y021580D01*
X007720Y024364D01*
X007740Y024412D01*
X007740Y024508D01*
X007740Y024509D01*
X007864Y024633D01*
X007864Y024631D01*
X007958Y024537D01*
X008562Y024537D01*
X008656Y024631D01*
X008656Y024640D01*
X008761Y024640D01*
X008761Y024545D01*
X008761Y024423D01*
X008774Y024377D01*
X008781Y024364D01*
X008781Y023120D01*
X008875Y023027D01*
X009598Y023027D01*
X009692Y023120D01*
X009692Y024364D01*
X009712Y024511D02*
X010818Y024511D01*
X010980Y024194D02*
X009692Y024194D01*
X009692Y024035D02*
X010980Y024035D01*
X010980Y023877D02*
X009692Y023877D01*
X009692Y023718D02*
X010980Y023718D01*
X010980Y023560D02*
X009692Y023560D01*
X009692Y023401D02*
X010980Y023401D01*
X010980Y023243D02*
X009692Y023243D01*
X009655Y023084D02*
X010980Y023084D01*
X011420Y023560D02*
X013348Y023560D01*
X013348Y023718D02*
X011420Y023718D01*
X011420Y023877D02*
X013348Y023877D01*
X013348Y024035D02*
X011420Y024035D01*
X011525Y024194D02*
X013348Y024194D01*
X013348Y023401D02*
X012010Y023401D01*
X012055Y023243D02*
X013348Y023243D01*
X013385Y023084D02*
X012055Y023084D01*
X012172Y021975D02*
X018622Y021975D01*
X018669Y021816D02*
X012172Y021816D01*
X012172Y021658D02*
X018871Y021658D01*
X018872Y021499D02*
X019480Y021499D01*
X019480Y021341D02*
X019031Y021341D01*
X019189Y021182D02*
X019480Y021182D01*
X019585Y021024D02*
X019348Y021024D01*
X019506Y020865D02*
X019744Y020865D01*
X019665Y020707D02*
X019902Y020707D01*
X019823Y020548D02*
X020061Y020548D01*
X020366Y020865D02*
X022640Y020865D01*
X022640Y020707D02*
X022005Y020707D01*
X022163Y020548D02*
X022640Y020548D01*
X022640Y020390D02*
X022280Y020390D01*
X022280Y020231D02*
X022640Y020231D01*
X022640Y020073D02*
X022280Y020073D01*
X022280Y019914D02*
X022640Y019914D01*
X022640Y019756D02*
X022280Y019756D01*
X022280Y019597D02*
X022640Y019597D01*
X022640Y019439D02*
X022280Y019439D01*
X022280Y019280D02*
X022640Y019280D01*
X022640Y019122D02*
X022280Y019122D01*
X022280Y018963D02*
X022640Y018963D01*
X022640Y018805D02*
X022280Y018805D01*
X022280Y018646D02*
X022640Y018646D01*
X022640Y018488D02*
X022280Y018488D01*
X022280Y018329D02*
X022640Y018329D01*
X022640Y018171D02*
X022280Y018171D01*
X022280Y018012D02*
X022640Y018012D01*
X022640Y017854D02*
X022280Y017854D01*
X022280Y017695D02*
X022640Y017695D01*
X022640Y017537D02*
X022280Y017537D01*
X022280Y017378D02*
X022640Y017378D01*
X022640Y017220D02*
X022280Y017220D01*
X022280Y017061D02*
X022640Y017061D01*
X022640Y016903D02*
X022280Y016903D01*
X022280Y016744D02*
X022640Y016744D01*
X022640Y016586D02*
X022280Y016586D01*
X022280Y016427D02*
X022640Y016427D01*
X022680Y016269D02*
X022280Y016269D01*
X022280Y016110D02*
X022839Y016110D01*
X022997Y015952D02*
X022280Y015952D01*
X022280Y015793D02*
X023156Y015793D01*
X023314Y015635D02*
X022417Y015635D01*
X022575Y015476D02*
X023473Y015476D01*
X023631Y015318D02*
X022734Y015318D01*
X022892Y015159D02*
X023790Y015159D01*
X024095Y015476D02*
X028328Y015476D01*
X028420Y015635D02*
X023937Y015635D01*
X023778Y015793D02*
X032705Y015793D01*
X032705Y015635D02*
X029580Y015635D01*
X029578Y015636D02*
X029131Y015636D01*
X029037Y015542D01*
X029037Y014938D01*
X029131Y014844D01*
X029578Y014844D01*
X029672Y014938D01*
X029672Y015020D01*
X030383Y015020D01*
X030441Y014963D01*
X030888Y014963D01*
X030948Y015022D01*
X030954Y015012D01*
X030987Y014978D01*
X031028Y014955D01*
X031074Y014943D01*
X031255Y014943D01*
X031255Y015280D01*
X031255Y015280D01*
X031255Y015617D01*
X031074Y015617D01*
X031028Y015605D01*
X030987Y015582D01*
X030954Y015548D01*
X030948Y015538D01*
X030888Y015597D01*
X030441Y015597D01*
X030347Y015504D01*
X030347Y015460D01*
X029672Y015460D01*
X029672Y015542D01*
X029578Y015636D01*
X029672Y015476D02*
X030347Y015476D01*
X030403Y015001D02*
X029672Y015001D01*
X029129Y015635D02*
X028871Y015635D01*
X028963Y015476D02*
X029037Y015476D01*
X029037Y015318D02*
X028963Y015318D01*
X028963Y015159D02*
X029037Y015159D01*
X029037Y015001D02*
X028963Y015001D01*
X028328Y015001D02*
X023051Y015001D01*
X023209Y014842D02*
X032706Y014842D01*
X032706Y014684D02*
X023368Y014684D01*
X023526Y014525D02*
X032706Y014525D01*
X032706Y014367D02*
X023685Y014367D01*
X023843Y014208D02*
X032706Y014208D01*
X032707Y014050D02*
X024002Y014050D01*
X024160Y013891D02*
X030295Y013891D01*
X030835Y013891D02*
X030857Y013891D01*
X031155Y013891D02*
X031155Y013891D01*
X031155Y013957D02*
X031155Y013620D01*
X031155Y013620D01*
X031155Y013620D01*
X031155Y013283D01*
X031336Y013283D01*
X031382Y013295D01*
X031423Y013318D01*
X031457Y013352D01*
X031480Y013393D01*
X031493Y013439D01*
X031493Y013620D01*
X031493Y013801D01*
X031480Y013847D01*
X031457Y013888D01*
X031423Y013922D01*
X031382Y013945D01*
X031336Y013957D01*
X031155Y013957D01*
X031155Y013733D02*
X031155Y013733D01*
X031155Y013620D02*
X031493Y013620D01*
X031155Y013620D01*
X031155Y013620D01*
X031155Y013574D02*
X031155Y013574D01*
X031155Y013416D02*
X031155Y013416D01*
X031487Y013416D02*
X032707Y013416D01*
X032707Y013574D02*
X031493Y013574D01*
X031493Y013733D02*
X032707Y013733D01*
X032707Y013891D02*
X031454Y013891D01*
X031436Y014943D02*
X031482Y014955D01*
X031523Y014978D01*
X031557Y015012D01*
X031580Y015053D01*
X031593Y015099D01*
X031593Y015280D01*
X031593Y015461D01*
X031580Y015507D01*
X031557Y015548D01*
X031523Y015582D01*
X031482Y015605D01*
X031436Y015617D01*
X031255Y015617D01*
X031255Y015280D01*
X031255Y015280D01*
X031255Y014943D01*
X031436Y014943D01*
X031545Y015001D02*
X032706Y015001D01*
X032705Y015159D02*
X031593Y015159D01*
X031593Y015280D02*
X031255Y015280D01*
X031593Y015280D01*
X031593Y015318D02*
X032705Y015318D01*
X032705Y015476D02*
X031589Y015476D01*
X031255Y015476D02*
X031255Y015476D01*
X031255Y015318D02*
X031255Y015318D01*
X031255Y015280D02*
X031255Y015280D01*
X031255Y015159D02*
X031255Y015159D01*
X031255Y015001D02*
X031255Y015001D01*
X030965Y015001D02*
X030926Y015001D01*
X032705Y015952D02*
X023620Y015952D01*
X023461Y016110D02*
X032705Y016110D01*
X032704Y016269D02*
X023303Y016269D01*
X023144Y016427D02*
X032704Y016427D01*
X032704Y016586D02*
X023080Y016586D01*
X023080Y016744D02*
X032704Y016744D01*
X032704Y016903D02*
X023080Y016903D01*
X023080Y017061D02*
X032704Y017061D01*
X032703Y017220D02*
X023080Y017220D01*
X023080Y017378D02*
X032703Y017378D01*
X032703Y017537D02*
X023080Y017537D01*
X021840Y017537D02*
X000685Y017537D01*
X000685Y017695D02*
X021840Y017695D01*
X021840Y017854D02*
X000685Y017854D01*
X000685Y018012D02*
X021840Y018012D01*
X021840Y018171D02*
X000684Y018171D01*
X000684Y018329D02*
X021840Y018329D01*
X021840Y018488D02*
X000684Y018488D01*
X000684Y018646D02*
X021840Y018646D01*
X021840Y018805D02*
X000684Y018805D01*
X000684Y018963D02*
X021840Y018963D01*
X021840Y019122D02*
X000684Y019122D01*
X000683Y019280D02*
X021840Y019280D01*
X021840Y019439D02*
X000683Y019439D01*
X000683Y019597D02*
X021840Y019597D01*
X021840Y019756D02*
X021662Y019756D01*
X021718Y019914D02*
X021840Y019914D01*
X021840Y020073D02*
X021701Y020073D01*
X021595Y020231D02*
X021840Y020231D01*
X021699Y020390D02*
X021242Y020390D01*
X021002Y019914D02*
X000683Y019914D01*
X000683Y019756D02*
X021058Y019756D01*
X020208Y021024D02*
X022640Y021024D01*
X022640Y021182D02*
X020049Y021182D01*
X019609Y021000D02*
X019609Y021000D01*
X019201Y020548D02*
X000682Y020548D01*
X000682Y020390D02*
X019359Y020390D01*
X019518Y020231D02*
X000682Y020231D01*
X000683Y020073D02*
X019676Y020073D01*
X019042Y020707D02*
X000682Y020707D01*
X000682Y020865D02*
X018884Y020865D01*
X018725Y021024D02*
X000682Y021024D01*
X000682Y021182D02*
X005047Y021182D01*
X004888Y021341D02*
X000681Y021341D01*
X000681Y021499D02*
X004730Y021499D01*
X004720Y021658D02*
X000681Y021658D01*
X000681Y021816D02*
X004720Y021816D01*
X004720Y021975D02*
X000681Y021975D01*
X000681Y022133D02*
X004720Y022133D01*
X004720Y022292D02*
X000680Y022292D01*
X000680Y022450D02*
X004720Y022450D01*
X004720Y022609D02*
X000680Y022609D01*
X000680Y022767D02*
X004720Y022767D01*
X004720Y022926D02*
X000680Y022926D01*
X000680Y023084D02*
X001976Y023084D01*
X001976Y023243D02*
X000680Y023243D01*
X000679Y023401D02*
X001976Y023401D01*
X001976Y023560D02*
X000679Y023560D01*
X000679Y023718D02*
X001976Y023718D01*
X002012Y023877D02*
X000679Y023877D01*
X000679Y024035D02*
X002380Y024035D01*
X002380Y024194D02*
X000679Y024194D01*
X000678Y024352D02*
X002380Y024352D01*
X002380Y024511D02*
X000678Y024511D01*
X000678Y024669D02*
X002380Y024669D01*
X002313Y024828D02*
X000678Y024828D01*
X000678Y024986D02*
X002198Y024986D01*
X002163Y025145D02*
X000678Y025145D01*
X000678Y025303D02*
X002187Y025303D01*
X002284Y025462D02*
X000677Y025462D01*
X000677Y025620D02*
X002308Y025620D01*
X002196Y025779D02*
X000677Y025779D01*
X000677Y025937D02*
X002163Y025937D01*
X002189Y026096D02*
X000677Y026096D01*
X000677Y026254D02*
X002289Y026254D01*
X002303Y026413D02*
X000676Y026413D01*
X000676Y026571D02*
X002194Y026571D01*
X002163Y026730D02*
X000676Y026730D01*
X000676Y026888D02*
X002191Y026888D01*
X002295Y027047D02*
X000676Y027047D01*
X000676Y027205D02*
X002270Y027205D01*
X002171Y027364D02*
X000676Y027364D01*
X000675Y027522D02*
X002591Y027522D01*
X002591Y027530D02*
X002143Y027530D01*
X002143Y027557D01*
X002154Y027628D01*
X002176Y027697D01*
X002209Y027761D01*
X002251Y027819D01*
X002302Y027870D01*
X002360Y027912D01*
X002425Y027945D01*
X002493Y027967D01*
X002564Y027978D01*
X002591Y027978D01*
X002591Y027530D01*
X002609Y027522D02*
X009704Y027522D01*
X009687Y027364D02*
X003029Y027364D01*
X002930Y027205D02*
X004254Y027205D01*
X004095Y027047D02*
X002905Y027047D01*
X003029Y027681D02*
X009904Y027681D01*
X009707Y027839D02*
X002929Y027839D01*
X002609Y027839D02*
X002591Y027839D01*
X002591Y027681D02*
X002609Y027681D01*
X002271Y027839D02*
X000675Y027839D01*
X000675Y027681D02*
X002171Y027681D01*
X002897Y026413D02*
X007981Y026413D01*
X008140Y026571D02*
X004242Y026571D01*
X004401Y026730D02*
X009739Y026730D01*
X009692Y026571D02*
X011615Y026571D01*
X011520Y026668D02*
X011520Y027143D01*
X011520Y027143D01*
X011520Y026668D01*
X011520Y026730D02*
X011520Y026730D01*
X011520Y026888D02*
X011520Y026888D01*
X011520Y027047D02*
X011520Y027047D01*
X011615Y026413D02*
X009692Y026413D01*
X009687Y026888D02*
X004559Y026888D01*
X004448Y026254D02*
X004352Y026254D01*
X004363Y026096D02*
X004437Y026096D01*
X004437Y025937D02*
X004363Y025937D01*
X004363Y025779D02*
X004437Y025779D01*
X004454Y025620D02*
X004346Y025620D01*
X003746Y025620D02*
X002892Y025620D01*
X002916Y025462D02*
X006980Y025462D01*
X006820Y025303D02*
X004828Y025303D01*
X004987Y025145D02*
X006782Y025145D01*
X006816Y024986D02*
X005145Y024986D01*
X005160Y024828D02*
X006900Y024828D01*
X006918Y024669D02*
X005160Y024669D01*
X005160Y024511D02*
X007050Y024511D01*
X007209Y024352D02*
X005160Y024352D01*
X005160Y024194D02*
X007280Y024194D01*
X007280Y024035D02*
X005160Y024035D01*
X005160Y023877D02*
X007280Y023877D01*
X007280Y023718D02*
X005160Y023718D01*
X005160Y023560D02*
X007280Y023560D01*
X007280Y023401D02*
X005160Y023401D01*
X005160Y023243D02*
X007280Y023243D01*
X007280Y023084D02*
X005160Y023084D01*
X005160Y022926D02*
X007280Y022926D01*
X007280Y022767D02*
X005160Y022767D01*
X005160Y022609D02*
X007280Y022609D01*
X007280Y022450D02*
X005160Y022450D01*
X005160Y022292D02*
X007280Y022292D01*
X007280Y022133D02*
X005160Y022133D01*
X005160Y021975D02*
X007280Y021975D01*
X007280Y021816D02*
X005160Y021816D01*
X005194Y021658D02*
X007280Y021658D01*
X007720Y021658D02*
X010808Y021658D01*
X010808Y021816D02*
X007720Y021816D01*
X007720Y021975D02*
X010808Y021975D01*
X011146Y021820D02*
X011146Y021820D01*
X009769Y022133D02*
X007720Y022133D01*
X007720Y022292D02*
X009687Y022292D01*
X009687Y022450D02*
X007720Y022450D01*
X007720Y022609D02*
X009687Y022609D01*
X009687Y022767D02*
X007720Y022767D01*
X007720Y022926D02*
X009687Y022926D01*
X008818Y023084D02*
X007720Y023084D01*
X007720Y023243D02*
X008781Y023243D01*
X008781Y023401D02*
X007720Y023401D01*
X007720Y023560D02*
X008781Y023560D01*
X008781Y023718D02*
X007720Y023718D01*
X007720Y023877D02*
X007881Y023877D01*
X007880Y023878D02*
X007913Y023844D01*
X007954Y023820D01*
X008000Y023808D01*
X008260Y023808D01*
X008260Y024146D01*
X008260Y024483D01*
X008000Y024483D01*
X007954Y024471D01*
X007913Y024447D01*
X007880Y024414D01*
X007856Y024373D01*
X007844Y024327D01*
X007844Y024146D01*
X008260Y024146D01*
X008260Y024146D01*
X008260Y024483D01*
X008520Y024483D01*
X008566Y024471D01*
X008607Y024447D01*
X008640Y024414D01*
X008664Y024373D01*
X008676Y024327D01*
X008676Y024146D01*
X008260Y024146D01*
X008260Y024146D01*
X008260Y024146D01*
X007844Y024146D01*
X007844Y023964D01*
X007856Y023919D01*
X007880Y023878D01*
X007844Y024035D02*
X007720Y024035D01*
X007720Y024194D02*
X007844Y024194D01*
X007851Y024352D02*
X007720Y024352D01*
X007742Y024511D02*
X008761Y024511D01*
X008761Y024545D02*
X009237Y024545D01*
X009237Y024545D01*
X008761Y024545D01*
X008781Y024352D02*
X008669Y024352D01*
X008676Y024194D02*
X008781Y024194D01*
X008676Y024146D02*
X008676Y023964D01*
X008664Y023919D01*
X008640Y023878D01*
X008607Y023844D01*
X008566Y023820D01*
X008520Y023808D01*
X008260Y023808D01*
X008260Y024146D01*
X008676Y024146D01*
X008676Y024035D02*
X008781Y024035D01*
X008781Y023877D02*
X008639Y023877D01*
X008260Y023877D02*
X008260Y023877D01*
X008260Y024035D02*
X008260Y024035D01*
X008260Y024146D02*
X008260Y024146D01*
X008260Y024194D02*
X008260Y024194D01*
X008260Y024352D02*
X008260Y024352D01*
X007500Y024460D02*
X007480Y024440D01*
X007480Y024420D01*
X007140Y024760D01*
X007140Y025140D01*
X007498Y025145D02*
X007930Y025145D01*
X007595Y024986D02*
X007464Y024986D01*
X007436Y024828D02*
X007412Y024828D01*
X007460Y025303D02*
X008781Y025303D01*
X008781Y025145D02*
X008590Y025145D01*
X008748Y025462D02*
X008781Y025462D01*
X008460Y025680D02*
X008460Y025800D01*
X008780Y026120D01*
X009236Y026120D01*
X009237Y026120D01*
X008416Y026096D02*
X008287Y026096D01*
X008211Y025937D02*
X008128Y025937D01*
X008113Y025779D02*
X007970Y025779D01*
X008102Y025620D02*
X005054Y025620D01*
X005060Y026254D02*
X007823Y026254D01*
X008172Y025462D02*
X007300Y025462D01*
X004720Y024669D02*
X002820Y024669D01*
X002820Y024511D02*
X004720Y024511D01*
X004720Y024352D02*
X002820Y024352D01*
X002820Y024194D02*
X004720Y024194D01*
X004720Y024035D02*
X002820Y024035D01*
X003009Y023877D02*
X003286Y023877D01*
X003292Y023885D02*
X003268Y023844D01*
X003256Y023799D01*
X003256Y023537D01*
X003732Y023537D01*
X003732Y023383D01*
X003256Y023383D01*
X003256Y023121D01*
X003268Y023076D01*
X003292Y023035D01*
X003325Y023001D01*
X003366Y022977D01*
X003412Y022965D01*
X003732Y022965D01*
X003732Y023383D01*
X003887Y023383D01*
X003887Y023537D01*
X004364Y023537D01*
X004364Y023799D01*
X004351Y023844D01*
X004328Y023885D01*
X004294Y023919D01*
X004253Y023943D01*
X004207Y023955D01*
X003887Y023955D01*
X003887Y023537D01*
X003732Y023537D01*
X003732Y023955D01*
X003412Y023955D01*
X003366Y023943D01*
X003325Y023919D01*
X003292Y023885D01*
X003256Y023718D02*
X003044Y023718D01*
X003044Y023560D02*
X003256Y023560D01*
X003044Y023401D02*
X003732Y023401D01*
X003887Y023401D02*
X004720Y023401D01*
X004720Y023243D02*
X004364Y023243D01*
X004364Y023121D02*
X004364Y023383D01*
X003887Y023383D01*
X003887Y022965D01*
X004207Y022965D01*
X004253Y022977D01*
X004294Y023001D01*
X004328Y023035D01*
X004351Y023076D01*
X004364Y023121D01*
X004354Y023084D02*
X004720Y023084D01*
X004720Y023560D02*
X004364Y023560D01*
X004364Y023718D02*
X004720Y023718D01*
X004720Y023877D02*
X004333Y023877D01*
X003887Y023877D02*
X003732Y023877D01*
X003732Y023718D02*
X003887Y023718D01*
X003887Y023560D02*
X003732Y023560D01*
X003732Y023243D02*
X003887Y023243D01*
X003887Y023084D02*
X003732Y023084D01*
X003266Y023084D02*
X003044Y023084D01*
X003044Y023243D02*
X003256Y023243D01*
X002887Y024828D02*
X004681Y024828D01*
X003740Y026254D02*
X002911Y026254D01*
X000675Y027998D02*
X009662Y027998D01*
X009689Y028156D02*
X000675Y028156D01*
X000675Y028315D02*
X009808Y028315D01*
X010020Y028020D02*
X010040Y028020D01*
X010260Y027800D01*
X010260Y027144D01*
X010260Y027143D01*
X010575Y027143D02*
X010580Y027148D01*
X010580Y028840D01*
X010341Y029107D02*
X000674Y029107D01*
X000674Y028949D02*
X010237Y028949D01*
X010222Y028790D02*
X000674Y028790D01*
X000674Y028632D02*
X010282Y028632D01*
X010340Y028473D02*
X000674Y028473D01*
X000674Y029266D02*
X010820Y029266D01*
X010819Y029107D02*
X010820Y029107D01*
X010705Y029424D02*
X000674Y029424D01*
X000673Y029583D02*
X010549Y029583D01*
X010413Y029741D02*
X000673Y029741D01*
X000673Y029900D02*
X010413Y029900D01*
X010413Y030058D02*
X000673Y030058D01*
X000673Y030217D02*
X010413Y030217D01*
X010413Y030375D02*
X000673Y030375D01*
X000672Y030534D02*
X010413Y030534D01*
X010413Y030692D02*
X000672Y030692D01*
X000672Y030851D02*
X010413Y030851D01*
X010413Y031009D02*
X000672Y031009D01*
X000672Y031168D02*
X010413Y031168D01*
X010413Y031326D02*
X000672Y031326D01*
X000671Y031485D02*
X010424Y031485D01*
X011342Y031485D02*
X011378Y031485D01*
X011378Y031326D02*
X011342Y031326D01*
X011342Y031168D02*
X011378Y031168D01*
X011378Y031009D02*
X011342Y031009D01*
X011342Y030851D02*
X011378Y030851D01*
X011378Y030692D02*
X011342Y030692D01*
X012307Y030851D02*
X014940Y030851D01*
X014940Y030921D02*
X014940Y029900D01*
X014940Y030058D02*
X014317Y030058D01*
X014643Y030217D02*
X014940Y030217D01*
X014940Y030375D02*
X014698Y030375D01*
X014681Y030534D02*
X014940Y030534D01*
X014940Y030692D02*
X014574Y030692D01*
X014861Y031000D02*
X014940Y030921D01*
X014861Y031000D02*
X013492Y031000D01*
X013404Y031037D01*
X013337Y031104D01*
X013157Y031284D01*
X013120Y031372D01*
X013120Y031670D01*
X013120Y031643D02*
X000671Y031643D01*
X000669Y034021D02*
X002875Y034021D01*
X002707Y034179D02*
X000669Y034179D01*
X000669Y034338D02*
X002645Y034338D01*
X002645Y034496D02*
X000669Y034496D01*
X000668Y034655D02*
X002704Y034655D01*
X002859Y034813D02*
X000668Y034813D01*
X000668Y035289D02*
X029490Y035289D01*
X029490Y035447D02*
X000668Y035447D01*
X000667Y035606D02*
X029546Y035606D01*
X029641Y035764D02*
X000667Y035764D01*
X005492Y035923D02*
X027488Y035923D01*
X027381Y036081D02*
X005599Y036081D01*
X005634Y036240D02*
X027346Y036240D01*
X027346Y036398D02*
X005634Y036398D01*
X005634Y036557D02*
X027346Y036557D01*
X027346Y036715D02*
X005634Y036715D01*
X005634Y036874D02*
X027346Y036874D01*
X027346Y037032D02*
X005634Y037032D01*
X005634Y037191D02*
X027346Y037191D01*
X027346Y037349D02*
X005634Y037349D01*
X005634Y037508D02*
X027346Y037508D01*
X027346Y037666D02*
X005634Y037666D01*
X005634Y037825D02*
X027346Y037825D01*
X027346Y037983D02*
X005634Y037983D01*
X005634Y038142D02*
X007586Y038142D01*
X007605Y038130D02*
X007887Y038055D01*
X008177Y038055D01*
X008459Y038130D01*
X008710Y038276D01*
X008916Y038482D01*
X009062Y038733D01*
X009137Y039015D01*
X009137Y039305D01*
X009062Y039587D01*
X008916Y039838D01*
X008710Y040044D01*
X008459Y040190D01*
X008177Y040265D01*
X007887Y040265D01*
X007605Y040190D01*
X007354Y040044D01*
X007148Y039838D01*
X007002Y039587D01*
X006927Y039305D01*
X006927Y039015D01*
X007002Y038733D01*
X007148Y038482D01*
X007354Y038276D01*
X007605Y038130D01*
X007329Y038300D02*
X005634Y038300D01*
X005634Y038459D02*
X007171Y038459D01*
X007070Y038617D02*
X005634Y038617D01*
X005634Y038776D02*
X006991Y038776D01*
X006949Y038934D02*
X005634Y038934D01*
X005634Y039093D02*
X006927Y039093D01*
X006927Y039251D02*
X005634Y039251D01*
X005634Y039410D02*
X006955Y039410D01*
X006997Y039568D02*
X005634Y039568D01*
X005634Y039727D02*
X007083Y039727D01*
X007194Y039885D02*
X005634Y039885D01*
X005634Y040044D02*
X007353Y040044D01*
X007652Y040202D02*
X005634Y040202D01*
X005634Y040361D02*
X027346Y040361D01*
X027346Y040519D02*
X005634Y040519D01*
X005634Y040678D02*
X027346Y040678D01*
X027346Y040202D02*
X025670Y040202D01*
X025717Y040190D02*
X025435Y040265D01*
X025145Y040265D01*
X024863Y040190D01*
X024612Y040044D01*
X024406Y039838D01*
X024260Y039587D01*
X024185Y039305D01*
X024185Y039015D01*
X024260Y038733D01*
X024406Y038482D01*
X024612Y038276D01*
X024863Y038130D01*
X025145Y038055D01*
X025435Y038055D01*
X025717Y038130D01*
X025968Y038276D01*
X026174Y038482D01*
X026320Y038733D01*
X026395Y039015D01*
X026395Y039305D01*
X026320Y039587D01*
X026174Y039838D01*
X025968Y040044D01*
X025717Y040190D01*
X025969Y040044D02*
X027346Y040044D01*
X027346Y039885D02*
X026128Y039885D01*
X026239Y039727D02*
X027346Y039727D01*
X027346Y039568D02*
X026325Y039568D01*
X026367Y039410D02*
X027346Y039410D01*
X027346Y039251D02*
X026395Y039251D01*
X026395Y039093D02*
X027346Y039093D01*
X027346Y038934D02*
X026373Y038934D01*
X026331Y038776D02*
X027346Y038776D01*
X027346Y038617D02*
X026252Y038617D01*
X026151Y038459D02*
X027346Y038459D01*
X027346Y038300D02*
X025993Y038300D01*
X025736Y038142D02*
X027346Y038142D01*
X024844Y038142D02*
X008478Y038142D01*
X008735Y038300D02*
X024587Y038300D01*
X024429Y038459D02*
X008893Y038459D01*
X008994Y038617D02*
X024328Y038617D01*
X024249Y038776D02*
X009073Y038776D01*
X009115Y038934D02*
X024207Y038934D01*
X024185Y039093D02*
X009137Y039093D01*
X009137Y039251D02*
X024185Y039251D01*
X024213Y039410D02*
X009109Y039410D01*
X009067Y039568D02*
X024255Y039568D01*
X024341Y039727D02*
X008981Y039727D01*
X008870Y039885D02*
X024452Y039885D01*
X024611Y040044D02*
X008711Y040044D01*
X008412Y040202D02*
X024910Y040202D01*
X028940Y033994D02*
X029506Y034006D01*
X029980Y034480D01*
X030760Y034480D01*
X031130Y034850D01*
X031497Y034496D02*
X032687Y034496D01*
X032687Y034338D02*
X032081Y034338D01*
X031839Y034338D02*
X030957Y034338D01*
X030910Y033600D02*
X030600Y033290D01*
X030600Y033090D01*
X031110Y033090D01*
X031110Y033600D01*
X030910Y033600D01*
X030856Y033545D02*
X030144Y033545D01*
X029986Y033387D02*
X030697Y033387D01*
X030600Y033228D02*
X030310Y033228D01*
X030281Y033240D02*
X030019Y033240D01*
X029776Y033140D01*
X029590Y032954D01*
X029490Y032711D01*
X029490Y032449D01*
X029590Y032206D01*
X029776Y032020D01*
X030019Y031920D01*
X030281Y031920D01*
X030524Y032020D01*
X030710Y032206D01*
X030810Y032449D01*
X030810Y032640D01*
X030910Y032540D01*
X031110Y032540D01*
X031110Y033050D01*
X030613Y033050D01*
X030524Y033140D01*
X030281Y033240D01*
X029990Y033228D02*
X029827Y033228D01*
X029706Y033070D02*
X029651Y033070D01*
X029573Y032911D02*
X026628Y032911D01*
X026669Y032753D02*
X029507Y032753D01*
X029490Y032594D02*
X026669Y032594D01*
X026669Y032436D02*
X029495Y032436D01*
X029561Y032277D02*
X026669Y032277D01*
X026540Y032119D02*
X029678Y032119D01*
X029922Y031960D02*
X026540Y031960D01*
X026540Y031802D02*
X032689Y031802D01*
X032689Y031960D02*
X030378Y031960D01*
X030622Y032119D02*
X032689Y032119D01*
X032689Y032277D02*
X030739Y032277D01*
X030805Y032436D02*
X032689Y032436D01*
X032688Y032594D02*
X031404Y032594D01*
X031350Y032540D02*
X031660Y032850D01*
X031660Y033050D01*
X031150Y033050D01*
X031150Y033090D01*
X031110Y033090D01*
X031110Y033050D01*
X031150Y033050D01*
X031150Y032540D01*
X031350Y032540D01*
X031150Y032594D02*
X031110Y032594D01*
X031110Y032753D02*
X031150Y032753D01*
X031150Y032911D02*
X031110Y032911D01*
X031110Y033070D02*
X030594Y033070D01*
X030810Y032594D02*
X030856Y032594D01*
X031150Y033070D02*
X032688Y033070D01*
X032688Y033228D02*
X031660Y033228D01*
X031660Y033290D02*
X031350Y033600D01*
X031150Y033600D01*
X031150Y033090D01*
X031660Y033090D01*
X031660Y033290D01*
X031563Y033387D02*
X032688Y033387D01*
X032688Y033545D02*
X031404Y033545D01*
X031150Y033545D02*
X031110Y033545D01*
X031110Y033387D02*
X031150Y033387D01*
X031150Y033228D02*
X031110Y033228D01*
X031660Y032911D02*
X032688Y032911D01*
X032688Y032753D02*
X031562Y032753D01*
X031750Y033704D02*
X030303Y033704D01*
X030260Y034000D02*
X029546Y033286D01*
X028940Y033286D01*
X028544Y033228D02*
X025998Y033228D01*
X026157Y033070D02*
X028544Y033070D01*
X029301Y033545D02*
X029466Y033545D01*
X029624Y033704D02*
X029269Y033704D01*
X029701Y033862D02*
X029783Y033862D01*
X029860Y034021D02*
X029941Y034021D01*
X030018Y034179D02*
X030100Y034179D01*
X030260Y034000D02*
X031960Y034000D01*
X032290Y033862D02*
X032687Y033862D01*
X032687Y033704D02*
X032170Y033704D01*
X032318Y034021D02*
X032687Y034021D01*
X032687Y034179D02*
X032273Y034179D01*
X032686Y034655D02*
X031640Y034655D01*
X031640Y034813D02*
X032686Y034813D01*
X032686Y034972D02*
X031640Y034972D01*
X031571Y035130D02*
X032686Y035130D01*
X032686Y035289D02*
X031413Y035289D01*
X030847Y035289D02*
X030810Y035289D01*
X030810Y035447D02*
X032686Y035447D01*
X032686Y035606D02*
X030754Y035606D01*
X030659Y035764D02*
X032685Y035764D01*
X032685Y035923D02*
X032552Y035923D01*
X032659Y036081D02*
X032685Y036081D01*
X032689Y031643D02*
X026649Y031643D01*
X026826Y030851D02*
X026826Y030851D01*
X026826Y030692D02*
X026826Y030692D01*
X026826Y030534D02*
X026826Y030534D01*
X026826Y030500D02*
X026826Y030500D01*
X026826Y030375D02*
X026826Y030375D01*
X026826Y030217D02*
X026826Y030217D01*
X027157Y030217D02*
X027217Y030217D01*
X027217Y030375D02*
X027163Y030375D01*
X027163Y030534D02*
X027217Y030534D01*
X027217Y030692D02*
X027163Y030692D01*
X027123Y030851D02*
X027265Y030851D01*
X027804Y030851D02*
X028097Y030851D01*
X028127Y030692D02*
X028160Y030692D01*
X028685Y031168D02*
X029423Y031168D01*
X029410Y031126D02*
X029397Y031048D01*
X030392Y031048D01*
X030392Y031603D01*
X029968Y031603D01*
X029871Y031588D01*
X029778Y031557D01*
X029691Y031513D01*
X029611Y031455D01*
X029542Y031386D01*
X029484Y031306D01*
X029440Y031219D01*
X029410Y031126D01*
X029499Y031326D02*
X028526Y031326D01*
X028368Y031485D02*
X029652Y031485D01*
X029407Y030851D02*
X028800Y030851D01*
X028789Y031009D02*
X030392Y031009D01*
X030528Y031009D02*
X032690Y031009D01*
X032690Y030851D02*
X031513Y030851D01*
X031455Y030692D02*
X032690Y030692D01*
X032690Y030534D02*
X031337Y030534D01*
X031578Y030375D02*
X032691Y030375D01*
X032691Y030217D02*
X031736Y030217D01*
X031895Y030058D02*
X032691Y030058D01*
X032691Y029900D02*
X032053Y029900D01*
X032200Y029741D02*
X032691Y029741D01*
X032691Y029583D02*
X032240Y029583D01*
X032240Y029424D02*
X032692Y029424D01*
X032692Y029266D02*
X032240Y029266D01*
X032240Y029107D02*
X032692Y029107D01*
X032692Y028949D02*
X032240Y028949D01*
X032240Y028790D02*
X032692Y028790D01*
X032692Y028632D02*
X032240Y028632D01*
X032240Y028473D02*
X032692Y028473D01*
X032693Y028315D02*
X032240Y028315D01*
X031600Y025937D02*
X024414Y025937D01*
X024414Y025779D02*
X031600Y025779D01*
X030461Y023243D02*
X030292Y023243D01*
X030249Y022926D02*
X030391Y022926D01*
X030666Y022580D02*
X029974Y022580D01*
X029657Y022450D02*
X029583Y022450D01*
X029583Y022292D02*
X029657Y022292D01*
X029582Y022133D02*
X028766Y022133D01*
X028917Y022292D02*
X028948Y022292D01*
X029729Y021658D02*
X032699Y021658D01*
X032699Y021816D02*
X029887Y021816D01*
X029840Y021769D02*
X029840Y021769D01*
X030046Y021975D02*
X032699Y021975D01*
X032699Y022133D02*
X030200Y022133D01*
X030292Y022292D02*
X030348Y022292D01*
X030983Y022292D02*
X031044Y022292D01*
X031037Y022450D02*
X030983Y022450D01*
X030983Y022609D02*
X031037Y022609D01*
X031037Y022767D02*
X030983Y022767D01*
X030940Y022926D02*
X031072Y022926D01*
X031374Y022926D02*
X031374Y022926D01*
X031374Y022767D02*
X031374Y022767D01*
X031374Y022609D02*
X031374Y022609D01*
X031374Y022580D02*
X031712Y022580D01*
X031374Y022580D01*
X031374Y022580D01*
X031374Y022450D02*
X031374Y022450D01*
X031374Y022292D02*
X031374Y022292D01*
X031704Y022292D02*
X032698Y022292D01*
X032698Y022450D02*
X031712Y022450D01*
X031712Y022609D02*
X032698Y022609D01*
X032698Y022767D02*
X031712Y022767D01*
X032702Y018963D02*
X027300Y018963D01*
X027300Y018805D02*
X032702Y018805D01*
X032702Y018646D02*
X027300Y018646D01*
X027300Y018488D02*
X032702Y018488D01*
X032702Y018329D02*
X027300Y018329D01*
X027397Y018171D02*
X032703Y018171D01*
X032703Y018012D02*
X027438Y018012D01*
X027407Y017854D02*
X032703Y017854D01*
X032703Y017695D02*
X027280Y017695D01*
X025280Y017854D02*
X025120Y017854D01*
X025120Y018012D02*
X025280Y018012D01*
X025280Y018171D02*
X025120Y018171D01*
X025120Y018329D02*
X025280Y018329D01*
X025280Y018488D02*
X025120Y018488D01*
X025120Y018646D02*
X025280Y018646D01*
X025280Y018805D02*
X025120Y018805D01*
X025120Y018963D02*
X025280Y018963D01*
X025280Y019439D02*
X025120Y019439D01*
X025120Y019597D02*
X025280Y019597D01*
X025280Y019756D02*
X025120Y019756D01*
X025120Y019914D02*
X025280Y019914D01*
X025280Y020073D02*
X025120Y020073D01*
X025120Y020231D02*
X025280Y020231D01*
X025280Y020390D02*
X025120Y020390D01*
X025120Y020548D02*
X025280Y020548D01*
X023994Y020548D02*
X023080Y020548D01*
X023080Y020390D02*
X023957Y020390D01*
X023957Y020231D02*
X023080Y020231D01*
X023080Y020073D02*
X023957Y020073D01*
X023957Y019914D02*
X023080Y019914D01*
X023080Y019756D02*
X023957Y019756D01*
X023957Y019597D02*
X023080Y019597D01*
X023080Y019439D02*
X023957Y019439D01*
X021840Y017378D02*
X000685Y017378D01*
X000685Y017220D02*
X021840Y017220D01*
X021840Y017061D02*
X000686Y017061D01*
X000686Y016903D02*
X021840Y016903D01*
X021840Y016744D02*
X000686Y016744D01*
X000686Y016586D02*
X021840Y016586D01*
X021840Y016427D02*
X000686Y016427D01*
X000686Y016269D02*
X021840Y016269D01*
X021840Y016110D02*
X000686Y016110D01*
X000687Y015952D02*
X021840Y015952D01*
X021840Y015793D02*
X000687Y015793D01*
X000687Y015635D02*
X021840Y015635D01*
X021953Y015476D02*
X000687Y015476D01*
X000687Y015318D02*
X022111Y015318D01*
X022270Y015159D02*
X000687Y015159D01*
X000688Y015001D02*
X022428Y015001D01*
X022587Y014842D02*
X000688Y014842D01*
X000688Y014684D02*
X022745Y014684D01*
X022904Y014525D02*
X000688Y014525D01*
X000688Y014367D02*
X023062Y014367D01*
X023221Y014208D02*
X000688Y014208D01*
X000688Y014050D02*
X023379Y014050D01*
X023538Y013891D02*
X000689Y013891D01*
X000689Y013733D02*
X023696Y013733D01*
X023855Y013574D02*
X000689Y013574D01*
X000689Y013416D02*
X024013Y013416D01*
X029165Y012651D02*
X029165Y012469D01*
X029234Y012302D01*
X029362Y012174D01*
X029529Y012105D01*
X029711Y012105D01*
X029878Y012174D01*
X030006Y012302D01*
X030075Y012469D01*
X030075Y012651D01*
X030006Y012818D01*
X029878Y012946D01*
X029711Y013015D01*
X029529Y013015D01*
X029362Y012946D01*
X029234Y012818D01*
X029165Y012651D01*
X029165Y012623D02*
X000690Y012623D01*
X000690Y012465D02*
X029167Y012465D01*
X029232Y012306D02*
X000690Y012306D01*
X000690Y012148D02*
X029426Y012148D01*
X029219Y012782D02*
X000690Y012782D01*
X000690Y012940D02*
X029356Y012940D01*
X029884Y012940D02*
X032708Y012940D01*
X032708Y012782D02*
X030021Y012782D01*
X030075Y012623D02*
X032708Y012623D01*
X032708Y012465D02*
X030073Y012465D01*
X030008Y012306D02*
X032708Y012306D01*
X032708Y012148D02*
X029814Y012148D01*
X030482Y011144D02*
X030733Y011290D01*
X031015Y011365D01*
X031305Y011365D01*
X031587Y011290D01*
X031838Y011144D01*
X032044Y010938D01*
X032190Y010687D01*
X032265Y010405D01*
X032265Y010115D01*
X032190Y009833D01*
X032044Y009582D01*
X031838Y009376D01*
X031587Y009230D01*
X031305Y009155D01*
X031015Y009155D01*
X030733Y009230D01*
X030482Y009376D01*
X030276Y009582D01*
X030130Y009833D01*
X030055Y010115D01*
X030055Y010405D01*
X030130Y010687D01*
X030276Y010938D01*
X030482Y011144D01*
X030572Y011197D02*
X002748Y011197D01*
X002838Y011144D02*
X002587Y011290D01*
X002305Y011365D01*
X002015Y011365D01*
X001733Y011290D01*
X001482Y011144D01*
X001276Y010938D01*
X001130Y010687D01*
X001055Y010405D01*
X001055Y010115D01*
X001130Y009833D01*
X001276Y009582D01*
X001482Y009376D01*
X001733Y009230D01*
X002015Y009155D01*
X002305Y009155D01*
X002587Y009230D01*
X002838Y009376D01*
X003044Y009582D01*
X003190Y009833D01*
X003265Y010115D01*
X003265Y010405D01*
X003190Y010687D01*
X003044Y010938D01*
X002838Y011144D01*
X002945Y011038D02*
X030375Y011038D01*
X030242Y010880D02*
X003078Y010880D01*
X003170Y010721D02*
X030150Y010721D01*
X030097Y010563D02*
X003223Y010563D01*
X003265Y010404D02*
X030055Y010404D01*
X030055Y010246D02*
X003265Y010246D01*
X003258Y010087D02*
X030062Y010087D01*
X030105Y009929D02*
X003215Y009929D01*
X003153Y009770D02*
X030167Y009770D01*
X030258Y009612D02*
X003062Y009612D01*
X002916Y009453D02*
X030404Y009453D01*
X030622Y009295D02*
X002698Y009295D01*
X001622Y009295D02*
X000693Y009295D01*
X000693Y009453D02*
X001404Y009453D01*
X001258Y009612D02*
X000693Y009612D01*
X000693Y009770D02*
X001167Y009770D01*
X001105Y009929D02*
X000693Y009929D01*
X000692Y010087D02*
X001062Y010087D01*
X001055Y010246D02*
X000692Y010246D01*
X000692Y010404D02*
X001055Y010404D01*
X001097Y010563D02*
X000692Y010563D01*
X000692Y010721D02*
X001150Y010721D01*
X001242Y010880D02*
X000692Y010880D01*
X000691Y011038D02*
X001375Y011038D01*
X001572Y011197D02*
X000691Y011197D01*
X000691Y011355D02*
X001977Y011355D01*
X002343Y011355D02*
X030977Y011355D01*
X031343Y011355D02*
X032709Y011355D01*
X032709Y011197D02*
X031748Y011197D01*
X031945Y011038D02*
X032709Y011038D01*
X032710Y010880D02*
X032078Y010880D01*
X032170Y010721D02*
X032710Y010721D01*
X032710Y010563D02*
X032223Y010563D01*
X032265Y010404D02*
X032710Y010404D01*
X032710Y010246D02*
X032265Y010246D01*
X032258Y010087D02*
X032710Y010087D01*
X032711Y009929D02*
X032215Y009929D01*
X032153Y009770D02*
X032711Y009770D01*
X032711Y009612D02*
X032062Y009612D01*
X031916Y009453D02*
X032711Y009453D01*
X032711Y009295D02*
X031698Y009295D01*
X032711Y009136D02*
X000693Y009136D01*
X000693Y008978D02*
X032711Y008978D01*
X032712Y008819D02*
X000694Y008819D01*
X000694Y008661D02*
X032712Y008661D01*
X032712Y008502D02*
X000694Y008502D01*
X000694Y008344D02*
X032712Y008344D01*
X032712Y008185D02*
X000694Y008185D01*
X000694Y008027D02*
X032712Y008027D01*
X032713Y007868D02*
X000695Y007868D01*
X000695Y007710D02*
X032713Y007710D01*
X032713Y007551D02*
X000695Y007551D01*
X000695Y007393D02*
X032713Y007393D01*
X032713Y007234D02*
X000695Y007234D01*
X000695Y007076D02*
X032713Y007076D01*
X032713Y006917D02*
X000695Y006917D01*
X000696Y006759D02*
X032714Y006759D01*
X032714Y006600D02*
X000696Y006600D01*
X000696Y006442D02*
X032714Y006442D01*
X032714Y006283D02*
X000696Y006283D01*
X000696Y006125D02*
X032714Y006125D01*
X032714Y005966D02*
X005601Y005966D01*
X005822Y005808D02*
X027698Y005808D01*
X027574Y005649D02*
X005899Y005649D01*
X005914Y005491D02*
X027526Y005491D01*
X027526Y005332D02*
X005914Y005332D01*
X005914Y005174D02*
X027526Y005174D01*
X027526Y005015D02*
X005914Y005015D01*
X005914Y004857D02*
X027526Y004857D01*
X027526Y004698D02*
X005914Y004698D01*
X005914Y004540D02*
X027526Y004540D01*
X027526Y004381D02*
X005914Y004381D01*
X005914Y004223D02*
X027526Y004223D01*
X027526Y004064D02*
X005914Y004064D01*
X005914Y003906D02*
X027526Y003906D01*
X027526Y003747D02*
X005914Y003747D01*
X005914Y003589D02*
X027526Y003589D01*
X027526Y003430D02*
X005914Y003430D01*
X005914Y003272D02*
X027526Y003272D01*
X027526Y003113D02*
X005914Y003113D01*
X005914Y002955D02*
X027526Y002955D01*
X027526Y002796D02*
X005914Y002796D01*
X005914Y002638D02*
X027526Y002638D01*
X027526Y002479D02*
X005914Y002479D01*
X005914Y002321D02*
X027526Y002321D01*
X027526Y002162D02*
X005914Y002162D01*
X005914Y002004D02*
X027526Y002004D01*
X027526Y001845D02*
X005914Y001845D01*
X005914Y001687D02*
X027526Y001687D01*
X027526Y001528D02*
X005914Y001528D01*
X005914Y001370D02*
X027526Y001370D01*
X027526Y001211D02*
X005914Y001211D01*
X005914Y001053D02*
X027526Y001053D01*
X027548Y000894D02*
X005859Y000894D01*
X005725Y000736D02*
X027635Y000736D01*
X032702Y005808D02*
X032715Y005808D01*
X032709Y011514D02*
X000691Y011514D01*
X000691Y011672D02*
X032709Y011672D01*
X032709Y011831D02*
X000691Y011831D01*
X000691Y011989D02*
X032709Y011989D01*
X032707Y013099D02*
X000689Y013099D01*
X000689Y013257D02*
X032707Y013257D01*
X027873Y022926D02*
X027738Y022926D01*
X027738Y023084D02*
X027873Y023084D01*
X027873Y023243D02*
X027738Y023243D01*
X027738Y023560D02*
X027873Y023560D01*
X027873Y023718D02*
X027738Y023718D01*
X027738Y023877D02*
X027873Y023877D01*
X027873Y024035D02*
X027738Y024035D01*
X027372Y024460D02*
X027034Y024460D01*
X027372Y024460D01*
X027034Y024460D02*
X027034Y024460D01*
X027034Y024511D02*
X027034Y024511D01*
X027034Y024669D02*
X027034Y024669D01*
X027034Y024828D02*
X027034Y024828D01*
X027034Y024352D02*
X027034Y024352D01*
X027034Y024194D02*
X027034Y024194D01*
X025846Y026096D02*
X024414Y026096D01*
X024414Y026254D02*
X025846Y026254D01*
X025846Y026413D02*
X024414Y026413D01*
X024470Y026571D02*
X025846Y026571D01*
X025130Y028070D02*
X013970Y028070D01*
X013591Y027640D02*
X015860Y027640D01*
X014259Y026571D02*
X023934Y026571D01*
X023934Y026413D02*
X014259Y026413D01*
X014259Y026254D02*
X023934Y026254D01*
X023934Y026096D02*
X014259Y026096D01*
X014259Y025937D02*
X023934Y025937D01*
X023934Y025779D02*
X014259Y025779D01*
X014259Y025620D02*
X023934Y025620D01*
X023934Y025462D02*
X014259Y025462D01*
X013348Y026254D02*
X013253Y026254D01*
X013729Y026730D02*
X023962Y026730D01*
X024109Y026888D02*
X013887Y026888D01*
X014259Y023560D02*
X018169Y023560D01*
X018328Y023401D02*
X014259Y023401D01*
X014259Y023243D02*
X018486Y023243D01*
X018500Y023084D02*
X014222Y023084D01*
X013353Y022926D02*
X018500Y022926D01*
X018500Y022767D02*
X013353Y022767D01*
X013353Y022609D02*
X018500Y022609D01*
X018500Y022450D02*
X013353Y022450D01*
X013353Y022292D02*
X018500Y022292D01*
X018536Y022133D02*
X013271Y022133D01*
X018316Y024035D02*
X019480Y024035D01*
X019480Y023877D02*
X018475Y023877D01*
X018633Y023718D02*
X019480Y023718D01*
X019480Y023560D02*
X018792Y023560D01*
X018940Y023401D02*
X019480Y023401D01*
X019480Y023243D02*
X018940Y023243D01*
X018940Y023084D02*
X019480Y023084D01*
X019480Y022926D02*
X018940Y022926D01*
X018940Y022767D02*
X019480Y022767D01*
X019480Y022609D02*
X018940Y022609D01*
X018940Y022450D02*
X019480Y022450D01*
X019480Y022292D02*
X019195Y022292D01*
X019313Y022133D02*
X019480Y022133D01*
X019480Y021975D02*
X019338Y021975D01*
X019291Y021816D02*
X019480Y021816D01*
X019480Y021658D02*
X019089Y021658D01*
X020760Y023877D02*
X023128Y023877D01*
X023128Y024035D02*
X020760Y024035D01*
X020760Y024194D02*
X023128Y024194D01*
X023128Y024352D02*
X020760Y024352D01*
X020760Y024511D02*
X023215Y024511D01*
X023466Y024511D02*
X023466Y024511D01*
X023466Y024352D02*
X023466Y024352D01*
X023466Y024194D02*
X023466Y024194D01*
X023466Y024120D02*
X023466Y024120D01*
X023466Y024035D02*
X023466Y024035D01*
X023466Y023877D02*
X023466Y023877D01*
X023803Y024352D02*
X023857Y024352D01*
X023934Y024511D02*
X023716Y024511D01*
X023934Y024669D02*
X020760Y024669D01*
X020760Y024828D02*
X023934Y024828D01*
X023934Y024986D02*
X020705Y024986D01*
X020547Y025145D02*
X023934Y025145D01*
X023934Y025303D02*
X020388Y025303D01*
X023564Y022926D02*
X023776Y022926D01*
X023776Y022767D02*
X023564Y022767D01*
X023473Y022609D02*
X023866Y022609D01*
X023912Y022450D02*
X023736Y022450D01*
X023761Y021975D02*
X023946Y021975D01*
X024629Y026730D02*
X027177Y026730D01*
X024456Y027205D02*
X024304Y027205D01*
X024267Y027047D02*
X024146Y027047D01*
X028800Y030534D02*
X029583Y030534D01*
X029465Y030692D02*
X028800Y030692D01*
X030392Y031168D02*
X030528Y031168D01*
X030528Y031048D02*
X030528Y031603D01*
X030952Y031603D01*
X031049Y031588D01*
X031142Y031557D01*
X031229Y031513D01*
X031309Y031455D01*
X031378Y031386D01*
X031436Y031306D01*
X031480Y031219D01*
X031510Y031126D01*
X031523Y031048D01*
X030528Y031048D01*
X030528Y031326D02*
X030392Y031326D01*
X030392Y031485D02*
X030528Y031485D01*
X031268Y031485D02*
X032690Y031485D01*
X032690Y031326D02*
X031421Y031326D01*
X031497Y031168D02*
X032690Y031168D01*
X018483Y029583D02*
X017882Y029583D01*
X017678Y029424D02*
X018325Y029424D01*
X015180Y031020D02*
X014960Y031240D01*
X013540Y031240D01*
X013360Y031420D01*
X013360Y032180D01*
X013120Y031485D02*
X012296Y031485D01*
X012307Y031326D02*
X013139Y031326D01*
X013273Y031168D02*
X012307Y031168D01*
X012307Y031009D02*
X013470Y031009D01*
X010340Y028315D02*
X010232Y028315D01*
X000879Y005966D02*
X000696Y005966D01*
D34*
X008760Y022520D03*
X010160Y024000D03*
X010880Y025740D03*
X010020Y028020D03*
X010580Y028840D03*
X013200Y027860D03*
X013560Y028460D03*
X013700Y029100D03*
X014340Y030420D03*
X016080Y030180D03*
X015860Y027640D03*
X012740Y025360D03*
X012580Y023740D03*
X015960Y023240D03*
X018980Y022000D03*
X019860Y024620D03*
X023480Y022200D03*
X025180Y022060D03*
X027020Y023440D03*
X028600Y024640D03*
X028400Y027500D03*
X028880Y029540D03*
X032000Y030620D03*
X032000Y031300D03*
X031960Y034000D03*
X025560Y031140D03*
X022840Y030320D03*
X022780Y032100D03*
X021160Y032120D03*
X021140Y030280D03*
X019480Y030880D03*
X021360Y019960D03*
X023480Y019240D03*
X024080Y016780D03*
X027000Y016820D03*
X027080Y018000D03*
X008460Y025680D03*
X007140Y025140D03*
D35*
X024174Y024120D02*
X024174Y023215D01*
X024310Y023080D01*
X024192Y022963D01*
X024192Y022200D01*
X025994Y022193D02*
X026098Y022090D01*
X025994Y022193D02*
X025994Y023420D01*
X026000Y023420D01*
X026320Y023740D01*
X026320Y024440D01*
X026340Y024460D01*
X026326Y024460D02*
X026326Y025214D01*
X026360Y025249D01*
D36*
X026360Y026351D02*
X027251Y026351D01*
X027740Y026840D01*
X027740Y026846D01*
X027740Y025154D02*
X030286Y025154D01*
X030460Y024980D01*
X031780Y024180D02*
X028840Y024180D01*
X028640Y023980D01*
X028640Y023700D01*
X028640Y022660D01*
X028640Y022460D01*
X028500Y022320D01*
X026328Y022320D01*
X026098Y022090D01*
X031780Y024180D02*
X031920Y024320D01*
X031920Y029580D01*
X031380Y030120D01*
X028720Y030120D01*
X028480Y030360D01*
X028480Y030920D01*
X028100Y031300D01*
X026540Y031300D01*
X026220Y031620D01*
X026220Y032554D01*
X025767Y033006D01*
X024480Y033006D01*
X024480Y033794D02*
X024389Y033885D01*
X021000Y033885D01*
X024480Y033794D02*
X025767Y033794D01*
X026220Y034246D01*
D37*
X020102Y031169D02*
X019813Y030880D01*
X019480Y030880D01*
X018820Y030220D01*
X018414Y030220D01*
X017720Y030180D02*
X017706Y030194D01*
X017706Y030220D01*
X020200Y025180D02*
X013800Y025180D01*
X013800Y025178D01*
X013803Y025175D01*
X013803Y024545D02*
X014615Y024545D01*
X014660Y024500D01*
X014726Y024520D01*
X014660Y024480D01*
X014680Y024480D01*
X014660Y024500D01*
X014680Y024480D02*
X014720Y024440D01*
X013803Y024545D02*
X011565Y024545D01*
X011835Y024815D01*
X011835Y027143D01*
X011840Y027760D01*
X011860Y027926D01*
X011340Y027780D02*
X011205Y027645D01*
X011205Y027143D01*
X010900Y027160D02*
X010900Y027140D01*
X010900Y027120D01*
X010890Y027143D02*
X010890Y027150D01*
X010900Y027160D01*
X010900Y027720D01*
X011040Y027860D01*
X011040Y029400D01*
X010769Y029671D01*
X010769Y030600D01*
X011951Y030600D02*
X011951Y029471D01*
X011740Y029260D01*
X011580Y029260D01*
X011340Y029020D01*
X011340Y027780D01*
X009945Y027143D02*
X009943Y027143D01*
X009940Y027140D01*
X004500Y027140D01*
X004094Y026734D01*
X002600Y026734D01*
X002600Y025946D02*
X004039Y025946D01*
X004046Y025940D01*
X004754Y025940D02*
X007820Y025940D01*
X008320Y026440D01*
X009231Y026440D01*
X009237Y026435D01*
X009237Y024860D02*
X008280Y024860D01*
X007780Y024860D01*
X007500Y024580D01*
X007500Y024460D01*
X007500Y021440D01*
X007580Y021360D01*
X018700Y021360D01*
X019840Y020220D01*
X021100Y020220D01*
X021360Y019960D01*
X021760Y020640D02*
X020280Y020640D01*
X019700Y021220D01*
X019700Y024460D01*
X019860Y024620D01*
X020200Y025180D02*
X020540Y024840D01*
X020540Y022360D01*
X021260Y021640D01*
X022640Y021640D01*
X022860Y021420D01*
X022860Y016400D01*
X024020Y015240D01*
X028646Y015240D01*
X029354Y015240D02*
X030625Y015240D01*
X030665Y015280D01*
X030565Y013620D02*
X024120Y013620D01*
X022060Y015680D01*
X022060Y020340D01*
X021760Y020640D01*
X023480Y022200D02*
X024192Y022200D01*
X024302Y022090D01*
X026320Y024440D02*
X026326Y024446D01*
X026326Y024460D01*
X027420Y021860D02*
X029620Y021860D01*
X029980Y022220D01*
X029980Y022574D01*
X029974Y022580D01*
X027420Y021860D02*
X027080Y021520D01*
X027080Y018000D01*
X018980Y022000D02*
X018720Y022260D01*
X018720Y023320D01*
X018125Y023915D01*
X013803Y023915D01*
X011835Y023265D02*
X011835Y022577D01*
X011835Y021829D01*
X011854Y021820D01*
X011205Y022577D02*
X011200Y022582D01*
X011200Y023260D01*
X011240Y023300D01*
X011800Y023300D01*
X011835Y023265D01*
X011200Y023260D02*
X011200Y024180D01*
X011565Y024545D01*
X011200Y024440D02*
X011200Y024180D01*
X011200Y024440D02*
X010780Y024860D01*
X009237Y024860D01*
X008280Y024860D02*
X008274Y024854D01*
X008260Y024854D01*
X007580Y021360D02*
X005180Y021360D01*
X004940Y021600D01*
X004940Y024880D01*
X004661Y025159D01*
X002600Y025159D01*
X002600Y023550D01*
X002510Y023460D01*
M02*
