G75*
%MOIN*%
%OFA0B0*%
%FSLAX24Y24*%
%IPPOS*%
%LPD*%
%AMOC8*
5,1,8,0,0,1.08239X$1,22.5*
%
%ADD10R,0.2441X0.2126*%
%ADD11R,0.0630X0.0394*%
%ADD12C,0.0886*%
%ADD13C,0.0740*%
%ADD14R,0.0512X0.0630*%
%ADD15R,0.0591X0.0512*%
%ADD16C,0.0600*%
%ADD17R,0.0945X0.0787*%
%ADD18R,0.0909X0.0197*%
%ADD19R,0.0630X0.0512*%
%ADD20C,0.0827*%
%ADD21R,0.0472X0.0787*%
%ADD22C,0.0160*%
%ADD23C,0.0376*%
%ADD24C,0.0100*%
D10*
X021046Y017772D03*
D11*
X018172Y016875D03*
X018172Y018670D03*
D12*
X017562Y022329D02*
X017562Y023215D01*
X015562Y023215D02*
X015562Y022329D01*
X013562Y022329D02*
X013562Y023215D01*
X011062Y023215D02*
X011062Y022329D01*
X009062Y022329D02*
X009062Y023215D01*
X007062Y023215D02*
X007062Y022329D01*
X004505Y022772D02*
X003619Y022772D01*
X003619Y020772D02*
X004505Y020772D01*
X004505Y018772D02*
X003619Y018772D01*
X003619Y016272D02*
X004505Y016272D01*
X004505Y014272D02*
X003619Y014272D01*
X003619Y012272D02*
X004505Y012272D01*
X010562Y006215D02*
X010562Y005329D01*
X012562Y005329D02*
X012562Y006215D01*
X014562Y006215D02*
X014562Y005329D01*
X017062Y005329D02*
X017062Y006215D01*
X019062Y006215D02*
X019062Y005329D01*
X021062Y005329D02*
X021062Y006215D01*
D13*
X016856Y009871D03*
X015716Y009871D03*
X015132Y008772D03*
X013992Y008772D03*
X008062Y008822D03*
X007062Y008722D03*
X006062Y008822D03*
X005062Y008722D03*
X004062Y008822D03*
X009562Y019202D03*
X010562Y019202D03*
X010562Y020342D03*
X009562Y020342D03*
D14*
X006533Y020466D03*
X005785Y020466D03*
X005779Y018477D03*
X006527Y018477D03*
X006529Y016596D03*
X005781Y016596D03*
X005705Y014749D03*
X006453Y014749D03*
X005173Y010516D03*
X004425Y010516D03*
D15*
X008655Y006231D03*
X008655Y005483D03*
X013559Y017442D03*
X013559Y018190D03*
X015040Y018199D03*
X015040Y017451D03*
D16*
X007142Y006662D02*
X006542Y006662D01*
X006542Y004882D02*
X007142Y004882D01*
X004582Y004882D02*
X003982Y004882D01*
X003982Y006662D02*
X004582Y006662D01*
D17*
X019684Y010540D03*
X021849Y010540D03*
X021849Y014005D03*
X019684Y014005D03*
D18*
X019462Y012902D03*
X019462Y012587D03*
X019462Y012272D03*
X019462Y011957D03*
X019462Y011642D03*
D19*
X019938Y008275D03*
X019938Y007527D03*
X018209Y007513D03*
X018209Y008261D03*
X012789Y008140D03*
X012789Y007392D03*
X011159Y007377D03*
X011159Y008125D03*
X010092Y017265D03*
X010092Y018013D03*
X008624Y017986D03*
X008624Y017238D03*
X011953Y020366D03*
X011953Y021114D03*
X013408Y021141D03*
X013408Y020392D03*
X014804Y020441D03*
X014804Y021189D03*
X016416Y021224D03*
X016416Y020476D03*
D20*
X020649Y020772D02*
X021475Y020772D01*
X021475Y022772D02*
X020649Y022772D01*
D21*
X016562Y018324D03*
X016562Y017221D03*
D22*
X017113Y017772D01*
X021046Y017772D01*
X021062Y017788D01*
X021062Y020772D01*
X018172Y018670D02*
X016908Y018670D01*
X016562Y018324D01*
X015164Y018324D01*
X015040Y018199D01*
X013568Y018199D01*
X013559Y018190D01*
X013568Y017451D02*
X015040Y017451D01*
X015270Y017221D01*
X016562Y017221D01*
X018172Y016875D02*
X019351Y015696D01*
X019351Y015689D01*
X013568Y017451D02*
X013559Y017442D01*
D23*
X013461Y016666D03*
X015094Y016275D03*
X017331Y015001D03*
X017912Y016172D03*
X018789Y015001D03*
X019351Y015689D03*
X021994Y016248D03*
X018374Y019932D03*
X017546Y019717D03*
X017486Y019205D03*
X015323Y019533D03*
X009587Y016378D03*
X008621Y016413D03*
X006787Y015545D03*
X007310Y014263D03*
X005960Y012906D03*
X003007Y013154D03*
X008767Y009700D03*
X009092Y009239D03*
X010978Y008951D03*
X012565Y008963D03*
X011793Y006797D03*
X016266Y008263D03*
X018359Y010009D03*
X018068Y011044D03*
X018529Y011622D03*
X019059Y008982D03*
X021272Y008135D03*
X014547Y011459D03*
X007034Y019774D03*
X007320Y020926D03*
D24*
X002762Y009896D02*
X002762Y004472D01*
X003795Y004472D01*
X003746Y004497D01*
X003689Y004539D01*
X003639Y004589D01*
X003597Y004646D01*
X003565Y004710D01*
X003543Y004777D01*
X003534Y004832D01*
X004232Y004832D01*
X004232Y004932D01*
X003534Y004932D01*
X003543Y004988D01*
X003565Y005055D01*
X003597Y005118D01*
X003639Y005175D01*
X003689Y005226D01*
X003746Y005267D01*
X003809Y005299D01*
X003877Y005321D01*
X003947Y005332D01*
X004232Y005332D01*
X004232Y004932D01*
X004332Y004932D01*
X005030Y004932D01*
X005021Y004988D01*
X004999Y005055D01*
X004967Y005118D01*
X004925Y005175D01*
X004875Y005226D01*
X004818Y005267D01*
X004755Y005299D01*
X004687Y005321D01*
X004617Y005332D01*
X004332Y005332D01*
X004332Y004932D01*
X004332Y004832D01*
X005030Y004832D01*
X005021Y004777D01*
X004999Y004710D01*
X004967Y004646D01*
X004925Y004589D01*
X004875Y004539D01*
X004818Y004497D01*
X004769Y004472D01*
X006355Y004472D01*
X006306Y004497D01*
X006249Y004539D01*
X006199Y004589D01*
X006157Y004646D01*
X006125Y004710D01*
X006103Y004777D01*
X006094Y004832D01*
X006792Y004832D01*
X006792Y004932D01*
X006094Y004932D01*
X006103Y004988D01*
X006125Y005055D01*
X006157Y005118D01*
X006199Y005175D01*
X006249Y005226D01*
X006306Y005267D01*
X006369Y005299D01*
X006437Y005321D01*
X006507Y005332D01*
X006792Y005332D01*
X006792Y004932D01*
X006892Y004932D01*
X007590Y004932D01*
X007581Y004988D01*
X007559Y005055D01*
X007527Y005118D01*
X007485Y005175D01*
X007435Y005226D01*
X007378Y005267D01*
X007315Y005299D01*
X007247Y005321D01*
X007177Y005332D01*
X006892Y005332D01*
X006892Y004932D01*
X006892Y004832D01*
X007590Y004832D01*
X007581Y004777D01*
X007559Y004710D01*
X007527Y004646D01*
X007485Y004589D01*
X007435Y004539D01*
X007378Y004497D01*
X007329Y004472D01*
X022354Y004472D01*
X022354Y010036D01*
X021331Y010036D01*
X021267Y010101D01*
X021267Y010979D01*
X021331Y011044D01*
X022354Y011044D01*
X022354Y013501D01*
X021331Y013501D01*
X021267Y013565D01*
X021267Y014444D01*
X021331Y014508D01*
X022354Y014508D01*
X022354Y016587D01*
X022325Y016570D01*
X022286Y016559D01*
X021096Y016559D01*
X021096Y017722D01*
X020996Y017722D01*
X020996Y016559D01*
X019806Y016559D01*
X019768Y016570D01*
X019734Y016589D01*
X019706Y016617D01*
X019686Y016651D01*
X019676Y016690D01*
X019676Y017722D01*
X020996Y017722D01*
X020996Y017822D01*
X019676Y017822D01*
X019676Y018855D01*
X019686Y018893D01*
X019706Y018927D01*
X019734Y018955D01*
X019768Y018975D01*
X019806Y018985D01*
X020996Y018985D01*
X020996Y017822D01*
X021096Y017822D01*
X021096Y018985D01*
X022286Y018985D01*
X022325Y018975D01*
X022354Y018958D01*
X022354Y023942D01*
X002762Y023942D01*
X002762Y013330D01*
X002839Y013407D01*
X002846Y013410D01*
X002834Y015147D01*
X002832Y015212D01*
X002833Y015213D01*
X002833Y015215D01*
X002879Y015261D01*
X003370Y015777D01*
X003306Y015804D01*
X003150Y015959D01*
X003066Y016162D01*
X003066Y016382D01*
X003150Y016586D01*
X003306Y016741D01*
X003509Y016825D01*
X004615Y016825D01*
X004818Y016741D01*
X004974Y016586D01*
X005058Y016382D01*
X005058Y016162D01*
X004974Y015959D01*
X004818Y015804D01*
X004615Y015719D01*
X003757Y015719D01*
X003154Y015086D01*
X003158Y014593D01*
X003306Y014741D01*
X003509Y014825D01*
X004615Y014825D01*
X004818Y014741D01*
X004974Y014586D01*
X005058Y014382D01*
X005058Y014162D01*
X004974Y013959D01*
X004818Y013804D01*
X004615Y013719D01*
X003509Y013719D01*
X003306Y013804D01*
X003162Y013947D01*
X003166Y013411D01*
X003176Y013407D01*
X003260Y013323D01*
X003306Y013213D01*
X003306Y013095D01*
X003293Y013066D01*
X005703Y013066D01*
X005707Y013075D01*
X005791Y013158D01*
X005900Y013204D01*
X006019Y013204D01*
X006129Y013158D01*
X006212Y013075D01*
X006258Y012965D01*
X006258Y012846D01*
X006212Y012737D01*
X006129Y012653D01*
X006019Y012608D01*
X005900Y012608D01*
X005791Y012653D01*
X005707Y012737D01*
X005703Y012746D01*
X004862Y012746D01*
X004891Y012725D01*
X004957Y012659D01*
X005012Y012583D01*
X005054Y012500D01*
X005083Y012411D01*
X005097Y012322D01*
X004112Y012322D01*
X004112Y012222D01*
X004112Y011679D01*
X004552Y011679D01*
X004644Y011694D01*
X004733Y011723D01*
X004816Y011765D01*
X004891Y011820D01*
X004957Y011886D01*
X005012Y011962D01*
X005054Y012045D01*
X005083Y012133D01*
X005097Y012222D01*
X004112Y012222D01*
X004012Y012222D01*
X004012Y011679D01*
X003572Y011679D01*
X003480Y011694D01*
X003391Y011723D01*
X003308Y011765D01*
X003233Y011820D01*
X003167Y011886D01*
X003112Y011962D01*
X003074Y012035D01*
X003074Y010036D01*
X003855Y009256D01*
X003967Y009302D01*
X004157Y009302D01*
X004265Y009258D01*
X004265Y010091D01*
X004123Y010091D01*
X004059Y010156D01*
X004059Y010877D01*
X004123Y010941D01*
X004726Y010941D01*
X004791Y010877D01*
X004791Y010156D01*
X004726Y010091D01*
X004585Y010091D01*
X004585Y009119D01*
X004496Y009030D01*
X004542Y008918D01*
X004542Y008727D01*
X004469Y008550D01*
X004334Y008415D01*
X004157Y008342D01*
X003967Y008342D01*
X003790Y008415D01*
X003655Y008550D01*
X003582Y008727D01*
X003582Y008918D01*
X003628Y009030D01*
X002762Y009896D01*
X002762Y009887D02*
X002771Y009887D01*
X002762Y009788D02*
X002870Y009788D01*
X002968Y009690D02*
X002762Y009690D01*
X002762Y009591D02*
X003067Y009591D01*
X003165Y009493D02*
X002762Y009493D01*
X002762Y009394D02*
X003264Y009394D01*
X003362Y009296D02*
X002762Y009296D01*
X002762Y009197D02*
X003461Y009197D01*
X003559Y009099D02*
X002762Y009099D01*
X002762Y009000D02*
X003616Y009000D01*
X003582Y008902D02*
X002762Y008902D01*
X002762Y008803D02*
X003582Y008803D01*
X003591Y008705D02*
X002762Y008705D01*
X002762Y008606D02*
X003632Y008606D01*
X003698Y008508D02*
X002762Y008508D01*
X002762Y008409D02*
X003805Y008409D01*
X004062Y008822D02*
X004425Y009185D01*
X004425Y010516D01*
X004791Y010478D02*
X004807Y010478D01*
X004807Y010576D02*
X004791Y010576D01*
X004791Y010675D02*
X004807Y010675D01*
X004807Y010773D02*
X004791Y010773D01*
X004791Y010872D02*
X004807Y010872D01*
X004807Y010877D02*
X004807Y010156D01*
X004871Y010091D01*
X005474Y010091D01*
X005539Y010156D01*
X005539Y010356D01*
X005798Y010356D01*
X006417Y009737D01*
X006417Y009203D01*
X006401Y009219D01*
X006335Y009267D01*
X006262Y009304D01*
X006184Y009330D01*
X006112Y009341D01*
X006112Y008872D01*
X006012Y008872D01*
X006012Y008772D01*
X006112Y008772D01*
X006112Y008304D01*
X006184Y008315D01*
X006262Y008340D01*
X006335Y008378D01*
X006401Y008426D01*
X006417Y008442D01*
X006417Y007511D01*
X006381Y007476D01*
X004556Y007476D01*
X004462Y007382D01*
X004152Y007072D01*
X003900Y007072D01*
X003750Y007010D01*
X003634Y006895D01*
X003572Y006744D01*
X003572Y006581D01*
X003634Y006430D01*
X003750Y006315D01*
X003900Y006252D01*
X004664Y006252D01*
X004814Y006315D01*
X004930Y006430D01*
X004992Y006581D01*
X004992Y006744D01*
X004930Y006895D01*
X004814Y007010D01*
X004664Y007072D01*
X004605Y007072D01*
X004688Y007156D01*
X006381Y007156D01*
X006465Y007072D01*
X006460Y007072D01*
X006310Y007010D01*
X006194Y006895D01*
X006132Y006744D01*
X006132Y006581D01*
X006194Y006430D01*
X006310Y006315D01*
X006460Y006252D01*
X007224Y006252D01*
X007374Y006315D01*
X007490Y006430D01*
X007520Y006502D01*
X008157Y006502D01*
X008250Y006410D01*
X008250Y005929D01*
X008301Y005878D01*
X008268Y005859D01*
X008240Y005831D01*
X008220Y005796D01*
X008210Y005758D01*
X008210Y005533D01*
X008605Y005533D01*
X008605Y005433D01*
X008210Y005433D01*
X008210Y005207D01*
X008220Y005169D01*
X008240Y005135D01*
X008268Y005107D01*
X008302Y005087D01*
X008340Y005077D01*
X008605Y005077D01*
X008605Y005433D01*
X008705Y005433D01*
X008705Y005077D01*
X008970Y005077D01*
X009009Y005087D01*
X009043Y005107D01*
X009071Y005135D01*
X009090Y005169D01*
X009101Y005207D01*
X009101Y005433D01*
X008705Y005433D01*
X008705Y005533D01*
X009101Y005533D01*
X009101Y005758D01*
X009090Y005796D01*
X009071Y005831D01*
X009043Y005859D01*
X009009Y005878D01*
X009061Y005929D01*
X009061Y006532D01*
X008996Y006597D01*
X008516Y006597D01*
X008290Y006822D01*
X007520Y006822D01*
X007490Y006895D01*
X007374Y007010D01*
X007224Y007072D01*
X006917Y007072D01*
X006865Y007125D01*
X006674Y007316D01*
X006737Y007379D01*
X006737Y008369D01*
X006790Y008315D01*
X006967Y008242D01*
X007157Y008242D01*
X007334Y008315D01*
X007469Y008450D01*
X007542Y008627D01*
X007542Y008818D01*
X007469Y008994D01*
X007334Y009129D01*
X007258Y009161D01*
X007638Y009540D01*
X008511Y009540D01*
X008514Y009531D01*
X008598Y009448D01*
X008708Y009402D01*
X008826Y009402D01*
X008840Y009408D01*
X008840Y009408D01*
X008794Y009298D01*
X008794Y009179D01*
X008840Y009070D01*
X008924Y008986D01*
X009033Y008941D01*
X009152Y008941D01*
X009161Y008944D01*
X010734Y007371D01*
X010734Y007075D01*
X010799Y007011D01*
X011520Y007011D01*
X011584Y007075D01*
X011584Y007217D01*
X012364Y007217D01*
X012364Y007194D01*
X012128Y006957D01*
X012049Y006957D01*
X012045Y006966D01*
X011961Y007050D01*
X011852Y007095D01*
X011733Y007095D01*
X011624Y007050D01*
X011540Y006966D01*
X011494Y006856D01*
X011494Y006738D01*
X011540Y006628D01*
X011624Y006544D01*
X011733Y006499D01*
X011852Y006499D01*
X011961Y006544D01*
X012045Y006628D01*
X012049Y006637D01*
X012202Y006637D01*
X012093Y006528D01*
X012009Y006325D01*
X012009Y005219D01*
X012093Y005016D01*
X012249Y004861D01*
X012452Y004776D01*
X012672Y004776D01*
X012875Y004861D01*
X013031Y005016D01*
X013115Y005219D01*
X013115Y006325D01*
X013031Y006528D01*
X012875Y006684D01*
X012672Y006768D01*
X012452Y006768D01*
X012348Y006725D01*
X012650Y007026D01*
X013150Y007026D01*
X013214Y007091D01*
X013214Y007232D01*
X014831Y007232D01*
X016000Y008401D01*
X015968Y008322D01*
X015968Y008204D01*
X016013Y008094D01*
X016097Y008010D01*
X016207Y007965D01*
X016325Y007965D01*
X016435Y008010D01*
X016519Y008094D01*
X016522Y008103D01*
X017784Y008103D01*
X017784Y007960D01*
X017848Y007895D01*
X018570Y007895D01*
X018634Y007960D01*
X018634Y008563D01*
X018570Y008627D01*
X017848Y008627D01*
X017784Y008563D01*
X017784Y008423D01*
X016522Y008423D01*
X016519Y008432D01*
X016435Y008516D01*
X016325Y008561D01*
X016207Y008561D01*
X016128Y008529D01*
X016505Y008906D01*
X017483Y008906D01*
X018291Y009715D01*
X018300Y009711D01*
X018419Y009711D01*
X018528Y009756D01*
X018612Y009840D01*
X018657Y009950D01*
X018657Y010068D01*
X018612Y010178D01*
X018528Y010262D01*
X018419Y010307D01*
X018353Y010307D01*
X019102Y010951D01*
X019102Y010101D01*
X019166Y010036D01*
X020202Y010036D01*
X020266Y010101D01*
X020266Y010979D01*
X020202Y011044D01*
X020152Y011044D01*
X020173Y011065D01*
X020173Y011084D01*
X020293Y011275D01*
X020332Y011181D01*
X020444Y011070D01*
X020589Y011009D01*
X020747Y011009D01*
X020893Y011070D01*
X021005Y011181D01*
X021065Y011327D01*
X021065Y011485D01*
X021005Y011631D01*
X020893Y011743D01*
X020747Y011803D01*
X020589Y011803D01*
X020528Y011778D01*
X020527Y012587D01*
X020530Y012590D01*
X020527Y012653D01*
X020527Y012716D01*
X020525Y012719D01*
X020525Y012722D01*
X020478Y012765D01*
X020433Y012810D01*
X020430Y012810D01*
X020201Y013022D01*
X020155Y013067D01*
X020153Y013067D01*
X020151Y013068D01*
X020087Y013066D01*
X020008Y013065D01*
X019962Y013111D01*
X018962Y013111D01*
X018898Y013046D01*
X018898Y012758D01*
X018911Y012745D01*
X018898Y012731D01*
X018898Y012443D01*
X018909Y012432D01*
X018309Y012432D01*
X018309Y012432D01*
X018243Y012432D01*
X018176Y012432D01*
X018126Y012383D01*
X018082Y012339D01*
X017363Y011619D01*
X014803Y011619D01*
X014799Y011628D01*
X014716Y011712D01*
X014606Y011757D01*
X014487Y011757D01*
X014378Y011712D01*
X014294Y011628D01*
X014249Y011518D01*
X014249Y011400D01*
X014294Y011290D01*
X014378Y011206D01*
X014487Y011161D01*
X014606Y011161D01*
X014716Y011206D01*
X014799Y011290D01*
X014803Y011299D01*
X014998Y011299D01*
X014608Y010909D01*
X014608Y009965D01*
X014702Y009871D01*
X014972Y009601D01*
X014972Y009226D01*
X014860Y009179D01*
X014725Y009044D01*
X014652Y008868D01*
X014652Y008677D01*
X014725Y008500D01*
X014860Y008365D01*
X015037Y008292D01*
X015227Y008292D01*
X015404Y008365D01*
X015539Y008500D01*
X015612Y008677D01*
X015612Y008868D01*
X015539Y009044D01*
X015404Y009179D01*
X015292Y009226D01*
X015292Y009641D01*
X015309Y009599D01*
X015444Y009464D01*
X015621Y009391D01*
X015812Y009391D01*
X015988Y009464D01*
X016123Y009599D01*
X016196Y009776D01*
X016196Y009967D01*
X016123Y010143D01*
X015988Y010278D01*
X015812Y010351D01*
X015621Y010351D01*
X015444Y010278D01*
X015309Y010143D01*
X015236Y009967D01*
X015236Y009789D01*
X014928Y010098D01*
X014928Y010776D01*
X015246Y011094D01*
X017642Y011094D01*
X018359Y011811D01*
X018875Y011811D01*
X018868Y011799D01*
X018858Y011761D01*
X018858Y011642D01*
X018858Y011524D01*
X018863Y011503D01*
X018722Y011503D01*
X018629Y011410D01*
X018423Y011204D01*
X018324Y011204D01*
X018321Y011213D01*
X018237Y011297D01*
X018127Y011342D01*
X018009Y011342D01*
X017899Y011297D01*
X017815Y011213D01*
X017770Y011103D01*
X017770Y010985D01*
X017815Y010875D01*
X017899Y010791D01*
X018009Y010746D01*
X018127Y010746D01*
X018237Y010791D01*
X018321Y010875D01*
X018324Y010884D01*
X018534Y010884D01*
X017542Y010031D01*
X017310Y010031D01*
X017263Y010143D01*
X017128Y010278D01*
X016952Y010351D01*
X016761Y010351D01*
X016584Y010278D01*
X016449Y010143D01*
X016376Y009967D01*
X016376Y009776D01*
X016449Y009599D01*
X016584Y009464D01*
X016761Y009391D01*
X016952Y009391D01*
X017128Y009464D01*
X017263Y009599D01*
X017310Y009711D01*
X017595Y009711D01*
X017655Y009707D01*
X017660Y009711D01*
X017667Y009711D01*
X017710Y009754D01*
X018061Y010056D01*
X018061Y009950D01*
X018065Y009941D01*
X017350Y009226D01*
X016373Y009226D01*
X016279Y009133D01*
X014699Y007552D01*
X013214Y007552D01*
X013214Y007694D01*
X013150Y007758D01*
X012429Y007758D01*
X012364Y007694D01*
X012364Y007537D01*
X011584Y007537D01*
X011584Y007678D01*
X011520Y007743D01*
X010815Y007743D01*
X009387Y009171D01*
X009391Y009179D01*
X009391Y009298D01*
X009345Y009408D01*
X009261Y009492D01*
X009152Y009537D01*
X009033Y009537D01*
X009020Y009531D01*
X009020Y009531D01*
X009065Y009641D01*
X009065Y009760D01*
X009020Y009869D01*
X008936Y009953D01*
X008826Y009998D01*
X008708Y009998D01*
X008598Y009953D01*
X008514Y009869D01*
X008511Y009860D01*
X007505Y009860D01*
X006997Y009353D01*
X006904Y009259D01*
X006904Y009176D01*
X006790Y009129D01*
X006737Y009076D01*
X006737Y009870D01*
X006643Y009964D01*
X005930Y010676D01*
X005539Y010676D01*
X005539Y010877D01*
X005474Y010941D01*
X004871Y010941D01*
X004807Y010877D01*
X004791Y010379D02*
X004807Y010379D01*
X004807Y010281D02*
X004791Y010281D01*
X004791Y010182D02*
X004807Y010182D01*
X004585Y010084D02*
X006070Y010084D01*
X005972Y010182D02*
X005539Y010182D01*
X005539Y010281D02*
X005873Y010281D01*
X005864Y010516D02*
X006577Y009804D01*
X006577Y007445D01*
X006447Y007316D01*
X006799Y006965D01*
X006799Y006706D01*
X006842Y006662D01*
X008224Y006662D01*
X008655Y006231D01*
X009061Y006242D02*
X010009Y006242D01*
X010009Y006325D02*
X010009Y005219D01*
X010093Y005016D01*
X010249Y004861D01*
X010452Y004776D01*
X010672Y004776D01*
X010875Y004861D01*
X011031Y005016D01*
X011115Y005219D01*
X011115Y006325D01*
X011031Y006528D01*
X010875Y006684D01*
X010672Y006768D01*
X010452Y006768D01*
X010249Y006684D01*
X010093Y006528D01*
X010009Y006325D01*
X010016Y006341D02*
X009061Y006341D01*
X009061Y006439D02*
X010056Y006439D01*
X010103Y006538D02*
X009055Y006538D01*
X009061Y006144D02*
X010009Y006144D01*
X010009Y006045D02*
X009061Y006045D01*
X009061Y005947D02*
X010009Y005947D01*
X010009Y005848D02*
X009053Y005848D01*
X009101Y005750D02*
X010009Y005750D01*
X010009Y005651D02*
X009101Y005651D01*
X009101Y005553D02*
X010009Y005553D01*
X010009Y005454D02*
X008705Y005454D01*
X008678Y005483D02*
X009678Y004483D01*
X014265Y004483D01*
X014616Y004834D01*
X014607Y004855D01*
X014616Y005718D01*
X014562Y005772D01*
X014512Y005750D02*
X013115Y005750D01*
X013115Y005848D02*
X013969Y005848D01*
X013969Y005822D02*
X014512Y005822D01*
X014512Y005722D01*
X014612Y005722D01*
X014612Y004737D01*
X014701Y004751D01*
X014790Y004780D01*
X014873Y004822D01*
X014948Y004877D01*
X015014Y004943D01*
X015069Y005019D01*
X015111Y005102D01*
X015140Y005191D01*
X015155Y005283D01*
X015155Y005722D01*
X014612Y005722D01*
X014612Y005822D01*
X015155Y005822D01*
X015155Y006262D01*
X015140Y006354D01*
X015111Y006443D01*
X015069Y006526D01*
X015014Y006601D01*
X014948Y006667D01*
X014873Y006722D01*
X014790Y006765D01*
X014701Y006794D01*
X014612Y006808D01*
X014612Y005822D01*
X014512Y005822D01*
X014512Y006808D01*
X014423Y006794D01*
X014334Y006765D01*
X014251Y006722D01*
X014176Y006667D01*
X014110Y006601D01*
X014055Y006526D01*
X014013Y006443D01*
X013984Y006354D01*
X013969Y006262D01*
X013969Y005822D01*
X013969Y005722D02*
X013969Y005283D01*
X013984Y005191D01*
X014013Y005102D01*
X014055Y005019D01*
X014110Y004943D01*
X014176Y004877D01*
X014251Y004822D01*
X014334Y004780D01*
X014423Y004751D01*
X014512Y004737D01*
X014512Y005722D01*
X013969Y005722D01*
X013969Y005651D02*
X013115Y005651D01*
X013115Y005553D02*
X013969Y005553D01*
X013969Y005454D02*
X013115Y005454D01*
X013115Y005356D02*
X013969Y005356D01*
X013973Y005257D02*
X013115Y005257D01*
X013090Y005159D02*
X013994Y005159D01*
X014034Y005060D02*
X013049Y005060D01*
X012976Y004962D02*
X014096Y004962D01*
X014195Y004863D02*
X012878Y004863D01*
X012246Y004863D02*
X010878Y004863D01*
X010976Y004962D02*
X012148Y004962D01*
X012075Y005060D02*
X011049Y005060D01*
X011090Y005159D02*
X012034Y005159D01*
X012009Y005257D02*
X011115Y005257D01*
X011115Y005356D02*
X012009Y005356D01*
X012009Y005454D02*
X011115Y005454D01*
X011115Y005553D02*
X012009Y005553D01*
X012009Y005651D02*
X011115Y005651D01*
X011115Y005750D02*
X012009Y005750D01*
X012009Y005848D02*
X011115Y005848D01*
X011115Y005947D02*
X012009Y005947D01*
X012009Y006045D02*
X011115Y006045D01*
X011115Y006144D02*
X012009Y006144D01*
X012009Y006242D02*
X011115Y006242D01*
X011108Y006341D02*
X012016Y006341D01*
X012056Y006439D02*
X011068Y006439D01*
X011021Y006538D02*
X011640Y006538D01*
X011537Y006636D02*
X010923Y006636D01*
X010752Y006735D02*
X011496Y006735D01*
X011494Y006833D02*
X007515Y006833D01*
X007452Y006932D02*
X011526Y006932D01*
X011539Y007030D02*
X011604Y007030D01*
X011584Y007129D02*
X012299Y007129D01*
X012201Y007030D02*
X011981Y007030D01*
X011793Y006797D02*
X012194Y006797D01*
X012789Y007392D01*
X012774Y007377D01*
X011159Y007377D01*
X010954Y007377D01*
X009092Y009239D01*
X008828Y009099D02*
X008464Y009099D01*
X008469Y009094D02*
X008334Y009229D01*
X008157Y009302D01*
X007967Y009302D01*
X007790Y009229D01*
X007655Y009094D01*
X007582Y008918D01*
X007582Y008727D01*
X007655Y008550D01*
X007790Y008415D01*
X007967Y008342D01*
X008157Y008342D01*
X008334Y008415D01*
X008469Y008550D01*
X008542Y008727D01*
X008542Y008918D01*
X008469Y009094D01*
X008508Y009000D02*
X008909Y009000D01*
X008794Y009197D02*
X008366Y009197D01*
X008173Y009296D02*
X008794Y009296D01*
X008834Y009394D02*
X007492Y009394D01*
X007393Y009296D02*
X007951Y009296D01*
X007758Y009197D02*
X007295Y009197D01*
X007364Y009099D02*
X007660Y009099D01*
X007616Y009000D02*
X007463Y009000D01*
X007507Y008902D02*
X007582Y008902D01*
X007582Y008803D02*
X007542Y008803D01*
X007542Y008705D02*
X007591Y008705D01*
X007632Y008606D02*
X007534Y008606D01*
X007493Y008508D02*
X007698Y008508D01*
X007805Y008409D02*
X007428Y008409D01*
X007323Y008311D02*
X009794Y008311D01*
X009696Y008409D02*
X008319Y008409D01*
X008426Y008508D02*
X009597Y008508D01*
X009499Y008606D02*
X008492Y008606D01*
X008533Y008705D02*
X009400Y008705D01*
X009302Y008803D02*
X008542Y008803D01*
X008542Y008902D02*
X009203Y008902D01*
X009459Y009099D02*
X010716Y009099D01*
X010725Y009120D02*
X010680Y009011D01*
X010680Y008892D01*
X010725Y008783D01*
X010809Y008699D01*
X010919Y008653D01*
X010999Y008653D01*
X010999Y008491D01*
X010799Y008491D01*
X010734Y008426D01*
X010734Y007823D01*
X010799Y007759D01*
X011520Y007759D01*
X011584Y007823D01*
X011584Y008426D01*
X011520Y008491D01*
X011319Y008491D01*
X011319Y008836D01*
X011272Y008883D01*
X011276Y008892D01*
X011276Y009011D01*
X011231Y009120D01*
X011147Y009204D01*
X011037Y009249D01*
X010919Y009249D01*
X010809Y009204D01*
X010725Y009120D01*
X010802Y009197D02*
X009391Y009197D01*
X009391Y009296D02*
X014972Y009296D01*
X014972Y009394D02*
X009351Y009394D01*
X009258Y009493D02*
X014972Y009493D01*
X014972Y009591D02*
X009045Y009591D01*
X009065Y009690D02*
X014883Y009690D01*
X014785Y009788D02*
X009053Y009788D01*
X009002Y009887D02*
X014686Y009887D01*
X014608Y009985D02*
X008858Y009985D01*
X008676Y009985D02*
X006621Y009985D01*
X006720Y009887D02*
X008532Y009887D01*
X008767Y009700D02*
X007571Y009700D01*
X007064Y009193D01*
X007064Y008724D01*
X007062Y008722D01*
X006760Y009099D02*
X006737Y009099D01*
X006737Y009197D02*
X006904Y009197D01*
X006941Y009296D02*
X006737Y009296D01*
X006737Y009394D02*
X007039Y009394D01*
X007138Y009493D02*
X006737Y009493D01*
X006737Y009591D02*
X007236Y009591D01*
X007335Y009690D02*
X006737Y009690D01*
X006737Y009788D02*
X007433Y009788D01*
X007590Y009493D02*
X008553Y009493D01*
X009557Y009000D02*
X010680Y009000D01*
X010680Y008902D02*
X009656Y008902D01*
X009754Y008803D02*
X010717Y008803D01*
X010803Y008705D02*
X009853Y008705D01*
X009951Y008606D02*
X010999Y008606D01*
X010999Y008508D02*
X010050Y008508D01*
X010148Y008409D02*
X010734Y008409D01*
X010734Y008311D02*
X010247Y008311D01*
X010345Y008212D02*
X010734Y008212D01*
X010734Y008114D02*
X010444Y008114D01*
X010542Y008015D02*
X010734Y008015D01*
X010734Y007917D02*
X010641Y007917D01*
X010739Y007818D02*
X010739Y007818D01*
X010484Y007621D02*
X006737Y007621D01*
X006737Y007523D02*
X010582Y007523D01*
X010681Y007424D02*
X006737Y007424D01*
X006684Y007326D02*
X010734Y007326D01*
X010734Y007227D02*
X006762Y007227D01*
X006861Y007129D02*
X010734Y007129D01*
X010779Y007030D02*
X007325Y007030D01*
X007493Y006439D02*
X008220Y006439D01*
X008250Y006341D02*
X007400Y006341D01*
X008250Y006242D02*
X002762Y006242D01*
X002762Y006144D02*
X008250Y006144D01*
X008250Y006045D02*
X002762Y006045D01*
X002762Y005947D02*
X008250Y005947D01*
X008258Y005848D02*
X002762Y005848D01*
X002762Y005750D02*
X008210Y005750D01*
X008210Y005651D02*
X002762Y005651D01*
X002762Y005553D02*
X008210Y005553D01*
X008210Y005356D02*
X002762Y005356D01*
X002762Y005454D02*
X008605Y005454D01*
X008655Y005483D02*
X008678Y005483D01*
X008655Y005483D02*
X008055Y004882D01*
X006842Y004882D01*
X006752Y004973D01*
X006752Y005185D01*
X006518Y005419D01*
X004622Y005419D01*
X004282Y005080D01*
X004282Y004882D01*
X003284Y005881D01*
X003284Y006808D01*
X004161Y007686D01*
X005819Y007686D01*
X006062Y007929D01*
X006062Y008822D01*
X006012Y008803D02*
X005542Y008803D01*
X005542Y008818D02*
X005469Y008994D01*
X005334Y009129D01*
X005157Y009202D01*
X004967Y009202D01*
X004790Y009129D01*
X004655Y008994D01*
X004582Y008818D01*
X004582Y008627D01*
X004655Y008450D01*
X004790Y008315D01*
X004967Y008242D01*
X005157Y008242D01*
X005334Y008315D01*
X005469Y008450D01*
X005542Y008627D01*
X005542Y008818D01*
X005543Y008772D02*
X005555Y008701D01*
X005580Y008623D01*
X005617Y008550D01*
X005665Y008484D01*
X005723Y008426D01*
X005789Y008378D01*
X005862Y008340D01*
X005940Y008315D01*
X006012Y008304D01*
X006012Y008772D01*
X005543Y008772D01*
X005542Y008705D02*
X005554Y008705D01*
X005534Y008606D02*
X005588Y008606D01*
X005648Y008508D02*
X005493Y008508D01*
X005428Y008409D02*
X005746Y008409D01*
X005967Y008311D02*
X005323Y008311D01*
X004801Y008311D02*
X002762Y008311D01*
X002762Y008212D02*
X006417Y008212D01*
X006417Y008114D02*
X002762Y008114D01*
X002762Y008015D02*
X006417Y008015D01*
X006417Y007917D02*
X002762Y007917D01*
X002762Y007818D02*
X006417Y007818D01*
X006417Y007720D02*
X002762Y007720D01*
X002762Y007621D02*
X006417Y007621D01*
X006417Y007523D02*
X002762Y007523D01*
X002762Y007424D02*
X004504Y007424D01*
X004406Y007326D02*
X002762Y007326D01*
X002762Y007227D02*
X004307Y007227D01*
X004209Y007129D02*
X002762Y007129D01*
X002762Y007030D02*
X003799Y007030D01*
X003672Y006932D02*
X002762Y006932D01*
X002762Y006833D02*
X003609Y006833D01*
X003572Y006735D02*
X002762Y006735D01*
X002762Y006636D02*
X003572Y006636D01*
X003590Y006538D02*
X002762Y006538D01*
X002762Y006439D02*
X003631Y006439D01*
X003724Y006341D02*
X002762Y006341D01*
X002762Y005257D02*
X003733Y005257D01*
X003627Y005159D02*
X002762Y005159D01*
X002762Y005060D02*
X003568Y005060D01*
X003539Y004962D02*
X002762Y004962D01*
X002762Y004863D02*
X004232Y004863D01*
X004232Y004962D02*
X004332Y004962D01*
X004332Y005060D02*
X004232Y005060D01*
X004232Y005159D02*
X004332Y005159D01*
X004332Y005257D02*
X004232Y005257D01*
X004332Y004863D02*
X006792Y004863D01*
X006792Y004962D02*
X006892Y004962D01*
X006892Y005060D02*
X006792Y005060D01*
X006792Y005159D02*
X006892Y005159D01*
X006892Y005257D02*
X006792Y005257D01*
X006892Y004863D02*
X010246Y004863D01*
X010148Y004962D02*
X007585Y004962D01*
X007556Y005060D02*
X010075Y005060D01*
X010034Y005159D02*
X009085Y005159D01*
X009101Y005257D02*
X010009Y005257D01*
X010009Y005356D02*
X009101Y005356D01*
X008705Y005356D02*
X008605Y005356D01*
X008605Y005257D02*
X008705Y005257D01*
X008705Y005159D02*
X008605Y005159D01*
X008226Y005159D02*
X007497Y005159D01*
X007391Y005257D02*
X008210Y005257D01*
X007577Y004765D02*
X014381Y004765D01*
X014512Y004765D02*
X014612Y004765D01*
X014607Y004855D02*
X014970Y004491D01*
X020585Y004506D01*
X021062Y004983D01*
X021062Y005772D01*
X021012Y005750D02*
X019615Y005750D01*
X019615Y005848D02*
X020469Y005848D01*
X020469Y005822D02*
X021012Y005822D01*
X021012Y005722D01*
X021112Y005722D01*
X021112Y004737D01*
X021201Y004751D01*
X021290Y004780D01*
X021373Y004822D01*
X021448Y004877D01*
X021514Y004943D01*
X021569Y005019D01*
X021611Y005102D01*
X021640Y005191D01*
X021655Y005283D01*
X021655Y005722D01*
X021112Y005722D01*
X021112Y005822D01*
X021655Y005822D01*
X021655Y006262D01*
X021640Y006354D01*
X021611Y006443D01*
X021569Y006526D01*
X021514Y006601D01*
X021448Y006667D01*
X021373Y006722D01*
X021290Y006765D01*
X021201Y006794D01*
X021112Y006808D01*
X021112Y005822D01*
X021012Y005822D01*
X021012Y006808D01*
X020923Y006794D01*
X020834Y006765D01*
X020751Y006722D01*
X020676Y006667D01*
X020610Y006601D01*
X020555Y006526D01*
X020513Y006443D01*
X020484Y006354D01*
X020469Y006262D01*
X020469Y005822D01*
X020469Y005722D02*
X020469Y005283D01*
X020484Y005191D01*
X020513Y005102D01*
X020555Y005019D01*
X020610Y004943D01*
X020676Y004877D01*
X020751Y004822D01*
X020834Y004780D01*
X020923Y004751D01*
X021012Y004737D01*
X021012Y005722D01*
X020469Y005722D01*
X020469Y005651D02*
X019615Y005651D01*
X019615Y005553D02*
X020469Y005553D01*
X020469Y005454D02*
X019615Y005454D01*
X019615Y005356D02*
X020469Y005356D01*
X020473Y005257D02*
X019615Y005257D01*
X019615Y005219D02*
X019531Y005016D01*
X019375Y004861D01*
X019172Y004776D01*
X018952Y004776D01*
X018749Y004861D01*
X018593Y005016D01*
X018509Y005219D01*
X018509Y006325D01*
X018593Y006528D01*
X018749Y006684D01*
X018952Y006768D01*
X019172Y006768D01*
X019375Y006684D01*
X019531Y006528D01*
X019615Y006325D01*
X019615Y005219D01*
X019590Y005159D02*
X020494Y005159D01*
X020534Y005060D02*
X019549Y005060D01*
X019476Y004962D02*
X020596Y004962D01*
X020695Y004863D02*
X019378Y004863D01*
X018746Y004863D02*
X017378Y004863D01*
X017375Y004861D02*
X017531Y005016D01*
X017615Y005219D01*
X017615Y006325D01*
X017531Y006528D01*
X017375Y006684D01*
X017172Y006768D01*
X016952Y006768D01*
X016749Y006684D01*
X016593Y006528D01*
X016509Y006325D01*
X016509Y005219D01*
X016593Y005016D01*
X016749Y004861D01*
X016952Y004776D01*
X017172Y004776D01*
X017375Y004861D01*
X017476Y004962D02*
X018648Y004962D01*
X018575Y005060D02*
X017549Y005060D01*
X017590Y005159D02*
X018534Y005159D01*
X018509Y005257D02*
X017615Y005257D01*
X017615Y005356D02*
X018509Y005356D01*
X018509Y005454D02*
X017615Y005454D01*
X017615Y005553D02*
X018509Y005553D01*
X018509Y005651D02*
X017615Y005651D01*
X017615Y005750D02*
X018509Y005750D01*
X018509Y005848D02*
X017615Y005848D01*
X017615Y005947D02*
X018509Y005947D01*
X018509Y006045D02*
X017615Y006045D01*
X017615Y006144D02*
X018509Y006144D01*
X018509Y006242D02*
X017615Y006242D01*
X017608Y006341D02*
X018516Y006341D01*
X018556Y006439D02*
X017568Y006439D01*
X017521Y006538D02*
X018603Y006538D01*
X018701Y006636D02*
X017423Y006636D01*
X017252Y006735D02*
X018872Y006735D01*
X018570Y007147D02*
X018634Y007212D01*
X018634Y007367D01*
X019513Y007367D01*
X019513Y007225D01*
X019577Y007161D01*
X020298Y007161D01*
X020363Y007225D01*
X020363Y007367D01*
X020729Y007367D01*
X020823Y007460D01*
X020823Y007460D01*
X021203Y007841D01*
X021212Y007837D01*
X021331Y007837D01*
X021440Y007883D01*
X021524Y007967D01*
X021570Y008076D01*
X021570Y008195D01*
X021524Y008304D01*
X021440Y008388D01*
X021331Y008434D01*
X021212Y008434D01*
X021103Y008388D01*
X021019Y008304D01*
X020973Y008195D01*
X020973Y008076D01*
X020977Y008067D01*
X020596Y007687D01*
X020363Y007687D01*
X020363Y007828D01*
X020298Y007893D01*
X019577Y007893D01*
X019513Y007828D01*
X019513Y007687D01*
X018634Y007687D01*
X018634Y007815D01*
X018570Y007879D01*
X017848Y007879D01*
X017784Y007815D01*
X017784Y007212D01*
X017848Y007147D01*
X018570Y007147D01*
X018634Y007227D02*
X019513Y007227D01*
X019513Y007326D02*
X018634Y007326D01*
X018634Y007720D02*
X019513Y007720D01*
X019513Y007818D02*
X018630Y007818D01*
X018591Y007917D02*
X019569Y007917D01*
X019577Y007909D02*
X019513Y007973D01*
X019513Y008473D01*
X019243Y008743D01*
X019228Y008729D01*
X019119Y008683D01*
X019000Y008683D01*
X018890Y008729D01*
X018807Y008813D01*
X018761Y008922D01*
X018761Y009041D01*
X018807Y009150D01*
X018890Y009234D01*
X019000Y009280D01*
X019119Y009280D01*
X019228Y009234D01*
X019312Y009150D01*
X019329Y009110D01*
X019798Y008641D01*
X020298Y008641D01*
X020363Y008576D01*
X020363Y007973D01*
X020298Y007909D01*
X019577Y007909D01*
X019513Y008015D02*
X018634Y008015D01*
X018634Y008114D02*
X019513Y008114D01*
X019513Y008212D02*
X018634Y008212D01*
X018634Y008311D02*
X019513Y008311D01*
X019513Y008409D02*
X018634Y008409D01*
X018634Y008508D02*
X019478Y008508D01*
X019380Y008606D02*
X018590Y008606D01*
X018816Y008803D02*
X016402Y008803D01*
X016304Y008705D02*
X018948Y008705D01*
X019170Y008705D02*
X019281Y008705D01*
X019231Y008982D02*
X019059Y008982D01*
X019231Y008982D02*
X019938Y008275D01*
X020363Y008311D02*
X021025Y008311D01*
X020981Y008212D02*
X020363Y008212D01*
X020363Y008114D02*
X020973Y008114D01*
X020925Y008015D02*
X020363Y008015D01*
X020306Y007917D02*
X020827Y007917D01*
X020728Y007818D02*
X020363Y007818D01*
X020363Y007720D02*
X020630Y007720D01*
X020663Y007527D02*
X021272Y008135D01*
X021544Y008015D02*
X022354Y008015D01*
X022354Y007917D02*
X021475Y007917D01*
X021570Y008114D02*
X022354Y008114D01*
X022354Y008212D02*
X021562Y008212D01*
X021518Y008311D02*
X022354Y008311D01*
X022354Y008409D02*
X021389Y008409D01*
X021154Y008409D02*
X020363Y008409D01*
X020363Y008508D02*
X022354Y008508D01*
X022354Y008606D02*
X020333Y008606D01*
X019734Y008705D02*
X022354Y008705D01*
X022354Y008803D02*
X019635Y008803D01*
X019537Y008902D02*
X022354Y008902D01*
X022354Y009000D02*
X019438Y009000D01*
X019340Y009099D02*
X022354Y009099D01*
X022354Y009197D02*
X019265Y009197D01*
X018854Y009197D02*
X017774Y009197D01*
X017675Y009099D02*
X018785Y009099D01*
X018761Y009000D02*
X017577Y009000D01*
X017417Y009066D02*
X018359Y010009D01*
X018482Y010281D02*
X019102Y010281D01*
X019102Y010379D02*
X018437Y010379D01*
X018552Y010478D02*
X019102Y010478D01*
X019102Y010576D02*
X018666Y010576D01*
X018781Y010675D02*
X019102Y010675D01*
X019102Y010773D02*
X018895Y010773D01*
X019010Y010872D02*
X019102Y010872D01*
X019057Y011123D02*
X020012Y011130D01*
X020368Y011692D01*
X020367Y012650D01*
X020091Y012906D01*
X019465Y012899D01*
X019462Y012902D01*
X019462Y012587D02*
X019482Y012567D01*
X019992Y012567D01*
X020135Y012424D01*
X020135Y011656D01*
X019937Y011343D01*
X018789Y011343D01*
X018489Y011044D01*
X018068Y011044D01*
X017943Y010773D02*
X014928Y010773D01*
X014928Y010675D02*
X018290Y010675D01*
X018193Y010773D02*
X018405Y010773D01*
X018317Y010872D02*
X018519Y010872D01*
X018485Y011266D02*
X018268Y011266D01*
X018011Y011463D02*
X018682Y011463D01*
X018583Y011364D02*
X017913Y011364D01*
X017868Y011266D02*
X017814Y011266D01*
X017796Y011167D02*
X017716Y011167D01*
X017770Y011069D02*
X015221Y011069D01*
X015122Y010970D02*
X017776Y010970D01*
X017819Y010872D02*
X015024Y010872D01*
X014768Y010842D02*
X015179Y011254D01*
X017576Y011254D01*
X018293Y011971D01*
X019449Y011971D01*
X019462Y011957D01*
X019462Y011642D02*
X019462Y011642D01*
X018858Y011642D01*
X019462Y011642D01*
X019442Y011622D01*
X018529Y011622D01*
X018307Y011758D02*
X018858Y011758D01*
X018858Y011660D02*
X018208Y011660D01*
X018110Y011561D02*
X018858Y011561D01*
X019057Y011123D02*
X017601Y009871D01*
X016856Y009871D01*
X017301Y009690D02*
X017814Y009690D01*
X017750Y009788D02*
X017912Y009788D01*
X017865Y009887D02*
X018011Y009887D01*
X017979Y009985D02*
X018061Y009985D01*
X018266Y009690D02*
X022354Y009690D01*
X022354Y009788D02*
X018560Y009788D01*
X018631Y009887D02*
X022354Y009887D01*
X022354Y009985D02*
X018657Y009985D01*
X018651Y010084D02*
X019119Y010084D01*
X019102Y010182D02*
X018608Y010182D01*
X018176Y010576D02*
X014928Y010576D01*
X014928Y010478D02*
X018061Y010478D01*
X017947Y010379D02*
X014928Y010379D01*
X014928Y010281D02*
X015451Y010281D01*
X015349Y010182D02*
X014928Y010182D01*
X014942Y010084D02*
X015285Y010084D01*
X015244Y009985D02*
X015040Y009985D01*
X015139Y009887D02*
X015236Y009887D01*
X015132Y009668D02*
X014768Y010031D01*
X014768Y010842D01*
X014670Y010970D02*
X003074Y010970D01*
X003074Y010872D02*
X004059Y010872D01*
X004059Y010773D02*
X003074Y010773D01*
X003074Y010675D02*
X004059Y010675D01*
X004059Y010576D02*
X003074Y010576D01*
X003074Y010478D02*
X004059Y010478D01*
X004059Y010379D02*
X003074Y010379D01*
X003074Y010281D02*
X004059Y010281D01*
X004059Y010182D02*
X003074Y010182D01*
X003074Y010084D02*
X004265Y010084D01*
X004265Y009985D02*
X003125Y009985D01*
X003224Y009887D02*
X004265Y009887D01*
X004265Y009788D02*
X003322Y009788D01*
X003421Y009690D02*
X004265Y009690D01*
X004265Y009591D02*
X003519Y009591D01*
X003618Y009493D02*
X004265Y009493D01*
X004265Y009394D02*
X003716Y009394D01*
X003815Y009296D02*
X003951Y009296D01*
X004173Y009296D02*
X004265Y009296D01*
X004585Y009296D02*
X005846Y009296D01*
X005862Y009304D02*
X005789Y009267D01*
X005723Y009219D01*
X005665Y009161D01*
X005617Y009095D01*
X005580Y009022D01*
X005555Y008944D01*
X005543Y008872D01*
X006012Y008872D01*
X006012Y009341D01*
X005940Y009330D01*
X005862Y009304D01*
X006012Y009296D02*
X006112Y009296D01*
X006112Y009197D02*
X006012Y009197D01*
X006012Y009099D02*
X006112Y009099D01*
X006112Y009000D02*
X006012Y009000D01*
X006012Y008902D02*
X006112Y008902D01*
X006112Y008705D02*
X006012Y008705D01*
X006012Y008606D02*
X006112Y008606D01*
X006112Y008508D02*
X006012Y008508D01*
X006012Y008409D02*
X006112Y008409D01*
X006112Y008311D02*
X006012Y008311D01*
X006157Y008311D02*
X006417Y008311D01*
X006417Y008409D02*
X006378Y008409D01*
X006737Y008311D02*
X006801Y008311D01*
X006737Y008212D02*
X009893Y008212D01*
X009991Y008114D02*
X006737Y008114D01*
X006737Y008015D02*
X010090Y008015D01*
X010188Y007917D02*
X006737Y007917D01*
X006737Y007818D02*
X010287Y007818D01*
X010385Y007720D02*
X006737Y007720D01*
X006447Y007316D02*
X004622Y007316D01*
X004282Y006976D01*
X004282Y006662D01*
X004661Y007129D02*
X006408Y007129D01*
X006359Y007030D02*
X004765Y007030D01*
X004892Y006932D02*
X006232Y006932D01*
X006169Y006833D02*
X004955Y006833D01*
X004992Y006735D02*
X006132Y006735D01*
X006132Y006636D02*
X004992Y006636D01*
X004974Y006538D02*
X006150Y006538D01*
X006191Y006439D02*
X004933Y006439D01*
X004840Y006341D02*
X006284Y006341D01*
X006293Y005257D02*
X004831Y005257D01*
X004937Y005159D02*
X006187Y005159D01*
X006128Y005060D02*
X004996Y005060D01*
X005025Y004962D02*
X006099Y004962D01*
X006107Y004765D02*
X005017Y004765D01*
X004977Y004666D02*
X006147Y004666D01*
X006220Y004568D02*
X004904Y004568D01*
X003660Y004568D02*
X002762Y004568D01*
X002762Y004666D02*
X003587Y004666D01*
X003547Y004765D02*
X002762Y004765D01*
X004319Y008409D02*
X004696Y008409D01*
X004631Y008508D02*
X004426Y008508D01*
X004492Y008606D02*
X004591Y008606D01*
X004582Y008705D02*
X004533Y008705D01*
X004542Y008803D02*
X004582Y008803D01*
X004617Y008902D02*
X004542Y008902D01*
X004508Y009000D02*
X004661Y009000D01*
X004565Y009099D02*
X004760Y009099D01*
X004585Y009197D02*
X004954Y009197D01*
X005170Y009197D02*
X005702Y009197D01*
X005620Y009099D02*
X005364Y009099D01*
X005463Y009000D02*
X005573Y009000D01*
X005548Y008902D02*
X005507Y008902D01*
X006278Y009296D02*
X006417Y009296D01*
X006417Y009394D02*
X004585Y009394D01*
X004585Y009493D02*
X006417Y009493D01*
X006417Y009591D02*
X004585Y009591D01*
X004585Y009690D02*
X006417Y009690D01*
X006366Y009788D02*
X004585Y009788D01*
X004585Y009887D02*
X006267Y009887D01*
X006169Y009985D02*
X004585Y009985D01*
X005173Y010516D02*
X005864Y010516D01*
X005932Y010675D02*
X014608Y010675D01*
X014608Y010773D02*
X005539Y010773D01*
X005539Y010872D02*
X014608Y010872D01*
X014768Y011069D02*
X003074Y011069D01*
X003074Y011167D02*
X014472Y011167D01*
X014622Y011167D02*
X014867Y011167D01*
X014775Y011266D02*
X014965Y011266D01*
X014767Y011660D02*
X017404Y011660D01*
X017502Y011758D02*
X004802Y011758D01*
X004928Y011857D02*
X017601Y011857D01*
X017699Y011955D02*
X005008Y011955D01*
X005057Y012054D02*
X017798Y012054D01*
X017896Y012152D02*
X005086Y012152D01*
X005093Y012349D02*
X018093Y012349D01*
X018082Y012339D02*
X018082Y012339D01*
X017995Y012251D02*
X004112Y012251D01*
X004112Y012152D02*
X004012Y012152D01*
X004012Y012054D02*
X004112Y012054D01*
X004112Y011955D02*
X004012Y011955D01*
X004012Y011857D02*
X004112Y011857D01*
X004112Y011758D02*
X004012Y011758D01*
X003322Y011758D02*
X003074Y011758D01*
X003074Y011660D02*
X014326Y011660D01*
X014266Y011561D02*
X003074Y011561D01*
X003074Y011463D02*
X014249Y011463D01*
X014263Y011364D02*
X003074Y011364D01*
X003074Y011266D02*
X014318Y011266D01*
X014547Y011459D02*
X017429Y011459D01*
X018242Y012272D01*
X019462Y012272D01*
X018898Y012448D02*
X005071Y012448D01*
X005031Y012546D02*
X018898Y012546D01*
X018898Y012645D02*
X006109Y012645D01*
X006215Y012743D02*
X018910Y012743D01*
X018898Y012842D02*
X006256Y012842D01*
X006258Y012940D02*
X018898Y012940D01*
X018898Y013039D02*
X006227Y013039D01*
X006150Y013137D02*
X020271Y013137D01*
X020271Y013060D02*
X020332Y012914D01*
X020444Y012802D01*
X020589Y012742D01*
X020747Y012742D01*
X020893Y012802D01*
X021005Y012914D01*
X021065Y013060D01*
X021065Y013217D01*
X021005Y013363D01*
X020893Y013475D01*
X020747Y013535D01*
X020589Y013535D01*
X020444Y013475D01*
X020332Y013363D01*
X020271Y013217D01*
X020271Y013060D01*
X020280Y013039D02*
X020184Y013039D01*
X020289Y012940D02*
X020321Y012940D01*
X020395Y012842D02*
X020404Y012842D01*
X020502Y012743D02*
X020585Y012743D01*
X020528Y012645D02*
X022354Y012645D01*
X022354Y012743D02*
X020751Y012743D01*
X020933Y012842D02*
X022354Y012842D01*
X022354Y012940D02*
X021016Y012940D01*
X021057Y013039D02*
X022354Y013039D01*
X022354Y013137D02*
X021065Y013137D01*
X021058Y013236D02*
X022354Y013236D01*
X022354Y013334D02*
X021017Y013334D01*
X020935Y013433D02*
X022354Y013433D01*
X021552Y013015D02*
X021078Y013489D01*
X021078Y015499D01*
X022083Y016504D01*
X021064Y017523D01*
X021064Y017755D01*
X021046Y017772D01*
X020996Y017767D02*
X015474Y017767D01*
X015475Y017765D02*
X015455Y017799D01*
X015427Y017827D01*
X015394Y017847D01*
X015445Y017898D01*
X015445Y018134D01*
X016216Y018134D01*
X016216Y017884D01*
X016280Y017820D01*
X016844Y017820D01*
X016908Y017884D01*
X016908Y018401D01*
X016987Y018480D01*
X017747Y018480D01*
X017747Y018428D01*
X017812Y018363D01*
X018533Y018363D01*
X018597Y018428D01*
X018597Y018912D01*
X018533Y018977D01*
X018332Y018977D01*
X018332Y019177D01*
X018335Y019240D01*
X018332Y019242D01*
X018332Y019246D01*
X018287Y019291D01*
X018244Y019337D01*
X018241Y019337D01*
X018239Y019339D01*
X018175Y019339D01*
X017747Y019355D01*
X017739Y019373D01*
X017668Y019444D01*
X017715Y019464D01*
X017799Y019548D01*
X017844Y019657D01*
X017844Y019776D01*
X017799Y019885D01*
X017715Y019969D01*
X017605Y020015D01*
X017487Y020015D01*
X017377Y019969D01*
X017365Y019958D01*
X017248Y020003D01*
X016841Y020336D01*
X016841Y020777D01*
X016776Y020842D01*
X016055Y020842D01*
X015991Y020777D01*
X015991Y020175D01*
X016055Y020110D01*
X016611Y020110D01*
X017036Y019763D01*
X017048Y019737D01*
X017086Y019723D01*
X017117Y019697D01*
X017145Y019700D01*
X017248Y019660D01*
X017248Y019657D01*
X017293Y019548D01*
X017364Y019477D01*
X017318Y019457D01*
X017234Y019373D01*
X017188Y019264D01*
X017188Y019145D01*
X017234Y019036D01*
X017318Y018952D01*
X017427Y018906D01*
X017546Y018906D01*
X017655Y018952D01*
X017739Y019035D01*
X018012Y019025D01*
X018012Y018977D01*
X017812Y018977D01*
X017747Y018912D01*
X017747Y018860D01*
X016830Y018860D01*
X016797Y018827D01*
X016280Y018827D01*
X016216Y018763D01*
X016216Y018513D01*
X015433Y018513D01*
X015381Y018565D01*
X014699Y018565D01*
X014635Y018501D01*
X014635Y018389D01*
X013964Y018389D01*
X013964Y018491D01*
X013900Y018556D01*
X013218Y018556D01*
X013154Y018491D01*
X013154Y017888D01*
X013205Y017837D01*
X013171Y017818D01*
X013144Y017790D01*
X013124Y017756D01*
X013114Y017717D01*
X013114Y017492D01*
X013509Y017492D01*
X013509Y017392D01*
X013114Y017392D01*
X013114Y017166D01*
X013124Y017128D01*
X013144Y017094D01*
X013171Y017066D01*
X013206Y017046D01*
X013244Y017036D01*
X013509Y017036D01*
X013509Y017392D01*
X013609Y017392D01*
X013609Y017492D01*
X014004Y017492D01*
X014004Y017717D01*
X013994Y017756D01*
X013974Y017790D01*
X013946Y017818D01*
X013913Y017837D01*
X013964Y017888D01*
X013964Y018009D01*
X014635Y018009D01*
X014635Y017898D01*
X014686Y017847D01*
X014653Y017827D01*
X014625Y017799D01*
X014605Y017765D01*
X014595Y017727D01*
X014595Y017501D01*
X014990Y017501D01*
X014990Y017401D01*
X015090Y017401D01*
X015090Y017045D01*
X015355Y017045D01*
X015393Y017056D01*
X015427Y017075D01*
X015455Y017103D01*
X015475Y017138D01*
X015485Y017176D01*
X016512Y017176D01*
X016512Y017171D02*
X016512Y017271D01*
X016176Y017271D01*
X016176Y017635D01*
X016186Y017673D01*
X016206Y017707D01*
X016234Y017735D01*
X016268Y017755D01*
X016306Y017765D01*
X016512Y017765D01*
X016512Y017271D01*
X016612Y017271D01*
X016948Y017271D01*
X016948Y017635D01*
X016938Y017673D01*
X016918Y017707D01*
X016890Y017735D01*
X016856Y017755D01*
X016818Y017765D01*
X016612Y017765D01*
X016612Y017271D01*
X016612Y017171D01*
X016612Y016677D01*
X016818Y016677D01*
X016856Y016688D01*
X016890Y016707D01*
X016918Y016735D01*
X016938Y016770D01*
X016948Y016808D01*
X016948Y017171D01*
X016612Y017171D01*
X016512Y017171D01*
X016512Y016677D01*
X016306Y016677D01*
X016268Y016688D01*
X016234Y016707D01*
X016206Y016735D01*
X016186Y016770D01*
X016176Y016808D01*
X016176Y017171D01*
X016512Y017171D01*
X016512Y017077D02*
X016612Y017077D01*
X016612Y016979D02*
X016512Y016979D01*
X016512Y016880D02*
X016612Y016880D01*
X016612Y016782D02*
X016512Y016782D01*
X016512Y016683D02*
X016612Y016683D01*
X016840Y016683D02*
X017747Y016683D01*
X017747Y016632D02*
X017812Y016568D01*
X018210Y016568D01*
X019053Y015725D01*
X019053Y015629D01*
X019098Y015520D01*
X019182Y015436D01*
X019292Y015391D01*
X019410Y015391D01*
X019520Y015436D01*
X019604Y015520D01*
X019649Y015629D01*
X019649Y015748D01*
X019604Y015858D01*
X019520Y015941D01*
X019410Y015987D01*
X019329Y015987D01*
X018597Y016718D01*
X018597Y017117D01*
X018533Y017182D01*
X017812Y017182D01*
X017747Y017117D01*
X017747Y016632D01*
X017795Y016585D02*
X013751Y016585D01*
X013760Y016606D02*
X013760Y016725D01*
X013714Y016834D01*
X013630Y016918D01*
X013521Y016964D01*
X013402Y016964D01*
X013293Y016918D01*
X013209Y016834D01*
X013035Y017008D01*
X013035Y018565D01*
X013447Y018977D01*
X013541Y019071D01*
X013541Y020027D01*
X013768Y020027D01*
X013833Y020091D01*
X013833Y020694D01*
X013768Y020758D01*
X013047Y020758D01*
X012983Y020694D01*
X012983Y020091D01*
X013047Y020027D01*
X013221Y020027D01*
X013221Y019204D01*
X012715Y018698D01*
X012715Y016879D01*
X012690Y016904D01*
X012690Y019855D01*
X012378Y020167D01*
X012378Y020668D01*
X012313Y020732D01*
X011592Y020732D01*
X011528Y020668D01*
X011528Y020065D01*
X011592Y020000D01*
X012092Y020000D01*
X012370Y019722D01*
X012370Y017673D01*
X012320Y017722D01*
X011870Y018173D01*
X010517Y018173D01*
X010517Y018314D01*
X010452Y018379D01*
X009731Y018379D01*
X009667Y018314D01*
X009667Y018173D01*
X009049Y018173D01*
X009049Y018287D01*
X008985Y018352D01*
X008264Y018352D01*
X008199Y018287D01*
X008199Y017684D01*
X008264Y017620D01*
X008985Y017620D01*
X009049Y017684D01*
X009049Y017853D01*
X009667Y017853D01*
X009667Y017711D01*
X009731Y017647D01*
X010452Y017647D01*
X010517Y017711D01*
X010517Y017853D01*
X011738Y017853D01*
X012094Y017496D01*
X012094Y016703D01*
X012933Y015863D01*
X013027Y015770D01*
X017736Y015770D01*
X017844Y015878D01*
X017853Y015874D01*
X017971Y015874D01*
X018081Y015920D01*
X018165Y016003D01*
X018210Y016113D01*
X018210Y016232D01*
X018165Y016341D01*
X018081Y016425D01*
X017971Y016470D01*
X017853Y016470D01*
X017743Y016425D01*
X017659Y016341D01*
X017614Y016232D01*
X017614Y016113D01*
X017618Y016104D01*
X017603Y016090D01*
X015331Y016090D01*
X015347Y016106D01*
X015392Y016215D01*
X015392Y016334D01*
X015347Y016443D01*
X015263Y016527D01*
X015153Y016573D01*
X015035Y016573D01*
X014925Y016527D01*
X014841Y016443D01*
X014838Y016435D01*
X013652Y016435D01*
X013714Y016497D01*
X013760Y016606D01*
X013760Y016683D02*
X016284Y016683D01*
X016183Y016782D02*
X013736Y016782D01*
X013668Y016880D02*
X016176Y016880D01*
X016176Y016979D02*
X013064Y016979D01*
X013035Y017077D02*
X013160Y017077D01*
X013114Y017176D02*
X013035Y017176D01*
X013035Y017274D02*
X013114Y017274D01*
X013114Y017373D02*
X013035Y017373D01*
X013035Y017471D02*
X013509Y017471D01*
X013509Y017373D02*
X013609Y017373D01*
X013609Y017392D02*
X013609Y017036D01*
X013874Y017036D01*
X013912Y017046D01*
X013946Y017066D01*
X013974Y017094D01*
X013994Y017128D01*
X014004Y017166D01*
X014004Y017392D01*
X013609Y017392D01*
X013609Y017471D02*
X014990Y017471D01*
X014990Y017401D02*
X014595Y017401D01*
X014595Y017176D01*
X014004Y017176D01*
X014004Y017274D02*
X014595Y017274D01*
X014595Y017176D02*
X014605Y017138D01*
X014625Y017103D01*
X014653Y017075D01*
X014687Y017056D01*
X014725Y017045D01*
X014990Y017045D01*
X014990Y017401D01*
X014990Y017373D02*
X015090Y017373D01*
X015090Y017401D02*
X015090Y017501D01*
X015485Y017501D01*
X015485Y017727D01*
X015475Y017765D01*
X015485Y017668D02*
X016185Y017668D01*
X016176Y017570D02*
X015485Y017570D01*
X015485Y017401D02*
X015090Y017401D01*
X015090Y017471D02*
X016176Y017471D01*
X016176Y017373D02*
X015485Y017373D01*
X015485Y017401D02*
X015485Y017176D01*
X015485Y017274D02*
X016176Y017274D01*
X016176Y017077D02*
X015429Y017077D01*
X015090Y017077D02*
X014990Y017077D01*
X014990Y017176D02*
X015090Y017176D01*
X015090Y017274D02*
X014990Y017274D01*
X014651Y017077D02*
X013958Y017077D01*
X014004Y017373D02*
X014595Y017373D01*
X014595Y017570D02*
X014004Y017570D01*
X014004Y017668D02*
X014595Y017668D01*
X014606Y017767D02*
X013987Y017767D01*
X013941Y017865D02*
X014667Y017865D01*
X014635Y017964D02*
X013964Y017964D01*
X013964Y018456D02*
X014635Y018456D01*
X014689Y018555D02*
X013900Y018555D01*
X013517Y019047D02*
X017229Y019047D01*
X017188Y019146D02*
X013541Y019146D01*
X013541Y019244D02*
X015242Y019244D01*
X015263Y019235D02*
X015382Y019235D01*
X015492Y019281D01*
X015575Y019365D01*
X015621Y019474D01*
X015621Y019593D01*
X015575Y019702D01*
X015492Y019786D01*
X015382Y019832D01*
X015263Y019832D01*
X015177Y019796D01*
X015158Y019806D01*
X015079Y020076D01*
X015164Y020076D01*
X015229Y020140D01*
X015229Y020743D01*
X015164Y020807D01*
X014443Y020807D01*
X014379Y020743D01*
X014379Y020140D01*
X014443Y020076D01*
X014745Y020076D01*
X014870Y019652D01*
X014888Y019589D01*
X014889Y019588D01*
X014947Y019557D01*
X015025Y019514D01*
X015025Y019474D01*
X015070Y019365D01*
X015154Y019281D01*
X015263Y019235D01*
X015404Y019244D02*
X017188Y019244D01*
X017221Y019343D02*
X015554Y019343D01*
X015607Y019441D02*
X017302Y019441D01*
X017301Y019540D02*
X015621Y019540D01*
X015602Y019638D02*
X017256Y019638D01*
X017049Y019737D02*
X015541Y019737D01*
X015323Y019533D02*
X015023Y019697D01*
X014804Y020441D01*
X014379Y020426D02*
X013833Y020426D01*
X013833Y020328D02*
X014379Y020328D01*
X014379Y020229D02*
X013833Y020229D01*
X013833Y020131D02*
X014388Y020131D01*
X014758Y020032D02*
X013774Y020032D01*
X013541Y019934D02*
X014787Y019934D01*
X014816Y019835D02*
X013541Y019835D01*
X013541Y019737D02*
X014845Y019737D01*
X014874Y019638D02*
X013541Y019638D01*
X013541Y019540D02*
X014977Y019540D01*
X014889Y019588D02*
X014889Y019588D01*
X015038Y019441D02*
X013541Y019441D01*
X013541Y019343D02*
X015092Y019343D01*
X015149Y019835D02*
X016947Y019835D01*
X016827Y019934D02*
X015120Y019934D01*
X015091Y020032D02*
X016706Y020032D01*
X016850Y020328D02*
X018214Y020328D01*
X018214Y020426D02*
X016841Y020426D01*
X016841Y020525D02*
X018214Y020525D01*
X018214Y020623D02*
X016841Y020623D01*
X016841Y020722D02*
X018214Y020722D01*
X018214Y020820D02*
X016798Y020820D01*
X016776Y020858D02*
X016841Y020923D01*
X016841Y021064D01*
X017981Y021064D01*
X018214Y020831D01*
X018214Y020188D01*
X018205Y020184D01*
X018121Y020101D01*
X018076Y019991D01*
X018076Y019872D01*
X018121Y019763D01*
X018205Y019679D01*
X018315Y019634D01*
X018433Y019634D01*
X018543Y019679D01*
X018627Y019763D01*
X018672Y019872D01*
X018672Y019991D01*
X018627Y020101D01*
X018543Y020184D01*
X018534Y020188D01*
X018534Y020964D01*
X018440Y021057D01*
X018114Y021384D01*
X016841Y021384D01*
X016841Y021525D01*
X016776Y021590D01*
X016055Y021590D01*
X015991Y021525D01*
X015991Y021367D01*
X015229Y021356D01*
X015229Y021491D01*
X015164Y021555D01*
X014443Y021555D01*
X014379Y021491D01*
X014379Y021301D01*
X013833Y021301D01*
X013833Y021442D01*
X013768Y021506D01*
X013047Y021506D01*
X012983Y021442D01*
X012983Y021274D01*
X012378Y021274D01*
X012378Y021416D01*
X012313Y021480D01*
X011813Y021480D01*
X011698Y021595D01*
X011605Y021689D01*
X006474Y021689D01*
X005719Y020934D01*
X005676Y020890D01*
X005484Y020890D01*
X005419Y020826D01*
X005419Y020105D01*
X005484Y020041D01*
X005619Y020041D01*
X005619Y018902D01*
X005478Y018902D01*
X005413Y018838D01*
X005413Y018117D01*
X005478Y018052D01*
X005621Y018052D01*
X005621Y017021D01*
X005479Y017021D01*
X005415Y016956D01*
X005415Y016235D01*
X005479Y016171D01*
X005545Y016171D01*
X005545Y015174D01*
X005404Y015174D01*
X005339Y015109D01*
X005339Y014388D01*
X005404Y014324D01*
X006007Y014324D01*
X006071Y014388D01*
X006071Y015109D01*
X006007Y015174D01*
X005865Y015174D01*
X005865Y016171D01*
X006082Y016171D01*
X006147Y016235D01*
X006147Y016956D01*
X006082Y017021D01*
X005941Y017021D01*
X005941Y018052D01*
X006081Y018052D01*
X006145Y018117D01*
X006145Y018838D01*
X006081Y018902D01*
X005939Y018902D01*
X005939Y020041D01*
X006087Y020041D01*
X006151Y020105D01*
X006151Y020826D01*
X006107Y020870D01*
X006606Y021369D01*
X011472Y021369D01*
X011528Y021313D01*
X011528Y020813D01*
X011592Y020748D01*
X012313Y020748D01*
X012378Y020813D01*
X012378Y020954D01*
X012983Y020954D01*
X012983Y020839D01*
X013047Y020775D01*
X013768Y020775D01*
X013833Y020839D01*
X013833Y020981D01*
X014379Y020981D01*
X014379Y020888D01*
X014443Y020824D01*
X015164Y020824D01*
X015229Y020888D01*
X015229Y021036D01*
X015991Y021047D01*
X015991Y020923D01*
X016055Y020858D01*
X016776Y020858D01*
X016837Y020919D02*
X018126Y020919D01*
X018028Y021017D02*
X016841Y021017D01*
X016841Y021411D02*
X022354Y021411D01*
X022354Y021313D02*
X021635Y021313D01*
X021607Y021322D02*
X021692Y021294D01*
X021771Y021254D01*
X021842Y021202D01*
X021905Y021139D01*
X021957Y021068D01*
X021998Y020989D01*
X022025Y020904D01*
X022038Y020822D01*
X021112Y020822D01*
X021112Y020722D01*
X021012Y020722D01*
X021112Y020722D01*
X021112Y020209D01*
X021520Y020209D01*
X021607Y020223D01*
X021692Y020250D01*
X021771Y020290D01*
X021842Y020343D01*
X021905Y020405D01*
X021957Y020477D01*
X021998Y020556D01*
X022025Y020640D01*
X022038Y020722D01*
X022354Y020722D01*
X022354Y020820D02*
X021112Y020820D01*
X021112Y020822D02*
X021012Y020822D01*
X021012Y020722D01*
X021012Y020209D01*
X020604Y020209D01*
X020517Y020223D01*
X020432Y020250D01*
X020353Y020290D01*
X020282Y020343D01*
X020219Y020405D01*
X020167Y020477D01*
X020127Y020556D01*
X020099Y020640D01*
X020086Y020722D01*
X018534Y020722D01*
X018534Y020820D02*
X021012Y020820D01*
X021012Y020822D02*
X020086Y020822D01*
X020099Y020904D01*
X020127Y020989D01*
X020167Y021068D01*
X020219Y021139D01*
X020282Y021202D01*
X020353Y021254D01*
X020432Y021294D01*
X020517Y021322D01*
X020604Y021336D01*
X021012Y021336D01*
X021012Y020822D01*
X021012Y020919D02*
X021112Y020919D01*
X021112Y020822D02*
X021112Y021336D01*
X021520Y021336D01*
X021607Y021322D01*
X021825Y021214D02*
X022354Y021214D01*
X022354Y021116D02*
X021922Y021116D01*
X021983Y021017D02*
X022354Y021017D01*
X022354Y020919D02*
X022020Y020919D01*
X022038Y020722D02*
X021112Y020722D01*
X021112Y020623D02*
X021012Y020623D01*
X021012Y020525D02*
X021112Y020525D01*
X021112Y020426D02*
X021012Y020426D01*
X021012Y020328D02*
X021112Y020328D01*
X021112Y020229D02*
X021012Y020229D01*
X021012Y020722D02*
X020086Y020722D01*
X020105Y020623D02*
X018534Y020623D01*
X018534Y020525D02*
X020142Y020525D01*
X020204Y020426D02*
X018534Y020426D01*
X018534Y020328D02*
X020302Y020328D01*
X020497Y020229D02*
X018534Y020229D01*
X018596Y020131D02*
X022354Y020131D01*
X022354Y020229D02*
X021627Y020229D01*
X021822Y020328D02*
X022354Y020328D01*
X022354Y020426D02*
X021920Y020426D01*
X021982Y020525D02*
X022354Y020525D01*
X022354Y020623D02*
X022019Y020623D01*
X022354Y020032D02*
X018655Y020032D01*
X018672Y019934D02*
X022354Y019934D01*
X022354Y019835D02*
X018657Y019835D01*
X018601Y019737D02*
X022354Y019737D01*
X022354Y019638D02*
X018445Y019638D01*
X018303Y019638D02*
X017836Y019638D01*
X017844Y019737D02*
X018147Y019737D01*
X018091Y019835D02*
X017819Y019835D01*
X017750Y019934D02*
X018076Y019934D01*
X018093Y020032D02*
X017212Y020032D01*
X017091Y020131D02*
X018152Y020131D01*
X018214Y020229D02*
X016971Y020229D01*
X017167Y019863D02*
X016416Y020476D01*
X015991Y020525D02*
X015229Y020525D01*
X015229Y020623D02*
X015991Y020623D01*
X015991Y020722D02*
X015229Y020722D01*
X015229Y020919D02*
X015994Y020919D01*
X015991Y021017D02*
X015229Y021017D01*
X015229Y021411D02*
X015991Y021411D01*
X015991Y021510D02*
X015210Y021510D01*
X015382Y021805D02*
X013840Y021805D01*
X013873Y021822D02*
X013948Y021877D01*
X014014Y021943D01*
X014069Y022019D01*
X014111Y022102D01*
X014140Y022191D01*
X014155Y022283D01*
X014155Y022722D01*
X013612Y022722D01*
X013612Y021737D01*
X013701Y021751D01*
X013790Y021780D01*
X013873Y021822D01*
X013975Y021904D02*
X015206Y021904D01*
X015249Y021861D02*
X015452Y021776D01*
X015672Y021776D01*
X015875Y021861D01*
X016031Y022016D01*
X016115Y022219D01*
X016115Y023325D01*
X016031Y023528D01*
X015875Y023684D01*
X015672Y023768D01*
X015452Y023768D01*
X015249Y023684D01*
X015093Y023528D01*
X015009Y023325D01*
X015009Y022219D01*
X015093Y022016D01*
X015249Y021861D01*
X015107Y022002D02*
X014057Y022002D01*
X014111Y022101D02*
X015058Y022101D01*
X015017Y022199D02*
X014142Y022199D01*
X014155Y022298D02*
X015009Y022298D01*
X015009Y022396D02*
X014155Y022396D01*
X014155Y022495D02*
X015009Y022495D01*
X015009Y022593D02*
X014155Y022593D01*
X014155Y022692D02*
X015009Y022692D01*
X015009Y022790D02*
X013612Y022790D01*
X013612Y022822D02*
X013612Y022722D01*
X013512Y022722D01*
X013512Y021737D01*
X013423Y021751D01*
X013334Y021780D01*
X013251Y021822D01*
X013176Y021877D01*
X013110Y021943D01*
X013055Y022019D01*
X013013Y022102D01*
X012984Y022191D01*
X012969Y022283D01*
X012969Y022722D01*
X013512Y022722D01*
X013512Y022822D01*
X012969Y022822D01*
X012969Y023262D01*
X012984Y023354D01*
X013013Y023443D01*
X013055Y023526D01*
X013110Y023601D01*
X013176Y023667D01*
X013251Y023722D01*
X013334Y023765D01*
X013423Y023794D01*
X013512Y023808D01*
X013512Y022822D01*
X013612Y022822D01*
X014155Y022822D01*
X014155Y023262D01*
X014140Y023354D01*
X014111Y023443D01*
X014069Y023526D01*
X014014Y023601D01*
X013948Y023667D01*
X013873Y023722D01*
X013790Y023765D01*
X013701Y023794D01*
X013612Y023808D01*
X013612Y022822D01*
X013612Y022889D02*
X013512Y022889D01*
X013512Y022987D02*
X013612Y022987D01*
X013612Y023086D02*
X013512Y023086D01*
X013512Y023184D02*
X013612Y023184D01*
X013612Y023283D02*
X013512Y023283D01*
X013512Y023381D02*
X013612Y023381D01*
X013612Y023480D02*
X013512Y023480D01*
X013512Y023578D02*
X013612Y023578D01*
X013612Y023677D02*
X013512Y023677D01*
X013512Y023775D02*
X013612Y023775D01*
X013757Y023775D02*
X022354Y023775D01*
X022354Y023677D02*
X017882Y023677D01*
X017875Y023684D02*
X017672Y023768D01*
X017452Y023768D01*
X017249Y023684D01*
X017093Y023528D01*
X017009Y023325D01*
X017009Y022219D01*
X017093Y022016D01*
X017249Y021861D01*
X017452Y021776D01*
X017672Y021776D01*
X017875Y021861D01*
X018031Y022016D01*
X018115Y022219D01*
X018115Y023325D01*
X018031Y023528D01*
X017875Y023684D01*
X017981Y023578D02*
X022354Y023578D01*
X022354Y023480D02*
X018051Y023480D01*
X018092Y023381D02*
X022354Y023381D01*
X022354Y023283D02*
X021610Y023283D01*
X021580Y023296D02*
X021772Y023216D01*
X021919Y023069D01*
X021999Y022876D01*
X021999Y022668D01*
X021919Y022476D01*
X021772Y022329D01*
X021580Y022249D01*
X020545Y022249D01*
X020352Y022329D01*
X020205Y022476D01*
X020125Y022668D01*
X020125Y022876D01*
X020205Y023069D01*
X020352Y023216D01*
X020545Y023296D01*
X021580Y023296D01*
X021804Y023184D02*
X022354Y023184D01*
X022354Y023086D02*
X021902Y023086D01*
X021953Y022987D02*
X022354Y022987D01*
X022354Y022889D02*
X021994Y022889D01*
X021999Y022790D02*
X022354Y022790D01*
X022354Y022692D02*
X021999Y022692D01*
X021968Y022593D02*
X022354Y022593D01*
X022354Y022495D02*
X021927Y022495D01*
X021840Y022396D02*
X022354Y022396D01*
X022354Y022298D02*
X021698Y022298D01*
X022354Y022199D02*
X018107Y022199D01*
X018115Y022298D02*
X020426Y022298D01*
X020284Y022396D02*
X018115Y022396D01*
X018115Y022495D02*
X020197Y022495D01*
X020156Y022593D02*
X018115Y022593D01*
X018115Y022692D02*
X020125Y022692D01*
X020125Y022790D02*
X018115Y022790D01*
X018115Y022889D02*
X020130Y022889D01*
X020171Y022987D02*
X018115Y022987D01*
X018115Y023086D02*
X020222Y023086D01*
X020320Y023184D02*
X018115Y023184D01*
X018115Y023283D02*
X020514Y023283D01*
X022354Y023874D02*
X002762Y023874D01*
X002762Y023775D02*
X006867Y023775D01*
X006834Y023765D02*
X006751Y023722D01*
X006676Y023667D01*
X006610Y023601D01*
X006555Y023526D01*
X006513Y023443D01*
X006484Y023354D01*
X006469Y023262D01*
X006469Y022822D01*
X007012Y022822D01*
X007012Y022722D01*
X007112Y022722D01*
X007112Y021737D01*
X007201Y021751D01*
X007290Y021780D01*
X007373Y021822D01*
X007448Y021877D01*
X007514Y021943D01*
X007569Y022019D01*
X007611Y022102D01*
X007640Y022191D01*
X007655Y022283D01*
X007655Y022722D01*
X007112Y022722D01*
X007112Y022822D01*
X007655Y022822D01*
X007655Y023262D01*
X007640Y023354D01*
X007611Y023443D01*
X007569Y023526D01*
X007514Y023601D01*
X007448Y023667D01*
X007373Y023722D01*
X007290Y023765D01*
X007201Y023794D01*
X007112Y023808D01*
X007112Y022822D01*
X007012Y022822D01*
X007012Y023808D01*
X006923Y023794D01*
X006834Y023765D01*
X006689Y023677D02*
X002762Y023677D01*
X002762Y023578D02*
X006593Y023578D01*
X006531Y023480D02*
X002762Y023480D01*
X002762Y023381D02*
X006493Y023381D01*
X006472Y023283D02*
X004717Y023283D01*
X004818Y023241D02*
X004615Y023325D01*
X003509Y023325D01*
X003306Y023241D01*
X003150Y023086D01*
X003066Y022882D01*
X003066Y022662D01*
X003150Y022459D01*
X003306Y022304D01*
X003509Y022219D01*
X004615Y022219D01*
X004818Y022304D01*
X004974Y022459D01*
X005058Y022662D01*
X005058Y022882D01*
X004974Y023086D01*
X004818Y023241D01*
X004875Y023184D02*
X006469Y023184D01*
X006469Y023086D02*
X004973Y023086D01*
X005014Y022987D02*
X006469Y022987D01*
X006469Y022889D02*
X005055Y022889D01*
X005058Y022790D02*
X007012Y022790D01*
X007012Y022722D02*
X006469Y022722D01*
X006469Y022283D01*
X006484Y022191D01*
X006513Y022102D01*
X006555Y022019D01*
X006610Y021943D01*
X006676Y021877D01*
X006751Y021822D01*
X006834Y021780D01*
X006923Y021751D01*
X007012Y021737D01*
X007012Y022722D01*
X007012Y022692D02*
X007112Y022692D01*
X007112Y022790D02*
X008509Y022790D01*
X008509Y022692D02*
X007655Y022692D01*
X007655Y022593D02*
X008509Y022593D01*
X008509Y022495D02*
X007655Y022495D01*
X007655Y022396D02*
X008509Y022396D01*
X008509Y022298D02*
X007655Y022298D01*
X007642Y022199D02*
X008517Y022199D01*
X008509Y022219D02*
X008593Y022016D01*
X008749Y021861D01*
X008952Y021776D01*
X009172Y021776D01*
X009375Y021861D01*
X009531Y022016D01*
X009615Y022219D01*
X009615Y023325D01*
X009531Y023528D01*
X009375Y023684D01*
X009172Y023768D01*
X008952Y023768D01*
X008749Y023684D01*
X008593Y023528D01*
X008509Y023325D01*
X008509Y022219D01*
X008558Y022101D02*
X007611Y022101D01*
X007557Y022002D02*
X008607Y022002D01*
X008706Y021904D02*
X007475Y021904D01*
X007340Y021805D02*
X008882Y021805D01*
X009242Y021805D02*
X010882Y021805D01*
X010952Y021776D02*
X011172Y021776D01*
X011375Y021861D01*
X011531Y022016D01*
X011615Y022219D01*
X011615Y023325D01*
X011531Y023528D01*
X011375Y023684D01*
X011172Y023768D01*
X010952Y023768D01*
X010749Y023684D01*
X010593Y023528D01*
X010509Y023325D01*
X010509Y022219D01*
X010593Y022016D01*
X010749Y021861D01*
X010952Y021776D01*
X010706Y021904D02*
X009418Y021904D01*
X009517Y022002D02*
X010607Y022002D01*
X010558Y022101D02*
X009566Y022101D01*
X009607Y022199D02*
X010517Y022199D01*
X010509Y022298D02*
X009615Y022298D01*
X009615Y022396D02*
X010509Y022396D01*
X010509Y022495D02*
X009615Y022495D01*
X009615Y022593D02*
X010509Y022593D01*
X010509Y022692D02*
X009615Y022692D01*
X009615Y022790D02*
X010509Y022790D01*
X010509Y022889D02*
X009615Y022889D01*
X009615Y022987D02*
X010509Y022987D01*
X010509Y023086D02*
X009615Y023086D01*
X009615Y023184D02*
X010509Y023184D01*
X010509Y023283D02*
X009615Y023283D01*
X009592Y023381D02*
X010532Y023381D01*
X010573Y023480D02*
X009551Y023480D01*
X009481Y023578D02*
X010643Y023578D01*
X010742Y023677D02*
X009382Y023677D01*
X008742Y023677D02*
X007435Y023677D01*
X007531Y023578D02*
X008643Y023578D01*
X008573Y023480D02*
X007593Y023480D01*
X007631Y023381D02*
X008532Y023381D01*
X008509Y023283D02*
X007652Y023283D01*
X007655Y023184D02*
X008509Y023184D01*
X008509Y023086D02*
X007655Y023086D01*
X007655Y022987D02*
X008509Y022987D01*
X008509Y022889D02*
X007655Y022889D01*
X007112Y022889D02*
X007012Y022889D01*
X007012Y022987D02*
X007112Y022987D01*
X007112Y023086D02*
X007012Y023086D01*
X007012Y023184D02*
X007112Y023184D01*
X007112Y023283D02*
X007012Y023283D01*
X007012Y023381D02*
X007112Y023381D01*
X007112Y023480D02*
X007012Y023480D01*
X007012Y023578D02*
X007112Y023578D01*
X007112Y023677D02*
X007012Y023677D01*
X007012Y023775D02*
X007112Y023775D01*
X007257Y023775D02*
X013367Y023775D01*
X013189Y023677D02*
X011382Y023677D01*
X011481Y023578D02*
X013093Y023578D01*
X013031Y023480D02*
X011551Y023480D01*
X011592Y023381D02*
X012993Y023381D01*
X012972Y023283D02*
X011615Y023283D01*
X011615Y023184D02*
X012969Y023184D01*
X012969Y023086D02*
X011615Y023086D01*
X011615Y022987D02*
X012969Y022987D01*
X012969Y022889D02*
X011615Y022889D01*
X011615Y022790D02*
X013512Y022790D01*
X013512Y022692D02*
X013612Y022692D01*
X013612Y022593D02*
X013512Y022593D01*
X013512Y022495D02*
X013612Y022495D01*
X013612Y022396D02*
X013512Y022396D01*
X013512Y022298D02*
X013612Y022298D01*
X013612Y022199D02*
X013512Y022199D01*
X013512Y022101D02*
X013612Y022101D01*
X013612Y022002D02*
X013512Y022002D01*
X013512Y021904D02*
X013612Y021904D01*
X013612Y021805D02*
X013512Y021805D01*
X013284Y021805D02*
X011242Y021805D01*
X011418Y021904D02*
X013149Y021904D01*
X013067Y022002D02*
X011517Y022002D01*
X011566Y022101D02*
X013013Y022101D01*
X012982Y022199D02*
X011607Y022199D01*
X011615Y022298D02*
X012969Y022298D01*
X012969Y022396D02*
X011615Y022396D01*
X011615Y022495D02*
X012969Y022495D01*
X012969Y022593D02*
X011615Y022593D01*
X011615Y022692D02*
X012969Y022692D01*
X013935Y023677D02*
X015242Y023677D01*
X015143Y023578D02*
X014031Y023578D01*
X014093Y023480D02*
X015073Y023480D01*
X015032Y023381D02*
X014131Y023381D01*
X014152Y023283D02*
X015009Y023283D01*
X015009Y023184D02*
X014155Y023184D01*
X014155Y023086D02*
X015009Y023086D01*
X015009Y022987D02*
X014155Y022987D01*
X014155Y022889D02*
X015009Y022889D01*
X015882Y023677D02*
X017242Y023677D01*
X017143Y023578D02*
X015981Y023578D01*
X016051Y023480D02*
X017073Y023480D01*
X017032Y023381D02*
X016092Y023381D01*
X016115Y023283D02*
X017009Y023283D01*
X017009Y023184D02*
X016115Y023184D01*
X016115Y023086D02*
X017009Y023086D01*
X017009Y022987D02*
X016115Y022987D01*
X016115Y022889D02*
X017009Y022889D01*
X017009Y022790D02*
X016115Y022790D01*
X016115Y022692D02*
X017009Y022692D01*
X017009Y022593D02*
X016115Y022593D01*
X016115Y022495D02*
X017009Y022495D01*
X017009Y022396D02*
X016115Y022396D01*
X016115Y022298D02*
X017009Y022298D01*
X017017Y022199D02*
X016107Y022199D01*
X016066Y022101D02*
X017058Y022101D01*
X017107Y022002D02*
X016017Y022002D01*
X015918Y021904D02*
X017206Y021904D01*
X017382Y021805D02*
X015742Y021805D01*
X016405Y021213D02*
X016416Y021224D01*
X018047Y021224D01*
X018374Y020897D01*
X018374Y019932D01*
X018083Y019343D02*
X022354Y019343D01*
X019530Y019343D01*
X019530Y019441D02*
X022354Y019441D01*
X017671Y019441D01*
X017791Y019540D02*
X022354Y019540D01*
X022354Y019468D02*
X022354Y016226D01*
X019530Y016226D01*
X019530Y019468D01*
X022354Y019468D01*
X022354Y019244D02*
X019530Y019244D01*
X019530Y019146D02*
X022354Y019146D01*
X018332Y019146D01*
X018332Y019244D02*
X022354Y019244D01*
X022354Y019047D02*
X019530Y019047D01*
X019530Y018949D02*
X022354Y018949D01*
X022354Y019047D02*
X018332Y019047D01*
X018172Y019179D02*
X018172Y018670D01*
X018597Y018653D02*
X019676Y018653D01*
X019676Y018555D02*
X018597Y018555D01*
X018597Y018456D02*
X019676Y018456D01*
X019676Y018358D02*
X016908Y018358D01*
X016908Y018259D02*
X019676Y018259D01*
X019676Y018161D02*
X016908Y018161D01*
X016908Y018062D02*
X019676Y018062D01*
X019676Y017964D02*
X016908Y017964D01*
X016889Y017865D02*
X019676Y017865D01*
X019530Y017865D02*
X022354Y017865D01*
X022354Y017767D02*
X019530Y017767D01*
X019530Y017668D02*
X022354Y017668D01*
X022354Y017570D02*
X019530Y017570D01*
X019530Y017471D02*
X022354Y017471D01*
X022354Y017373D02*
X019530Y017373D01*
X019530Y017274D02*
X022354Y017274D01*
X022354Y017176D02*
X019530Y017176D01*
X019530Y017077D02*
X022354Y017077D01*
X022354Y016979D02*
X019530Y016979D01*
X019530Y016880D02*
X022354Y016880D01*
X022354Y016782D02*
X019530Y016782D01*
X019530Y016683D02*
X022354Y016683D01*
X022354Y016585D02*
X019530Y016585D01*
X019530Y016486D02*
X022354Y016486D01*
X018829Y016486D01*
X018928Y016388D02*
X022354Y016388D01*
X019530Y016388D01*
X019530Y016289D02*
X022354Y016289D01*
X019026Y016289D01*
X019125Y016191D02*
X022354Y016191D01*
X022354Y016092D02*
X019223Y016092D01*
X019322Y015994D02*
X022354Y015994D01*
X022354Y015895D02*
X019566Y015895D01*
X019629Y015797D02*
X022354Y015797D01*
X022354Y015698D02*
X019649Y015698D01*
X019637Y015600D02*
X022354Y015600D01*
X022354Y015501D02*
X019585Y015501D01*
X019440Y015403D02*
X022354Y015403D01*
X022354Y015304D02*
X006968Y015304D01*
X006955Y015292D02*
X007039Y015376D01*
X007085Y015485D01*
X007085Y015604D01*
X007067Y015646D01*
X007224Y015847D01*
X007263Y015886D01*
X007263Y015898D01*
X007270Y015907D01*
X007263Y015963D01*
X007263Y016341D01*
X006942Y016662D01*
X006895Y016710D01*
X006895Y016956D01*
X006830Y017021D01*
X006227Y017021D01*
X006163Y016956D01*
X006163Y016235D01*
X006227Y016171D01*
X006830Y016171D01*
X006895Y016235D01*
X006895Y016257D01*
X006943Y016208D01*
X006943Y016008D01*
X006815Y015843D01*
X006727Y015843D01*
X006618Y015797D01*
X006534Y015714D01*
X006488Y015604D01*
X006488Y015485D01*
X006534Y015376D01*
X006618Y015292D01*
X006727Y015247D01*
X006846Y015247D01*
X006955Y015292D01*
X007050Y015403D02*
X019262Y015403D01*
X019117Y015501D02*
X007085Y015501D01*
X007085Y015600D02*
X019065Y015600D01*
X019053Y015698D02*
X007108Y015698D01*
X007185Y015797D02*
X013000Y015797D01*
X012902Y015895D02*
X007263Y015895D01*
X007263Y015994D02*
X012803Y015994D01*
X012705Y016092D02*
X009676Y016092D01*
X009646Y016080D02*
X009756Y016125D01*
X009840Y016209D01*
X009885Y016319D01*
X009885Y016437D01*
X009881Y016446D01*
X010158Y016723D01*
X010252Y016817D01*
X010252Y016899D01*
X010452Y016899D01*
X010517Y016963D01*
X010517Y017566D01*
X010452Y017630D01*
X009731Y017630D01*
X009667Y017566D01*
X009667Y016963D01*
X009731Y016899D01*
X009881Y016899D01*
X009655Y016673D01*
X009646Y016676D01*
X009528Y016676D01*
X009418Y016631D01*
X009334Y016547D01*
X009289Y016437D01*
X009289Y016319D01*
X009334Y016209D01*
X009418Y016125D01*
X009528Y016080D01*
X009646Y016080D01*
X009498Y016092D02*
X007263Y016092D01*
X007263Y016191D02*
X008421Y016191D01*
X008452Y016160D02*
X008562Y016114D01*
X008680Y016114D01*
X008790Y016160D01*
X008874Y016244D01*
X008919Y016353D01*
X008919Y016472D01*
X008874Y016581D01*
X008790Y016665D01*
X008781Y016669D01*
X008781Y016872D01*
X008985Y016872D01*
X009049Y016936D01*
X009049Y017539D01*
X008985Y017604D01*
X008264Y017604D01*
X008199Y017539D01*
X008199Y016936D01*
X008264Y016872D01*
X008461Y016872D01*
X008461Y016669D01*
X008452Y016665D01*
X008368Y016581D01*
X008323Y016472D01*
X008323Y016353D01*
X008368Y016244D01*
X008452Y016160D01*
X008349Y016289D02*
X007263Y016289D01*
X007216Y016388D02*
X008323Y016388D01*
X008329Y016486D02*
X007118Y016486D01*
X007019Y016585D02*
X008372Y016585D01*
X008461Y016683D02*
X006921Y016683D01*
X006895Y016782D02*
X008461Y016782D01*
X008255Y016880D02*
X006895Y016880D01*
X006872Y016979D02*
X008199Y016979D01*
X008199Y017077D02*
X005941Y017077D01*
X005941Y017176D02*
X008199Y017176D01*
X008199Y017274D02*
X005941Y017274D01*
X005941Y017373D02*
X008199Y017373D01*
X008199Y017471D02*
X005941Y017471D01*
X005941Y017570D02*
X008230Y017570D01*
X008215Y017668D02*
X005941Y017668D01*
X005941Y017767D02*
X008199Y017767D01*
X008199Y017865D02*
X005941Y017865D01*
X005941Y017964D02*
X008199Y017964D01*
X008199Y018062D02*
X006838Y018062D01*
X006829Y018052D02*
X006893Y018117D01*
X006893Y018617D01*
X007194Y018918D01*
X007194Y019517D01*
X007203Y019521D01*
X007287Y019605D01*
X007333Y019714D01*
X007333Y019833D01*
X007287Y019943D01*
X007203Y020027D01*
X007094Y020072D01*
X006975Y020072D01*
X006866Y020027D01*
X006782Y019943D01*
X006736Y019833D01*
X006736Y019714D01*
X006782Y019605D01*
X006866Y019521D01*
X006874Y019517D01*
X006874Y019051D01*
X006726Y018902D01*
X006226Y018902D01*
X006161Y018838D01*
X006161Y018117D01*
X006226Y018052D01*
X006829Y018052D01*
X006893Y018161D02*
X008199Y018161D01*
X008199Y018259D02*
X006893Y018259D01*
X006893Y018358D02*
X009711Y018358D01*
X009667Y018259D02*
X009049Y018259D01*
X009395Y018752D02*
X007028Y018752D01*
X007126Y018850D02*
X009235Y018850D01*
X009290Y018795D02*
X009467Y018722D01*
X009657Y018722D01*
X009834Y018795D01*
X009969Y018930D01*
X010042Y019107D01*
X010042Y019298D01*
X009969Y019474D01*
X009834Y019609D01*
X009657Y019682D01*
X009467Y019682D01*
X009290Y019609D01*
X009155Y019474D01*
X009082Y019298D01*
X009082Y019107D01*
X009155Y018930D01*
X009290Y018795D01*
X009147Y018949D02*
X007194Y018949D01*
X007194Y019047D02*
X009107Y019047D01*
X009082Y019146D02*
X007194Y019146D01*
X007194Y019244D02*
X009082Y019244D01*
X009101Y019343D02*
X007194Y019343D01*
X007194Y019441D02*
X009141Y019441D01*
X009221Y019540D02*
X007222Y019540D01*
X007301Y019638D02*
X009360Y019638D01*
X009467Y019862D02*
X009290Y019935D01*
X009155Y020070D01*
X009082Y020247D01*
X009082Y020438D01*
X009155Y020614D01*
X009290Y020749D01*
X009467Y020822D01*
X009657Y020822D01*
X009834Y020749D01*
X009969Y020614D01*
X010042Y020438D01*
X010042Y020247D01*
X009969Y020070D01*
X009834Y019935D01*
X009657Y019862D01*
X009467Y019862D01*
X009294Y019934D02*
X007291Y019934D01*
X007332Y019835D02*
X012257Y019835D01*
X012356Y019737D02*
X007333Y019737D01*
X007034Y019774D02*
X007034Y018985D01*
X006527Y018477D01*
X006893Y018456D02*
X012370Y018456D01*
X012370Y018358D02*
X010473Y018358D01*
X010517Y018259D02*
X012370Y018259D01*
X012370Y018161D02*
X011882Y018161D01*
X011980Y018062D02*
X012370Y018062D01*
X012370Y017964D02*
X012079Y017964D01*
X012177Y017865D02*
X012370Y017865D01*
X012370Y017767D02*
X012276Y017767D01*
X012254Y017562D02*
X012254Y016769D01*
X013093Y015930D01*
X017669Y015930D01*
X017912Y016172D01*
X018022Y015895D02*
X018883Y015895D01*
X018981Y015797D02*
X017763Y015797D01*
X017606Y016092D02*
X015333Y016092D01*
X015382Y016191D02*
X017614Y016191D01*
X017638Y016289D02*
X015392Y016289D01*
X015370Y016388D02*
X017706Y016388D01*
X017747Y016782D02*
X016941Y016782D01*
X016948Y016880D02*
X017747Y016880D01*
X017747Y016979D02*
X016948Y016979D01*
X016948Y017077D02*
X017747Y017077D01*
X017806Y017176D02*
X016612Y017176D01*
X016612Y017274D02*
X016512Y017274D01*
X016512Y017373D02*
X016612Y017373D01*
X016612Y017471D02*
X016512Y017471D01*
X016512Y017570D02*
X016612Y017570D01*
X016612Y017668D02*
X016512Y017668D01*
X016235Y017865D02*
X015413Y017865D01*
X015445Y017964D02*
X016216Y017964D01*
X016216Y018062D02*
X015445Y018062D01*
X015391Y018555D02*
X016216Y018555D01*
X016216Y018653D02*
X013123Y018653D01*
X013035Y018555D02*
X013217Y018555D01*
X013154Y018456D02*
X013035Y018456D01*
X013035Y018358D02*
X013154Y018358D01*
X013154Y018259D02*
X013035Y018259D01*
X013035Y018161D02*
X013154Y018161D01*
X013154Y018062D02*
X013035Y018062D01*
X013035Y017964D02*
X013154Y017964D01*
X013176Y017865D02*
X013035Y017865D01*
X013035Y017767D02*
X013130Y017767D01*
X013114Y017668D02*
X013035Y017668D01*
X013035Y017570D02*
X013114Y017570D01*
X012715Y017570D02*
X012690Y017570D01*
X012690Y017668D02*
X012715Y017668D01*
X012715Y017767D02*
X012690Y017767D01*
X012690Y017865D02*
X012715Y017865D01*
X012715Y017964D02*
X012690Y017964D01*
X012690Y018062D02*
X012715Y018062D01*
X012715Y018161D02*
X012690Y018161D01*
X012690Y018259D02*
X012715Y018259D01*
X012715Y018358D02*
X012690Y018358D01*
X012690Y018456D02*
X012715Y018456D01*
X012715Y018555D02*
X012690Y018555D01*
X012690Y018653D02*
X012715Y018653D01*
X012690Y018752D02*
X012769Y018752D01*
X012690Y018850D02*
X012868Y018850D01*
X012966Y018949D02*
X012690Y018949D01*
X012690Y019047D02*
X013065Y019047D01*
X013163Y019146D02*
X012690Y019146D01*
X012690Y019244D02*
X013221Y019244D01*
X013221Y019343D02*
X012690Y019343D01*
X012690Y019441D02*
X013221Y019441D01*
X013221Y019540D02*
X012690Y019540D01*
X012690Y019638D02*
X013221Y019638D01*
X013221Y019737D02*
X012690Y019737D01*
X012690Y019835D02*
X013221Y019835D01*
X013221Y019934D02*
X012611Y019934D01*
X012513Y020032D02*
X013042Y020032D01*
X012983Y020131D02*
X012414Y020131D01*
X012378Y020229D02*
X012983Y020229D01*
X012983Y020328D02*
X012378Y020328D01*
X012378Y020426D02*
X012983Y020426D01*
X012983Y020525D02*
X012378Y020525D01*
X012378Y020623D02*
X012983Y020623D01*
X013011Y020722D02*
X012323Y020722D01*
X012378Y020820D02*
X013002Y020820D01*
X012983Y020919D02*
X012378Y020919D01*
X011953Y021114D02*
X011538Y021529D01*
X006540Y021529D01*
X005785Y020774D01*
X005785Y020466D01*
X005779Y020459D01*
X005779Y018477D01*
X005781Y018192D01*
X005781Y016596D01*
X005705Y016464D01*
X005705Y014749D01*
X006071Y014713D02*
X006087Y014713D01*
X006087Y014615D02*
X006071Y014615D01*
X006071Y014516D02*
X006087Y014516D01*
X006087Y014418D02*
X006071Y014418D01*
X006087Y014388D02*
X006152Y014324D01*
X006755Y014324D01*
X006819Y014388D01*
X006819Y014574D01*
X006991Y014574D01*
X007096Y014470D01*
X007058Y014432D01*
X007012Y014322D01*
X007012Y014203D01*
X007058Y014094D01*
X007142Y014010D01*
X007251Y013965D01*
X007370Y013965D01*
X007479Y014010D01*
X007563Y014094D01*
X007608Y014203D01*
X007608Y014322D01*
X007563Y014432D01*
X007479Y014515D01*
X007470Y014519D01*
X007470Y014547D01*
X007217Y014800D01*
X007124Y014894D01*
X006819Y014894D01*
X006819Y015109D01*
X006755Y015174D01*
X006152Y015174D01*
X006087Y015109D01*
X006087Y014388D01*
X006468Y014734D02*
X006453Y014749D01*
X006468Y014734D02*
X007057Y014734D01*
X007310Y014481D01*
X007310Y014263D01*
X007046Y014122D02*
X005041Y014122D01*
X005058Y014221D02*
X007012Y014221D01*
X007012Y014319D02*
X005058Y014319D01*
X005043Y014418D02*
X005339Y014418D01*
X005339Y014516D02*
X005002Y014516D01*
X004944Y014615D02*
X005339Y014615D01*
X005339Y014713D02*
X004846Y014713D01*
X004647Y014812D02*
X005339Y014812D01*
X005339Y014910D02*
X003155Y014910D01*
X003156Y014812D02*
X003477Y014812D01*
X003278Y014713D02*
X003157Y014713D01*
X003157Y014615D02*
X003180Y014615D01*
X002837Y014615D02*
X002762Y014615D01*
X002762Y014713D02*
X002837Y014713D01*
X002836Y014812D02*
X002762Y014812D01*
X002762Y014910D02*
X002835Y014910D01*
X002835Y015009D02*
X002762Y015009D01*
X002762Y015107D02*
X002834Y015107D01*
X002832Y015206D02*
X002762Y015206D01*
X002762Y015304D02*
X002920Y015304D01*
X003014Y015403D02*
X002762Y015403D01*
X002762Y015501D02*
X003108Y015501D01*
X003201Y015600D02*
X002762Y015600D01*
X002762Y015698D02*
X003295Y015698D01*
X003322Y015797D02*
X002762Y015797D01*
X002762Y015895D02*
X003214Y015895D01*
X003136Y015994D02*
X002762Y015994D01*
X002762Y016092D02*
X003095Y016092D01*
X003066Y016191D02*
X002762Y016191D01*
X002762Y016289D02*
X003066Y016289D01*
X003068Y016388D02*
X002762Y016388D01*
X002762Y016486D02*
X003109Y016486D01*
X003150Y016585D02*
X002762Y016585D01*
X002762Y016683D02*
X003248Y016683D01*
X003404Y016782D02*
X002762Y016782D01*
X002762Y016880D02*
X005415Y016880D01*
X005415Y016782D02*
X004720Y016782D01*
X004876Y016683D02*
X005415Y016683D01*
X005415Y016585D02*
X004974Y016585D01*
X005015Y016486D02*
X005415Y016486D01*
X005415Y016388D02*
X005056Y016388D01*
X005058Y016289D02*
X005415Y016289D01*
X005459Y016191D02*
X005058Y016191D01*
X005029Y016092D02*
X005545Y016092D01*
X005545Y015994D02*
X004988Y015994D01*
X004910Y015895D02*
X005545Y015895D01*
X005545Y015797D02*
X004802Y015797D01*
X005339Y015107D02*
X003174Y015107D01*
X003155Y015009D02*
X005339Y015009D01*
X005545Y015206D02*
X003268Y015206D01*
X003362Y015304D02*
X005545Y015304D01*
X005545Y015403D02*
X003456Y015403D01*
X003549Y015501D02*
X005545Y015501D01*
X005545Y015600D02*
X003643Y015600D01*
X003737Y015698D02*
X005545Y015698D01*
X005865Y015698D02*
X006528Y015698D01*
X006488Y015600D02*
X005865Y015600D01*
X005865Y015501D02*
X006488Y015501D01*
X006523Y015403D02*
X005865Y015403D01*
X005865Y015304D02*
X006605Y015304D01*
X006819Y015107D02*
X022354Y015107D01*
X022354Y015009D02*
X006819Y015009D01*
X006819Y014910D02*
X022354Y014910D01*
X022354Y014812D02*
X007206Y014812D01*
X007304Y014713D02*
X022354Y014713D01*
X022354Y014615D02*
X007403Y014615D01*
X007477Y014516D02*
X022354Y014516D01*
X022354Y015206D02*
X005865Y015206D01*
X006071Y015107D02*
X006087Y015107D01*
X006087Y015009D02*
X006071Y015009D01*
X006071Y014910D02*
X006087Y014910D01*
X006087Y014812D02*
X006071Y014812D01*
X006819Y014516D02*
X007049Y014516D01*
X007052Y014418D02*
X006819Y014418D01*
X007128Y014024D02*
X005000Y014024D01*
X004940Y013925D02*
X019102Y013925D01*
X019102Y013827D02*
X004841Y013827D01*
X004636Y013728D02*
X019102Y013728D01*
X019102Y013630D02*
X003164Y013630D01*
X003164Y013728D02*
X003488Y013728D01*
X003283Y013827D02*
X003163Y013827D01*
X003162Y013925D02*
X003184Y013925D01*
X002842Y013925D02*
X002762Y013925D01*
X002762Y013827D02*
X002843Y013827D01*
X002843Y013728D02*
X002762Y013728D01*
X002762Y013630D02*
X002844Y013630D01*
X002845Y013531D02*
X002762Y013531D01*
X002762Y013433D02*
X002846Y013433D01*
X002766Y013334D02*
X002762Y013334D01*
X003007Y013154D02*
X002994Y015150D01*
X004062Y016272D01*
X002762Y016979D02*
X005437Y016979D01*
X005621Y017077D02*
X002762Y017077D01*
X002762Y017176D02*
X005621Y017176D01*
X005621Y017274D02*
X002762Y017274D01*
X002762Y017373D02*
X005621Y017373D01*
X005621Y017471D02*
X002762Y017471D01*
X002762Y017570D02*
X005621Y017570D01*
X005621Y017668D02*
X002762Y017668D01*
X002762Y017767D02*
X005621Y017767D01*
X005621Y017865D02*
X002762Y017865D01*
X002762Y017964D02*
X005621Y017964D01*
X005468Y018062D02*
X002762Y018062D01*
X002762Y018161D02*
X005413Y018161D01*
X005413Y018259D02*
X004804Y018259D01*
X004816Y018265D02*
X004891Y018320D01*
X004957Y018386D01*
X005012Y018462D01*
X005054Y018545D01*
X005083Y018633D01*
X005097Y018722D01*
X004112Y018722D01*
X004112Y018179D01*
X004552Y018179D01*
X004644Y018194D01*
X004733Y018223D01*
X004816Y018265D01*
X004929Y018358D02*
X005413Y018358D01*
X005413Y018456D02*
X005008Y018456D01*
X005058Y018555D02*
X005413Y018555D01*
X005413Y018653D02*
X005086Y018653D01*
X005097Y018822D02*
X005083Y018911D01*
X005054Y019000D01*
X005012Y019083D01*
X004957Y019159D01*
X004891Y019225D01*
X004816Y019279D01*
X004733Y019322D01*
X004644Y019351D01*
X004552Y019365D01*
X004112Y019365D01*
X004112Y018822D01*
X005097Y018822D01*
X005093Y018850D02*
X005426Y018850D01*
X005413Y018752D02*
X004112Y018752D01*
X004112Y018722D02*
X004112Y018822D01*
X004012Y018822D01*
X004012Y018722D01*
X004112Y018722D01*
X004112Y018653D02*
X004012Y018653D01*
X004012Y018722D02*
X004012Y018179D01*
X003572Y018179D01*
X003480Y018194D01*
X003391Y018223D01*
X003308Y018265D01*
X003233Y018320D01*
X003167Y018386D01*
X003112Y018462D01*
X003070Y018545D01*
X003041Y018633D01*
X003027Y018722D01*
X004012Y018722D01*
X004012Y018752D02*
X002762Y018752D01*
X002762Y018850D02*
X003031Y018850D01*
X003027Y018822D02*
X004012Y018822D01*
X004012Y019365D01*
X003572Y019365D01*
X003480Y019351D01*
X003391Y019322D01*
X003308Y019279D01*
X003233Y019225D01*
X003167Y019159D01*
X003112Y019083D01*
X003070Y019000D01*
X003041Y018911D01*
X003027Y018822D01*
X003053Y018949D02*
X002762Y018949D01*
X002762Y019047D02*
X003094Y019047D01*
X003158Y019146D02*
X002762Y019146D01*
X002762Y019244D02*
X003260Y019244D01*
X003456Y019343D02*
X002762Y019343D01*
X002762Y019441D02*
X005619Y019441D01*
X005619Y019343D02*
X004668Y019343D01*
X004864Y019244D02*
X005619Y019244D01*
X005619Y019146D02*
X004966Y019146D01*
X005030Y019047D02*
X005619Y019047D01*
X005619Y018949D02*
X005071Y018949D01*
X005619Y019540D02*
X002762Y019540D01*
X002762Y019638D02*
X005619Y019638D01*
X005619Y019737D02*
X002762Y019737D01*
X002762Y019835D02*
X005619Y019835D01*
X005619Y019934D02*
X002762Y019934D01*
X002762Y020032D02*
X005619Y020032D01*
X005419Y020131D02*
X002762Y020131D01*
X002762Y020229D02*
X003485Y020229D01*
X003509Y020219D02*
X003306Y020304D01*
X003150Y020459D01*
X003066Y020662D01*
X003066Y020882D01*
X003150Y021086D01*
X003306Y021241D01*
X003509Y021325D01*
X004615Y021325D01*
X004818Y021241D01*
X004974Y021086D01*
X005058Y020882D01*
X005058Y020662D01*
X004974Y020459D01*
X004818Y020304D01*
X004615Y020219D01*
X003509Y020219D01*
X003282Y020328D02*
X002762Y020328D01*
X002762Y020426D02*
X003183Y020426D01*
X003123Y020525D02*
X002762Y020525D01*
X002762Y020623D02*
X003082Y020623D01*
X003066Y020722D02*
X002762Y020722D01*
X002762Y020820D02*
X003066Y020820D01*
X003081Y020919D02*
X002762Y020919D01*
X002762Y021017D02*
X003122Y021017D01*
X003181Y021116D02*
X002762Y021116D01*
X002762Y021214D02*
X003279Y021214D01*
X003479Y021313D02*
X002762Y021313D01*
X002762Y021411D02*
X006197Y021411D01*
X006295Y021510D02*
X002762Y021510D01*
X002762Y021608D02*
X006394Y021608D01*
X006551Y021313D02*
X011528Y021313D01*
X011528Y021214D02*
X007403Y021214D01*
X007379Y021224D02*
X007261Y021224D01*
X007151Y021179D01*
X007067Y021095D01*
X007022Y020985D01*
X007022Y020902D01*
X006899Y020810D01*
X006899Y020826D01*
X006835Y020890D01*
X006232Y020890D01*
X006167Y020826D01*
X006167Y020105D01*
X006232Y020041D01*
X006835Y020041D01*
X006899Y020105D01*
X006899Y020410D01*
X007215Y020647D01*
X007261Y020628D01*
X007379Y020628D01*
X007489Y020673D01*
X007573Y020757D01*
X007618Y020867D01*
X007618Y020985D01*
X007573Y021095D01*
X007489Y021179D01*
X007379Y021224D01*
X007237Y021214D02*
X006452Y021214D01*
X006354Y021116D02*
X007088Y021116D01*
X007035Y021017D02*
X006255Y021017D01*
X006157Y020919D02*
X007022Y020919D01*
X006913Y020820D02*
X006899Y020820D01*
X007052Y020525D02*
X009118Y020525D01*
X009082Y020426D02*
X006921Y020426D01*
X006899Y020328D02*
X009082Y020328D01*
X009089Y020229D02*
X006899Y020229D01*
X006899Y020131D02*
X009130Y020131D01*
X009193Y020032D02*
X007189Y020032D01*
X006880Y020032D02*
X005939Y020032D01*
X005939Y019934D02*
X006778Y019934D01*
X006737Y019835D02*
X005939Y019835D01*
X005939Y019737D02*
X006736Y019737D01*
X006768Y019638D02*
X005939Y019638D01*
X005939Y019540D02*
X006847Y019540D01*
X006874Y019441D02*
X005939Y019441D01*
X005939Y019343D02*
X006874Y019343D01*
X006874Y019244D02*
X005939Y019244D01*
X005939Y019146D02*
X006874Y019146D01*
X006871Y019047D02*
X005939Y019047D01*
X005939Y018949D02*
X006772Y018949D01*
X006929Y018653D02*
X012370Y018653D01*
X012370Y018555D02*
X006893Y018555D01*
X006161Y018555D02*
X006145Y018555D01*
X006145Y018653D02*
X006161Y018653D01*
X006161Y018752D02*
X006145Y018752D01*
X006133Y018850D02*
X006174Y018850D01*
X006161Y018456D02*
X006145Y018456D01*
X006145Y018358D02*
X006161Y018358D01*
X006161Y018259D02*
X006145Y018259D01*
X006145Y018161D02*
X006161Y018161D01*
X006216Y018062D02*
X006090Y018062D01*
X006124Y016979D02*
X006185Y016979D01*
X006163Y016880D02*
X006147Y016880D01*
X006147Y016782D02*
X006163Y016782D01*
X006163Y016683D02*
X006147Y016683D01*
X006147Y016585D02*
X006163Y016585D01*
X006163Y016486D02*
X006147Y016486D01*
X006147Y016388D02*
X006163Y016388D01*
X006163Y016289D02*
X006147Y016289D01*
X006102Y016191D02*
X006207Y016191D01*
X005865Y016092D02*
X006943Y016092D01*
X006933Y015994D02*
X005865Y015994D01*
X005865Y015895D02*
X006856Y015895D01*
X007103Y015953D02*
X007103Y016275D01*
X006782Y016596D01*
X006529Y016596D01*
X006850Y016191D02*
X006943Y016191D01*
X007103Y015953D02*
X006787Y015545D01*
X006617Y015797D02*
X005865Y015797D01*
X007569Y014418D02*
X019102Y014418D01*
X019102Y014444D02*
X019102Y013565D01*
X019166Y013501D01*
X020202Y013501D01*
X020266Y013565D01*
X020266Y014444D01*
X020202Y014508D01*
X019166Y014508D01*
X019102Y014444D01*
X019102Y014319D02*
X007608Y014319D01*
X007608Y014221D02*
X019102Y014221D01*
X019102Y014122D02*
X007575Y014122D01*
X007493Y014024D02*
X019102Y014024D01*
X019136Y013531D02*
X003165Y013531D01*
X003166Y013433D02*
X020401Y013433D01*
X020320Y013334D02*
X003249Y013334D01*
X003296Y013236D02*
X020279Y013236D01*
X020233Y013531D02*
X020580Y013531D01*
X020757Y013531D02*
X021301Y013531D01*
X021267Y013630D02*
X020266Y013630D01*
X020266Y013728D02*
X021267Y013728D01*
X021267Y013827D02*
X020266Y013827D01*
X020266Y013925D02*
X021267Y013925D01*
X021267Y014024D02*
X020266Y014024D01*
X020266Y014122D02*
X021267Y014122D01*
X021267Y014221D02*
X020266Y014221D01*
X020266Y014319D02*
X021267Y014319D01*
X021267Y014418D02*
X020266Y014418D01*
X020246Y015001D02*
X021064Y015819D01*
X021064Y017523D01*
X021096Y017570D02*
X020996Y017570D01*
X020996Y017668D02*
X021096Y017668D01*
X021096Y017471D02*
X020996Y017471D01*
X020996Y017373D02*
X021096Y017373D01*
X021096Y017274D02*
X020996Y017274D01*
X020996Y017176D02*
X021096Y017176D01*
X021096Y017077D02*
X020996Y017077D01*
X020996Y016979D02*
X021096Y016979D01*
X021096Y016880D02*
X020996Y016880D01*
X020996Y016782D02*
X021096Y016782D01*
X021096Y016683D02*
X020996Y016683D01*
X020996Y016585D02*
X021096Y016585D01*
X022351Y016585D02*
X022354Y016585D01*
X022354Y017964D02*
X019530Y017964D01*
X019530Y018062D02*
X022354Y018062D01*
X022354Y018161D02*
X019530Y018161D01*
X019530Y018259D02*
X022354Y018259D01*
X022354Y018358D02*
X019530Y018358D01*
X019530Y018456D02*
X022354Y018456D01*
X022354Y018555D02*
X019530Y018555D01*
X019530Y018653D02*
X022354Y018653D01*
X022354Y018752D02*
X019530Y018752D01*
X019530Y018850D02*
X022354Y018850D01*
X021096Y018850D02*
X020996Y018850D01*
X020996Y018752D02*
X021096Y018752D01*
X021096Y018653D02*
X020996Y018653D01*
X020996Y018555D02*
X021096Y018555D01*
X021096Y018456D02*
X020996Y018456D01*
X020996Y018358D02*
X021096Y018358D01*
X021096Y018259D02*
X020996Y018259D01*
X020996Y018161D02*
X021096Y018161D01*
X021096Y018062D02*
X020996Y018062D01*
X020996Y017964D02*
X021096Y017964D01*
X021096Y017865D02*
X020996Y017865D01*
X020996Y018949D02*
X021096Y018949D01*
X019727Y018949D02*
X018561Y018949D01*
X018597Y018850D02*
X019676Y018850D01*
X019676Y018752D02*
X018597Y018752D01*
X018172Y019179D02*
X017486Y019205D01*
X017325Y018949D02*
X013419Y018949D01*
X013320Y018850D02*
X016820Y018850D01*
X016964Y018456D02*
X017747Y018456D01*
X017784Y018949D02*
X017648Y018949D01*
X017546Y019717D02*
X017167Y019863D01*
X016034Y020131D02*
X015220Y020131D01*
X015229Y020229D02*
X015991Y020229D01*
X015991Y020328D02*
X015229Y020328D01*
X015229Y020426D02*
X015991Y020426D01*
X016034Y020820D02*
X013814Y020820D01*
X013805Y020722D02*
X014379Y020722D01*
X014379Y020623D02*
X013833Y020623D01*
X013833Y020525D02*
X014379Y020525D01*
X014379Y020919D02*
X013833Y020919D01*
X013833Y021313D02*
X014379Y021313D01*
X014379Y021411D02*
X013833Y021411D01*
X013408Y021141D02*
X014755Y021141D01*
X014804Y021189D01*
X016405Y021213D01*
X016841Y021510D02*
X022354Y021510D01*
X022354Y021608D02*
X011685Y021608D01*
X011783Y021510D02*
X014398Y021510D01*
X013408Y021141D02*
X013382Y021114D01*
X011953Y021114D01*
X012378Y021313D02*
X012983Y021313D01*
X012983Y021411D02*
X012378Y021411D01*
X011528Y021116D02*
X007552Y021116D01*
X007605Y021017D02*
X011528Y021017D01*
X011528Y020919D02*
X007618Y020919D01*
X007599Y020820D02*
X009462Y020820D01*
X009662Y020820D02*
X010462Y020820D01*
X010467Y020822D02*
X010290Y020749D01*
X010155Y020614D01*
X010082Y020438D01*
X010082Y020247D01*
X010155Y020070D01*
X010290Y019935D01*
X010467Y019862D01*
X010657Y019862D01*
X010834Y019935D01*
X010969Y020070D01*
X011042Y020247D01*
X011042Y020438D01*
X010969Y020614D01*
X010834Y020749D01*
X010657Y020822D01*
X010467Y020822D01*
X010662Y020820D02*
X011528Y020820D01*
X011582Y020722D02*
X010861Y020722D01*
X010960Y020623D02*
X011528Y020623D01*
X011528Y020525D02*
X011006Y020525D01*
X011042Y020426D02*
X011528Y020426D01*
X011528Y020328D02*
X011042Y020328D01*
X011035Y020229D02*
X011528Y020229D01*
X011528Y020131D02*
X010994Y020131D01*
X010931Y020032D02*
X011560Y020032D01*
X011953Y020366D02*
X012530Y019789D01*
X012530Y016838D01*
X013093Y016275D01*
X015094Y016275D01*
X014884Y016486D02*
X013704Y016486D01*
X013461Y016666D02*
X013151Y016666D01*
X012875Y016941D01*
X012875Y018631D01*
X013381Y019137D01*
X013381Y020365D01*
X013408Y020392D01*
X012370Y019638D02*
X010764Y019638D01*
X010834Y019609D02*
X010657Y019682D01*
X010467Y019682D01*
X010290Y019609D01*
X010155Y019474D01*
X010082Y019298D01*
X010082Y019107D01*
X010155Y018930D01*
X010290Y018795D01*
X010467Y018722D01*
X010657Y018722D01*
X010834Y018795D01*
X010969Y018930D01*
X011042Y019107D01*
X011042Y019298D01*
X010969Y019474D01*
X010834Y019609D01*
X010903Y019540D02*
X012370Y019540D01*
X012370Y019441D02*
X010983Y019441D01*
X011023Y019343D02*
X012370Y019343D01*
X012370Y019244D02*
X011042Y019244D01*
X011042Y019146D02*
X012370Y019146D01*
X012370Y019047D02*
X011017Y019047D01*
X010977Y018949D02*
X012370Y018949D01*
X012370Y018850D02*
X010889Y018850D01*
X010729Y018752D02*
X012370Y018752D01*
X011804Y018013D02*
X012254Y017562D01*
X012094Y017471D02*
X010517Y017471D01*
X010517Y017373D02*
X012094Y017373D01*
X012094Y017274D02*
X010517Y017274D01*
X010517Y017176D02*
X012094Y017176D01*
X012094Y017077D02*
X010517Y017077D01*
X010517Y016979D02*
X012094Y016979D01*
X012094Y016880D02*
X010252Y016880D01*
X010217Y016782D02*
X012094Y016782D01*
X012114Y016683D02*
X010118Y016683D01*
X010020Y016585D02*
X012212Y016585D01*
X012311Y016486D02*
X009921Y016486D01*
X009885Y016388D02*
X012409Y016388D01*
X012508Y016289D02*
X009873Y016289D01*
X009821Y016191D02*
X012606Y016191D01*
X012714Y016880D02*
X012715Y016880D01*
X012715Y016979D02*
X012690Y016979D01*
X012690Y017077D02*
X012715Y017077D01*
X012715Y017176D02*
X012690Y017176D01*
X012690Y017274D02*
X012715Y017274D01*
X012715Y017373D02*
X012690Y017373D01*
X012690Y017471D02*
X012715Y017471D01*
X013509Y017274D02*
X013609Y017274D01*
X013609Y017176D02*
X013509Y017176D01*
X013509Y017077D02*
X013609Y017077D01*
X013255Y016880D02*
X013162Y016880D01*
X013209Y016834D02*
X013209Y016834D01*
X012020Y017570D02*
X010513Y017570D01*
X010474Y017668D02*
X011922Y017668D01*
X011823Y017767D02*
X010517Y017767D01*
X010092Y018013D02*
X008651Y018013D01*
X008624Y017986D01*
X009049Y017767D02*
X009667Y017767D01*
X009710Y017668D02*
X009033Y017668D01*
X009018Y017570D02*
X009671Y017570D01*
X009667Y017471D02*
X009049Y017471D01*
X009049Y017373D02*
X009667Y017373D01*
X009667Y017274D02*
X009049Y017274D01*
X009049Y017176D02*
X009667Y017176D01*
X009667Y017077D02*
X009049Y017077D01*
X009049Y016979D02*
X009667Y016979D01*
X009863Y016880D02*
X008993Y016880D01*
X008781Y016782D02*
X009764Y016782D01*
X009666Y016683D02*
X008781Y016683D01*
X008870Y016585D02*
X009372Y016585D01*
X009309Y016486D02*
X008913Y016486D01*
X008919Y016388D02*
X009289Y016388D01*
X009301Y016289D02*
X008893Y016289D01*
X008821Y016191D02*
X009352Y016191D01*
X009587Y016378D02*
X010092Y016883D01*
X010092Y017265D01*
X010092Y018013D02*
X011804Y018013D01*
X010395Y018752D02*
X009729Y018752D01*
X009889Y018850D02*
X010235Y018850D01*
X010147Y018949D02*
X009977Y018949D01*
X010017Y019047D02*
X010107Y019047D01*
X010082Y019146D02*
X010042Y019146D01*
X010042Y019244D02*
X010082Y019244D01*
X010101Y019343D02*
X010023Y019343D01*
X009983Y019441D02*
X010141Y019441D01*
X010221Y019540D02*
X009903Y019540D01*
X009764Y019638D02*
X010360Y019638D01*
X010294Y019934D02*
X009830Y019934D01*
X009931Y020032D02*
X010193Y020032D01*
X010130Y020131D02*
X009994Y020131D01*
X010035Y020229D02*
X010089Y020229D01*
X010082Y020328D02*
X010042Y020328D01*
X010042Y020426D02*
X010082Y020426D01*
X010118Y020525D02*
X010006Y020525D01*
X009960Y020623D02*
X010164Y020623D01*
X010263Y020722D02*
X009861Y020722D01*
X009263Y020722D02*
X007537Y020722D01*
X007320Y020926D02*
X006707Y020466D01*
X006533Y020466D01*
X006167Y020426D02*
X006151Y020426D01*
X006151Y020328D02*
X006167Y020328D01*
X006167Y020229D02*
X006151Y020229D01*
X006151Y020131D02*
X006167Y020131D01*
X006151Y020525D02*
X006167Y020525D01*
X006167Y020623D02*
X006151Y020623D01*
X006151Y020722D02*
X006167Y020722D01*
X006167Y020820D02*
X006151Y020820D01*
X005901Y021116D02*
X004943Y021116D01*
X005002Y021017D02*
X005803Y021017D01*
X005704Y020919D02*
X005043Y020919D01*
X005058Y020820D02*
X005419Y020820D01*
X005419Y020722D02*
X005058Y020722D01*
X005042Y020623D02*
X005419Y020623D01*
X005419Y020525D02*
X005001Y020525D01*
X004941Y020426D02*
X005419Y020426D01*
X005419Y020328D02*
X004842Y020328D01*
X004639Y020229D02*
X005419Y020229D01*
X004845Y021214D02*
X006000Y021214D01*
X006098Y021313D02*
X004645Y021313D01*
X004804Y022298D02*
X006469Y022298D01*
X006469Y022396D02*
X004911Y022396D01*
X004988Y022495D02*
X006469Y022495D01*
X006469Y022593D02*
X005029Y022593D01*
X005058Y022692D02*
X006469Y022692D01*
X006482Y022199D02*
X002762Y022199D01*
X002762Y022101D02*
X006513Y022101D01*
X006567Y022002D02*
X002762Y022002D01*
X002762Y021904D02*
X006649Y021904D01*
X006784Y021805D02*
X002762Y021805D01*
X002762Y021707D02*
X022354Y021707D01*
X022354Y021805D02*
X017742Y021805D01*
X017918Y021904D02*
X022354Y021904D01*
X022354Y022002D02*
X018017Y022002D01*
X018066Y022101D02*
X022354Y022101D01*
X021112Y021313D02*
X021012Y021313D01*
X021012Y021214D02*
X021112Y021214D01*
X021112Y021116D02*
X021012Y021116D01*
X021012Y021017D02*
X021112Y021017D01*
X020489Y021313D02*
X018185Y021313D01*
X018283Y021214D02*
X020299Y021214D01*
X020202Y021116D02*
X018382Y021116D01*
X018480Y021017D02*
X020141Y021017D01*
X020104Y020919D02*
X018534Y020919D01*
X016216Y018752D02*
X013222Y018752D01*
X012159Y019934D02*
X010830Y019934D01*
X009164Y020623D02*
X007184Y020623D01*
X007112Y021805D02*
X007012Y021805D01*
X007012Y021904D02*
X007112Y021904D01*
X007112Y022002D02*
X007012Y022002D01*
X007012Y022101D02*
X007112Y022101D01*
X007112Y022199D02*
X007012Y022199D01*
X007012Y022298D02*
X007112Y022298D01*
X007112Y022396D02*
X007012Y022396D01*
X007012Y022495D02*
X007112Y022495D01*
X007112Y022593D02*
X007012Y022593D01*
X004112Y019343D02*
X004012Y019343D01*
X004012Y019244D02*
X004112Y019244D01*
X004112Y019146D02*
X004012Y019146D01*
X004012Y019047D02*
X004112Y019047D01*
X004112Y018949D02*
X004012Y018949D01*
X004012Y018850D02*
X004112Y018850D01*
X004112Y018555D02*
X004012Y018555D01*
X004012Y018456D02*
X004112Y018456D01*
X004112Y018358D02*
X004012Y018358D01*
X004012Y018259D02*
X004112Y018259D01*
X003320Y018259D02*
X002762Y018259D01*
X002762Y018358D02*
X003195Y018358D01*
X003116Y018456D02*
X002762Y018456D01*
X002762Y018555D02*
X003066Y018555D01*
X003038Y018653D02*
X002762Y018653D01*
X002762Y022298D02*
X003320Y022298D01*
X003213Y022396D02*
X002762Y022396D01*
X002762Y022495D02*
X003136Y022495D01*
X003095Y022593D02*
X002762Y022593D01*
X002762Y022692D02*
X003066Y022692D01*
X003066Y022790D02*
X002762Y022790D01*
X002762Y022889D02*
X003069Y022889D01*
X003110Y022987D02*
X002762Y022987D01*
X002762Y023086D02*
X003151Y023086D01*
X003249Y023184D02*
X002762Y023184D01*
X002762Y023283D02*
X003407Y023283D01*
X008624Y017238D02*
X008621Y017235D01*
X008621Y016413D01*
X005770Y013137D02*
X003306Y013137D01*
X003281Y012906D02*
X002914Y012539D01*
X002914Y009970D01*
X004062Y008822D01*
X006030Y010576D02*
X014608Y010576D01*
X014608Y010478D02*
X006129Y010478D01*
X006227Y010379D02*
X014608Y010379D01*
X014608Y010281D02*
X006326Y010281D01*
X006424Y010182D02*
X014608Y010182D01*
X014608Y010084D02*
X006523Y010084D01*
X005810Y012645D02*
X004967Y012645D01*
X004865Y012743D02*
X005704Y012743D01*
X005960Y012906D02*
X003281Y012906D01*
X003117Y011955D02*
X003074Y011955D01*
X003074Y011857D02*
X003196Y011857D01*
X002841Y014024D02*
X002762Y014024D01*
X002762Y014122D02*
X002841Y014122D01*
X002840Y014221D02*
X002762Y014221D01*
X002762Y014319D02*
X002839Y014319D01*
X002839Y014418D02*
X002762Y014418D01*
X002762Y014516D02*
X002838Y014516D01*
X008378Y006735D02*
X010372Y006735D01*
X010201Y006636D02*
X008476Y006636D01*
X007537Y004666D02*
X022354Y004666D01*
X022354Y004568D02*
X007464Y004568D01*
X011159Y008125D02*
X011159Y008770D01*
X010978Y008951D01*
X011240Y009099D02*
X012298Y009099D01*
X012312Y009132D02*
X012267Y009022D01*
X012267Y008904D01*
X012312Y008794D01*
X012396Y008710D01*
X012505Y008665D01*
X012624Y008665D01*
X012629Y008667D01*
X012629Y008506D01*
X012429Y008506D01*
X012364Y008442D01*
X012364Y007839D01*
X012429Y007774D01*
X013150Y007774D01*
X013214Y007839D01*
X013214Y008442D01*
X013150Y008506D01*
X012949Y008506D01*
X012949Y008805D01*
X012859Y008895D01*
X012863Y008904D01*
X012863Y009022D01*
X012817Y009132D01*
X012733Y009216D01*
X012624Y009261D01*
X012505Y009261D01*
X012396Y009216D01*
X012312Y009132D01*
X012377Y009197D02*
X011154Y009197D01*
X011276Y009000D02*
X012267Y009000D01*
X012267Y008902D02*
X011276Y008902D01*
X011319Y008803D02*
X012308Y008803D01*
X012409Y008705D02*
X011319Y008705D01*
X011319Y008606D02*
X012629Y008606D01*
X012629Y008508D02*
X011319Y008508D01*
X011584Y008409D02*
X012364Y008409D01*
X012364Y008311D02*
X011584Y008311D01*
X011584Y008212D02*
X012364Y008212D01*
X012364Y008114D02*
X011584Y008114D01*
X011584Y008015D02*
X012364Y008015D01*
X012364Y007917D02*
X011584Y007917D01*
X011579Y007818D02*
X012385Y007818D01*
X012390Y007720D02*
X011543Y007720D01*
X011584Y007621D02*
X012364Y007621D01*
X012789Y007392D02*
X014765Y007392D01*
X016439Y009066D01*
X017417Y009066D01*
X017420Y009296D02*
X015292Y009296D01*
X015292Y009394D02*
X015613Y009394D01*
X015819Y009394D02*
X016753Y009394D01*
X016959Y009394D02*
X017518Y009394D01*
X017617Y009493D02*
X017157Y009493D01*
X017255Y009591D02*
X017715Y009591D01*
X017971Y009394D02*
X022354Y009394D01*
X022354Y009296D02*
X017872Y009296D01*
X018069Y009493D02*
X022354Y009493D01*
X022354Y009591D02*
X018168Y009591D01*
X017717Y010182D02*
X017224Y010182D01*
X017288Y010084D02*
X017603Y010084D01*
X017832Y010281D02*
X017122Y010281D01*
X016591Y010281D02*
X015982Y010281D01*
X016084Y010182D02*
X016489Y010182D01*
X016425Y010084D02*
X016148Y010084D01*
X016189Y009985D02*
X016384Y009985D01*
X016376Y009887D02*
X016196Y009887D01*
X016196Y009788D02*
X016376Y009788D01*
X016412Y009690D02*
X016161Y009690D01*
X016115Y009591D02*
X016457Y009591D01*
X016556Y009493D02*
X016017Y009493D01*
X016344Y009197D02*
X015360Y009197D01*
X015484Y009099D02*
X016245Y009099D01*
X016147Y009000D02*
X015557Y009000D01*
X015598Y008902D02*
X016048Y008902D01*
X015950Y008803D02*
X015612Y008803D01*
X015612Y008705D02*
X015851Y008705D01*
X015753Y008606D02*
X015583Y008606D01*
X015542Y008508D02*
X015654Y008508D01*
X015556Y008409D02*
X015448Y008409D01*
X015457Y008311D02*
X015272Y008311D01*
X015359Y008212D02*
X013214Y008212D01*
X013214Y008114D02*
X015260Y008114D01*
X015162Y008015D02*
X013214Y008015D01*
X013214Y007917D02*
X015063Y007917D01*
X014965Y007818D02*
X013194Y007818D01*
X013188Y007720D02*
X014866Y007720D01*
X014768Y007621D02*
X013214Y007621D01*
X013214Y007227D02*
X017784Y007227D01*
X017784Y007326D02*
X014925Y007326D01*
X015023Y007424D02*
X017784Y007424D01*
X017784Y007523D02*
X015122Y007523D01*
X015220Y007621D02*
X017784Y007621D01*
X017784Y007720D02*
X015319Y007720D01*
X015417Y007818D02*
X017788Y007818D01*
X017827Y007917D02*
X015516Y007917D01*
X015614Y008015D02*
X016092Y008015D01*
X016005Y008114D02*
X015713Y008114D01*
X015811Y008212D02*
X015968Y008212D01*
X015968Y008311D02*
X015910Y008311D01*
X016266Y008263D02*
X018207Y008263D01*
X018209Y008261D01*
X017784Y008015D02*
X016440Y008015D01*
X016443Y008508D02*
X017784Y008508D01*
X017828Y008606D02*
X016205Y008606D01*
X016501Y008902D02*
X018770Y008902D01*
X018223Y007527D02*
X019938Y007527D01*
X020663Y007527D01*
X020787Y007424D02*
X022354Y007424D01*
X022354Y007326D02*
X020363Y007326D01*
X020363Y007227D02*
X022354Y007227D01*
X022354Y007129D02*
X013214Y007129D01*
X013154Y007030D02*
X022354Y007030D01*
X022354Y006932D02*
X012555Y006932D01*
X012457Y006833D02*
X022354Y006833D01*
X022354Y006735D02*
X021348Y006735D01*
X021479Y006636D02*
X022354Y006636D01*
X022354Y006538D02*
X021561Y006538D01*
X021613Y006439D02*
X022354Y006439D01*
X022354Y006341D02*
X021642Y006341D01*
X021655Y006242D02*
X022354Y006242D01*
X022354Y006144D02*
X021655Y006144D01*
X021655Y006045D02*
X022354Y006045D01*
X022354Y005947D02*
X021655Y005947D01*
X021655Y005848D02*
X022354Y005848D01*
X022354Y005750D02*
X021112Y005750D01*
X021112Y005848D02*
X021012Y005848D01*
X021012Y005947D02*
X021112Y005947D01*
X021112Y006045D02*
X021012Y006045D01*
X021012Y006144D02*
X021112Y006144D01*
X021112Y006242D02*
X021012Y006242D01*
X021012Y006341D02*
X021112Y006341D01*
X021112Y006439D02*
X021012Y006439D01*
X021012Y006538D02*
X021112Y006538D01*
X021112Y006636D02*
X021012Y006636D01*
X021012Y006735D02*
X021112Y006735D01*
X020776Y006735D02*
X019252Y006735D01*
X019423Y006636D02*
X020645Y006636D01*
X020564Y006538D02*
X019521Y006538D01*
X019568Y006439D02*
X020511Y006439D01*
X020482Y006341D02*
X019608Y006341D01*
X019615Y006242D02*
X020469Y006242D01*
X020469Y006144D02*
X019615Y006144D01*
X019615Y006045D02*
X020469Y006045D01*
X020469Y005947D02*
X019615Y005947D01*
X021012Y005651D02*
X021112Y005651D01*
X021112Y005553D02*
X021012Y005553D01*
X021012Y005454D02*
X021112Y005454D01*
X021112Y005356D02*
X021012Y005356D01*
X021012Y005257D02*
X021112Y005257D01*
X021112Y005159D02*
X021012Y005159D01*
X021012Y005060D02*
X021112Y005060D01*
X021062Y004983D02*
X021279Y004983D01*
X021755Y004506D01*
X021919Y004506D01*
X022083Y004670D01*
X022083Y008979D01*
X021065Y009998D01*
X021065Y011180D01*
X021552Y011667D01*
X021552Y013015D01*
X022354Y012546D02*
X020527Y012546D01*
X020527Y012448D02*
X022354Y012448D01*
X022354Y012349D02*
X020528Y012349D01*
X020528Y012251D02*
X022354Y012251D01*
X022354Y012152D02*
X020528Y012152D01*
X020528Y012054D02*
X022354Y012054D01*
X022354Y011955D02*
X020528Y011955D01*
X020528Y011857D02*
X022354Y011857D01*
X022354Y011758D02*
X020855Y011758D01*
X020976Y011660D02*
X022354Y011660D01*
X022354Y011561D02*
X021034Y011561D01*
X021065Y011463D02*
X022354Y011463D01*
X022354Y011364D02*
X021065Y011364D01*
X021040Y011266D02*
X022354Y011266D01*
X022354Y011167D02*
X020991Y011167D01*
X020891Y011069D02*
X022354Y011069D01*
X021267Y010970D02*
X020266Y010970D01*
X020266Y010872D02*
X021267Y010872D01*
X021267Y010773D02*
X020266Y010773D01*
X020266Y010675D02*
X021267Y010675D01*
X021267Y010576D02*
X020266Y010576D01*
X020266Y010478D02*
X021267Y010478D01*
X021267Y010379D02*
X020266Y010379D01*
X020266Y010281D02*
X021267Y010281D01*
X021267Y010182D02*
X020266Y010182D01*
X020250Y010084D02*
X021284Y010084D01*
X020446Y011069D02*
X020173Y011069D01*
X020225Y011167D02*
X020346Y011167D01*
X020297Y011266D02*
X020288Y011266D01*
X018176Y012432D02*
X018176Y012432D01*
X018176Y012432D01*
X018789Y015001D02*
X017331Y015001D01*
X018155Y015994D02*
X018784Y015994D01*
X018686Y016092D02*
X018202Y016092D01*
X018210Y016191D02*
X018587Y016191D01*
X018489Y016289D02*
X018186Y016289D01*
X018118Y016388D02*
X018390Y016388D01*
X018292Y016486D02*
X015304Y016486D01*
X016948Y017274D02*
X019676Y017274D01*
X019676Y017176D02*
X018538Y017176D01*
X018597Y017077D02*
X019676Y017077D01*
X019676Y016979D02*
X018597Y016979D01*
X018597Y016880D02*
X019676Y016880D01*
X019676Y016782D02*
X018597Y016782D01*
X018632Y016683D02*
X019677Y016683D01*
X019741Y016585D02*
X018731Y016585D01*
X019676Y017373D02*
X016948Y017373D01*
X016948Y017471D02*
X019676Y017471D01*
X019676Y017570D02*
X016948Y017570D01*
X016939Y017668D02*
X019676Y017668D01*
X020246Y015001D02*
X018789Y015001D01*
X015132Y009668D02*
X015132Y008772D01*
X014681Y008606D02*
X014443Y008606D01*
X014472Y008677D02*
X014399Y008500D01*
X014264Y008365D01*
X014087Y008292D01*
X013897Y008292D01*
X013720Y008365D01*
X013585Y008500D01*
X013512Y008677D01*
X013512Y008868D01*
X013585Y009044D01*
X013720Y009179D01*
X013897Y009252D01*
X014087Y009252D01*
X014264Y009179D01*
X014399Y009044D01*
X014472Y008868D01*
X014472Y008677D01*
X014472Y008705D02*
X014652Y008705D01*
X014652Y008803D02*
X014472Y008803D01*
X014458Y008902D02*
X014666Y008902D01*
X014707Y009000D02*
X014417Y009000D01*
X014344Y009099D02*
X014780Y009099D01*
X014904Y009197D02*
X014220Y009197D01*
X013764Y009197D02*
X012752Y009197D01*
X012831Y009099D02*
X013640Y009099D01*
X013567Y009000D02*
X012863Y009000D01*
X012862Y008902D02*
X013526Y008902D01*
X013512Y008803D02*
X012949Y008803D01*
X012949Y008705D02*
X013512Y008705D01*
X013541Y008606D02*
X012949Y008606D01*
X012949Y008508D02*
X013582Y008508D01*
X013676Y008409D02*
X013214Y008409D01*
X013214Y008311D02*
X013852Y008311D01*
X014132Y008311D02*
X014992Y008311D01*
X014816Y008409D02*
X014308Y008409D01*
X014402Y008508D02*
X014722Y008508D01*
X015292Y009493D02*
X015416Y009493D01*
X015317Y009591D02*
X015292Y009591D01*
X012789Y008738D02*
X012789Y008140D01*
X012789Y008738D02*
X012565Y008963D01*
X012752Y006735D02*
X014276Y006735D01*
X014145Y006636D02*
X012923Y006636D01*
X013021Y006538D02*
X014064Y006538D01*
X014011Y006439D02*
X013068Y006439D01*
X013108Y006341D02*
X013982Y006341D01*
X013969Y006242D02*
X013115Y006242D01*
X013115Y006144D02*
X013969Y006144D01*
X013969Y006045D02*
X013115Y006045D01*
X013115Y005947D02*
X013969Y005947D01*
X014512Y005947D02*
X014612Y005947D01*
X014612Y006045D02*
X014512Y006045D01*
X014512Y006144D02*
X014612Y006144D01*
X014612Y006242D02*
X014512Y006242D01*
X014512Y006341D02*
X014612Y006341D01*
X014612Y006439D02*
X014512Y006439D01*
X014512Y006538D02*
X014612Y006538D01*
X014612Y006636D02*
X014512Y006636D01*
X014512Y006735D02*
X014612Y006735D01*
X014848Y006735D02*
X016872Y006735D01*
X016701Y006636D02*
X014979Y006636D01*
X015061Y006538D02*
X016603Y006538D01*
X016556Y006439D02*
X015113Y006439D01*
X015142Y006341D02*
X016516Y006341D01*
X016509Y006242D02*
X015155Y006242D01*
X015155Y006144D02*
X016509Y006144D01*
X016509Y006045D02*
X015155Y006045D01*
X015155Y005947D02*
X016509Y005947D01*
X016509Y005848D02*
X015155Y005848D01*
X015155Y005651D02*
X016509Y005651D01*
X016509Y005553D02*
X015155Y005553D01*
X015155Y005454D02*
X016509Y005454D01*
X016509Y005356D02*
X015155Y005356D01*
X015151Y005257D02*
X016509Y005257D01*
X016534Y005159D02*
X015130Y005159D01*
X015090Y005060D02*
X016575Y005060D01*
X016648Y004962D02*
X015028Y004962D01*
X014929Y004863D02*
X016746Y004863D01*
X016509Y005750D02*
X014612Y005750D01*
X014612Y005848D02*
X014512Y005848D01*
X014512Y005651D02*
X014612Y005651D01*
X014612Y005553D02*
X014512Y005553D01*
X014512Y005454D02*
X014612Y005454D01*
X014612Y005356D02*
X014512Y005356D01*
X014512Y005257D02*
X014612Y005257D01*
X014612Y005159D02*
X014512Y005159D01*
X014512Y005060D02*
X014612Y005060D01*
X014612Y004962D02*
X014512Y004962D01*
X014512Y004863D02*
X014612Y004863D01*
X014743Y004765D02*
X020881Y004765D01*
X021012Y004765D02*
X021112Y004765D01*
X021112Y004863D02*
X021012Y004863D01*
X021012Y004962D02*
X021112Y004962D01*
X021243Y004765D02*
X022354Y004765D01*
X022354Y004863D02*
X021429Y004863D01*
X021528Y004962D02*
X022354Y004962D01*
X022354Y005060D02*
X021590Y005060D01*
X021630Y005159D02*
X022354Y005159D01*
X022354Y005257D02*
X021651Y005257D01*
X021655Y005356D02*
X022354Y005356D01*
X022354Y005454D02*
X021655Y005454D01*
X021655Y005553D02*
X022354Y005553D01*
X022354Y005651D02*
X021655Y005651D01*
X022354Y007523D02*
X020885Y007523D01*
X020984Y007621D02*
X022354Y007621D01*
X022354Y007720D02*
X021082Y007720D01*
X021181Y007818D02*
X022354Y007818D01*
X018223Y007527D02*
X018209Y007513D01*
X012372Y006735D02*
X012358Y006735D01*
X012201Y006636D02*
X012049Y006636D01*
X012103Y006538D02*
X011946Y006538D01*
M02*
