G75*
%MOIN*%
%OFA0B0*%
%FSLAX24Y24*%
%IPPOS*%
%LPD*%
%AMOC8*
5,1,8,0,0,1.08239X$1,22.5*
%
%ADD10R,0.2501X0.2186*%
%ADD11R,0.0690X0.0454*%
%ADD12C,0.0946*%
%ADD13C,0.0800*%
%ADD14R,0.0572X0.0690*%
%ADD15R,0.0651X0.0572*%
%ADD16C,0.0660*%
%ADD17R,0.1005X0.0847*%
%ADD18R,0.0969X0.0257*%
%ADD19C,0.0454*%
%ADD20R,0.0690X0.0572*%
%ADD21C,0.0887*%
%ADD22R,0.0532X0.0847*%
%ADD23C,0.0436*%
D10*
X021046Y017772D03*
D11*
X018172Y016875D03*
X018172Y018670D03*
D12*
X017562Y022329D02*
X017562Y023215D01*
X015562Y023215D02*
X015562Y022329D01*
X013562Y022329D02*
X013562Y023215D01*
X011062Y023215D02*
X011062Y022329D01*
X009062Y022329D02*
X009062Y023215D01*
X007062Y023215D02*
X007062Y022329D01*
X004505Y022772D02*
X003619Y022772D01*
X003619Y020772D02*
X004505Y020772D01*
X004505Y018772D02*
X003619Y018772D01*
X003619Y016272D02*
X004505Y016272D01*
X004505Y014272D02*
X003619Y014272D01*
X003619Y012272D02*
X004505Y012272D01*
X010562Y006215D02*
X010562Y005329D01*
X012562Y005329D02*
X012562Y006215D01*
X014562Y006215D02*
X014562Y005329D01*
X017062Y005329D02*
X017062Y006215D01*
X019062Y006215D02*
X019062Y005329D01*
X021062Y005329D02*
X021062Y006215D01*
D13*
X016856Y009871D03*
X015716Y009871D03*
X015132Y008772D03*
X013992Y008772D03*
X008062Y008822D03*
X007062Y008722D03*
X006062Y008822D03*
X005062Y008722D03*
X004062Y008822D03*
X009562Y019202D03*
X010562Y019202D03*
X010562Y020342D03*
X009562Y020342D03*
D14*
X006533Y020466D03*
X005785Y020466D03*
X005779Y018477D03*
X006527Y018477D03*
X006529Y016596D03*
X005781Y016596D03*
X005705Y014749D03*
X006453Y014749D03*
X005173Y010516D03*
X004425Y010516D03*
D15*
X008655Y006231D03*
X008655Y005483D03*
X013559Y017442D03*
X013559Y018190D03*
X015040Y018199D03*
X015040Y017451D03*
D16*
X004582Y004882D02*
X003982Y004882D01*
X003982Y006662D02*
X004582Y006662D01*
X006542Y006662D02*
X007142Y006662D01*
X007142Y004882D02*
X006542Y004882D01*
D17*
X019684Y010540D03*
X021849Y010540D03*
X021849Y014005D03*
X019684Y014005D03*
D18*
X019462Y012902D03*
X019462Y012587D03*
X019462Y012272D03*
X019462Y011957D03*
X019462Y011642D03*
D19*
X020668Y011406D03*
X020668Y013138D03*
D20*
X019938Y008275D03*
X019938Y007527D03*
X018209Y007513D03*
X018209Y008261D03*
X012789Y008140D03*
X012789Y007392D03*
X011159Y007377D03*
X011159Y008125D03*
X010092Y017265D03*
X010092Y018013D03*
X008624Y017986D03*
X008624Y017238D03*
X011953Y020366D03*
X011953Y021114D03*
X013408Y021141D03*
X013408Y020392D03*
X014804Y020441D03*
X014804Y021189D03*
X016416Y021224D03*
X016416Y020476D03*
D21*
X020649Y020772D02*
X021475Y020772D01*
X021475Y022772D02*
X020649Y022772D01*
D22*
X016562Y018324D03*
X016562Y017221D03*
D23*
X017912Y016172D03*
X017331Y015001D03*
X018789Y015001D03*
X019351Y015689D03*
X021994Y016248D03*
X018374Y019932D03*
X017546Y019717D03*
X017486Y019205D03*
X015323Y019533D03*
X013461Y016666D03*
X015094Y016275D03*
X018529Y011622D03*
X018068Y011044D03*
X018359Y010009D03*
X019059Y008982D03*
X021272Y008135D03*
X016266Y008263D03*
X014547Y011459D03*
X012565Y008963D03*
X010978Y008951D03*
X009092Y009239D03*
X008767Y009700D03*
X011793Y006797D03*
X005960Y012906D03*
X007310Y014263D03*
X006787Y015545D03*
X008621Y016413D03*
X009587Y016378D03*
X007034Y019774D03*
X007320Y020926D03*
X003007Y013154D03*
M02*
