G75*
%MOIN*%
%OFA0B0*%
%FSLAX24Y24*%
%IPPOS*%
%LPD*%
%AMOC8*
5,1,8,0,0,1.08239X$1,22.5*
%
%ADD10R,0.0580X0.0110*%
%ADD11R,0.0110X0.0580*%
%ADD12C,0.0886*%
%ADD13C,0.0740*%
%ADD14R,0.0630X0.0512*%
%ADD15C,0.0600*%
%ADD16R,0.0591X0.0512*%
%ADD17R,0.0433X0.0512*%
%ADD18R,0.0512X0.0591*%
%ADD19R,0.0472X0.0472*%
%ADD20C,0.0827*%
%ADD21R,0.0630X0.1378*%
%ADD22C,0.0160*%
%ADD23C,0.0376*%
%ADD24C,0.0100*%
D10*
X009352Y010792D03*
X009352Y010992D03*
X009352Y011192D03*
X009352Y011382D03*
X009352Y011582D03*
X009352Y011782D03*
X009352Y011972D03*
X009352Y012172D03*
X009352Y012372D03*
X009352Y012572D03*
X009352Y012762D03*
X009352Y012962D03*
X009352Y013162D03*
X009352Y013352D03*
X009352Y013552D03*
X009352Y013752D03*
X013772Y013752D03*
X013772Y013552D03*
X013772Y013352D03*
X013772Y013162D03*
X013772Y012962D03*
X013772Y012762D03*
X013772Y012572D03*
X013772Y012372D03*
X013772Y012172D03*
X013772Y011972D03*
X013772Y011782D03*
X013772Y011582D03*
X013772Y011382D03*
X013772Y011192D03*
X013772Y010992D03*
X013772Y010792D03*
D11*
X013042Y010062D03*
X012842Y010062D03*
X012642Y010062D03*
X012452Y010062D03*
X012252Y010062D03*
X012052Y010062D03*
X011862Y010062D03*
X011662Y010062D03*
X011462Y010062D03*
X011262Y010062D03*
X011072Y010062D03*
X010872Y010062D03*
X010672Y010062D03*
X010482Y010062D03*
X010282Y010062D03*
X010082Y010062D03*
X010082Y014482D03*
X010282Y014482D03*
X010482Y014482D03*
X010672Y014482D03*
X010872Y014482D03*
X011072Y014482D03*
X011262Y014482D03*
X011462Y014482D03*
X011662Y014482D03*
X011862Y014482D03*
X012052Y014482D03*
X012252Y014482D03*
X012452Y014482D03*
X012642Y014482D03*
X012842Y014482D03*
X013042Y014482D03*
D12*
X013562Y022329D02*
X013562Y023215D01*
X015562Y023215D02*
X015562Y022329D01*
X017562Y022329D02*
X017562Y023215D01*
X011062Y023215D02*
X011062Y022329D01*
X009062Y022329D02*
X009062Y023215D01*
X007062Y023215D02*
X007062Y022329D01*
X004505Y022772D02*
X003619Y022772D01*
X003619Y020772D02*
X004505Y020772D01*
X004505Y018772D02*
X003619Y018772D01*
X003619Y016272D02*
X004505Y016272D01*
X004505Y014272D02*
X003619Y014272D01*
X003619Y012272D02*
X004505Y012272D01*
X010562Y006215D02*
X010562Y005329D01*
X012562Y005329D02*
X012562Y006215D01*
X014562Y006215D02*
X014562Y005329D01*
X017062Y005329D02*
X017062Y006215D01*
X019062Y006215D02*
X019062Y005329D01*
X021062Y005329D02*
X021062Y006215D01*
D13*
X016856Y009871D03*
X015716Y009871D03*
X015132Y008772D03*
X013992Y008772D03*
X008062Y008822D03*
X007062Y008722D03*
X006062Y008822D03*
X005062Y008722D03*
X004062Y008822D03*
X009562Y019202D03*
X010562Y019202D03*
X010562Y020342D03*
X009562Y020342D03*
D14*
X020000Y014955D03*
X020000Y014207D03*
X019978Y010280D03*
X019978Y009532D03*
X008143Y006211D03*
X008143Y005463D03*
D15*
X007142Y004882D02*
X006542Y004882D01*
X006542Y006662D02*
X007142Y006662D01*
X004582Y006662D02*
X003982Y006662D01*
X003982Y004882D02*
X004582Y004882D01*
D16*
X009141Y007233D03*
X009141Y007981D03*
X011588Y008136D03*
X011588Y007388D03*
X017334Y012458D03*
X017334Y013206D03*
X018312Y017537D03*
X018312Y018285D03*
X012265Y016660D03*
X012265Y015912D03*
X010797Y015894D03*
X010797Y016642D03*
D17*
X015400Y013179D03*
X016109Y013179D03*
X016109Y012273D03*
X015400Y012273D03*
D18*
X015387Y011453D03*
X016135Y011453D03*
X016130Y014006D03*
X015382Y014006D03*
X020804Y012205D03*
X021552Y012205D03*
D19*
X021462Y010263D03*
X021462Y009436D03*
X019062Y008186D03*
X019062Y007359D03*
X017062Y007359D03*
X017062Y008186D03*
X012562Y008186D03*
X012562Y007359D03*
X010562Y007359D03*
X010562Y008186D03*
X006475Y014272D03*
X005649Y014272D03*
X005649Y016272D03*
X006475Y016272D03*
X008322Y015740D03*
X008322Y014913D03*
X009293Y014878D03*
X009293Y015705D03*
X013442Y017285D03*
X013442Y018112D03*
X015035Y018127D03*
X015035Y017300D03*
X015562Y020359D03*
X015562Y021186D03*
X017562Y021186D03*
X017562Y020359D03*
X021540Y015109D03*
X021540Y014283D03*
X006475Y019772D03*
X005649Y019772D03*
X005649Y021272D03*
X006475Y021272D03*
D20*
X020649Y020772D02*
X021475Y020772D01*
X021475Y022772D02*
X020649Y022772D01*
D21*
X020562Y018835D03*
X020562Y016709D03*
D22*
X020371Y016709D01*
X019351Y015689D01*
X019140Y016709D02*
X020562Y016709D01*
X022226Y018373D01*
X022226Y022056D01*
X021509Y022772D01*
X021062Y022772D01*
X021062Y020772D02*
X020562Y020272D01*
X020562Y018835D01*
X018863Y018835D01*
X018312Y018285D01*
X018312Y017537D02*
X019140Y016709D01*
D23*
X019351Y015689D03*
X018789Y015001D03*
X017331Y015001D03*
X017912Y016172D03*
X015094Y016275D03*
X013461Y016666D03*
X015323Y019533D03*
X017486Y019205D03*
X017546Y019717D03*
X018374Y019932D03*
X021994Y016248D03*
X018529Y011622D03*
X018068Y011044D03*
X018359Y010009D03*
X019059Y008982D03*
X021272Y008135D03*
X016266Y008263D03*
X014547Y011459D03*
X012565Y008963D03*
X010978Y008951D03*
X009092Y009239D03*
X008767Y009700D03*
X011793Y006797D03*
X005960Y012906D03*
X007310Y014263D03*
X006787Y015545D03*
X008621Y016413D03*
X009587Y016378D03*
X007034Y019774D03*
X007320Y020926D03*
X003007Y013154D03*
D24*
X002762Y012978D02*
X002762Y004472D01*
X003795Y004472D01*
X003746Y004497D01*
X003689Y004539D01*
X003639Y004589D01*
X003597Y004646D01*
X003565Y004710D01*
X003543Y004777D01*
X003534Y004832D01*
X004232Y004832D01*
X004232Y004932D01*
X003534Y004932D01*
X003543Y004988D01*
X003565Y005055D01*
X003597Y005118D01*
X003639Y005175D01*
X003689Y005226D01*
X003746Y005267D01*
X003809Y005299D01*
X003877Y005321D01*
X003947Y005332D01*
X004232Y005332D01*
X004232Y004932D01*
X004332Y004932D01*
X005030Y004932D01*
X005021Y004988D01*
X004999Y005055D01*
X004967Y005118D01*
X004925Y005175D01*
X004875Y005226D01*
X004818Y005267D01*
X004755Y005299D01*
X004687Y005321D01*
X004617Y005332D01*
X004332Y005332D01*
X004332Y004932D01*
X004332Y004832D01*
X005030Y004832D01*
X005021Y004777D01*
X004999Y004710D01*
X004967Y004646D01*
X004925Y004589D01*
X004875Y004539D01*
X004818Y004497D01*
X004769Y004472D01*
X006355Y004472D01*
X006306Y004497D01*
X006249Y004539D01*
X006199Y004589D01*
X006157Y004646D01*
X006125Y004710D01*
X006103Y004777D01*
X006094Y004832D01*
X006792Y004832D01*
X006792Y004932D01*
X006094Y004932D01*
X006103Y004988D01*
X006125Y005055D01*
X006157Y005118D01*
X006199Y005175D01*
X006249Y005226D01*
X006306Y005267D01*
X006369Y005299D01*
X006437Y005321D01*
X006507Y005332D01*
X006792Y005332D01*
X006792Y004932D01*
X006892Y004932D01*
X007590Y004932D01*
X007581Y004988D01*
X007559Y005055D01*
X007527Y005118D01*
X007485Y005175D01*
X007435Y005226D01*
X007378Y005267D01*
X007315Y005299D01*
X007247Y005321D01*
X007177Y005332D01*
X006892Y005332D01*
X006892Y004932D01*
X006892Y004832D01*
X007590Y004832D01*
X007581Y004777D01*
X007559Y004710D01*
X007527Y004646D01*
X007485Y004589D01*
X007435Y004539D01*
X007378Y004497D01*
X007329Y004472D01*
X022354Y004472D01*
X022354Y008992D01*
X022262Y008900D01*
X021566Y008204D01*
X021570Y008195D01*
X021570Y008076D01*
X021524Y007967D01*
X021440Y007883D01*
X021331Y007837D01*
X021212Y007837D01*
X021103Y007883D01*
X021019Y007967D01*
X020973Y008076D01*
X020973Y008195D01*
X021019Y008304D01*
X021103Y008388D01*
X021212Y008434D01*
X021331Y008434D01*
X021340Y008430D01*
X022036Y009126D01*
X022036Y015271D01*
X021920Y015387D01*
X021926Y015365D01*
X021926Y015159D01*
X021590Y015159D01*
X021590Y015059D01*
X021590Y014723D01*
X021796Y014723D01*
X021834Y014733D01*
X021868Y014753D01*
X021896Y014781D01*
X021916Y014815D01*
X021926Y014853D01*
X021926Y015059D01*
X021590Y015059D01*
X021490Y015059D01*
X021490Y014723D01*
X021284Y014723D01*
X021246Y014733D01*
X021211Y014753D01*
X021183Y014781D01*
X021164Y014815D01*
X021154Y014853D01*
X021154Y015059D01*
X021490Y015059D01*
X021490Y015159D01*
X021154Y015159D01*
X021154Y015365D01*
X021164Y015404D01*
X021183Y015438D01*
X021211Y015466D01*
X021246Y015485D01*
X021284Y015496D01*
X021490Y015496D01*
X021490Y015159D01*
X021590Y015159D01*
X021590Y015496D01*
X021796Y015496D01*
X021817Y015490D01*
X021778Y015529D01*
X019849Y015529D01*
X019970Y015321D01*
X020360Y015321D01*
X020424Y015257D01*
X020424Y014654D01*
X020360Y014589D01*
X019639Y014589D01*
X019575Y014654D01*
X019575Y015257D01*
X019614Y015296D01*
X019528Y015444D01*
X019520Y015436D01*
X019410Y015391D01*
X019292Y015391D01*
X019182Y015436D01*
X019098Y015520D01*
X019053Y015629D01*
X019053Y015748D01*
X019098Y015858D01*
X019182Y015941D01*
X019292Y015987D01*
X019380Y015987D01*
X019913Y016519D01*
X019062Y016519D01*
X018950Y016631D01*
X018410Y017171D01*
X017972Y017171D01*
X017907Y017236D01*
X017907Y017357D01*
X017839Y017357D01*
X017745Y017451D01*
X017647Y017549D01*
X017647Y016664D01*
X017844Y016467D01*
X017853Y016470D01*
X017971Y016470D01*
X018081Y016425D01*
X018165Y016341D01*
X018210Y016232D01*
X018210Y016113D01*
X018165Y016003D01*
X018086Y015924D01*
X018086Y011773D01*
X018595Y011264D01*
X018595Y011092D01*
X019557Y011092D01*
X019651Y010999D01*
X019880Y010770D01*
X019880Y011508D01*
X019974Y011602D01*
X020438Y012065D01*
X020438Y012546D01*
X018086Y012546D01*
X018086Y012448D02*
X020438Y012448D01*
X020438Y012546D02*
X020502Y012610D01*
X021105Y012610D01*
X021156Y012559D01*
X021176Y012592D01*
X021204Y012620D01*
X021238Y012640D01*
X021276Y012650D01*
X021502Y012650D01*
X021502Y012255D01*
X021602Y012255D01*
X021957Y012255D01*
X021957Y012520D01*
X021947Y012558D01*
X021927Y012592D01*
X021900Y012620D01*
X021865Y012640D01*
X021827Y012650D01*
X021602Y012650D01*
X021602Y012255D01*
X021602Y012155D01*
X021957Y012155D01*
X021957Y011890D01*
X021947Y011852D01*
X021927Y011817D01*
X021900Y011790D01*
X021865Y011770D01*
X021827Y011760D01*
X021602Y011760D01*
X021602Y012155D01*
X021502Y012155D01*
X021502Y011760D01*
X021276Y011760D01*
X021238Y011770D01*
X021204Y011790D01*
X021176Y011817D01*
X021156Y011851D01*
X021105Y011800D01*
X020756Y011800D01*
X020893Y011743D01*
X021005Y011631D01*
X021065Y011485D01*
X021065Y011327D01*
X021005Y011181D01*
X020893Y011070D01*
X020747Y011009D01*
X020589Y011009D01*
X020444Y011070D01*
X020332Y011181D01*
X020271Y011327D01*
X020271Y011447D01*
X020200Y011375D01*
X020200Y010646D01*
X020339Y010646D01*
X020403Y010581D01*
X020403Y009978D01*
X020339Y009914D01*
X019618Y009914D01*
X019553Y009978D01*
X019553Y010581D01*
X019585Y010613D01*
X019425Y010772D01*
X018556Y010772D01*
X018333Y010549D01*
X018519Y010363D01*
X018519Y010265D01*
X018528Y010262D01*
X018612Y010178D01*
X018657Y010068D01*
X018657Y009950D01*
X018612Y009840D01*
X018528Y009756D01*
X018419Y009711D01*
X018300Y009711D01*
X018190Y009756D01*
X018107Y009840D01*
X018061Y009950D01*
X018061Y010068D01*
X018107Y010178D01*
X018179Y010250D01*
X018055Y010374D01*
X014705Y010374D01*
X014611Y010468D01*
X014374Y010705D01*
X014374Y010220D01*
X014531Y010062D01*
X015276Y010062D01*
X015309Y010143D01*
X015444Y010278D01*
X015621Y010351D01*
X015812Y010351D01*
X015988Y010278D01*
X016123Y010143D01*
X016196Y009967D01*
X016196Y009776D01*
X016123Y009599D01*
X015988Y009464D01*
X015812Y009391D01*
X015621Y009391D01*
X015444Y009464D01*
X015309Y009599D01*
X015250Y009742D01*
X014399Y009742D01*
X014305Y009836D01*
X014165Y009976D01*
X014165Y009220D01*
X014264Y009179D01*
X014399Y009044D01*
X014472Y008868D01*
X014472Y008677D01*
X014399Y008500D01*
X014264Y008365D01*
X014087Y008292D01*
X013897Y008292D01*
X013720Y008365D01*
X013585Y008500D01*
X013570Y008538D01*
X013570Y008436D01*
X013824Y008182D01*
X015325Y008182D01*
X016206Y009063D01*
X017572Y009063D01*
X017666Y008969D01*
X018171Y008464D01*
X018171Y007794D01*
X018446Y007519D01*
X018716Y007519D01*
X018716Y007641D01*
X018780Y007705D01*
X019344Y007705D01*
X019408Y007641D01*
X019408Y007077D01*
X019344Y007013D01*
X019222Y007013D01*
X019222Y006747D01*
X019375Y006684D01*
X019531Y006528D01*
X019615Y006325D01*
X019615Y005219D01*
X019531Y005016D01*
X019375Y004861D01*
X019172Y004776D01*
X018952Y004776D01*
X018749Y004861D01*
X018593Y005016D01*
X018509Y005219D01*
X018509Y006325D01*
X018593Y006528D01*
X018749Y006684D01*
X018902Y006747D01*
X018902Y007013D01*
X018780Y007013D01*
X018716Y007077D01*
X018716Y007199D01*
X018313Y007199D01*
X017944Y007568D01*
X017851Y007661D01*
X017851Y008332D01*
X017439Y008743D01*
X016339Y008743D01*
X016122Y008526D01*
X016207Y008561D01*
X016325Y008561D01*
X016435Y008516D01*
X016519Y008432D01*
X016554Y008346D01*
X016716Y008346D01*
X016716Y008467D01*
X016780Y008532D01*
X017344Y008532D01*
X017408Y008467D01*
X017408Y007904D01*
X017344Y007839D01*
X016780Y007839D01*
X016716Y007904D01*
X016716Y008026D01*
X016450Y008026D01*
X016435Y008010D01*
X016325Y007965D01*
X016207Y007965D01*
X016097Y008010D01*
X016013Y008094D01*
X015968Y008204D01*
X015968Y008322D01*
X016003Y008407D01*
X015551Y007955D01*
X015457Y007862D01*
X013862Y007862D01*
X014205Y007519D01*
X016716Y007519D01*
X016716Y007641D01*
X016780Y007705D01*
X017344Y007705D01*
X017408Y007641D01*
X017408Y007077D01*
X017344Y007013D01*
X017222Y007013D01*
X017222Y006747D01*
X017375Y006684D01*
X017531Y006528D01*
X017615Y006325D01*
X017615Y005219D01*
X017531Y005016D01*
X017375Y004861D01*
X017172Y004776D01*
X016952Y004776D01*
X016749Y004861D01*
X016593Y005016D01*
X016509Y005219D01*
X016509Y006325D01*
X016593Y006528D01*
X016749Y006684D01*
X016902Y006747D01*
X016902Y007013D01*
X016780Y007013D01*
X016716Y007077D01*
X016716Y007199D01*
X014072Y007199D01*
X013205Y008066D01*
X013205Y007536D01*
X013111Y007442D01*
X012908Y007239D01*
X012908Y007077D01*
X012844Y007013D01*
X012722Y007013D01*
X012722Y006747D01*
X012875Y006684D01*
X013031Y006528D01*
X013115Y006325D01*
X013115Y005219D01*
X013031Y005016D01*
X012875Y004861D01*
X012672Y004776D01*
X012452Y004776D01*
X012249Y004861D01*
X012093Y005016D01*
X012009Y005219D01*
X012009Y006325D01*
X012093Y006528D01*
X012249Y006684D01*
X012402Y006747D01*
X012402Y007013D01*
X012280Y007013D01*
X012216Y007077D01*
X012216Y007641D01*
X012280Y007705D01*
X012844Y007705D01*
X012883Y007666D01*
X012885Y007668D01*
X012885Y007881D01*
X012844Y007839D01*
X012280Y007839D01*
X012216Y007904D01*
X012216Y008467D01*
X012280Y008532D01*
X012405Y008532D01*
X012405Y008706D01*
X012396Y008710D01*
X012312Y008794D01*
X012267Y008904D01*
X012267Y009022D01*
X012312Y009132D01*
X012396Y009216D01*
X012505Y009261D01*
X012618Y009261D01*
X012386Y009493D01*
X012099Y009493D01*
X012142Y009449D02*
X012020Y009574D01*
X012020Y009662D01*
X012292Y009662D01*
X012292Y009587D01*
X012386Y009493D01*
X012292Y009591D02*
X012020Y009591D01*
X011860Y009509D02*
X012028Y009336D01*
X012028Y007818D01*
X011598Y007388D01*
X011588Y007388D01*
X011588Y007002D01*
X011793Y006797D01*
X012059Y006932D02*
X012402Y006932D01*
X012402Y006833D02*
X012091Y006833D01*
X012091Y006856D02*
X012045Y006966D01*
X011961Y007050D01*
X011958Y007051D01*
X011993Y007087D01*
X011993Y007557D01*
X012094Y007658D01*
X012188Y007751D01*
X012188Y009335D01*
X012189Y009401D01*
X012188Y009401D01*
X012188Y009403D01*
X012142Y009449D01*
X012189Y009394D02*
X012484Y009394D01*
X012583Y009296D02*
X012188Y009296D01*
X012188Y009197D02*
X012377Y009197D01*
X012298Y009099D02*
X012188Y009099D01*
X012188Y009000D02*
X012267Y009000D01*
X012267Y008902D02*
X012188Y008902D01*
X012188Y008803D02*
X012308Y008803D01*
X012405Y008705D02*
X012188Y008705D01*
X012188Y008606D02*
X012405Y008606D01*
X012256Y008508D02*
X012188Y008508D01*
X012188Y008409D02*
X012216Y008409D01*
X012216Y008311D02*
X012188Y008311D01*
X012188Y008212D02*
X012216Y008212D01*
X012216Y008114D02*
X012188Y008114D01*
X012188Y008015D02*
X012216Y008015D01*
X012216Y007917D02*
X012188Y007917D01*
X012188Y007818D02*
X012885Y007818D01*
X012885Y007720D02*
X012156Y007720D01*
X012216Y007621D02*
X012058Y007621D01*
X011993Y007523D02*
X012216Y007523D01*
X012216Y007424D02*
X011993Y007424D01*
X011993Y007326D02*
X012216Y007326D01*
X012216Y007227D02*
X011993Y007227D01*
X011993Y007129D02*
X012216Y007129D01*
X012263Y007030D02*
X011981Y007030D01*
X012091Y006856D02*
X012091Y006738D01*
X012045Y006628D01*
X011961Y006544D01*
X011852Y006499D01*
X011733Y006499D01*
X011624Y006544D01*
X011540Y006628D01*
X011494Y006738D01*
X011494Y006856D01*
X011498Y006865D01*
X011428Y006935D01*
X011428Y007022D01*
X011247Y007022D01*
X011183Y007087D01*
X011183Y007690D01*
X011234Y007741D01*
X011201Y007760D01*
X011173Y007788D01*
X011153Y007822D01*
X011143Y007861D01*
X011143Y008086D01*
X011538Y008086D01*
X011538Y008186D01*
X011143Y008186D01*
X011143Y008412D01*
X011153Y008450D01*
X011173Y008484D01*
X011201Y008512D01*
X011235Y008532D01*
X011273Y008542D01*
X011538Y008542D01*
X011538Y008186D01*
X011638Y008186D01*
X011638Y008542D01*
X011868Y008542D01*
X011868Y009271D01*
X011746Y009396D01*
X011700Y009442D01*
X011700Y009444D01*
X011699Y009445D01*
X011700Y009510D01*
X011700Y009622D01*
X011662Y009622D01*
X011662Y010062D01*
X011662Y010062D01*
X011662Y009622D01*
X011587Y009622D01*
X011549Y009633D01*
X011515Y009652D01*
X011505Y009662D01*
X011034Y009662D01*
X011034Y009304D01*
X010980Y009249D01*
X011037Y009249D01*
X011147Y009204D01*
X011231Y009120D01*
X011276Y009011D01*
X011276Y008892D01*
X011231Y008783D01*
X011147Y008699D01*
X011037Y008653D01*
X010919Y008653D01*
X010910Y008657D01*
X010785Y008532D01*
X010844Y008532D01*
X010908Y008467D01*
X010908Y007904D01*
X010844Y007839D01*
X010318Y007839D01*
X010318Y007705D01*
X010844Y007705D01*
X010908Y007641D01*
X010908Y007077D01*
X010844Y007013D01*
X010722Y007013D01*
X010722Y006747D01*
X010875Y006684D01*
X011031Y006528D01*
X011115Y006325D01*
X011115Y005219D01*
X011031Y005016D01*
X010875Y004861D01*
X010672Y004776D01*
X010452Y004776D01*
X010249Y004861D01*
X010093Y005016D01*
X010009Y005219D01*
X010009Y006325D01*
X010093Y006528D01*
X010249Y006684D01*
X010402Y006747D01*
X010402Y007013D01*
X010280Y007013D01*
X010216Y007077D01*
X010216Y007199D01*
X010174Y007199D01*
X010092Y007281D01*
X009998Y007375D01*
X009998Y008720D01*
X010714Y009436D01*
X010714Y009622D01*
X010672Y009622D01*
X010672Y010062D01*
X010672Y010062D01*
X010672Y009622D01*
X010640Y009622D01*
X010640Y009562D01*
X010643Y009558D01*
X010640Y009496D01*
X010640Y009433D01*
X010637Y009430D01*
X010637Y009426D01*
X010590Y009384D01*
X010546Y009339D01*
X010542Y009339D01*
X010378Y009190D01*
X010334Y009145D01*
X010330Y009145D01*
X010327Y009143D01*
X010264Y009145D01*
X010018Y009145D01*
X009637Y008765D01*
X009544Y008671D01*
X009301Y008428D01*
X009301Y008347D01*
X009482Y008347D01*
X009546Y008283D01*
X009546Y007680D01*
X009495Y007628D01*
X009528Y007609D01*
X009556Y007581D01*
X009576Y007547D01*
X009586Y007509D01*
X009586Y007283D01*
X009191Y007283D01*
X009191Y007183D01*
X009191Y006827D01*
X009456Y006827D01*
X009494Y006837D01*
X009528Y006857D01*
X009556Y006885D01*
X009576Y006919D01*
X009586Y006957D01*
X009586Y007183D01*
X009191Y007183D01*
X009091Y007183D01*
X008696Y007183D01*
X008696Y006957D01*
X008706Y006919D01*
X008726Y006885D01*
X008754Y006857D01*
X008788Y006837D01*
X008826Y006827D01*
X009091Y006827D01*
X009091Y007183D01*
X009091Y007283D01*
X008696Y007283D01*
X008696Y007509D01*
X008706Y007547D01*
X008726Y007581D01*
X008754Y007609D01*
X008787Y007628D01*
X008736Y007680D01*
X008736Y007821D01*
X008459Y007821D01*
X008459Y007021D01*
X009015Y006466D01*
X009015Y005816D01*
X008921Y005722D01*
X008568Y005369D01*
X008568Y005162D01*
X008504Y005098D01*
X007783Y005098D01*
X007718Y005162D01*
X007718Y005765D01*
X007783Y005829D01*
X008504Y005829D01*
X008540Y005793D01*
X008695Y005948D01*
X008695Y006333D01*
X008568Y006460D01*
X008568Y005910D01*
X008504Y005846D01*
X007783Y005846D01*
X007718Y005910D01*
X007718Y006410D01*
X007626Y006502D01*
X007520Y006502D01*
X007490Y006430D01*
X007374Y006315D01*
X007224Y006252D01*
X006460Y006252D01*
X006310Y006315D01*
X006194Y006430D01*
X006132Y006581D01*
X006132Y006744D01*
X006194Y006895D01*
X006310Y007010D01*
X006460Y007072D01*
X007224Y007072D01*
X007374Y007010D01*
X007490Y006895D01*
X007520Y006822D01*
X007759Y006822D01*
X007852Y006729D01*
X008004Y006577D01*
X008451Y006577D01*
X008233Y006795D01*
X008139Y006889D01*
X008139Y007821D01*
X005737Y007821D01*
X005643Y007915D01*
X005269Y008289D01*
X005157Y008242D01*
X004967Y008242D01*
X004790Y008315D01*
X004655Y008450D01*
X004582Y008627D01*
X004582Y008818D01*
X004655Y008994D01*
X004790Y009129D01*
X004967Y009202D01*
X005157Y009202D01*
X005334Y009129D01*
X005469Y008994D01*
X005542Y008818D01*
X005542Y008627D01*
X005496Y008515D01*
X005870Y008141D01*
X008736Y008141D01*
X008736Y008283D01*
X008800Y008347D01*
X008981Y008347D01*
X008981Y008561D01*
X009251Y008831D01*
X009141Y008941D01*
X009033Y008941D01*
X008924Y008986D01*
X008840Y009070D01*
X008794Y009179D01*
X008794Y009298D01*
X008840Y009408D01*
X008840Y009408D01*
X008826Y009402D01*
X008708Y009402D01*
X008598Y009448D01*
X008514Y009531D01*
X008469Y009641D01*
X008469Y009760D01*
X008514Y009869D01*
X008598Y009953D01*
X008708Y009998D01*
X008826Y009998D01*
X008835Y009995D01*
X009192Y010351D01*
X009192Y010627D01*
X009016Y010627D01*
X008952Y010692D01*
X008952Y010719D01*
X008250Y010018D01*
X008250Y009264D01*
X008334Y009229D01*
X008469Y009094D01*
X008542Y008918D01*
X008542Y008727D01*
X008469Y008550D01*
X008334Y008415D01*
X008157Y008342D01*
X007967Y008342D01*
X007790Y008415D01*
X007655Y008550D01*
X007582Y008727D01*
X007582Y008918D01*
X007655Y009094D01*
X007790Y009229D01*
X007930Y009287D01*
X007930Y010150D01*
X008024Y010244D01*
X008932Y011152D01*
X008952Y011152D01*
X008952Y012212D01*
X005607Y012212D01*
X004825Y012994D01*
X003264Y012994D01*
X003260Y012985D01*
X003176Y012901D01*
X003067Y012856D01*
X002948Y012856D01*
X002839Y012901D01*
X002762Y012978D01*
X002762Y012940D02*
X002800Y012940D01*
X002762Y012842D02*
X003453Y012842D01*
X003480Y012851D02*
X003391Y012822D01*
X003308Y012779D01*
X003233Y012725D01*
X003167Y012659D01*
X003112Y012583D01*
X003070Y012500D01*
X003041Y012411D01*
X003027Y012322D01*
X004012Y012322D01*
X004012Y012222D01*
X004112Y012222D01*
X004112Y011679D01*
X004552Y011679D01*
X004644Y011694D01*
X004733Y011723D01*
X004816Y011765D01*
X004891Y011820D01*
X004957Y011886D01*
X005012Y011962D01*
X005054Y012045D01*
X005083Y012133D01*
X005097Y012222D01*
X004112Y012222D01*
X004112Y012322D01*
X005097Y012322D01*
X005083Y012411D01*
X005054Y012500D01*
X005012Y012583D01*
X004957Y012659D01*
X004891Y012725D01*
X004816Y012779D01*
X004733Y012822D01*
X004644Y012851D01*
X004552Y012865D01*
X004112Y012865D01*
X004112Y012322D01*
X004012Y012322D01*
X004012Y012865D01*
X003572Y012865D01*
X003480Y012851D01*
X003259Y012743D02*
X002762Y012743D01*
X002762Y012645D02*
X003157Y012645D01*
X003093Y012546D02*
X002762Y012546D01*
X002762Y012448D02*
X003053Y012448D01*
X003031Y012349D02*
X002762Y012349D01*
X002762Y012251D02*
X004012Y012251D01*
X004012Y012222D02*
X003027Y012222D01*
X003041Y012133D01*
X003070Y012045D01*
X003112Y011962D01*
X003167Y011886D01*
X003233Y011820D01*
X003308Y011765D01*
X003391Y011723D01*
X003480Y011694D01*
X003572Y011679D01*
X004012Y011679D01*
X004012Y012222D01*
X004012Y012152D02*
X004112Y012152D01*
X004112Y012054D02*
X004012Y012054D01*
X004012Y011955D02*
X004112Y011955D01*
X004112Y011857D02*
X004012Y011857D01*
X004012Y011758D02*
X004112Y011758D01*
X004062Y011628D02*
X006014Y009676D01*
X006014Y008870D01*
X006062Y008822D01*
X006012Y008803D02*
X005542Y008803D01*
X005543Y008772D02*
X005555Y008701D01*
X005580Y008623D01*
X005617Y008550D01*
X005665Y008484D01*
X005723Y008426D01*
X005789Y008378D01*
X005862Y008340D01*
X005940Y008315D01*
X006012Y008304D01*
X006012Y008772D01*
X006112Y008772D01*
X006112Y008304D01*
X006184Y008315D01*
X006262Y008340D01*
X006335Y008378D01*
X006401Y008426D01*
X006459Y008484D01*
X006507Y008550D01*
X006544Y008623D01*
X006569Y008701D01*
X006581Y008772D01*
X006112Y008772D01*
X006112Y008872D01*
X006581Y008872D01*
X006569Y008944D01*
X006544Y009022D01*
X006507Y009095D01*
X006459Y009161D01*
X006401Y009219D01*
X006335Y009267D01*
X006262Y009304D01*
X006184Y009330D01*
X006112Y009341D01*
X006112Y008872D01*
X006012Y008872D01*
X006012Y008772D01*
X005543Y008772D01*
X005542Y008705D02*
X005554Y008705D01*
X005534Y008606D02*
X005588Y008606D01*
X005648Y008508D02*
X005503Y008508D01*
X005601Y008409D02*
X005746Y008409D01*
X005700Y008311D02*
X005967Y008311D01*
X006012Y008311D02*
X006112Y008311D01*
X006157Y008311D02*
X006801Y008311D01*
X006790Y008315D02*
X006967Y008242D01*
X007157Y008242D01*
X007334Y008315D01*
X007469Y008450D01*
X007542Y008627D01*
X007542Y008818D01*
X007469Y008994D01*
X007334Y009129D01*
X007157Y009202D01*
X006967Y009202D01*
X006790Y009129D01*
X006655Y008994D01*
X006582Y008818D01*
X006582Y008627D01*
X006655Y008450D01*
X006790Y008315D01*
X006696Y008409D02*
X006378Y008409D01*
X006476Y008508D02*
X006631Y008508D01*
X006591Y008606D02*
X006536Y008606D01*
X006570Y008705D02*
X006582Y008705D01*
X006582Y008803D02*
X006112Y008803D01*
X006112Y008705D02*
X006012Y008705D01*
X006012Y008606D02*
X006112Y008606D01*
X006112Y008508D02*
X006012Y008508D01*
X006012Y008409D02*
X006112Y008409D01*
X005798Y008212D02*
X008736Y008212D01*
X008764Y008311D02*
X007323Y008311D01*
X007428Y008409D02*
X007805Y008409D01*
X007698Y008508D02*
X007493Y008508D01*
X007534Y008606D02*
X007632Y008606D01*
X007591Y008705D02*
X007542Y008705D01*
X007542Y008803D02*
X007582Y008803D01*
X007582Y008902D02*
X007507Y008902D01*
X007463Y009000D02*
X007616Y009000D01*
X007660Y009099D02*
X007364Y009099D01*
X007170Y009197D02*
X007758Y009197D01*
X007930Y009296D02*
X006278Y009296D01*
X006112Y009296D02*
X006012Y009296D01*
X006012Y009341D02*
X005940Y009330D01*
X005862Y009304D01*
X005789Y009267D01*
X005723Y009219D01*
X005665Y009161D01*
X005617Y009095D01*
X005580Y009022D01*
X005555Y008944D01*
X005543Y008872D01*
X006012Y008872D01*
X006012Y009341D01*
X006012Y009197D02*
X006112Y009197D01*
X006112Y009099D02*
X006012Y009099D01*
X006012Y009000D02*
X006112Y009000D01*
X006112Y008902D02*
X006012Y008902D01*
X005846Y009296D02*
X004173Y009296D01*
X004157Y009302D02*
X003967Y009302D01*
X003790Y009229D01*
X003655Y009094D01*
X003582Y008918D01*
X003582Y008727D01*
X003655Y008550D01*
X003790Y008415D01*
X003967Y008342D01*
X004157Y008342D01*
X004334Y008415D01*
X004469Y008550D01*
X004542Y008727D01*
X004542Y008918D01*
X004469Y009094D01*
X004334Y009229D01*
X004157Y009302D01*
X003951Y009296D02*
X002762Y009296D01*
X002762Y009394D02*
X007930Y009394D01*
X007930Y009493D02*
X002762Y009493D01*
X002762Y009591D02*
X007930Y009591D01*
X007930Y009690D02*
X002762Y009690D01*
X002762Y009788D02*
X007930Y009788D01*
X007930Y009887D02*
X002762Y009887D01*
X002762Y009985D02*
X007930Y009985D01*
X007930Y010084D02*
X002762Y010084D01*
X002762Y010182D02*
X007962Y010182D01*
X008061Y010281D02*
X002762Y010281D01*
X002762Y010379D02*
X008159Y010379D01*
X008258Y010478D02*
X002762Y010478D01*
X002762Y010576D02*
X008356Y010576D01*
X008455Y010675D02*
X002762Y010675D01*
X002762Y010773D02*
X008553Y010773D01*
X008652Y010872D02*
X002762Y010872D01*
X002762Y010970D02*
X008750Y010970D01*
X008849Y011069D02*
X002762Y011069D01*
X002762Y011167D02*
X008952Y011167D01*
X008952Y011266D02*
X002762Y011266D01*
X002762Y011364D02*
X008952Y011364D01*
X008952Y011463D02*
X002762Y011463D01*
X002762Y011561D02*
X008952Y011561D01*
X008952Y011660D02*
X002762Y011660D01*
X002762Y011758D02*
X003322Y011758D01*
X003196Y011857D02*
X002762Y011857D01*
X002762Y011955D02*
X003117Y011955D01*
X003067Y012054D02*
X002762Y012054D01*
X002762Y012152D02*
X003038Y012152D01*
X003215Y012940D02*
X004879Y012940D01*
X004978Y012842D02*
X004671Y012842D01*
X004865Y012743D02*
X005076Y012743D01*
X005175Y012645D02*
X004967Y012645D01*
X005031Y012546D02*
X005273Y012546D01*
X005372Y012448D02*
X005071Y012448D01*
X005093Y012349D02*
X005470Y012349D01*
X005569Y012251D02*
X004112Y012251D01*
X004062Y012272D02*
X004062Y011628D01*
X004802Y011758D02*
X008952Y011758D01*
X008952Y011857D02*
X004928Y011857D01*
X005008Y011955D02*
X008952Y011955D01*
X008952Y012054D02*
X005057Y012054D01*
X005086Y012152D02*
X008952Y012152D01*
X009352Y012372D02*
X005673Y012372D01*
X004892Y013154D01*
X003007Y013154D01*
X003291Y013498D02*
X002812Y013875D01*
X002812Y014616D01*
X003326Y015073D01*
X006873Y015073D01*
X007261Y015461D01*
X007261Y016400D01*
X005649Y018012D01*
X005649Y019772D01*
X005650Y019773D01*
X005650Y020283D01*
X005161Y020772D01*
X004062Y020772D01*
X003509Y020219D02*
X004615Y020219D01*
X004818Y020304D01*
X004974Y020459D01*
X005037Y020612D01*
X005094Y020612D01*
X005490Y020217D01*
X005490Y020119D01*
X005367Y020119D01*
X005302Y020054D01*
X005302Y019491D01*
X005367Y019426D01*
X005489Y019426D01*
X005489Y017946D01*
X007101Y016334D01*
X007101Y015527D01*
X007085Y015511D01*
X007085Y015604D01*
X007039Y015714D01*
X006955Y015797D01*
X006846Y015843D01*
X006734Y015843D01*
X006659Y015926D01*
X006757Y015926D01*
X006822Y015991D01*
X006822Y016554D01*
X006757Y016619D01*
X006194Y016619D01*
X006129Y016554D01*
X006129Y015991D01*
X006194Y015926D01*
X006315Y015926D01*
X006315Y015895D01*
X006312Y015833D01*
X006315Y015830D01*
X006315Y015825D01*
X006359Y015781D01*
X006498Y015627D01*
X006488Y015604D01*
X006488Y015485D01*
X006534Y015376D01*
X006618Y015292D01*
X006727Y015247D01*
X006820Y015247D01*
X006807Y015233D01*
X003330Y015233D01*
X003269Y015237D01*
X003265Y015233D01*
X003259Y015233D01*
X003216Y015190D01*
X002762Y014786D01*
X002762Y023942D01*
X022354Y023942D01*
X022354Y022196D01*
X021965Y022586D01*
X021999Y022668D01*
X021999Y022876D01*
X021919Y023069D01*
X021772Y023216D01*
X021580Y023296D01*
X020545Y023296D01*
X020352Y023216D01*
X020205Y023069D01*
X020125Y022876D01*
X020125Y022668D01*
X020205Y022476D01*
X020352Y022329D01*
X020545Y022249D01*
X021580Y022249D01*
X021710Y022303D01*
X022036Y021977D01*
X022036Y020833D01*
X022025Y020904D01*
X021998Y020989D01*
X021957Y021068D01*
X021905Y021139D01*
X021842Y021202D01*
X021771Y021254D01*
X021692Y021294D01*
X021607Y021322D01*
X021520Y021336D01*
X021112Y021336D01*
X021112Y020822D01*
X021012Y020822D01*
X021012Y020722D01*
X021112Y020722D01*
X021112Y020209D01*
X021520Y020209D01*
X021607Y020223D01*
X021692Y020250D01*
X021771Y020290D01*
X021842Y020343D01*
X021905Y020405D01*
X021957Y020477D01*
X021998Y020556D01*
X022025Y020640D01*
X022036Y020711D01*
X022036Y018452D01*
X020987Y017403D01*
X020987Y017444D01*
X020923Y017508D01*
X020201Y017508D01*
X020137Y017444D01*
X020137Y016899D01*
X019219Y016899D01*
X018718Y017401D01*
X018718Y017839D01*
X018666Y017890D01*
X018700Y017909D01*
X018728Y017937D01*
X018748Y017971D01*
X018758Y018010D01*
X018758Y018235D01*
X018362Y018235D01*
X018362Y018335D01*
X018262Y018335D01*
X018262Y018691D01*
X017997Y018691D01*
X017959Y018681D01*
X017925Y018661D01*
X017899Y018635D01*
X017899Y018858D01*
X018534Y019493D01*
X018534Y019675D01*
X018543Y019679D01*
X018627Y019763D01*
X018672Y019872D01*
X018672Y019991D01*
X018627Y020101D01*
X018543Y020184D01*
X018433Y020230D01*
X018315Y020230D01*
X018205Y020184D01*
X018121Y020101D01*
X018076Y019991D01*
X018076Y019872D01*
X018121Y019763D01*
X018205Y019679D01*
X018214Y019675D01*
X018214Y019625D01*
X017785Y019196D01*
X017785Y019264D01*
X017739Y019373D01*
X017668Y019444D01*
X017715Y019464D01*
X017799Y019548D01*
X017844Y019657D01*
X017844Y019776D01*
X017799Y019885D01*
X017717Y019967D01*
X017719Y020002D01*
X017722Y020005D01*
X017722Y020013D01*
X017844Y020013D01*
X017908Y020077D01*
X017908Y020641D01*
X017844Y020705D01*
X017280Y020705D01*
X017216Y020641D01*
X017216Y020077D01*
X017280Y020013D01*
X017399Y020013D01*
X017398Y019978D01*
X017377Y019969D01*
X017293Y019885D01*
X017248Y019776D01*
X017248Y019657D01*
X017293Y019548D01*
X017364Y019477D01*
X017318Y019457D01*
X017234Y019373D01*
X017188Y019264D01*
X017188Y019145D01*
X017234Y019036D01*
X017318Y018952D01*
X017327Y018948D01*
X017327Y016531D01*
X017421Y016438D01*
X017618Y016241D01*
X017614Y016232D01*
X017614Y016113D01*
X017659Y016003D01*
X017743Y015920D01*
X017766Y015910D01*
X017766Y013525D01*
X017749Y013554D01*
X017721Y013581D01*
X017687Y013601D01*
X017649Y013611D01*
X017384Y013611D01*
X017384Y013256D01*
X017284Y013256D01*
X017284Y013611D01*
X017019Y013611D01*
X016980Y013601D01*
X016946Y013581D01*
X016918Y013554D01*
X016899Y013519D01*
X016888Y013481D01*
X016888Y013256D01*
X017284Y013256D01*
X017284Y013156D01*
X016888Y013156D01*
X016888Y012930D01*
X016899Y012892D01*
X016918Y012858D01*
X016946Y012830D01*
X016980Y012810D01*
X016928Y012759D01*
X016928Y012156D01*
X016993Y012092D01*
X017174Y012092D01*
X017174Y011545D01*
X016690Y011061D01*
X016506Y011061D01*
X016511Y011066D01*
X016531Y011100D01*
X016541Y011138D01*
X016541Y011403D01*
X016185Y011403D01*
X016185Y011503D01*
X016541Y011503D01*
X016541Y011768D01*
X016531Y011806D01*
X016511Y011840D01*
X016483Y011868D01*
X016449Y011888D01*
X016410Y011898D01*
X016185Y011898D01*
X016185Y011503D01*
X016085Y011503D01*
X016085Y011898D01*
X015960Y011898D01*
X015969Y011907D01*
X016371Y011907D01*
X016435Y011972D01*
X016435Y012575D01*
X016371Y012639D01*
X015847Y012639D01*
X015782Y012575D01*
X015782Y012173D01*
X015767Y012157D01*
X015767Y012223D01*
X015450Y012223D01*
X015450Y011867D01*
X015477Y011867D01*
X015468Y011858D01*
X015208Y011858D01*
X015199Y011867D01*
X015350Y011867D01*
X015350Y012223D01*
X015034Y012223D01*
X015034Y012032D01*
X014934Y012132D01*
X014778Y012132D01*
X014844Y012199D01*
X014844Y012987D01*
X014875Y013019D01*
X015074Y013019D01*
X015074Y012877D01*
X015138Y012813D01*
X015662Y012813D01*
X015727Y012877D01*
X015727Y013480D01*
X015662Y013544D01*
X015560Y013544D01*
X015560Y013600D01*
X015683Y013600D01*
X015735Y013652D01*
X015754Y013618D01*
X015782Y013590D01*
X015816Y013571D01*
X015824Y013568D01*
X015800Y013554D01*
X015772Y013527D01*
X015753Y013492D01*
X015742Y013454D01*
X015742Y013229D01*
X016059Y013229D01*
X016059Y013560D01*
X016080Y013560D01*
X016080Y013956D01*
X016180Y013956D01*
X016180Y014056D01*
X016080Y014056D01*
X016080Y014451D01*
X015854Y014451D01*
X015816Y014441D01*
X015782Y014421D01*
X015754Y014393D01*
X015735Y014360D01*
X015683Y014411D01*
X015080Y014411D01*
X015016Y014346D01*
X015016Y013665D01*
X015080Y013600D01*
X015240Y013600D01*
X015240Y013544D01*
X015138Y013544D01*
X015074Y013480D01*
X015074Y013339D01*
X014743Y013339D01*
X014649Y013245D01*
X014649Y013245D01*
X014618Y013213D01*
X014618Y013213D01*
X014524Y013120D01*
X014524Y012331D01*
X014519Y012326D01*
X014212Y012326D01*
X014212Y012372D01*
X013772Y012372D01*
X013772Y012372D01*
X013332Y012372D01*
X013332Y012298D01*
X013342Y012259D01*
X013362Y012225D01*
X013372Y012215D01*
X013372Y010692D01*
X013436Y010627D01*
X013711Y010627D01*
X013845Y010493D01*
X013845Y009231D01*
X013720Y009179D01*
X013585Y009044D01*
X013570Y009007D01*
X013570Y009328D01*
X013202Y009695D01*
X013202Y009722D01*
X013207Y009727D01*
X013207Y010398D01*
X013143Y010462D01*
X011819Y010462D01*
X011809Y010472D01*
X011775Y010492D01*
X011737Y010502D01*
X011662Y010502D01*
X011587Y010502D01*
X011549Y010492D01*
X011515Y010472D01*
X011505Y010462D01*
X010829Y010462D01*
X010819Y010472D01*
X010785Y010492D01*
X010747Y010502D01*
X010672Y010502D01*
X010597Y010502D01*
X010559Y010492D01*
X010525Y010472D01*
X010515Y010462D01*
X009981Y010462D01*
X009917Y010398D01*
X009917Y009727D01*
X009981Y009662D01*
X010320Y009662D01*
X010320Y009570D01*
X010206Y009465D01*
X009886Y009465D01*
X009792Y009372D01*
X009477Y009057D01*
X009380Y009154D01*
X009391Y009179D01*
X009391Y009298D01*
X009345Y009408D01*
X009261Y009492D01*
X009152Y009537D01*
X009033Y009537D01*
X009020Y009531D01*
X009020Y009531D01*
X009065Y009641D01*
X009065Y009760D01*
X009062Y009768D01*
X009512Y010219D01*
X009512Y010627D01*
X009688Y010627D01*
X009752Y010692D01*
X009752Y013853D01*
X009688Y013917D01*
X009016Y013917D01*
X008952Y013853D01*
X008952Y013322D01*
X007993Y013322D01*
X007550Y013765D01*
X007457Y013858D01*
X006289Y013858D01*
X006221Y013926D01*
X006757Y013926D01*
X006822Y013991D01*
X006822Y014103D01*
X007054Y014103D01*
X007058Y014094D01*
X007142Y014010D01*
X007251Y013965D01*
X007370Y013965D01*
X007479Y014010D01*
X007563Y014094D01*
X007608Y014203D01*
X007608Y014322D01*
X007563Y014432D01*
X007479Y014515D01*
X007370Y014561D01*
X007251Y014561D01*
X007142Y014515D01*
X007058Y014432D01*
X007054Y014423D01*
X006822Y014423D01*
X006822Y014554D01*
X006757Y014619D01*
X006194Y014619D01*
X006129Y014554D01*
X006129Y014018D01*
X005995Y014152D01*
X005995Y014554D01*
X005930Y014619D01*
X005367Y014619D01*
X005302Y014554D01*
X005302Y014432D01*
X005037Y014432D01*
X004974Y014586D01*
X004870Y014689D01*
X007160Y014689D01*
X007179Y014678D01*
X007224Y014689D01*
X007271Y014689D01*
X007286Y014704D01*
X007307Y014710D01*
X007331Y014750D01*
X007364Y014783D01*
X007364Y014805D01*
X007579Y015162D01*
X007612Y015195D01*
X007612Y015216D01*
X007623Y015235D01*
X007612Y015281D01*
X007612Y019933D01*
X007518Y020026D01*
X007146Y020399D01*
X006749Y020399D01*
X006221Y020926D01*
X006757Y020926D01*
X006822Y020991D01*
X006822Y021070D01*
X007022Y020934D01*
X007022Y020867D01*
X007067Y020757D01*
X007151Y020673D01*
X007261Y020628D01*
X007379Y020628D01*
X007489Y020673D01*
X007573Y020757D01*
X007618Y020867D01*
X007618Y020985D01*
X007573Y021095D01*
X007489Y021179D01*
X007379Y021224D01*
X007261Y021224D01*
X007201Y021199D01*
X006910Y021396D01*
X006874Y021432D01*
X006857Y021432D01*
X006843Y021442D01*
X006822Y021438D01*
X006822Y021554D01*
X006757Y021619D01*
X006194Y021619D01*
X006129Y021554D01*
X006129Y021018D01*
X005995Y021152D01*
X005995Y021554D01*
X005930Y021619D01*
X005795Y021619D01*
X005795Y021986D01*
X005702Y022080D01*
X005058Y022724D01*
X005058Y022882D01*
X004974Y023086D01*
X004818Y023241D01*
X004615Y023325D01*
X003509Y023325D01*
X003306Y023241D01*
X003150Y023086D01*
X003066Y022882D01*
X003066Y022662D01*
X003150Y022459D01*
X003306Y022304D01*
X003509Y022219D01*
X004615Y022219D01*
X004818Y022304D01*
X004922Y022407D01*
X005475Y021854D01*
X005475Y021619D01*
X005367Y021619D01*
X005302Y021554D01*
X005302Y020991D01*
X005367Y020926D01*
X005769Y020926D01*
X006522Y020172D01*
X006576Y020119D01*
X006194Y020119D01*
X006129Y020054D01*
X006129Y019491D01*
X006194Y019426D01*
X006757Y019426D01*
X006822Y019491D01*
X006822Y019565D01*
X006866Y019521D01*
X006975Y019476D01*
X007094Y019476D01*
X007203Y019521D01*
X007287Y019605D01*
X007292Y019616D01*
X007292Y016595D01*
X005809Y018079D01*
X005809Y019426D01*
X005930Y019426D01*
X005995Y019491D01*
X005995Y020054D01*
X005930Y020119D01*
X005810Y020119D01*
X005810Y020350D01*
X005716Y020443D01*
X005227Y020932D01*
X005037Y020932D01*
X004974Y021086D01*
X004818Y021241D01*
X004615Y021325D01*
X003509Y021325D01*
X003306Y021241D01*
X003150Y021086D01*
X003066Y020882D01*
X003066Y020662D01*
X003150Y020459D01*
X003306Y020304D01*
X003509Y020219D01*
X003485Y020229D02*
X002762Y020229D01*
X002762Y020131D02*
X005490Y020131D01*
X005477Y020229D02*
X004639Y020229D01*
X004842Y020328D02*
X005379Y020328D01*
X005280Y020426D02*
X004941Y020426D01*
X005001Y020525D02*
X005182Y020525D01*
X005437Y020722D02*
X005973Y020722D01*
X006071Y020623D02*
X005536Y020623D01*
X005634Y020525D02*
X006170Y020525D01*
X006268Y020426D02*
X005733Y020426D01*
X005810Y020328D02*
X006367Y020328D01*
X006465Y020229D02*
X005810Y020229D01*
X005810Y020131D02*
X006564Y020131D01*
X006522Y020172D02*
X006522Y020172D01*
X006682Y020239D02*
X007080Y020239D01*
X007452Y019866D01*
X007452Y015261D01*
X007204Y014849D01*
X003381Y014849D01*
X002998Y014534D01*
X003003Y013969D01*
X003353Y013710D01*
X005511Y013710D01*
X005734Y013487D01*
X007296Y013487D01*
X007821Y012962D01*
X009352Y012962D01*
X009342Y012772D02*
X007706Y012772D01*
X007202Y013275D01*
X005652Y013275D01*
X005429Y013498D01*
X003291Y013498D01*
X004012Y012842D02*
X004112Y012842D01*
X004112Y012743D02*
X004012Y012743D01*
X004012Y012645D02*
X004112Y012645D01*
X004112Y012546D02*
X004012Y012546D01*
X004012Y012448D02*
X004112Y012448D01*
X004112Y012349D02*
X004012Y012349D01*
X004062Y014272D02*
X005649Y014272D01*
X006223Y013698D01*
X007390Y013698D01*
X007926Y013162D01*
X009352Y013162D01*
X008952Y013334D02*
X007981Y013334D01*
X007882Y013433D02*
X008952Y013433D01*
X008952Y013531D02*
X007784Y013531D01*
X007685Y013630D02*
X008952Y013630D01*
X008952Y013728D02*
X007587Y013728D01*
X007488Y013827D02*
X008952Y013827D01*
X008687Y014322D02*
X009917Y014322D01*
X009917Y014147D01*
X009981Y014082D01*
X013143Y014082D01*
X013207Y014147D01*
X013207Y014326D01*
X014329Y014326D01*
X014423Y014419D01*
X014434Y014430D01*
X014434Y013550D01*
X014193Y013310D01*
X014172Y013288D01*
X014172Y013853D01*
X014108Y013917D01*
X013436Y013917D01*
X013372Y013853D01*
X013372Y012529D01*
X013362Y012519D01*
X013342Y012485D01*
X013332Y012447D01*
X013332Y012372D01*
X013772Y012372D01*
X013772Y012372D01*
X014314Y012372D01*
X014447Y012505D01*
X014447Y013060D01*
X014774Y013386D01*
X014774Y014390D01*
X014961Y014578D01*
X015997Y014578D01*
X016128Y014447D01*
X016128Y014008D01*
X016130Y014006D01*
X016140Y014016D01*
X016895Y014016D01*
X017334Y013577D01*
X017334Y014999D01*
X017331Y015001D01*
X017766Y015009D02*
X016443Y015009D01*
X016541Y015107D02*
X017766Y015107D01*
X017766Y015206D02*
X016640Y015206D01*
X016738Y015304D02*
X017766Y015304D01*
X017766Y015403D02*
X016837Y015403D01*
X016935Y015501D02*
X017766Y015501D01*
X017766Y015600D02*
X017034Y015600D01*
X017063Y015629D02*
X017063Y020851D01*
X017216Y021004D01*
X017216Y020904D01*
X017280Y020839D01*
X017844Y020839D01*
X017908Y020904D01*
X017908Y021467D01*
X017844Y021532D01*
X017722Y021532D01*
X017722Y021797D01*
X017875Y021861D01*
X018031Y022016D01*
X018115Y022219D01*
X018115Y023325D01*
X018031Y023528D01*
X017875Y023684D01*
X017672Y023768D01*
X017452Y023768D01*
X017249Y023684D01*
X017093Y023528D01*
X017009Y023325D01*
X017009Y022219D01*
X017093Y022016D01*
X017249Y021861D01*
X017402Y021797D01*
X017402Y021532D01*
X017280Y021532D01*
X017216Y021467D01*
X017216Y021346D01*
X017105Y021346D01*
X016836Y021077D01*
X016743Y020984D01*
X016743Y015762D01*
X016737Y015756D01*
X016737Y020934D01*
X016644Y021028D01*
X016326Y021346D01*
X015908Y021346D01*
X015908Y021467D01*
X015844Y021532D01*
X015722Y021532D01*
X015722Y021797D01*
X015875Y021861D01*
X016031Y022016D01*
X016115Y022219D01*
X016115Y023325D01*
X016031Y023528D01*
X015875Y023684D01*
X015672Y023768D01*
X015452Y023768D01*
X015249Y023684D01*
X015093Y023528D01*
X015009Y023325D01*
X015009Y022219D01*
X015093Y022016D01*
X015249Y021861D01*
X015402Y021797D01*
X015402Y021532D01*
X015280Y021532D01*
X015216Y021467D01*
X015216Y020904D01*
X015280Y020839D01*
X015844Y020839D01*
X015908Y020904D01*
X015908Y021026D01*
X016193Y021026D01*
X016417Y020801D01*
X016417Y015809D01*
X015806Y015198D01*
X015423Y015198D01*
X015808Y015575D01*
X015809Y015575D01*
X015855Y015621D01*
X015902Y015667D01*
X015902Y015668D01*
X015903Y015669D01*
X015903Y015734D01*
X015903Y015800D01*
X015903Y015800D01*
X015903Y017969D01*
X015683Y018189D01*
X015589Y018282D01*
X015381Y018282D01*
X015381Y018409D01*
X015316Y018473D01*
X015195Y018473D01*
X015195Y018626D01*
X015006Y018815D01*
X014912Y018909D01*
X011833Y018909D01*
X011622Y019120D01*
X011622Y020034D01*
X011250Y020407D01*
X011156Y020500D01*
X011016Y020500D01*
X010969Y020614D01*
X010834Y020749D01*
X010657Y020822D01*
X010467Y020822D01*
X010290Y020749D01*
X010218Y020677D01*
X010218Y020899D01*
X010757Y021437D01*
X010851Y021531D01*
X010851Y021819D01*
X010952Y021776D01*
X011172Y021776D01*
X011375Y021861D01*
X011531Y022016D01*
X011615Y022219D01*
X011615Y023325D01*
X011531Y023528D01*
X011375Y023684D01*
X011172Y023768D01*
X010952Y023768D01*
X010749Y023684D01*
X010593Y023528D01*
X010509Y023325D01*
X010509Y022219D01*
X010531Y022168D01*
X010531Y021664D01*
X009898Y021031D01*
X009898Y020685D01*
X009834Y020749D01*
X009722Y020796D01*
X009722Y022339D01*
X009615Y022446D01*
X009615Y023325D01*
X009531Y023528D01*
X009375Y023684D01*
X009172Y023768D01*
X008952Y023768D01*
X008749Y023684D01*
X008593Y023528D01*
X008509Y023325D01*
X008509Y022219D01*
X008593Y022016D01*
X008749Y021861D01*
X008952Y021776D01*
X009172Y021776D01*
X009375Y021861D01*
X009402Y021887D01*
X009402Y020796D01*
X009290Y020749D01*
X009155Y020614D01*
X009082Y020438D01*
X009082Y020247D01*
X009155Y020070D01*
X009290Y019935D01*
X009467Y019862D01*
X009657Y019862D01*
X009834Y019935D01*
X009898Y020000D01*
X009898Y019703D01*
X009992Y019610D01*
X010147Y019455D01*
X010082Y019298D01*
X010082Y019107D01*
X010155Y018930D01*
X010290Y018795D01*
X010467Y018722D01*
X010657Y018722D01*
X010834Y018795D01*
X010969Y018930D01*
X011042Y019107D01*
X011042Y019298D01*
X010969Y019474D01*
X010834Y019609D01*
X010657Y019682D01*
X010467Y019682D01*
X010399Y019655D01*
X010218Y019836D01*
X010218Y020007D01*
X010290Y019935D01*
X010467Y019862D01*
X010657Y019862D01*
X010834Y019935D01*
X010969Y020070D01*
X011014Y020180D01*
X011023Y020180D01*
X011302Y019902D01*
X011302Y018987D01*
X011396Y018894D01*
X011700Y018589D01*
X014779Y018589D01*
X014875Y018494D01*
X014875Y018473D01*
X014753Y018473D01*
X014688Y018409D01*
X014688Y017845D01*
X014753Y017781D01*
X015316Y017781D01*
X015381Y017845D01*
X015381Y017962D01*
X015456Y017962D01*
X015583Y017836D01*
X015583Y015802D01*
X015184Y015412D01*
X014191Y015412D01*
X014354Y015575D01*
X014447Y015669D01*
X014447Y017833D01*
X014126Y018155D01*
X014032Y018248D01*
X013788Y018248D01*
X013788Y018394D01*
X013723Y018458D01*
X013160Y018458D01*
X013095Y018394D01*
X013095Y018272D01*
X010719Y018272D01*
X009996Y018995D01*
X010042Y019107D01*
X010042Y019298D01*
X009969Y019474D01*
X009834Y019609D01*
X009657Y019682D01*
X009467Y019682D01*
X009290Y019609D01*
X009155Y019474D01*
X009082Y019298D01*
X009082Y019107D01*
X009155Y018930D01*
X009290Y018795D01*
X009467Y018722D01*
X009657Y018722D01*
X009769Y018769D01*
X010586Y017952D01*
X013095Y017952D01*
X013095Y017830D01*
X013160Y017766D01*
X013723Y017766D01*
X013788Y017830D01*
X013788Y017928D01*
X013900Y017928D01*
X014127Y017701D01*
X014127Y015801D01*
X013933Y015607D01*
X012986Y015607D01*
X012892Y015513D01*
X012482Y015103D01*
X012482Y014882D01*
X011878Y014882D01*
X012332Y015336D01*
X012426Y015430D01*
X012426Y015546D01*
X012606Y015546D01*
X012670Y015611D01*
X012670Y016214D01*
X012619Y016265D01*
X012652Y016284D01*
X012680Y016312D01*
X012700Y016347D01*
X012710Y016385D01*
X012710Y016610D01*
X012315Y016610D01*
X012315Y016710D01*
X012710Y016710D01*
X012710Y016936D01*
X012700Y016974D01*
X012680Y017008D01*
X012652Y017036D01*
X012618Y017056D01*
X012580Y017066D01*
X012315Y017066D01*
X012315Y016710D01*
X012215Y016710D01*
X012215Y016610D01*
X011820Y016610D01*
X011820Y016385D01*
X011830Y016347D01*
X011850Y016312D01*
X011878Y016284D01*
X011911Y016265D01*
X011860Y016214D01*
X011860Y016072D01*
X011202Y016072D01*
X011202Y016195D01*
X011151Y016247D01*
X011184Y016266D01*
X011212Y016294D01*
X011232Y016328D01*
X011242Y016366D01*
X011242Y016592D01*
X010847Y016592D01*
X010847Y016692D01*
X010747Y016692D01*
X010747Y017048D01*
X010482Y017048D01*
X010444Y017037D01*
X010410Y017018D01*
X010382Y016990D01*
X010362Y016956D01*
X010352Y016917D01*
X010352Y016692D01*
X010747Y016692D01*
X010747Y016592D01*
X010352Y016592D01*
X010352Y016366D01*
X010362Y016328D01*
X010382Y016294D01*
X010410Y016266D01*
X010443Y016247D01*
X010392Y016195D01*
X010392Y015592D01*
X010456Y015528D01*
X011138Y015528D01*
X011202Y015592D01*
X011202Y015752D01*
X011860Y015752D01*
X011860Y015611D01*
X011924Y015546D01*
X012090Y015546D01*
X011502Y014959D01*
X011502Y014882D01*
X010442Y014882D01*
X010442Y014997D01*
X010241Y015198D01*
X010147Y015292D01*
X009979Y015292D01*
X009721Y015034D01*
X009639Y015034D01*
X009639Y015160D01*
X009575Y015224D01*
X009011Y015224D01*
X008947Y015160D01*
X008947Y014642D01*
X008819Y014642D01*
X008668Y014793D01*
X008668Y015195D01*
X008604Y015260D01*
X008040Y015260D01*
X007976Y015195D01*
X007976Y014632D01*
X008040Y014567D01*
X008442Y014567D01*
X008687Y014322D01*
X008591Y014418D02*
X007569Y014418D01*
X007608Y014319D02*
X009917Y014319D01*
X009917Y014221D02*
X007608Y014221D01*
X007575Y014122D02*
X009941Y014122D01*
X009752Y013827D02*
X013372Y013827D01*
X013372Y013728D02*
X009752Y013728D01*
X009752Y013630D02*
X013372Y013630D01*
X013372Y013531D02*
X009752Y013531D01*
X009752Y013433D02*
X013372Y013433D01*
X013372Y013334D02*
X009752Y013334D01*
X009752Y013236D02*
X013372Y013236D01*
X013372Y013137D02*
X009752Y013137D01*
X009752Y013039D02*
X013372Y013039D01*
X013372Y012940D02*
X009752Y012940D01*
X009752Y012842D02*
X013372Y012842D01*
X013372Y012743D02*
X009752Y012743D01*
X009752Y012645D02*
X013372Y012645D01*
X013372Y012546D02*
X009752Y012546D01*
X009752Y012448D02*
X013332Y012448D01*
X013332Y012349D02*
X009752Y012349D01*
X009752Y012251D02*
X013347Y012251D01*
X013372Y012152D02*
X009752Y012152D01*
X009752Y012054D02*
X013372Y012054D01*
X013372Y011955D02*
X009752Y011955D01*
X009752Y011857D02*
X013372Y011857D01*
X013372Y011758D02*
X009752Y011758D01*
X009752Y011660D02*
X013372Y011660D01*
X013372Y011561D02*
X009752Y011561D01*
X009752Y011463D02*
X013372Y011463D01*
X013372Y011364D02*
X009752Y011364D01*
X009752Y011266D02*
X013372Y011266D01*
X013372Y011167D02*
X009752Y011167D01*
X009752Y011069D02*
X013372Y011069D01*
X013372Y010970D02*
X009752Y010970D01*
X009752Y010872D02*
X013372Y010872D01*
X013372Y010773D02*
X009752Y010773D01*
X009735Y010675D02*
X013389Y010675D01*
X013207Y010379D02*
X013845Y010379D01*
X013845Y010281D02*
X013207Y010281D01*
X013207Y010182D02*
X013845Y010182D01*
X013845Y010084D02*
X013207Y010084D01*
X013207Y009985D02*
X013845Y009985D01*
X013845Y009887D02*
X013207Y009887D01*
X013207Y009788D02*
X013845Y009788D01*
X013845Y009690D02*
X013207Y009690D01*
X013306Y009591D02*
X013845Y009591D01*
X013845Y009493D02*
X013404Y009493D01*
X013503Y009394D02*
X013845Y009394D01*
X013845Y009296D02*
X013570Y009296D01*
X013570Y009197D02*
X013764Y009197D01*
X013640Y009099D02*
X013570Y009099D01*
X013410Y009261D02*
X013042Y009629D01*
X013042Y010062D01*
X013041Y010062D01*
X012842Y010062D02*
X012842Y009595D01*
X013241Y009196D01*
X013241Y008256D01*
X014138Y007359D01*
X017062Y007359D01*
X017062Y005772D01*
X016509Y005750D02*
X014612Y005750D01*
X014612Y005722D02*
X014612Y005822D01*
X015155Y005822D01*
X015155Y006262D01*
X015140Y006354D01*
X015111Y006443D01*
X015069Y006526D01*
X015014Y006601D01*
X014948Y006667D01*
X014873Y006722D01*
X014790Y006765D01*
X014701Y006794D01*
X014612Y006808D01*
X014612Y005822D01*
X014512Y005822D01*
X014512Y005722D01*
X014612Y005722D01*
X014612Y004737D01*
X014701Y004751D01*
X014790Y004780D01*
X014873Y004822D01*
X014948Y004877D01*
X015014Y004943D01*
X015069Y005019D01*
X015111Y005102D01*
X015140Y005191D01*
X015155Y005283D01*
X015155Y005722D01*
X014612Y005722D01*
X014612Y005651D02*
X014512Y005651D01*
X014512Y005722D02*
X014512Y004737D01*
X014423Y004751D01*
X014334Y004780D01*
X014251Y004822D01*
X014176Y004877D01*
X014110Y004943D01*
X014055Y005019D01*
X014013Y005102D01*
X013984Y005191D01*
X013969Y005283D01*
X013969Y005722D01*
X014512Y005722D01*
X014512Y005750D02*
X013115Y005750D01*
X013115Y005848D02*
X013969Y005848D01*
X013969Y005822D02*
X014512Y005822D01*
X014512Y006808D01*
X014423Y006794D01*
X014334Y006765D01*
X014251Y006722D01*
X014176Y006667D01*
X014110Y006601D01*
X014055Y006526D01*
X014013Y006443D01*
X013984Y006354D01*
X013969Y006262D01*
X013969Y005822D01*
X013969Y005947D02*
X013115Y005947D01*
X013115Y006045D02*
X013969Y006045D01*
X013969Y006144D02*
X013115Y006144D01*
X013115Y006242D02*
X013969Y006242D01*
X013982Y006341D02*
X013108Y006341D01*
X013068Y006439D02*
X014011Y006439D01*
X014064Y006538D02*
X013021Y006538D01*
X012923Y006636D02*
X014145Y006636D01*
X014276Y006735D02*
X012752Y006735D01*
X012722Y006833D02*
X016902Y006833D01*
X016902Y006932D02*
X012722Y006932D01*
X012861Y007030D02*
X016763Y007030D01*
X016716Y007129D02*
X012908Y007129D01*
X012908Y007227D02*
X014044Y007227D01*
X013945Y007326D02*
X012995Y007326D01*
X013094Y007424D02*
X013847Y007424D01*
X013748Y007523D02*
X013192Y007523D01*
X013205Y007621D02*
X013650Y007621D01*
X013551Y007720D02*
X013205Y007720D01*
X013205Y007818D02*
X013453Y007818D01*
X013354Y007917D02*
X013205Y007917D01*
X013205Y008015D02*
X013256Y008015D01*
X013410Y008370D02*
X013758Y008022D01*
X015391Y008022D01*
X016272Y008903D01*
X017506Y008903D01*
X018011Y008398D01*
X018011Y007728D01*
X018379Y007359D01*
X019062Y007359D01*
X019062Y005772D01*
X018509Y005750D02*
X017615Y005750D01*
X017615Y005848D02*
X018509Y005848D01*
X018509Y005947D02*
X017615Y005947D01*
X017615Y006045D02*
X018509Y006045D01*
X018509Y006144D02*
X017615Y006144D01*
X017615Y006242D02*
X018509Y006242D01*
X018516Y006341D02*
X017608Y006341D01*
X017568Y006439D02*
X018556Y006439D01*
X018603Y006538D02*
X017521Y006538D01*
X017423Y006636D02*
X018701Y006636D01*
X018872Y006735D02*
X017252Y006735D01*
X017222Y006833D02*
X018902Y006833D01*
X018902Y006932D02*
X017222Y006932D01*
X017361Y007030D02*
X018763Y007030D01*
X018716Y007129D02*
X017408Y007129D01*
X017408Y007227D02*
X018285Y007227D01*
X018186Y007326D02*
X017408Y007326D01*
X017408Y007424D02*
X018088Y007424D01*
X017989Y007523D02*
X017408Y007523D01*
X017408Y007621D02*
X017891Y007621D01*
X017851Y007720D02*
X014004Y007720D01*
X014102Y007621D02*
X016716Y007621D01*
X016716Y007523D02*
X014201Y007523D01*
X013905Y007818D02*
X017851Y007818D01*
X017851Y007917D02*
X017408Y007917D01*
X017408Y008015D02*
X017851Y008015D01*
X017851Y008114D02*
X017408Y008114D01*
X017408Y008212D02*
X017851Y008212D01*
X017851Y008311D02*
X017408Y008311D01*
X017408Y008409D02*
X017773Y008409D01*
X017674Y008508D02*
X017368Y008508D01*
X017477Y008705D02*
X016300Y008705D01*
X016202Y008606D02*
X017576Y008606D01*
X017832Y008803D02*
X018816Y008803D01*
X018807Y008813D02*
X018890Y008729D01*
X018902Y008724D01*
X018902Y008532D01*
X018780Y008532D01*
X018716Y008467D01*
X018716Y007904D01*
X018780Y007839D01*
X019344Y007839D01*
X019408Y007904D01*
X019408Y008467D01*
X019344Y008532D01*
X019222Y008532D01*
X019222Y008726D01*
X019228Y008729D01*
X019312Y008813D01*
X019357Y008922D01*
X019357Y009041D01*
X019312Y009150D01*
X019228Y009234D01*
X019119Y009280D01*
X019000Y009280D01*
X018890Y009234D01*
X018807Y009150D01*
X018761Y009041D01*
X018761Y008922D01*
X018807Y008813D01*
X018770Y008902D02*
X017733Y008902D01*
X017635Y009000D02*
X018761Y009000D01*
X018785Y009099D02*
X015484Y009099D01*
X015539Y009044D02*
X015404Y009179D01*
X015227Y009252D01*
X015037Y009252D01*
X014860Y009179D01*
X014725Y009044D01*
X014652Y008868D01*
X014652Y008677D01*
X014725Y008500D01*
X014860Y008365D01*
X015037Y008292D01*
X015227Y008292D01*
X015404Y008365D01*
X015539Y008500D01*
X015612Y008677D01*
X015612Y008868D01*
X015539Y009044D01*
X015557Y009000D02*
X016143Y009000D01*
X016045Y008902D02*
X015598Y008902D01*
X015612Y008803D02*
X015946Y008803D01*
X015848Y008705D02*
X015612Y008705D01*
X015583Y008606D02*
X015749Y008606D01*
X015651Y008508D02*
X015542Y008508D01*
X015552Y008409D02*
X015448Y008409D01*
X015454Y008311D02*
X015272Y008311D01*
X015355Y008212D02*
X013794Y008212D01*
X013852Y008311D02*
X013695Y008311D01*
X013676Y008409D02*
X013597Y008409D01*
X013582Y008508D02*
X013570Y008508D01*
X013410Y008370D02*
X013410Y009261D01*
X013045Y009060D02*
X012452Y009653D01*
X012452Y010062D01*
X012452Y010062D01*
X011862Y010062D02*
X011860Y010047D01*
X011860Y009509D01*
X011748Y009394D02*
X011034Y009394D01*
X011026Y009296D02*
X011844Y009296D01*
X011868Y009197D02*
X011154Y009197D01*
X011240Y009099D02*
X011868Y009099D01*
X011868Y009000D02*
X011276Y009000D01*
X011276Y008902D02*
X011868Y008902D01*
X011868Y008803D02*
X011239Y008803D01*
X011153Y008705D02*
X011868Y008705D01*
X011868Y008606D02*
X010859Y008606D01*
X010868Y008508D02*
X011196Y008508D01*
X011143Y008409D02*
X010908Y008409D01*
X010908Y008311D02*
X011143Y008311D01*
X011143Y008212D02*
X010908Y008212D01*
X010908Y008114D02*
X011538Y008114D01*
X011588Y008136D02*
X011588Y008285D01*
X011431Y008285D01*
X011103Y007956D01*
X011103Y006963D01*
X011392Y006673D01*
X011392Y005445D01*
X011628Y005210D01*
X011605Y005210D01*
X011131Y004616D01*
X010027Y004616D01*
X009771Y005008D01*
X009771Y006603D01*
X009141Y007233D01*
X009144Y007230D01*
X009724Y007230D01*
X009933Y007439D01*
X009933Y008661D01*
X010672Y009400D01*
X010672Y010062D01*
X010672Y010502D01*
X010672Y010062D01*
X010672Y010062D01*
X010672Y010084D02*
X010672Y010084D01*
X010672Y010182D02*
X010672Y010182D01*
X010672Y010281D02*
X010672Y010281D01*
X010672Y010379D02*
X010672Y010379D01*
X010672Y010478D02*
X010672Y010478D01*
X010534Y010478D02*
X009512Y010478D01*
X009512Y010576D02*
X013762Y010576D01*
X013845Y010478D02*
X011800Y010478D01*
X011662Y010478D02*
X011662Y010478D01*
X011662Y010502D02*
X011662Y010062D01*
X011661Y010061D01*
X011661Y009586D01*
X011588Y009513D01*
X011588Y008285D01*
X011538Y008311D02*
X011638Y008311D01*
X011638Y008409D02*
X011538Y008409D01*
X011538Y008508D02*
X011638Y008508D01*
X011638Y008212D02*
X011538Y008212D01*
X011143Y008015D02*
X010908Y008015D01*
X010908Y007917D02*
X011143Y007917D01*
X011155Y007818D02*
X010318Y007818D01*
X010318Y007720D02*
X011213Y007720D01*
X011183Y007621D02*
X010908Y007621D01*
X010908Y007523D02*
X011183Y007523D01*
X011183Y007424D02*
X010908Y007424D01*
X010908Y007326D02*
X011183Y007326D01*
X011183Y007227D02*
X010908Y007227D01*
X010908Y007129D02*
X011183Y007129D01*
X011239Y007030D02*
X010861Y007030D01*
X010722Y006932D02*
X011432Y006932D01*
X011494Y006833D02*
X010722Y006833D01*
X010752Y006735D02*
X011496Y006735D01*
X011537Y006636D02*
X010923Y006636D01*
X011021Y006538D02*
X011640Y006538D01*
X011946Y006538D02*
X012103Y006538D01*
X012056Y006439D02*
X011068Y006439D01*
X011108Y006341D02*
X012016Y006341D01*
X012009Y006242D02*
X011115Y006242D01*
X011115Y006144D02*
X012009Y006144D01*
X012009Y006045D02*
X011115Y006045D01*
X011115Y005947D02*
X012009Y005947D01*
X012009Y005848D02*
X011115Y005848D01*
X011115Y005750D02*
X012009Y005750D01*
X012009Y005651D02*
X011115Y005651D01*
X011115Y005553D02*
X012009Y005553D01*
X012009Y005454D02*
X011115Y005454D01*
X011115Y005356D02*
X012009Y005356D01*
X012009Y005257D02*
X011115Y005257D01*
X011090Y005159D02*
X012034Y005159D01*
X012075Y005060D02*
X011049Y005060D01*
X010976Y004962D02*
X012148Y004962D01*
X012246Y004863D02*
X010878Y004863D01*
X010246Y004863D02*
X006892Y004863D01*
X006892Y004962D02*
X006792Y004962D01*
X006792Y005060D02*
X006892Y005060D01*
X006892Y005159D02*
X006792Y005159D01*
X006792Y005257D02*
X006892Y005257D01*
X006792Y004863D02*
X004332Y004863D01*
X004332Y004962D02*
X004232Y004962D01*
X004232Y005060D02*
X004332Y005060D01*
X004332Y005159D02*
X004232Y005159D01*
X004232Y005257D02*
X004332Y005257D01*
X004232Y004863D02*
X002762Y004863D01*
X002762Y004765D02*
X003547Y004765D01*
X003587Y004666D02*
X002762Y004666D01*
X002762Y004568D02*
X003660Y004568D01*
X003539Y004962D02*
X002762Y004962D01*
X002762Y005060D02*
X003568Y005060D01*
X003627Y005159D02*
X002762Y005159D01*
X002762Y005257D02*
X003733Y005257D01*
X002762Y005356D02*
X007718Y005356D01*
X007718Y005454D02*
X002762Y005454D01*
X002762Y005553D02*
X007718Y005553D01*
X007718Y005651D02*
X002762Y005651D01*
X002762Y005750D02*
X007718Y005750D01*
X007780Y005848D02*
X002762Y005848D01*
X002762Y005947D02*
X007718Y005947D01*
X007718Y006045D02*
X002762Y006045D01*
X002762Y006144D02*
X007718Y006144D01*
X007718Y006242D02*
X002762Y006242D01*
X002762Y006341D02*
X003724Y006341D01*
X003750Y006315D02*
X003900Y006252D01*
X004664Y006252D01*
X004814Y006315D01*
X004930Y006430D01*
X004992Y006581D01*
X004992Y006744D01*
X004930Y006895D01*
X004814Y007010D01*
X004664Y007072D01*
X003900Y007072D01*
X003750Y007010D01*
X003634Y006895D01*
X003572Y006744D01*
X003572Y006581D01*
X003634Y006430D01*
X003750Y006315D01*
X003631Y006439D02*
X002762Y006439D01*
X002762Y006538D02*
X003590Y006538D01*
X003572Y006636D02*
X002762Y006636D01*
X002762Y006735D02*
X003572Y006735D01*
X003609Y006833D02*
X002762Y006833D01*
X002762Y006932D02*
X003672Y006932D01*
X003799Y007030D02*
X002762Y007030D01*
X002762Y007129D02*
X008139Y007129D01*
X008139Y007227D02*
X002762Y007227D01*
X002762Y007326D02*
X008139Y007326D01*
X008139Y007424D02*
X002762Y007424D01*
X002762Y007523D02*
X008139Y007523D01*
X008139Y007621D02*
X002762Y007621D01*
X002762Y007720D02*
X008139Y007720D01*
X008139Y007818D02*
X002762Y007818D01*
X002762Y007917D02*
X005641Y007917D01*
X005543Y008015D02*
X002762Y008015D01*
X002762Y008114D02*
X005444Y008114D01*
X005346Y008212D02*
X002762Y008212D01*
X002762Y008311D02*
X004801Y008311D01*
X004696Y008409D02*
X004319Y008409D01*
X004426Y008508D02*
X004631Y008508D01*
X004591Y008606D02*
X004492Y008606D01*
X004533Y008705D02*
X004582Y008705D01*
X004582Y008803D02*
X004542Y008803D01*
X004542Y008902D02*
X004617Y008902D01*
X004661Y009000D02*
X004508Y009000D01*
X004464Y009099D02*
X004760Y009099D01*
X004954Y009197D02*
X004366Y009197D01*
X005062Y008722D02*
X005803Y007981D01*
X008232Y007981D01*
X008299Y007914D01*
X008299Y006955D01*
X008855Y006399D01*
X008855Y005882D01*
X008436Y005463D01*
X008143Y005463D01*
X008568Y005356D02*
X010009Y005356D01*
X010009Y005454D02*
X008653Y005454D01*
X008752Y005553D02*
X010009Y005553D01*
X010009Y005651D02*
X008850Y005651D01*
X008949Y005750D02*
X010009Y005750D01*
X010009Y005848D02*
X009015Y005848D01*
X009015Y005947D02*
X010009Y005947D01*
X010009Y006045D02*
X009015Y006045D01*
X009015Y006144D02*
X010009Y006144D01*
X010009Y006242D02*
X009015Y006242D01*
X009015Y006341D02*
X010016Y006341D01*
X010056Y006439D02*
X009015Y006439D01*
X008943Y006538D02*
X010103Y006538D01*
X010201Y006636D02*
X008844Y006636D01*
X008746Y006735D02*
X010372Y006735D01*
X010402Y006833D02*
X009479Y006833D01*
X009579Y006932D02*
X010402Y006932D01*
X010263Y007030D02*
X009586Y007030D01*
X009586Y007129D02*
X010216Y007129D01*
X010146Y007227D02*
X009191Y007227D01*
X009191Y007129D02*
X009091Y007129D01*
X009091Y007227D02*
X008459Y007227D01*
X008459Y007129D02*
X008696Y007129D01*
X008696Y007030D02*
X008459Y007030D01*
X008549Y006932D02*
X008703Y006932D01*
X008647Y006833D02*
X008803Y006833D01*
X009091Y006833D02*
X009191Y006833D01*
X009191Y006932D02*
X009091Y006932D01*
X009091Y007030D02*
X009191Y007030D01*
X008696Y007326D02*
X008459Y007326D01*
X008459Y007424D02*
X008696Y007424D01*
X008700Y007523D02*
X008459Y007523D01*
X008459Y007621D02*
X008775Y007621D01*
X008736Y007720D02*
X008459Y007720D01*
X008459Y007818D02*
X008736Y007818D01*
X009141Y007981D02*
X008232Y007981D01*
X008319Y008409D02*
X008981Y008409D01*
X008981Y008508D02*
X008426Y008508D01*
X008492Y008606D02*
X009027Y008606D01*
X009125Y008705D02*
X008533Y008705D01*
X008542Y008803D02*
X009224Y008803D01*
X009180Y008902D02*
X008542Y008902D01*
X008508Y009000D02*
X008909Y009000D01*
X008828Y009099D02*
X008464Y009099D01*
X008366Y009197D02*
X008794Y009197D01*
X008794Y009296D02*
X008250Y009296D01*
X008250Y009394D02*
X008834Y009394D01*
X009045Y009591D02*
X010320Y009591D01*
X010236Y009493D02*
X009258Y009493D01*
X009351Y009394D02*
X009815Y009394D01*
X009716Y009296D02*
X009391Y009296D01*
X009391Y009197D02*
X009618Y009197D01*
X009519Y009099D02*
X009436Y009099D01*
X009477Y008831D02*
X009092Y009216D01*
X009092Y009239D01*
X009065Y009690D02*
X009954Y009690D01*
X009917Y009788D02*
X009081Y009788D01*
X009180Y009887D02*
X009917Y009887D01*
X009917Y009985D02*
X009278Y009985D01*
X009377Y010084D02*
X009917Y010084D01*
X009917Y010182D02*
X009475Y010182D01*
X009512Y010281D02*
X009917Y010281D01*
X009917Y010379D02*
X009512Y010379D01*
X009352Y010285D02*
X008767Y009700D01*
X008553Y009493D02*
X008250Y009493D01*
X008250Y009591D02*
X008490Y009591D01*
X008469Y009690D02*
X008250Y009690D01*
X008250Y009788D02*
X008481Y009788D01*
X008532Y009887D02*
X008250Y009887D01*
X008250Y009985D02*
X008676Y009985D01*
X008924Y010084D02*
X008316Y010084D01*
X008415Y010182D02*
X009023Y010182D01*
X009121Y010281D02*
X008513Y010281D01*
X008612Y010379D02*
X009192Y010379D01*
X009192Y010478D02*
X008710Y010478D01*
X008809Y010576D02*
X009192Y010576D01*
X008969Y010675D02*
X008907Y010675D01*
X008999Y010992D02*
X008090Y010084D01*
X008090Y008851D01*
X008062Y008822D01*
X009141Y008495D02*
X009141Y007981D01*
X009546Y008015D02*
X009998Y008015D01*
X009998Y007917D02*
X009546Y007917D01*
X009546Y007818D02*
X009998Y007818D01*
X009998Y007720D02*
X009546Y007720D01*
X009507Y007621D02*
X009998Y007621D01*
X009998Y007523D02*
X009583Y007523D01*
X009586Y007424D02*
X009998Y007424D01*
X010047Y007326D02*
X009586Y007326D01*
X010158Y007441D02*
X010158Y008654D01*
X010874Y009370D01*
X010874Y010060D01*
X010872Y010062D01*
X010672Y009985D02*
X010672Y009985D01*
X010672Y009887D02*
X010672Y009887D01*
X010672Y009788D02*
X010672Y009788D01*
X010672Y009690D02*
X010672Y009690D01*
X010640Y009591D02*
X010714Y009591D01*
X010714Y009493D02*
X010640Y009493D01*
X010672Y009394D02*
X010602Y009394D01*
X010574Y009296D02*
X010494Y009296D01*
X010475Y009197D02*
X010387Y009197D01*
X010377Y009099D02*
X009972Y009099D01*
X009873Y009000D02*
X010278Y009000D01*
X010180Y008902D02*
X009775Y008902D01*
X009676Y008803D02*
X010081Y008803D01*
X009998Y008705D02*
X009578Y008705D01*
X009479Y008606D02*
X009998Y008606D01*
X009998Y008508D02*
X009381Y008508D01*
X009301Y008409D02*
X009998Y008409D01*
X009998Y008311D02*
X009518Y008311D01*
X009546Y008212D02*
X009998Y008212D01*
X009998Y008114D02*
X009546Y008114D01*
X009141Y008495D02*
X009477Y008831D01*
X009952Y009305D01*
X010268Y009305D01*
X010480Y009499D01*
X010480Y010042D01*
X010482Y010062D01*
X010810Y010478D02*
X011524Y010478D01*
X011662Y010502D02*
X011662Y010062D01*
X011662Y010062D01*
X011662Y010084D02*
X011662Y010084D01*
X011662Y010182D02*
X011662Y010182D01*
X011662Y010281D02*
X011662Y010281D01*
X011662Y010379D02*
X011662Y010379D01*
X011662Y009985D02*
X011662Y009985D01*
X011662Y009887D02*
X011662Y009887D01*
X011662Y009788D02*
X011662Y009788D01*
X011662Y009690D02*
X011662Y009690D01*
X011700Y009591D02*
X011034Y009591D01*
X011034Y009493D02*
X011700Y009493D01*
X010978Y008951D02*
X010562Y008535D01*
X010562Y008186D01*
X010562Y007359D02*
X010240Y007359D01*
X010158Y007441D01*
X010562Y007359D02*
X010562Y005772D01*
X010009Y005257D02*
X008568Y005257D01*
X008565Y005159D02*
X010034Y005159D01*
X010075Y005060D02*
X007556Y005060D01*
X007585Y004962D02*
X010148Y004962D01*
X008693Y005947D02*
X008568Y005947D01*
X008568Y006045D02*
X008695Y006045D01*
X008695Y006144D02*
X008568Y006144D01*
X008568Y006242D02*
X008695Y006242D01*
X008687Y006341D02*
X008568Y006341D01*
X008568Y006439D02*
X008589Y006439D01*
X008392Y006636D02*
X007945Y006636D01*
X007846Y006735D02*
X008293Y006735D01*
X008195Y006833D02*
X007515Y006833D01*
X007452Y006932D02*
X008139Y006932D01*
X008139Y007030D02*
X007325Y007030D01*
X007692Y006662D02*
X006842Y006662D01*
X006359Y007030D02*
X004765Y007030D01*
X004892Y006932D02*
X006232Y006932D01*
X006169Y006833D02*
X004955Y006833D01*
X004992Y006735D02*
X006132Y006735D01*
X006132Y006636D02*
X004992Y006636D01*
X004974Y006538D02*
X006150Y006538D01*
X006191Y006439D02*
X004933Y006439D01*
X004840Y006341D02*
X006284Y006341D01*
X006293Y005257D02*
X004831Y005257D01*
X004937Y005159D02*
X006187Y005159D01*
X006128Y005060D02*
X004996Y005060D01*
X005025Y004962D02*
X006099Y004962D01*
X006107Y004765D02*
X005017Y004765D01*
X004977Y004666D02*
X006147Y004666D01*
X006220Y004568D02*
X004904Y004568D01*
X007464Y004568D02*
X022354Y004568D01*
X022354Y004666D02*
X007537Y004666D01*
X007577Y004765D02*
X014381Y004765D01*
X014512Y004765D02*
X014612Y004765D01*
X014612Y004863D02*
X014512Y004863D01*
X014512Y004962D02*
X014612Y004962D01*
X014612Y005060D02*
X014512Y005060D01*
X014512Y005159D02*
X014612Y005159D01*
X014612Y005257D02*
X014512Y005257D01*
X014512Y005356D02*
X014612Y005356D01*
X014612Y005454D02*
X014512Y005454D01*
X014512Y005553D02*
X014612Y005553D01*
X014562Y005772D02*
X013525Y004616D01*
X012118Y004616D01*
X011628Y005210D01*
X012562Y005772D02*
X012562Y007359D01*
X012802Y007359D01*
X013045Y007602D01*
X013045Y009060D01*
X012565Y008963D02*
X012565Y008188D01*
X012562Y008186D01*
X012372Y006735D02*
X012089Y006735D01*
X012049Y006636D02*
X012201Y006636D01*
X013115Y005651D02*
X013969Y005651D01*
X013969Y005553D02*
X013115Y005553D01*
X013115Y005454D02*
X013969Y005454D01*
X013969Y005356D02*
X013115Y005356D01*
X013115Y005257D02*
X013973Y005257D01*
X013994Y005159D02*
X013090Y005159D01*
X013049Y005060D02*
X014034Y005060D01*
X014096Y004962D02*
X012976Y004962D01*
X012878Y004863D02*
X014195Y004863D01*
X014743Y004765D02*
X020881Y004765D01*
X020923Y004751D02*
X020834Y004780D01*
X020751Y004822D01*
X020676Y004877D01*
X020610Y004943D01*
X020555Y005019D01*
X020513Y005102D01*
X020484Y005191D01*
X020469Y005283D01*
X020469Y005722D01*
X021012Y005722D01*
X021112Y005722D01*
X021112Y004737D01*
X021201Y004751D01*
X021290Y004780D01*
X021373Y004822D01*
X021448Y004877D01*
X021514Y004943D01*
X021569Y005019D01*
X021611Y005102D01*
X021640Y005191D01*
X021655Y005283D01*
X021655Y005722D01*
X021112Y005722D01*
X021112Y005822D01*
X021655Y005822D01*
X021655Y006262D01*
X021640Y006354D01*
X021611Y006443D01*
X021569Y006526D01*
X021514Y006601D01*
X021448Y006667D01*
X021373Y006722D01*
X021290Y006765D01*
X021201Y006794D01*
X021112Y006808D01*
X021112Y005822D01*
X021012Y005822D01*
X021012Y005722D01*
X021012Y004737D01*
X020923Y004751D01*
X021012Y004765D02*
X021112Y004765D01*
X021112Y004863D02*
X021012Y004863D01*
X021012Y004962D02*
X021112Y004962D01*
X021112Y005060D02*
X021012Y005060D01*
X021012Y005159D02*
X021112Y005159D01*
X021112Y005257D02*
X021012Y005257D01*
X021012Y005356D02*
X021112Y005356D01*
X021112Y005454D02*
X021012Y005454D01*
X021012Y005553D02*
X021112Y005553D01*
X021112Y005651D02*
X021012Y005651D01*
X021012Y005750D02*
X019615Y005750D01*
X019615Y005848D02*
X020469Y005848D01*
X020469Y005822D02*
X021012Y005822D01*
X021012Y006808D01*
X020923Y006794D01*
X020834Y006765D01*
X020751Y006722D01*
X020676Y006667D01*
X020610Y006601D01*
X020555Y006526D01*
X020513Y006443D01*
X020484Y006354D01*
X020469Y006262D01*
X020469Y005822D01*
X020469Y005947D02*
X019615Y005947D01*
X019615Y006045D02*
X020469Y006045D01*
X020469Y006144D02*
X019615Y006144D01*
X019615Y006242D02*
X020469Y006242D01*
X020482Y006341D02*
X019608Y006341D01*
X019568Y006439D02*
X020511Y006439D01*
X020564Y006538D02*
X019521Y006538D01*
X019423Y006636D02*
X020645Y006636D01*
X020776Y006735D02*
X019252Y006735D01*
X019222Y006833D02*
X022354Y006833D01*
X022354Y006735D02*
X021348Y006735D01*
X021479Y006636D02*
X022354Y006636D01*
X022354Y006538D02*
X021561Y006538D01*
X021613Y006439D02*
X022354Y006439D01*
X022354Y006341D02*
X021642Y006341D01*
X021655Y006242D02*
X022354Y006242D01*
X022354Y006144D02*
X021655Y006144D01*
X021655Y006045D02*
X022354Y006045D01*
X022354Y005947D02*
X021655Y005947D01*
X021655Y005848D02*
X022354Y005848D01*
X022354Y005750D02*
X021112Y005750D01*
X021112Y005848D02*
X021012Y005848D01*
X021012Y005947D02*
X021112Y005947D01*
X021112Y006045D02*
X021012Y006045D01*
X021012Y006144D02*
X021112Y006144D01*
X021112Y006242D02*
X021012Y006242D01*
X021012Y006341D02*
X021112Y006341D01*
X021112Y006439D02*
X021012Y006439D01*
X021012Y006538D02*
X021112Y006538D01*
X021112Y006636D02*
X021012Y006636D01*
X021012Y006735D02*
X021112Y006735D01*
X021069Y007917D02*
X019408Y007917D01*
X019408Y008015D02*
X020999Y008015D01*
X020973Y008114D02*
X019408Y008114D01*
X019408Y008212D02*
X020981Y008212D01*
X021025Y008311D02*
X019408Y008311D01*
X019408Y008409D02*
X021154Y008409D01*
X021418Y008508D02*
X019368Y008508D01*
X019222Y008606D02*
X021516Y008606D01*
X021615Y008705D02*
X019222Y008705D01*
X019303Y008803D02*
X021713Y008803D01*
X021812Y008902D02*
X019349Y008902D01*
X019357Y009000D02*
X021910Y009000D01*
X022009Y009099D02*
X021752Y009099D01*
X021743Y009090D02*
X021808Y009154D01*
X021808Y009718D01*
X021743Y009782D01*
X021180Y009782D01*
X021115Y009718D01*
X021115Y009600D01*
X020403Y009608D01*
X020403Y009833D01*
X020339Y009898D01*
X019618Y009898D01*
X019553Y009833D01*
X019553Y009230D01*
X019618Y009166D01*
X020339Y009166D01*
X020403Y009230D01*
X020403Y009288D01*
X021115Y009280D01*
X021115Y009154D01*
X021180Y009090D01*
X021743Y009090D01*
X021808Y009197D02*
X022036Y009197D01*
X022036Y009296D02*
X021808Y009296D01*
X021808Y009394D02*
X022036Y009394D01*
X022036Y009493D02*
X021808Y009493D01*
X021808Y009591D02*
X022036Y009591D01*
X022036Y009690D02*
X021808Y009690D01*
X021756Y009887D02*
X022036Y009887D01*
X022036Y009985D02*
X021842Y009985D01*
X021838Y009969D02*
X021848Y010007D01*
X021848Y010213D01*
X021512Y010213D01*
X021512Y010313D01*
X021848Y010313D01*
X021848Y010519D01*
X021838Y010557D01*
X021818Y010591D01*
X021790Y010619D01*
X021756Y010639D01*
X021718Y010649D01*
X021512Y010649D01*
X021512Y010313D01*
X021412Y010313D01*
X021412Y010649D01*
X021206Y010649D01*
X021167Y010639D01*
X021133Y010619D01*
X021105Y010591D01*
X021086Y010557D01*
X021075Y010519D01*
X021075Y010313D01*
X021412Y010313D01*
X021412Y010213D01*
X021512Y010213D01*
X021512Y009877D01*
X021718Y009877D01*
X021756Y009887D01*
X021790Y009907D01*
X021818Y009935D01*
X021838Y009969D01*
X021848Y010084D02*
X022036Y010084D01*
X022036Y010182D02*
X021848Y010182D01*
X021848Y010379D02*
X022036Y010379D01*
X022036Y010281D02*
X021512Y010281D01*
X021462Y010263D02*
X021552Y010559D01*
X021552Y012205D01*
X021552Y012697D01*
X021545Y012703D01*
X019720Y012703D01*
X018529Y011622D01*
X018529Y014742D01*
X018789Y015001D01*
X019117Y015501D02*
X018086Y015501D01*
X018086Y015403D02*
X019262Y015403D01*
X019440Y015403D02*
X019552Y015403D01*
X019609Y015304D02*
X018086Y015304D01*
X018086Y015206D02*
X019575Y015206D01*
X019575Y015107D02*
X018086Y015107D01*
X018086Y015009D02*
X019575Y015009D01*
X019575Y014910D02*
X018086Y014910D01*
X018086Y014812D02*
X019575Y014812D01*
X019575Y014713D02*
X018086Y014713D01*
X018086Y014615D02*
X019613Y014615D01*
X019639Y014573D02*
X019575Y014509D01*
X019575Y013906D01*
X019639Y013841D01*
X020360Y013841D01*
X020424Y013906D01*
X020424Y014123D01*
X021194Y014123D01*
X021194Y014001D01*
X021258Y013936D01*
X021822Y013936D01*
X021886Y014001D01*
X021886Y014564D01*
X021822Y014629D01*
X021258Y014629D01*
X021194Y014564D01*
X021194Y014443D01*
X020427Y014443D01*
X020424Y014444D01*
X020424Y014509D01*
X020360Y014573D01*
X019639Y014573D01*
X019582Y014516D02*
X018086Y014516D01*
X018086Y014418D02*
X019575Y014418D01*
X019575Y014319D02*
X018086Y014319D01*
X018086Y014221D02*
X019575Y014221D01*
X019575Y014122D02*
X018086Y014122D01*
X018086Y014024D02*
X019575Y014024D01*
X019575Y013925D02*
X018086Y013925D01*
X018086Y013827D02*
X022036Y013827D01*
X022036Y013925D02*
X020424Y013925D01*
X020424Y014024D02*
X021194Y014024D01*
X021194Y014122D02*
X020424Y014122D01*
X020379Y014283D02*
X021540Y014283D01*
X021886Y014319D02*
X022036Y014319D01*
X022036Y014221D02*
X021886Y014221D01*
X021886Y014122D02*
X022036Y014122D01*
X022036Y014024D02*
X021886Y014024D01*
X022036Y013728D02*
X018086Y013728D01*
X018086Y013630D02*
X022036Y013630D01*
X021994Y013662D02*
X021545Y012703D01*
X021502Y012645D02*
X021602Y012645D01*
X021602Y012546D02*
X021502Y012546D01*
X021502Y012448D02*
X021602Y012448D01*
X021602Y012349D02*
X021502Y012349D01*
X021602Y012251D02*
X022036Y012251D01*
X022036Y012349D02*
X021957Y012349D01*
X021957Y012448D02*
X022036Y012448D01*
X022036Y012546D02*
X021950Y012546D01*
X022036Y012645D02*
X021847Y012645D01*
X022036Y012743D02*
X020751Y012743D01*
X020747Y012742D02*
X020893Y012802D01*
X021005Y012914D01*
X021065Y013060D01*
X021065Y013217D01*
X021005Y013363D01*
X020893Y013475D01*
X020747Y013535D01*
X020589Y013535D01*
X020444Y013475D01*
X020332Y013363D01*
X020271Y013217D01*
X020271Y013060D01*
X020332Y012914D01*
X020444Y012802D01*
X020589Y012742D01*
X020747Y012742D01*
X020585Y012743D02*
X018086Y012743D01*
X018086Y012645D02*
X021256Y012645D01*
X020933Y012842D02*
X022036Y012842D01*
X022036Y012940D02*
X021016Y012940D01*
X021057Y013039D02*
X022036Y013039D01*
X022036Y013137D02*
X021065Y013137D01*
X021058Y013236D02*
X022036Y013236D01*
X022036Y013334D02*
X021017Y013334D01*
X020935Y013433D02*
X022036Y013433D01*
X022036Y013531D02*
X020757Y013531D01*
X020580Y013531D02*
X018086Y013531D01*
X018086Y013433D02*
X020401Y013433D01*
X020320Y013334D02*
X018086Y013334D01*
X018086Y013236D02*
X020279Y013236D01*
X020271Y013137D02*
X018086Y013137D01*
X018086Y013039D02*
X020280Y013039D01*
X020321Y012940D02*
X018086Y012940D01*
X018086Y012842D02*
X020404Y012842D01*
X020438Y012349D02*
X018086Y012349D01*
X018086Y012251D02*
X020438Y012251D01*
X020438Y012152D02*
X018086Y012152D01*
X018086Y012054D02*
X020426Y012054D01*
X020328Y011955D02*
X018086Y011955D01*
X018086Y011857D02*
X020229Y011857D01*
X020131Y011758D02*
X018101Y011758D01*
X018199Y011660D02*
X020032Y011660D01*
X019934Y011561D02*
X018298Y011561D01*
X018396Y011463D02*
X019880Y011463D01*
X019880Y011364D02*
X018495Y011364D01*
X018593Y011266D02*
X019880Y011266D01*
X019880Y011167D02*
X018595Y011167D01*
X018435Y011198D02*
X017926Y011707D01*
X017926Y012460D01*
X017923Y012458D01*
X017334Y012458D01*
X017334Y011479D01*
X016756Y010901D01*
X014982Y010901D01*
X014866Y011017D01*
X014866Y011670D01*
X014754Y011782D01*
X013772Y011782D01*
X013772Y011972D02*
X014868Y011972D01*
X015387Y011453D01*
X015387Y011551D01*
X016109Y012273D01*
X016435Y012251D02*
X016928Y012251D01*
X016928Y012349D02*
X016435Y012349D01*
X016435Y012448D02*
X016928Y012448D01*
X016928Y012546D02*
X016435Y012546D01*
X016383Y012783D02*
X016418Y012803D01*
X016446Y012831D01*
X016465Y012865D01*
X016475Y012903D01*
X016475Y013129D01*
X016159Y013129D01*
X016159Y013229D01*
X016059Y013229D01*
X016059Y013129D01*
X015742Y013129D01*
X015742Y012903D01*
X015753Y012865D01*
X015772Y012831D01*
X015800Y012803D01*
X015835Y012783D01*
X015873Y012773D01*
X016059Y012773D01*
X016059Y013129D01*
X016159Y013129D01*
X016159Y012773D01*
X016345Y012773D01*
X016383Y012783D01*
X016452Y012842D02*
X016934Y012842D01*
X016928Y012743D02*
X014844Y012743D01*
X014844Y012645D02*
X015087Y012645D01*
X015092Y012649D02*
X015064Y012621D01*
X015044Y012587D01*
X015034Y012549D01*
X015034Y012323D01*
X015350Y012323D01*
X015350Y012223D01*
X015450Y012223D01*
X015450Y012323D01*
X015350Y012323D01*
X015350Y012679D01*
X015164Y012679D01*
X015126Y012669D01*
X015092Y012649D01*
X015034Y012546D02*
X014844Y012546D01*
X014844Y012448D02*
X015034Y012448D01*
X015034Y012349D02*
X014844Y012349D01*
X014844Y012251D02*
X015350Y012251D01*
X015400Y012273D02*
X016109Y013179D01*
X016121Y013191D01*
X016503Y013191D01*
X016625Y013068D01*
X016625Y011910D01*
X016169Y011453D01*
X016135Y011453D01*
X016181Y011420D01*
X016327Y011566D01*
X016185Y011561D02*
X016085Y011561D01*
X016085Y011660D02*
X016185Y011660D01*
X016185Y011758D02*
X016085Y011758D01*
X016085Y011857D02*
X016185Y011857D01*
X016419Y011955D02*
X017174Y011955D01*
X017174Y011857D02*
X016494Y011857D01*
X016541Y011758D02*
X017174Y011758D01*
X017174Y011660D02*
X016541Y011660D01*
X016541Y011561D02*
X017174Y011561D01*
X017091Y011463D02*
X016185Y011463D01*
X016541Y011364D02*
X016993Y011364D01*
X016894Y011266D02*
X016541Y011266D01*
X016541Y011167D02*
X016796Y011167D01*
X016697Y011069D02*
X016513Y011069D01*
X016761Y010351D02*
X016584Y010278D01*
X016449Y010143D01*
X016376Y009967D01*
X016376Y009776D01*
X016449Y009599D01*
X016584Y009464D01*
X016761Y009391D01*
X016952Y009391D01*
X017128Y009464D01*
X017263Y009599D01*
X017336Y009776D01*
X017336Y009967D01*
X017263Y010143D01*
X017128Y010278D01*
X016952Y010351D01*
X016761Y010351D01*
X016591Y010281D02*
X015982Y010281D01*
X016084Y010182D02*
X016489Y010182D01*
X016425Y010084D02*
X016148Y010084D01*
X016189Y009985D02*
X016384Y009985D01*
X016376Y009887D02*
X016196Y009887D01*
X016196Y009788D02*
X016376Y009788D01*
X016412Y009690D02*
X016161Y009690D01*
X016115Y009591D02*
X016457Y009591D01*
X016556Y009493D02*
X016017Y009493D01*
X015819Y009394D02*
X016753Y009394D01*
X016959Y009394D02*
X019553Y009394D01*
X019553Y009296D02*
X014165Y009296D01*
X014165Y009394D02*
X015613Y009394D01*
X015416Y009493D02*
X014165Y009493D01*
X014165Y009591D02*
X015317Y009591D01*
X015272Y009690D02*
X014165Y009690D01*
X014165Y009788D02*
X014352Y009788D01*
X014254Y009887D02*
X014165Y009887D01*
X014214Y010153D02*
X014465Y009902D01*
X015686Y009902D01*
X015716Y009871D01*
X015285Y010084D02*
X014510Y010084D01*
X014411Y010182D02*
X015349Y010182D01*
X015451Y010281D02*
X014374Y010281D01*
X014374Y010379D02*
X014700Y010379D01*
X014601Y010478D02*
X014374Y010478D01*
X014374Y010576D02*
X014503Y010576D01*
X014404Y010675D02*
X014374Y010675D01*
X014214Y010854D02*
X014214Y010153D01*
X014005Y010560D02*
X013772Y010792D01*
X013772Y010992D02*
X013781Y010995D01*
X014072Y010995D01*
X014214Y010854D01*
X014113Y011192D02*
X014771Y010534D01*
X018091Y010534D01*
X018106Y010549D01*
X018359Y010296D01*
X018359Y010009D01*
X018087Y009887D02*
X017336Y009887D01*
X017329Y009985D02*
X018061Y009985D01*
X018068Y010084D02*
X017288Y010084D01*
X017224Y010182D02*
X018111Y010182D01*
X018149Y010281D02*
X017122Y010281D01*
X017336Y009788D02*
X018158Y009788D01*
X018560Y009788D02*
X019553Y009788D01*
X019553Y009690D02*
X017301Y009690D01*
X017255Y009591D02*
X019553Y009591D01*
X019553Y009493D02*
X017157Y009493D01*
X017930Y008705D02*
X018902Y008705D01*
X018902Y008606D02*
X018029Y008606D01*
X018127Y008508D02*
X018756Y008508D01*
X018716Y008409D02*
X018171Y008409D01*
X018171Y008311D02*
X018716Y008311D01*
X018716Y008212D02*
X018171Y008212D01*
X018171Y008114D02*
X018716Y008114D01*
X018716Y008015D02*
X018171Y008015D01*
X018171Y007917D02*
X018716Y007917D01*
X018716Y007621D02*
X018343Y007621D01*
X018245Y007720D02*
X022354Y007720D01*
X022354Y007818D02*
X018171Y007818D01*
X018442Y007523D02*
X018716Y007523D01*
X019408Y007523D02*
X022354Y007523D01*
X022354Y007621D02*
X019408Y007621D01*
X019408Y007424D02*
X022354Y007424D01*
X022354Y007326D02*
X019408Y007326D01*
X019408Y007227D02*
X022354Y007227D01*
X022354Y007129D02*
X019408Y007129D01*
X019361Y007030D02*
X022354Y007030D01*
X022354Y006932D02*
X019222Y006932D01*
X019615Y005651D02*
X020469Y005651D01*
X020469Y005553D02*
X019615Y005553D01*
X019615Y005454D02*
X020469Y005454D01*
X020469Y005356D02*
X019615Y005356D01*
X019615Y005257D02*
X020473Y005257D01*
X020494Y005159D02*
X019590Y005159D01*
X019549Y005060D02*
X020534Y005060D01*
X020596Y004962D02*
X019476Y004962D01*
X019378Y004863D02*
X020695Y004863D01*
X021243Y004765D02*
X022354Y004765D01*
X022354Y004863D02*
X021429Y004863D01*
X021528Y004962D02*
X022354Y004962D01*
X022354Y005060D02*
X021590Y005060D01*
X021630Y005159D02*
X022354Y005159D01*
X022354Y005257D02*
X021651Y005257D01*
X021655Y005356D02*
X022354Y005356D01*
X022354Y005454D02*
X021655Y005454D01*
X021655Y005553D02*
X022354Y005553D01*
X022354Y005651D02*
X021655Y005651D01*
X021475Y007917D02*
X022354Y007917D01*
X022354Y008015D02*
X021544Y008015D01*
X021570Y008114D02*
X022354Y008114D01*
X022354Y008212D02*
X021575Y008212D01*
X021673Y008311D02*
X022354Y008311D01*
X022354Y008409D02*
X021772Y008409D01*
X021870Y008508D02*
X022354Y008508D01*
X022354Y008606D02*
X021969Y008606D01*
X022067Y008705D02*
X022354Y008705D01*
X022354Y008803D02*
X022166Y008803D01*
X022264Y008902D02*
X022354Y008902D01*
X022196Y009060D02*
X022196Y015337D01*
X021845Y015689D01*
X019351Y015689D01*
X019570Y015689D01*
X020000Y014955D01*
X020424Y014910D02*
X021154Y014910D01*
X021154Y015009D02*
X020424Y015009D01*
X020424Y015107D02*
X021490Y015107D01*
X021540Y015109D02*
X021994Y014724D01*
X021994Y013662D01*
X022036Y014418D02*
X021886Y014418D01*
X021886Y014516D02*
X022036Y014516D01*
X022036Y014615D02*
X021836Y014615D01*
X021914Y014812D02*
X022036Y014812D01*
X022036Y014910D02*
X021926Y014910D01*
X021926Y015009D02*
X022036Y015009D01*
X022036Y015107D02*
X021590Y015107D01*
X021590Y015009D02*
X021490Y015009D01*
X021490Y014910D02*
X021590Y014910D01*
X021590Y014812D02*
X021490Y014812D01*
X021244Y014615D02*
X020386Y014615D01*
X020417Y014516D02*
X021194Y014516D01*
X021166Y014812D02*
X020424Y014812D01*
X020424Y014713D02*
X022036Y014713D01*
X022036Y015206D02*
X021926Y015206D01*
X021926Y015304D02*
X022003Y015304D01*
X021806Y015501D02*
X019865Y015501D01*
X019923Y015403D02*
X021164Y015403D01*
X021154Y015304D02*
X020377Y015304D01*
X020424Y015206D02*
X021154Y015206D01*
X021490Y015206D02*
X021590Y015206D01*
X021590Y015304D02*
X021490Y015304D01*
X021490Y015403D02*
X021590Y015403D01*
X021963Y015797D02*
X022354Y015797D01*
X022354Y015895D02*
X019826Y015895D01*
X019780Y015849D02*
X020137Y016206D01*
X020137Y015975D01*
X020201Y015910D01*
X020923Y015910D01*
X020987Y015975D01*
X020987Y016866D01*
X022305Y018183D01*
X022354Y018233D01*
X022354Y015405D01*
X022005Y015755D01*
X021911Y015849D01*
X019780Y015849D01*
X019925Y015994D02*
X020137Y015994D01*
X020137Y016092D02*
X020023Y016092D01*
X020122Y016191D02*
X020137Y016191D01*
X019880Y016486D02*
X017824Y016486D01*
X017726Y016585D02*
X018996Y016585D01*
X018898Y016683D02*
X017647Y016683D01*
X017647Y016782D02*
X018799Y016782D01*
X018701Y016880D02*
X017647Y016880D01*
X017647Y016979D02*
X018602Y016979D01*
X018504Y017077D02*
X017647Y017077D01*
X017647Y017176D02*
X017967Y017176D01*
X017907Y017274D02*
X017647Y017274D01*
X017647Y017373D02*
X017823Y017373D01*
X017725Y017471D02*
X017647Y017471D01*
X017739Y017683D02*
X017905Y017517D01*
X018292Y017517D01*
X018312Y017537D01*
X018718Y017570D02*
X021154Y017570D01*
X021252Y017668D02*
X018718Y017668D01*
X018718Y017767D02*
X021351Y017767D01*
X021449Y017865D02*
X018691Y017865D01*
X018743Y017964D02*
X021548Y017964D01*
X021646Y018062D02*
X021002Y018062D01*
X020997Y018054D02*
X021017Y018088D01*
X021027Y018127D01*
X021027Y018785D01*
X020612Y018785D01*
X020612Y017996D01*
X020897Y017996D01*
X020935Y018007D01*
X020969Y018026D01*
X020997Y018054D01*
X021027Y018161D02*
X021745Y018161D01*
X021843Y018259D02*
X021027Y018259D01*
X021027Y018358D02*
X021942Y018358D01*
X022036Y018456D02*
X021027Y018456D01*
X021027Y018555D02*
X022036Y018555D01*
X022036Y018653D02*
X021027Y018653D01*
X021027Y018752D02*
X022036Y018752D01*
X022036Y018850D02*
X020612Y018850D01*
X020612Y018885D02*
X021027Y018885D01*
X021027Y019544D01*
X021017Y019582D01*
X020997Y019616D01*
X020969Y019644D01*
X020935Y019664D01*
X020897Y019674D01*
X020612Y019674D01*
X020612Y018885D01*
X020612Y018785D01*
X020512Y018785D01*
X020512Y017996D01*
X020227Y017996D01*
X020189Y018007D01*
X020155Y018026D01*
X020127Y018054D01*
X020107Y018088D01*
X020097Y018127D01*
X020097Y018785D01*
X020512Y018785D01*
X020512Y018885D01*
X020097Y018885D01*
X020097Y019544D01*
X020107Y019582D01*
X020127Y019616D01*
X020155Y019644D01*
X020189Y019664D01*
X020227Y019674D01*
X020512Y019674D01*
X020512Y018885D01*
X020612Y018885D01*
X020612Y018949D02*
X020512Y018949D01*
X020512Y019047D02*
X020612Y019047D01*
X020612Y019146D02*
X020512Y019146D01*
X020512Y019244D02*
X020612Y019244D01*
X020612Y019343D02*
X020512Y019343D01*
X020512Y019441D02*
X020612Y019441D01*
X020612Y019540D02*
X020512Y019540D01*
X020512Y019638D02*
X020612Y019638D01*
X020975Y019638D02*
X022036Y019638D01*
X022036Y019540D02*
X021027Y019540D01*
X021027Y019441D02*
X022036Y019441D01*
X022036Y019343D02*
X021027Y019343D01*
X021027Y019244D02*
X022036Y019244D01*
X022036Y019146D02*
X021027Y019146D01*
X021027Y019047D02*
X022036Y019047D01*
X022036Y018949D02*
X021027Y018949D01*
X020612Y018752D02*
X020512Y018752D01*
X020512Y018850D02*
X017899Y018850D01*
X017899Y018752D02*
X020097Y018752D01*
X020097Y018653D02*
X018708Y018653D01*
X018700Y018661D02*
X018666Y018681D01*
X018628Y018691D01*
X018362Y018691D01*
X018362Y018335D01*
X018758Y018335D01*
X018758Y018561D01*
X018748Y018599D01*
X018728Y018633D01*
X018700Y018661D01*
X018758Y018555D02*
X020097Y018555D01*
X020097Y018456D02*
X018758Y018456D01*
X018758Y018358D02*
X020097Y018358D01*
X020097Y018259D02*
X018362Y018259D01*
X018362Y018358D02*
X018262Y018358D01*
X018262Y018456D02*
X018362Y018456D01*
X018362Y018555D02*
X018262Y018555D01*
X018262Y018653D02*
X018362Y018653D01*
X017917Y018653D02*
X017899Y018653D01*
X017990Y018949D02*
X020097Y018949D01*
X020097Y019047D02*
X018088Y019047D01*
X018187Y019146D02*
X020097Y019146D01*
X020097Y019244D02*
X018285Y019244D01*
X018384Y019343D02*
X020097Y019343D01*
X020097Y019441D02*
X018482Y019441D01*
X018534Y019540D02*
X020097Y019540D01*
X020149Y019638D02*
X018534Y019638D01*
X018601Y019737D02*
X022036Y019737D01*
X022036Y019835D02*
X018657Y019835D01*
X018672Y019934D02*
X022036Y019934D01*
X022036Y020032D02*
X018655Y020032D01*
X018596Y020131D02*
X022036Y020131D01*
X022036Y020229D02*
X021627Y020229D01*
X021822Y020328D02*
X022036Y020328D01*
X022036Y020426D02*
X021920Y020426D01*
X021982Y020525D02*
X022036Y020525D01*
X022036Y020623D02*
X022019Y020623D01*
X022020Y020919D02*
X022036Y020919D01*
X022036Y021017D02*
X021983Y021017D01*
X022036Y021116D02*
X021922Y021116D01*
X021825Y021214D02*
X022036Y021214D01*
X022036Y021313D02*
X021635Y021313D01*
X022036Y021411D02*
X017908Y021411D01*
X017908Y021313D02*
X020489Y021313D01*
X020517Y021322D02*
X020432Y021294D01*
X020353Y021254D01*
X020282Y021202D01*
X020219Y021139D01*
X020167Y021068D01*
X020127Y020989D01*
X020099Y020904D01*
X020086Y020822D01*
X021012Y020822D01*
X021012Y021336D01*
X020604Y021336D01*
X020517Y021322D01*
X020299Y021214D02*
X017908Y021214D01*
X017908Y021116D02*
X020202Y021116D01*
X020141Y021017D02*
X017908Y021017D01*
X017908Y020919D02*
X020104Y020919D01*
X020086Y020722D02*
X020099Y020640D01*
X020127Y020556D01*
X020167Y020477D01*
X020219Y020405D01*
X020282Y020343D01*
X020353Y020290D01*
X020432Y020250D01*
X020517Y020223D01*
X020604Y020209D01*
X021012Y020209D01*
X021012Y020722D01*
X021112Y020722D01*
X021062Y020772D02*
X017984Y023850D01*
X014028Y023850D01*
X013562Y023384D01*
X013562Y022772D01*
X012526Y023809D01*
X007764Y023809D01*
X007062Y023107D01*
X007062Y022772D01*
X006261Y022772D01*
X005391Y023643D01*
X003514Y023643D01*
X002921Y023050D01*
X002921Y019914D01*
X004062Y018772D01*
X004012Y018752D02*
X002762Y018752D01*
X002762Y018850D02*
X003031Y018850D01*
X003027Y018822D02*
X004012Y018822D01*
X004012Y018722D01*
X004112Y018722D01*
X004112Y018179D01*
X004552Y018179D01*
X004644Y018194D01*
X004733Y018223D01*
X004816Y018265D01*
X004891Y018320D01*
X004957Y018386D01*
X005012Y018462D01*
X005054Y018545D01*
X005083Y018633D01*
X005097Y018722D01*
X004112Y018722D01*
X004112Y018822D01*
X005097Y018822D01*
X005083Y018911D01*
X005054Y019000D01*
X005012Y019083D01*
X004957Y019159D01*
X004891Y019225D01*
X004816Y019279D01*
X004733Y019322D01*
X004644Y019351D01*
X004552Y019365D01*
X004112Y019365D01*
X004112Y018822D01*
X004012Y018822D01*
X004012Y019365D01*
X003572Y019365D01*
X003480Y019351D01*
X003391Y019322D01*
X003308Y019279D01*
X003233Y019225D01*
X003167Y019159D01*
X003112Y019083D01*
X003070Y019000D01*
X003041Y018911D01*
X003027Y018822D01*
X003027Y018722D02*
X003041Y018633D01*
X003070Y018545D01*
X003112Y018462D01*
X003167Y018386D01*
X003233Y018320D01*
X003308Y018265D01*
X003391Y018223D01*
X003480Y018194D01*
X003572Y018179D01*
X004012Y018179D01*
X004012Y018722D01*
X003027Y018722D01*
X003038Y018653D02*
X002762Y018653D01*
X002762Y018555D02*
X003066Y018555D01*
X003116Y018456D02*
X002762Y018456D01*
X002762Y018358D02*
X003195Y018358D01*
X003320Y018259D02*
X002762Y018259D01*
X002762Y018161D02*
X005489Y018161D01*
X005489Y018259D02*
X004804Y018259D01*
X004929Y018358D02*
X005489Y018358D01*
X005489Y018456D02*
X005008Y018456D01*
X005058Y018555D02*
X005489Y018555D01*
X005489Y018653D02*
X005086Y018653D01*
X005093Y018850D02*
X005489Y018850D01*
X005489Y018752D02*
X004112Y018752D01*
X004112Y018850D02*
X004012Y018850D01*
X004012Y018949D02*
X004112Y018949D01*
X004112Y019047D02*
X004012Y019047D01*
X004012Y019146D02*
X004112Y019146D01*
X004112Y019244D02*
X004012Y019244D01*
X004012Y019343D02*
X004112Y019343D01*
X004668Y019343D02*
X005489Y019343D01*
X005489Y019244D02*
X004864Y019244D01*
X004966Y019146D02*
X005489Y019146D01*
X005489Y019047D02*
X005030Y019047D01*
X005071Y018949D02*
X005489Y018949D01*
X005809Y018949D02*
X007292Y018949D01*
X007292Y019047D02*
X005809Y019047D01*
X005809Y019146D02*
X007292Y019146D01*
X007292Y019244D02*
X005809Y019244D01*
X005809Y019343D02*
X007292Y019343D01*
X007292Y019441D02*
X006772Y019441D01*
X006822Y019540D02*
X006847Y019540D01*
X007034Y019774D02*
X006618Y019772D01*
X006475Y019772D01*
X006129Y019737D02*
X005995Y019737D01*
X005995Y019835D02*
X006129Y019835D01*
X006129Y019934D02*
X005995Y019934D01*
X005995Y020032D02*
X006129Y020032D01*
X006129Y019638D02*
X005995Y019638D01*
X005995Y019540D02*
X006129Y019540D01*
X006178Y019441D02*
X005946Y019441D01*
X005352Y019441D02*
X002762Y019441D01*
X002762Y019343D02*
X003456Y019343D01*
X003260Y019244D02*
X002762Y019244D01*
X002762Y019146D02*
X003158Y019146D01*
X003094Y019047D02*
X002762Y019047D01*
X002762Y018949D02*
X003053Y018949D01*
X002762Y019540D02*
X005302Y019540D01*
X005302Y019638D02*
X002762Y019638D01*
X002762Y019737D02*
X005302Y019737D01*
X005302Y019835D02*
X002762Y019835D01*
X002762Y019934D02*
X005302Y019934D01*
X005302Y020032D02*
X002762Y020032D01*
X002762Y020328D02*
X003282Y020328D01*
X003183Y020426D02*
X002762Y020426D01*
X002762Y020525D02*
X003123Y020525D01*
X003082Y020623D02*
X002762Y020623D01*
X002762Y020722D02*
X003066Y020722D01*
X003066Y020820D02*
X002762Y020820D01*
X002762Y020919D02*
X003081Y020919D01*
X003122Y021017D02*
X002762Y021017D01*
X002762Y021116D02*
X003181Y021116D01*
X003279Y021214D02*
X002762Y021214D01*
X002762Y021313D02*
X003479Y021313D01*
X002762Y021411D02*
X005302Y021411D01*
X005302Y021313D02*
X004645Y021313D01*
X004845Y021214D02*
X005302Y021214D01*
X005302Y021116D02*
X004943Y021116D01*
X005002Y021017D02*
X005302Y021017D01*
X005240Y020919D02*
X005776Y020919D01*
X005874Y020820D02*
X005339Y020820D01*
X005649Y021272D02*
X006682Y020239D01*
X006721Y020426D02*
X009082Y020426D01*
X009082Y020328D02*
X007217Y020328D01*
X007315Y020229D02*
X009089Y020229D01*
X009130Y020131D02*
X007414Y020131D01*
X007512Y020032D02*
X009193Y020032D01*
X009294Y019934D02*
X007611Y019934D01*
X007612Y019835D02*
X009898Y019835D01*
X009898Y019737D02*
X007612Y019737D01*
X007612Y019638D02*
X009360Y019638D01*
X009221Y019540D02*
X007612Y019540D01*
X007612Y019441D02*
X009141Y019441D01*
X009101Y019343D02*
X007612Y019343D01*
X007612Y019244D02*
X009082Y019244D01*
X009082Y019146D02*
X007612Y019146D01*
X007612Y019047D02*
X009107Y019047D01*
X009147Y018949D02*
X007612Y018949D01*
X007612Y018850D02*
X009235Y018850D01*
X009395Y018752D02*
X007612Y018752D01*
X007612Y018653D02*
X009885Y018653D01*
X009983Y018555D02*
X007612Y018555D01*
X007612Y018456D02*
X010082Y018456D01*
X010180Y018358D02*
X007612Y018358D01*
X007612Y018259D02*
X010279Y018259D01*
X010377Y018161D02*
X007612Y018161D01*
X007612Y018062D02*
X010476Y018062D01*
X010574Y017964D02*
X007612Y017964D01*
X007612Y017865D02*
X013095Y017865D01*
X013158Y017767D02*
X007612Y017767D01*
X007612Y017668D02*
X014127Y017668D01*
X014127Y017570D02*
X013785Y017570D01*
X013788Y017567D02*
X013723Y017631D01*
X013160Y017631D01*
X013095Y017567D01*
X013095Y017003D01*
X013160Y016939D01*
X013282Y016939D01*
X013282Y016907D01*
X013209Y016834D01*
X013163Y016725D01*
X013163Y016606D01*
X013209Y016497D01*
X013293Y016413D01*
X013402Y016367D01*
X013521Y016367D01*
X013630Y016413D01*
X013714Y016497D01*
X013760Y016606D01*
X013760Y016725D01*
X013714Y016834D01*
X013630Y016918D01*
X013602Y016930D01*
X013602Y016939D01*
X013723Y016939D01*
X013788Y017003D01*
X013788Y017567D01*
X013788Y017471D02*
X014127Y017471D01*
X014127Y017373D02*
X013788Y017373D01*
X013788Y017274D02*
X014127Y017274D01*
X014127Y017176D02*
X013788Y017176D01*
X013788Y017077D02*
X014127Y017077D01*
X014127Y016979D02*
X013763Y016979D01*
X013668Y016880D02*
X014127Y016880D01*
X014127Y016782D02*
X013736Y016782D01*
X013760Y016683D02*
X014127Y016683D01*
X014127Y016585D02*
X013751Y016585D01*
X013704Y016486D02*
X014127Y016486D01*
X014127Y016388D02*
X013570Y016388D01*
X013353Y016388D02*
X012710Y016388D01*
X012710Y016486D02*
X013219Y016486D01*
X013172Y016585D02*
X012710Y016585D01*
X012710Y016782D02*
X013187Y016782D01*
X013163Y016683D02*
X012315Y016683D01*
X012265Y016660D02*
X010816Y016660D01*
X010797Y016642D01*
X010799Y016644D01*
X010799Y017462D01*
X010316Y017945D01*
X009792Y017945D01*
X008771Y018966D01*
X008771Y020925D01*
X007062Y022634D01*
X007062Y022772D01*
X007012Y022790D02*
X005058Y022790D01*
X005055Y022889D02*
X006469Y022889D01*
X006469Y022822D02*
X007012Y022822D01*
X007012Y022722D01*
X007112Y022722D01*
X007112Y021737D01*
X007201Y021751D01*
X007290Y021780D01*
X007373Y021822D01*
X007448Y021877D01*
X007514Y021943D01*
X007569Y022019D01*
X007611Y022102D01*
X007640Y022191D01*
X007655Y022283D01*
X007655Y022722D01*
X007112Y022722D01*
X007112Y022822D01*
X007655Y022822D01*
X007655Y023262D01*
X007640Y023354D01*
X007611Y023443D01*
X007569Y023526D01*
X007514Y023601D01*
X007448Y023667D01*
X007373Y023722D01*
X007290Y023765D01*
X007201Y023794D01*
X007112Y023808D01*
X007112Y022822D01*
X007012Y022822D01*
X007012Y023808D01*
X006923Y023794D01*
X006834Y023765D01*
X006751Y023722D01*
X006676Y023667D01*
X006610Y023601D01*
X006555Y023526D01*
X006513Y023443D01*
X006484Y023354D01*
X006469Y023262D01*
X006469Y022822D01*
X006469Y022722D02*
X006469Y022283D01*
X006484Y022191D01*
X006513Y022102D01*
X006555Y022019D01*
X006610Y021943D01*
X006676Y021877D01*
X006751Y021822D01*
X006834Y021780D01*
X006923Y021751D01*
X007012Y021737D01*
X007012Y022722D01*
X006469Y022722D01*
X006469Y022692D02*
X005090Y022692D01*
X005188Y022593D02*
X006469Y022593D01*
X006469Y022495D02*
X005287Y022495D01*
X005385Y022396D02*
X006469Y022396D01*
X006469Y022298D02*
X005484Y022298D01*
X005582Y022199D02*
X006482Y022199D01*
X006513Y022101D02*
X005681Y022101D01*
X005779Y022002D02*
X006567Y022002D01*
X006649Y021904D02*
X005795Y021904D01*
X005795Y021805D02*
X006784Y021805D01*
X006767Y021608D02*
X009402Y021608D01*
X009402Y021510D02*
X006822Y021510D01*
X006895Y021411D02*
X009402Y021411D01*
X009402Y021313D02*
X007033Y021313D01*
X007179Y021214D02*
X007237Y021214D01*
X007403Y021214D02*
X009402Y021214D01*
X009402Y021116D02*
X007552Y021116D01*
X007605Y021017D02*
X009402Y021017D01*
X009402Y020919D02*
X007618Y020919D01*
X007599Y020820D02*
X009402Y020820D01*
X009263Y020722D02*
X007537Y020722D01*
X007320Y020926D02*
X006808Y021272D01*
X006475Y021272D01*
X006129Y021313D02*
X005995Y021313D01*
X005995Y021411D02*
X006129Y021411D01*
X006129Y021510D02*
X005995Y021510D01*
X005941Y021608D02*
X006183Y021608D01*
X006129Y021214D02*
X005995Y021214D01*
X006031Y021116D02*
X006129Y021116D01*
X006228Y020919D02*
X007022Y020919D01*
X007041Y020820D02*
X006327Y020820D01*
X006425Y020722D02*
X007102Y020722D01*
X006899Y021017D02*
X006822Y021017D01*
X006524Y020623D02*
X009164Y020623D01*
X009118Y020525D02*
X006622Y020525D01*
X007222Y019540D02*
X007292Y019540D01*
X007292Y018850D02*
X005809Y018850D01*
X005809Y018752D02*
X007292Y018752D01*
X007292Y018653D02*
X005809Y018653D01*
X005809Y018555D02*
X007292Y018555D01*
X007292Y018456D02*
X005809Y018456D01*
X005809Y018358D02*
X007292Y018358D01*
X007292Y018259D02*
X005809Y018259D01*
X005809Y018161D02*
X007292Y018161D01*
X007292Y018062D02*
X005825Y018062D01*
X005923Y017964D02*
X007292Y017964D01*
X007292Y017865D02*
X006022Y017865D01*
X006120Y017767D02*
X007292Y017767D01*
X007292Y017668D02*
X006219Y017668D01*
X006317Y017570D02*
X007292Y017570D01*
X007292Y017471D02*
X006416Y017471D01*
X006514Y017373D02*
X007292Y017373D01*
X007292Y017274D02*
X006613Y017274D01*
X006711Y017176D02*
X007292Y017176D01*
X007292Y017077D02*
X006810Y017077D01*
X006908Y016979D02*
X007292Y016979D01*
X007292Y016880D02*
X007007Y016880D01*
X007105Y016782D02*
X007292Y016782D01*
X007292Y016683D02*
X007204Y016683D01*
X006948Y016486D02*
X006822Y016486D01*
X006822Y016388D02*
X007047Y016388D01*
X007101Y016289D02*
X006822Y016289D01*
X006822Y016191D02*
X007101Y016191D01*
X007101Y016092D02*
X006822Y016092D01*
X006822Y015994D02*
X007101Y015994D01*
X007101Y015895D02*
X006687Y015895D01*
X006475Y015891D02*
X006475Y016272D01*
X006129Y016289D02*
X005995Y016289D01*
X005995Y016191D02*
X006129Y016191D01*
X006129Y016092D02*
X005995Y016092D01*
X005995Y015994D02*
X006129Y015994D01*
X005995Y015991D02*
X005995Y016554D01*
X005930Y016619D01*
X005367Y016619D01*
X005302Y016554D01*
X005302Y016432D01*
X005037Y016432D01*
X004974Y016586D01*
X004818Y016741D01*
X004615Y016825D01*
X003509Y016825D01*
X003306Y016741D01*
X003150Y016586D01*
X003066Y016382D01*
X003066Y016162D01*
X003150Y015959D01*
X003306Y015804D01*
X003509Y015719D01*
X004615Y015719D01*
X004818Y015804D01*
X004974Y015959D01*
X005037Y016112D01*
X005302Y016112D01*
X005302Y015991D01*
X005367Y015926D01*
X005930Y015926D01*
X005995Y015991D01*
X006315Y015895D02*
X004910Y015895D01*
X004988Y015994D02*
X005302Y015994D01*
X005302Y016092D02*
X005029Y016092D01*
X004802Y015797D02*
X006343Y015797D01*
X006433Y015698D02*
X002762Y015698D01*
X002762Y015600D02*
X006488Y015600D01*
X006488Y015501D02*
X002762Y015501D01*
X002762Y015403D02*
X006523Y015403D01*
X006605Y015304D02*
X002762Y015304D01*
X002762Y015206D02*
X003232Y015206D01*
X003123Y015107D02*
X002762Y015107D01*
X002762Y015009D02*
X003012Y015009D01*
X002902Y014910D02*
X002762Y014910D01*
X002762Y014812D02*
X002791Y014812D01*
X002762Y015797D02*
X003322Y015797D01*
X003214Y015895D02*
X002762Y015895D01*
X002762Y015994D02*
X003136Y015994D01*
X003095Y016092D02*
X002762Y016092D01*
X002762Y016191D02*
X003066Y016191D01*
X003066Y016289D02*
X002762Y016289D01*
X002762Y016388D02*
X003068Y016388D01*
X003109Y016486D02*
X002762Y016486D01*
X002762Y016585D02*
X003150Y016585D01*
X003248Y016683D02*
X002762Y016683D01*
X002762Y016782D02*
X003404Y016782D01*
X002762Y016880D02*
X006554Y016880D01*
X006456Y016979D02*
X002762Y016979D01*
X002762Y017077D02*
X006357Y017077D01*
X006259Y017176D02*
X002762Y017176D01*
X002762Y017274D02*
X006160Y017274D01*
X006062Y017373D02*
X002762Y017373D01*
X002762Y017471D02*
X005963Y017471D01*
X005865Y017570D02*
X002762Y017570D01*
X002762Y017668D02*
X005766Y017668D01*
X005668Y017767D02*
X002762Y017767D01*
X002762Y017865D02*
X005569Y017865D01*
X005489Y017964D02*
X002762Y017964D01*
X002762Y018062D02*
X005489Y018062D01*
X004112Y018259D02*
X004012Y018259D01*
X004012Y018358D02*
X004112Y018358D01*
X004112Y018456D02*
X004012Y018456D01*
X004012Y018555D02*
X004112Y018555D01*
X004112Y018653D02*
X004012Y018653D01*
X004720Y016782D02*
X006653Y016782D01*
X006751Y016683D02*
X004876Y016683D01*
X004974Y016585D02*
X005333Y016585D01*
X005302Y016486D02*
X005015Y016486D01*
X005649Y016272D02*
X004062Y016272D01*
X004944Y014615D02*
X005363Y014615D01*
X005302Y014516D02*
X005002Y014516D01*
X005934Y014615D02*
X006190Y014615D01*
X006129Y014516D02*
X005995Y014516D01*
X005995Y014418D02*
X006129Y014418D01*
X006129Y014319D02*
X005995Y014319D01*
X005995Y014221D02*
X006129Y014221D01*
X006129Y014122D02*
X006025Y014122D01*
X006123Y014024D02*
X006129Y014024D01*
X006222Y013925D02*
X014434Y013925D01*
X014434Y013827D02*
X014172Y013827D01*
X014172Y013728D02*
X014434Y013728D01*
X014434Y013630D02*
X014172Y013630D01*
X014172Y013531D02*
X014415Y013531D01*
X014317Y013433D02*
X014172Y013433D01*
X014172Y013334D02*
X014218Y013334D01*
X014260Y013150D02*
X014260Y012889D01*
X014137Y012766D01*
X013776Y012766D01*
X013772Y012762D01*
X013772Y012372D02*
X014212Y012372D01*
X014212Y012447D01*
X014202Y012485D01*
X014182Y012519D01*
X014172Y012529D01*
X014172Y012606D01*
X014204Y012606D01*
X014297Y012700D01*
X014420Y012822D01*
X014420Y013083D01*
X014754Y013418D01*
X014754Y014381D01*
X015028Y014654D01*
X016088Y014654D01*
X016182Y014748D01*
X017063Y015629D01*
X017063Y015698D02*
X017766Y015698D01*
X017766Y015797D02*
X017063Y015797D01*
X017063Y015895D02*
X017766Y015895D01*
X017669Y015994D02*
X017063Y015994D01*
X017063Y016092D02*
X017622Y016092D01*
X017614Y016191D02*
X017063Y016191D01*
X017063Y016289D02*
X017569Y016289D01*
X017470Y016388D02*
X017063Y016388D01*
X017063Y016486D02*
X017372Y016486D01*
X017327Y016585D02*
X017063Y016585D01*
X017063Y016683D02*
X017327Y016683D01*
X017327Y016782D02*
X017063Y016782D01*
X017063Y016880D02*
X017327Y016880D01*
X017327Y016979D02*
X017063Y016979D01*
X017063Y017077D02*
X017327Y017077D01*
X017327Y017176D02*
X017063Y017176D01*
X017063Y017274D02*
X017327Y017274D01*
X017327Y017373D02*
X017063Y017373D01*
X017063Y017471D02*
X017327Y017471D01*
X017327Y017570D02*
X017063Y017570D01*
X017063Y017668D02*
X017327Y017668D01*
X017327Y017767D02*
X017063Y017767D01*
X017063Y017865D02*
X017327Y017865D01*
X017327Y017964D02*
X017063Y017964D01*
X017063Y018062D02*
X017327Y018062D01*
X017327Y018161D02*
X017063Y018161D01*
X017063Y018259D02*
X017327Y018259D01*
X017327Y018358D02*
X017063Y018358D01*
X017063Y018456D02*
X017327Y018456D01*
X017327Y018555D02*
X017063Y018555D01*
X017063Y018653D02*
X017327Y018653D01*
X017327Y018752D02*
X017063Y018752D01*
X017063Y018850D02*
X017327Y018850D01*
X017325Y018949D02*
X017063Y018949D01*
X017063Y019047D02*
X017229Y019047D01*
X017188Y019146D02*
X017063Y019146D01*
X017063Y019244D02*
X017188Y019244D01*
X017221Y019343D02*
X017063Y019343D01*
X017063Y019441D02*
X017302Y019441D01*
X017301Y019540D02*
X017063Y019540D01*
X017063Y019638D02*
X017256Y019638D01*
X017248Y019737D02*
X017063Y019737D01*
X017063Y019835D02*
X017273Y019835D01*
X017342Y019934D02*
X017063Y019934D01*
X017063Y020032D02*
X017261Y020032D01*
X017216Y020131D02*
X017063Y020131D01*
X017063Y020229D02*
X017216Y020229D01*
X017216Y020328D02*
X017063Y020328D01*
X017063Y020426D02*
X017216Y020426D01*
X017216Y020525D02*
X017063Y020525D01*
X017063Y020623D02*
X017216Y020623D01*
X017063Y020722D02*
X020086Y020722D01*
X021012Y020722D01*
X021012Y020820D02*
X017063Y020820D01*
X017130Y020919D02*
X017216Y020919D01*
X017171Y021186D02*
X016903Y020917D01*
X016903Y015695D01*
X016022Y014814D01*
X014961Y014814D01*
X014594Y014447D01*
X014594Y013484D01*
X014260Y013150D01*
X014420Y013039D02*
X014524Y013039D01*
X014524Y012940D02*
X014420Y012940D01*
X014420Y012842D02*
X014524Y012842D01*
X014524Y012743D02*
X014341Y012743D01*
X014242Y012645D02*
X014524Y012645D01*
X014524Y012546D02*
X014172Y012546D01*
X014212Y012448D02*
X014524Y012448D01*
X014524Y012349D02*
X014212Y012349D01*
X014585Y012166D02*
X013778Y012166D01*
X013772Y012172D01*
X013772Y011582D02*
X014457Y011582D01*
X014547Y011459D01*
X014202Y011382D02*
X014866Y010718D01*
X017742Y010718D01*
X018068Y011044D01*
X018435Y010932D02*
X019491Y010932D01*
X020040Y010383D01*
X020040Y011442D01*
X020804Y012205D01*
X020855Y011758D02*
X022036Y011758D01*
X022036Y011660D02*
X020976Y011660D01*
X021034Y011561D02*
X022036Y011561D01*
X022036Y011463D02*
X021065Y011463D01*
X021065Y011364D02*
X022036Y011364D01*
X022036Y011266D02*
X021040Y011266D01*
X020991Y011167D02*
X022036Y011167D01*
X022036Y011069D02*
X020891Y011069D01*
X020446Y011069D02*
X020200Y011069D01*
X020200Y011167D02*
X020346Y011167D01*
X020297Y011266D02*
X020200Y011266D01*
X020200Y011364D02*
X020271Y011364D01*
X019880Y011069D02*
X019581Y011069D01*
X019679Y010970D02*
X019880Y010970D01*
X019880Y010872D02*
X019778Y010872D01*
X019876Y010773D02*
X019880Y010773D01*
X020200Y010773D02*
X022036Y010773D01*
X022036Y010675D02*
X020200Y010675D01*
X020200Y010872D02*
X022036Y010872D01*
X022036Y010970D02*
X020200Y010970D01*
X020403Y010576D02*
X021097Y010576D01*
X021075Y010478D02*
X020403Y010478D01*
X020403Y010379D02*
X021075Y010379D01*
X021075Y010213D02*
X021075Y010007D01*
X021086Y009969D01*
X021105Y009935D01*
X021133Y009907D01*
X021167Y009887D01*
X020350Y009887D01*
X020403Y009985D02*
X021081Y009985D01*
X021075Y010084D02*
X020403Y010084D01*
X020403Y010182D02*
X021075Y010182D01*
X021075Y010213D02*
X021412Y010213D01*
X021412Y009877D01*
X021206Y009877D01*
X021167Y009887D01*
X021115Y009690D02*
X020403Y009690D01*
X020403Y009788D02*
X022036Y009788D01*
X021512Y009887D02*
X021412Y009887D01*
X021412Y009985D02*
X021512Y009985D01*
X021512Y010084D02*
X021412Y010084D01*
X021412Y010182D02*
X021512Y010182D01*
X021412Y010281D02*
X020403Y010281D01*
X020040Y010383D02*
X019978Y010280D01*
X019553Y010281D02*
X018519Y010281D01*
X018503Y010379D02*
X019553Y010379D01*
X019553Y010478D02*
X018404Y010478D01*
X018360Y010576D02*
X019553Y010576D01*
X019522Y010675D02*
X018458Y010675D01*
X018435Y010878D02*
X018435Y010932D01*
X018435Y011198D01*
X018435Y010878D02*
X018106Y010549D01*
X018608Y010182D02*
X019553Y010182D01*
X019553Y010084D02*
X018651Y010084D01*
X018657Y009985D02*
X019553Y009985D01*
X019607Y009887D02*
X018631Y009887D01*
X018854Y009197D02*
X015360Y009197D01*
X014904Y009197D02*
X014220Y009197D01*
X014344Y009099D02*
X014780Y009099D01*
X014707Y009000D02*
X014417Y009000D01*
X014458Y008902D02*
X014666Y008902D01*
X014652Y008803D02*
X014472Y008803D01*
X014472Y008705D02*
X014652Y008705D01*
X014681Y008606D02*
X014443Y008606D01*
X014402Y008508D02*
X014722Y008508D01*
X014816Y008409D02*
X014308Y008409D01*
X014132Y008311D02*
X014992Y008311D01*
X015512Y007917D02*
X016716Y007917D01*
X016716Y008015D02*
X016440Y008015D01*
X016343Y008186D02*
X016266Y008263D01*
X016343Y008186D02*
X017062Y008186D01*
X016716Y008409D02*
X016528Y008409D01*
X016443Y008508D02*
X016756Y008508D01*
X015968Y008311D02*
X015906Y008311D01*
X015968Y008212D02*
X015808Y008212D01*
X015709Y008114D02*
X016005Y008114D01*
X016092Y008015D02*
X015611Y008015D01*
X014848Y006735D02*
X016872Y006735D01*
X016701Y006636D02*
X014979Y006636D01*
X015061Y006538D02*
X016603Y006538D01*
X016556Y006439D02*
X015113Y006439D01*
X015142Y006341D02*
X016516Y006341D01*
X016509Y006242D02*
X015155Y006242D01*
X015155Y006144D02*
X016509Y006144D01*
X016509Y006045D02*
X015155Y006045D01*
X015155Y005947D02*
X016509Y005947D01*
X016509Y005848D02*
X015155Y005848D01*
X015155Y005651D02*
X016509Y005651D01*
X016509Y005553D02*
X015155Y005553D01*
X015155Y005454D02*
X016509Y005454D01*
X016509Y005356D02*
X015155Y005356D01*
X015151Y005257D02*
X016509Y005257D01*
X016534Y005159D02*
X015130Y005159D01*
X015090Y005060D02*
X016575Y005060D01*
X016648Y004962D02*
X015028Y004962D01*
X014929Y004863D02*
X016746Y004863D01*
X017378Y004863D02*
X018746Y004863D01*
X018648Y004962D02*
X017476Y004962D01*
X017549Y005060D02*
X018575Y005060D01*
X018534Y005159D02*
X017590Y005159D01*
X017615Y005257D02*
X018509Y005257D01*
X018509Y005356D02*
X017615Y005356D01*
X017615Y005454D02*
X018509Y005454D01*
X018509Y005553D02*
X017615Y005553D01*
X017615Y005651D02*
X018509Y005651D01*
X019062Y008186D02*
X019062Y008979D01*
X019059Y008982D01*
X019265Y009197D02*
X019586Y009197D01*
X019333Y009099D02*
X021171Y009099D01*
X021115Y009197D02*
X020370Y009197D01*
X020226Y009450D02*
X021462Y009436D01*
X022196Y009060D02*
X021272Y008135D01*
X020226Y009450D02*
X019978Y009532D01*
X021412Y010379D02*
X021512Y010379D01*
X021512Y010478D02*
X021412Y010478D01*
X021412Y010576D02*
X021512Y010576D01*
X021826Y010576D02*
X022036Y010576D01*
X022036Y010478D02*
X021848Y010478D01*
X021949Y011857D02*
X022036Y011857D01*
X022036Y011955D02*
X021957Y011955D01*
X021957Y012054D02*
X022036Y012054D01*
X022036Y012152D02*
X021957Y012152D01*
X021602Y012152D02*
X021502Y012152D01*
X021502Y012054D02*
X021602Y012054D01*
X021602Y011955D02*
X021502Y011955D01*
X021502Y011857D02*
X021602Y011857D01*
X020379Y014283D02*
X020000Y014207D01*
X019065Y015600D02*
X018086Y015600D01*
X018086Y015698D02*
X019053Y015698D01*
X019073Y015797D02*
X018086Y015797D01*
X018086Y015895D02*
X019136Y015895D01*
X019387Y015994D02*
X018155Y015994D01*
X018202Y016092D02*
X019486Y016092D01*
X019584Y016191D02*
X018210Y016191D01*
X018186Y016289D02*
X019683Y016289D01*
X019781Y016388D02*
X018118Y016388D01*
X017912Y016172D02*
X017487Y016598D01*
X017487Y019222D01*
X017486Y019205D01*
X017752Y019343D02*
X017931Y019343D01*
X017833Y019244D02*
X017785Y019244D01*
X017671Y019441D02*
X018030Y019441D01*
X018128Y019540D02*
X017791Y019540D01*
X017836Y019638D02*
X018214Y019638D01*
X018147Y019737D02*
X017844Y019737D01*
X017819Y019835D02*
X018091Y019835D01*
X018076Y019934D02*
X017750Y019934D01*
X017863Y020032D02*
X018093Y020032D01*
X018152Y020131D02*
X017908Y020131D01*
X017908Y020229D02*
X018314Y020229D01*
X018434Y020229D02*
X020497Y020229D01*
X020302Y020328D02*
X017908Y020328D01*
X017908Y020426D02*
X020204Y020426D01*
X020142Y020525D02*
X017908Y020525D01*
X017908Y020623D02*
X020105Y020623D01*
X021012Y020623D02*
X021112Y020623D01*
X021112Y020525D02*
X021012Y020525D01*
X021012Y020426D02*
X021112Y020426D01*
X021112Y020328D02*
X021012Y020328D01*
X021012Y020229D02*
X021112Y020229D01*
X021112Y020919D02*
X021012Y020919D01*
X021012Y021017D02*
X021112Y021017D01*
X021112Y021116D02*
X021012Y021116D01*
X021012Y021214D02*
X021112Y021214D01*
X021112Y021313D02*
X021012Y021313D01*
X021814Y022199D02*
X018107Y022199D01*
X018115Y022298D02*
X020426Y022298D01*
X020284Y022396D02*
X018115Y022396D01*
X018115Y022495D02*
X020197Y022495D01*
X020156Y022593D02*
X018115Y022593D01*
X018115Y022692D02*
X020125Y022692D01*
X020125Y022790D02*
X018115Y022790D01*
X018115Y022889D02*
X020130Y022889D01*
X020171Y022987D02*
X018115Y022987D01*
X018115Y023086D02*
X020222Y023086D01*
X020320Y023184D02*
X018115Y023184D01*
X018115Y023283D02*
X020514Y023283D01*
X021610Y023283D02*
X022354Y023283D01*
X022354Y023381D02*
X018092Y023381D01*
X018051Y023480D02*
X022354Y023480D01*
X022354Y023578D02*
X017981Y023578D01*
X017882Y023677D02*
X022354Y023677D01*
X022354Y023775D02*
X013757Y023775D01*
X013790Y023765D02*
X013701Y023794D01*
X013612Y023808D01*
X013612Y022822D01*
X014155Y022822D01*
X014155Y023262D01*
X014140Y023354D01*
X014111Y023443D01*
X014069Y023526D01*
X014014Y023601D01*
X013948Y023667D01*
X013873Y023722D01*
X013790Y023765D01*
X013935Y023677D02*
X015242Y023677D01*
X015143Y023578D02*
X014031Y023578D01*
X014093Y023480D02*
X015073Y023480D01*
X015032Y023381D02*
X014131Y023381D01*
X014152Y023283D02*
X015009Y023283D01*
X015009Y023184D02*
X014155Y023184D01*
X014155Y023086D02*
X015009Y023086D01*
X015009Y022987D02*
X014155Y022987D01*
X014155Y022889D02*
X015009Y022889D01*
X015009Y022790D02*
X013612Y022790D01*
X013612Y022822D02*
X013612Y022722D01*
X013612Y021737D01*
X013701Y021751D01*
X013790Y021780D01*
X013873Y021822D01*
X013948Y021877D01*
X014014Y021943D01*
X014069Y022019D01*
X014111Y022102D01*
X014140Y022191D01*
X014155Y022283D01*
X014155Y022722D01*
X013612Y022722D01*
X013512Y022722D01*
X013512Y021737D01*
X013423Y021751D01*
X013334Y021780D01*
X013251Y021822D01*
X013176Y021877D01*
X013110Y021943D01*
X013055Y022019D01*
X013013Y022102D01*
X012984Y022191D01*
X012969Y022283D01*
X012969Y022722D01*
X013512Y022722D01*
X013512Y022822D01*
X012969Y022822D01*
X012969Y023262D01*
X012984Y023354D01*
X013013Y023443D01*
X013055Y023526D01*
X013110Y023601D01*
X013176Y023667D01*
X013251Y023722D01*
X013334Y023765D01*
X013423Y023794D01*
X013512Y023808D01*
X013512Y022822D01*
X013612Y022822D01*
X013612Y022889D02*
X013512Y022889D01*
X013512Y022987D02*
X013612Y022987D01*
X013612Y023086D02*
X013512Y023086D01*
X013512Y023184D02*
X013612Y023184D01*
X013612Y023283D02*
X013512Y023283D01*
X013512Y023381D02*
X013612Y023381D01*
X013612Y023480D02*
X013512Y023480D01*
X013512Y023578D02*
X013612Y023578D01*
X013612Y023677D02*
X013512Y023677D01*
X013512Y023775D02*
X013612Y023775D01*
X013367Y023775D02*
X007257Y023775D01*
X007112Y023775D02*
X007012Y023775D01*
X007012Y023677D02*
X007112Y023677D01*
X007112Y023578D02*
X007012Y023578D01*
X007012Y023480D02*
X007112Y023480D01*
X007112Y023381D02*
X007012Y023381D01*
X007012Y023283D02*
X007112Y023283D01*
X007112Y023184D02*
X007012Y023184D01*
X007012Y023086D02*
X007112Y023086D01*
X007112Y022987D02*
X007012Y022987D01*
X007012Y022889D02*
X007112Y022889D01*
X007112Y022790D02*
X008509Y022790D01*
X008509Y022692D02*
X007655Y022692D01*
X007655Y022593D02*
X008509Y022593D01*
X008509Y022495D02*
X007655Y022495D01*
X007655Y022396D02*
X008509Y022396D01*
X008509Y022298D02*
X007655Y022298D01*
X007642Y022199D02*
X008517Y022199D01*
X008558Y022101D02*
X007611Y022101D01*
X007557Y022002D02*
X008607Y022002D01*
X008706Y021904D02*
X007475Y021904D01*
X007340Y021805D02*
X008882Y021805D01*
X009242Y021805D02*
X009402Y021805D01*
X009402Y021707D02*
X005795Y021707D01*
X005635Y021920D02*
X005635Y021286D01*
X005649Y021272D01*
X005302Y021510D02*
X002762Y021510D01*
X002762Y021608D02*
X005357Y021608D01*
X005475Y021707D02*
X002762Y021707D01*
X002762Y021805D02*
X005475Y021805D01*
X005425Y021904D02*
X002762Y021904D01*
X002762Y022002D02*
X005327Y022002D01*
X005228Y022101D02*
X002762Y022101D01*
X002762Y022199D02*
X005130Y022199D01*
X005031Y022298D02*
X004804Y022298D01*
X004911Y022396D02*
X004933Y022396D01*
X004783Y022772D02*
X005635Y021920D01*
X004783Y022772D02*
X004062Y022772D01*
X004717Y023283D02*
X006472Y023283D01*
X006469Y023184D02*
X004875Y023184D01*
X004973Y023086D02*
X006469Y023086D01*
X006469Y022987D02*
X005014Y022987D01*
X006493Y023381D02*
X002762Y023381D01*
X002762Y023283D02*
X003407Y023283D01*
X003249Y023184D02*
X002762Y023184D01*
X002762Y023086D02*
X003151Y023086D01*
X003110Y022987D02*
X002762Y022987D01*
X002762Y022889D02*
X003069Y022889D01*
X003066Y022790D02*
X002762Y022790D01*
X002762Y022692D02*
X003066Y022692D01*
X003095Y022593D02*
X002762Y022593D01*
X002762Y022495D02*
X003136Y022495D01*
X003213Y022396D02*
X002762Y022396D01*
X002762Y022298D02*
X003320Y022298D01*
X002762Y023480D02*
X006531Y023480D01*
X006593Y023578D02*
X002762Y023578D01*
X002762Y023677D02*
X006689Y023677D01*
X006867Y023775D02*
X002762Y023775D01*
X002762Y023874D02*
X022354Y023874D01*
X022354Y023184D02*
X021804Y023184D01*
X021902Y023086D02*
X022354Y023086D01*
X022354Y022987D02*
X021953Y022987D01*
X021994Y022889D02*
X022354Y022889D01*
X022354Y022790D02*
X021999Y022790D01*
X021999Y022692D02*
X022354Y022692D01*
X022354Y022593D02*
X021968Y022593D01*
X022056Y022495D02*
X022354Y022495D01*
X022354Y022396D02*
X022154Y022396D01*
X022253Y022298D02*
X022354Y022298D01*
X022351Y022199D02*
X022354Y022199D01*
X022011Y022002D02*
X018017Y022002D01*
X018066Y022101D02*
X021912Y022101D01*
X022036Y021904D02*
X017918Y021904D01*
X017742Y021805D02*
X022036Y021805D01*
X022036Y021707D02*
X017722Y021707D01*
X017722Y021608D02*
X022036Y021608D01*
X022036Y021510D02*
X017866Y021510D01*
X017562Y021186D02*
X017171Y021186D01*
X017072Y021313D02*
X016358Y021313D01*
X016457Y021214D02*
X016973Y021214D01*
X016875Y021116D02*
X016555Y021116D01*
X016654Y021017D02*
X016776Y021017D01*
X016743Y020919D02*
X016737Y020919D01*
X016737Y020820D02*
X016743Y020820D01*
X016737Y020722D02*
X016743Y020722D01*
X016737Y020623D02*
X016743Y020623D01*
X016737Y020525D02*
X016743Y020525D01*
X016737Y020426D02*
X016743Y020426D01*
X016737Y020328D02*
X016743Y020328D01*
X016737Y020229D02*
X016743Y020229D01*
X016737Y020131D02*
X016743Y020131D01*
X016737Y020032D02*
X016743Y020032D01*
X016737Y019934D02*
X016743Y019934D01*
X016737Y019835D02*
X016743Y019835D01*
X016737Y019737D02*
X016743Y019737D01*
X016737Y019638D02*
X016743Y019638D01*
X016737Y019540D02*
X016743Y019540D01*
X016737Y019441D02*
X016743Y019441D01*
X016737Y019343D02*
X016743Y019343D01*
X016737Y019244D02*
X016743Y019244D01*
X016737Y019146D02*
X016743Y019146D01*
X016737Y019047D02*
X016743Y019047D01*
X016737Y018949D02*
X016743Y018949D01*
X016737Y018850D02*
X016743Y018850D01*
X016737Y018752D02*
X016743Y018752D01*
X016737Y018653D02*
X016743Y018653D01*
X016737Y018555D02*
X016743Y018555D01*
X016737Y018456D02*
X016743Y018456D01*
X016737Y018358D02*
X016743Y018358D01*
X016737Y018259D02*
X016743Y018259D01*
X016737Y018161D02*
X016743Y018161D01*
X016737Y018062D02*
X016743Y018062D01*
X016737Y017964D02*
X016743Y017964D01*
X016737Y017865D02*
X016743Y017865D01*
X016737Y017767D02*
X016743Y017767D01*
X016737Y017668D02*
X016743Y017668D01*
X016737Y017570D02*
X016743Y017570D01*
X016737Y017471D02*
X016743Y017471D01*
X016737Y017373D02*
X016743Y017373D01*
X016737Y017274D02*
X016743Y017274D01*
X016737Y017176D02*
X016743Y017176D01*
X016737Y017077D02*
X016743Y017077D01*
X016737Y016979D02*
X016743Y016979D01*
X016737Y016880D02*
X016743Y016880D01*
X016737Y016782D02*
X016743Y016782D01*
X016737Y016683D02*
X016743Y016683D01*
X016737Y016585D02*
X016743Y016585D01*
X016737Y016486D02*
X016743Y016486D01*
X016737Y016388D02*
X016743Y016388D01*
X016737Y016289D02*
X016743Y016289D01*
X016737Y016191D02*
X016743Y016191D01*
X016737Y016092D02*
X016743Y016092D01*
X016737Y015994D02*
X016743Y015994D01*
X016737Y015895D02*
X016743Y015895D01*
X016737Y015797D02*
X016743Y015797D01*
X016577Y015743D02*
X015873Y015038D01*
X014815Y015038D01*
X014263Y014486D01*
X013045Y014486D01*
X013042Y014482D01*
X012842Y014482D02*
X012842Y014949D01*
X013135Y015252D01*
X015250Y015252D01*
X015743Y015735D01*
X015743Y017902D01*
X015523Y018122D01*
X015039Y018122D01*
X015035Y018127D01*
X015035Y018560D01*
X014846Y018749D01*
X011767Y018749D01*
X011462Y019054D01*
X011462Y019968D01*
X011090Y020340D01*
X010564Y020340D01*
X010562Y020342D01*
X010566Y020339D01*
X010994Y020131D02*
X011073Y020131D01*
X011171Y020032D02*
X010931Y020032D01*
X010830Y019934D02*
X011270Y019934D01*
X011302Y019835D02*
X010219Y019835D01*
X010218Y019934D02*
X010294Y019934D01*
X010317Y019737D02*
X011302Y019737D01*
X011302Y019638D02*
X010764Y019638D01*
X010903Y019540D02*
X011302Y019540D01*
X011302Y019441D02*
X010983Y019441D01*
X011023Y019343D02*
X011302Y019343D01*
X011302Y019244D02*
X011042Y019244D01*
X011042Y019146D02*
X011302Y019146D01*
X011302Y019047D02*
X011017Y019047D01*
X010977Y018949D02*
X011340Y018949D01*
X011439Y018850D02*
X010889Y018850D01*
X010729Y018752D02*
X011537Y018752D01*
X011636Y018653D02*
X010337Y018653D01*
X010395Y018752D02*
X010239Y018752D01*
X010235Y018850D02*
X010140Y018850D01*
X010147Y018949D02*
X010042Y018949D01*
X010017Y019047D02*
X010107Y019047D01*
X010082Y019146D02*
X010042Y019146D01*
X010042Y019244D02*
X010082Y019244D01*
X010101Y019343D02*
X010023Y019343D01*
X009983Y019441D02*
X010141Y019441D01*
X010062Y019540D02*
X009903Y019540D01*
X009963Y019638D02*
X009764Y019638D01*
X009830Y019934D02*
X009898Y019934D01*
X010058Y019770D02*
X010058Y020965D01*
X010691Y021597D01*
X010691Y022401D01*
X011062Y022772D01*
X010509Y022790D02*
X009615Y022790D01*
X009615Y022692D02*
X010509Y022692D01*
X010509Y022593D02*
X009615Y022593D01*
X009615Y022495D02*
X010509Y022495D01*
X010509Y022396D02*
X009664Y022396D01*
X009722Y022298D02*
X010509Y022298D01*
X010517Y022199D02*
X009722Y022199D01*
X009722Y022101D02*
X010531Y022101D01*
X010531Y022002D02*
X009722Y022002D01*
X009722Y021904D02*
X010531Y021904D01*
X010531Y021805D02*
X009722Y021805D01*
X009722Y021707D02*
X010531Y021707D01*
X010475Y021608D02*
X009722Y021608D01*
X009722Y021510D02*
X010377Y021510D01*
X010278Y021411D02*
X009722Y021411D01*
X009722Y021313D02*
X010180Y021313D01*
X010081Y021214D02*
X009722Y021214D01*
X009722Y021116D02*
X009983Y021116D01*
X009898Y021017D02*
X009722Y021017D01*
X009722Y020919D02*
X009898Y020919D01*
X009898Y020820D02*
X009722Y020820D01*
X009861Y020722D02*
X009898Y020722D01*
X010218Y020722D02*
X010263Y020722D01*
X010218Y020820D02*
X010462Y020820D01*
X010662Y020820D02*
X016398Y020820D01*
X016417Y020722D02*
X010861Y020722D01*
X010960Y020623D02*
X015216Y020623D01*
X015216Y020641D02*
X015216Y020077D01*
X015280Y020013D01*
X015402Y020013D01*
X015402Y019991D01*
X015310Y019832D01*
X015263Y019832D01*
X015154Y019786D01*
X015070Y019702D01*
X015025Y019593D01*
X015025Y019474D01*
X015070Y019365D01*
X015154Y019281D01*
X015263Y019235D01*
X015382Y019235D01*
X015492Y019281D01*
X015575Y019365D01*
X015621Y019474D01*
X015621Y019593D01*
X015588Y019673D01*
X015690Y019850D01*
X015722Y019882D01*
X015722Y019905D01*
X015734Y019926D01*
X015722Y019969D01*
X015722Y020013D01*
X015844Y020013D01*
X015908Y020077D01*
X015908Y020641D01*
X015844Y020705D01*
X015280Y020705D01*
X015216Y020641D01*
X015216Y020525D02*
X011006Y020525D01*
X011230Y020426D02*
X015216Y020426D01*
X015216Y020328D02*
X011328Y020328D01*
X011427Y020229D02*
X015216Y020229D01*
X015216Y020131D02*
X011525Y020131D01*
X011622Y020032D02*
X015261Y020032D01*
X015369Y019934D02*
X011622Y019934D01*
X011622Y019835D02*
X015312Y019835D01*
X015105Y019737D02*
X011622Y019737D01*
X011622Y019638D02*
X015043Y019638D01*
X015025Y019540D02*
X011622Y019540D01*
X011622Y019441D02*
X015038Y019441D01*
X015092Y019343D02*
X011622Y019343D01*
X011622Y019244D02*
X015242Y019244D01*
X015404Y019244D02*
X016417Y019244D01*
X016417Y019146D02*
X011622Y019146D01*
X011694Y019047D02*
X016417Y019047D01*
X016417Y018949D02*
X011793Y018949D01*
X010562Y019202D02*
X010562Y019266D01*
X010058Y019770D01*
X009562Y019202D02*
X010653Y018112D01*
X013442Y018112D01*
X013465Y018088D01*
X013966Y018088D01*
X014287Y017767D01*
X014287Y015735D01*
X014000Y015447D01*
X013052Y015447D01*
X012642Y015037D01*
X012642Y014482D01*
X012482Y014910D02*
X011906Y014910D01*
X012005Y015009D02*
X012482Y015009D01*
X012486Y015107D02*
X012103Y015107D01*
X012202Y015206D02*
X012585Y015206D01*
X012683Y015304D02*
X012300Y015304D01*
X012399Y015403D02*
X012782Y015403D01*
X012880Y015501D02*
X012426Y015501D01*
X012266Y015496D02*
X012266Y015911D01*
X012265Y015912D01*
X010816Y015912D01*
X010797Y015894D01*
X010392Y015895D02*
X009639Y015895D01*
X009639Y015987D02*
X009575Y016051D01*
X009486Y016051D01*
X009519Y016084D01*
X009528Y016080D01*
X009646Y016080D01*
X009756Y016125D01*
X009840Y016209D01*
X009885Y016319D01*
X009885Y016437D01*
X009840Y016547D01*
X009756Y016631D01*
X009646Y016676D01*
X009528Y016676D01*
X009418Y016631D01*
X009334Y016547D01*
X009289Y016437D01*
X009289Y016319D01*
X009292Y016310D01*
X009133Y016151D01*
X009133Y016051D01*
X009011Y016051D01*
X008947Y015987D01*
X008947Y015423D01*
X009011Y015359D01*
X009575Y015359D01*
X009639Y015423D01*
X009639Y015987D01*
X009632Y015994D02*
X010392Y015994D01*
X010392Y016092D02*
X009676Y016092D01*
X009821Y016191D02*
X010392Y016191D01*
X010386Y016289D02*
X009873Y016289D01*
X009885Y016388D02*
X010352Y016388D01*
X010352Y016486D02*
X009865Y016486D01*
X009802Y016585D02*
X010352Y016585D01*
X010352Y016782D02*
X007612Y016782D01*
X007612Y016880D02*
X010352Y016880D01*
X010376Y016979D02*
X007612Y016979D01*
X007612Y017077D02*
X013095Y017077D01*
X013095Y017176D02*
X007612Y017176D01*
X007612Y017274D02*
X013095Y017274D01*
X013095Y017373D02*
X007612Y017373D01*
X007612Y017471D02*
X013095Y017471D01*
X013098Y017570D02*
X007612Y017570D01*
X007612Y016683D02*
X008496Y016683D01*
X008452Y016665D02*
X008368Y016581D01*
X008323Y016472D01*
X008323Y016353D01*
X008327Y016344D01*
X008162Y016180D01*
X008162Y016086D01*
X008040Y016086D01*
X007976Y016022D01*
X007976Y015458D01*
X008040Y015394D01*
X008604Y015394D01*
X008668Y015458D01*
X008668Y016022D01*
X008604Y016086D01*
X008521Y016086D01*
X008553Y016118D01*
X008562Y016114D01*
X008680Y016114D01*
X008790Y016160D01*
X008874Y016244D01*
X008919Y016353D01*
X008919Y016472D01*
X008874Y016581D01*
X008790Y016665D01*
X008680Y016711D01*
X008562Y016711D01*
X008452Y016665D01*
X008372Y016585D02*
X007612Y016585D01*
X007612Y016486D02*
X008329Y016486D01*
X008323Y016388D02*
X007612Y016388D01*
X007612Y016289D02*
X008272Y016289D01*
X008173Y016191D02*
X007612Y016191D01*
X007612Y016092D02*
X008162Y016092D01*
X008322Y016113D02*
X008322Y015740D01*
X007976Y015698D02*
X007612Y015698D01*
X007612Y015600D02*
X007976Y015600D01*
X007976Y015501D02*
X007612Y015501D01*
X007612Y015403D02*
X008031Y015403D01*
X007986Y015206D02*
X007612Y015206D01*
X007612Y015304D02*
X011848Y015304D01*
X011946Y015403D02*
X009619Y015403D01*
X009639Y015501D02*
X012045Y015501D01*
X011871Y015600D02*
X011202Y015600D01*
X011202Y015698D02*
X011860Y015698D01*
X011860Y016092D02*
X011202Y016092D01*
X011202Y016191D02*
X011860Y016191D01*
X011873Y016289D02*
X011208Y016289D01*
X011242Y016388D02*
X011820Y016388D01*
X011820Y016486D02*
X011242Y016486D01*
X011242Y016585D02*
X011820Y016585D01*
X011820Y016710D02*
X012215Y016710D01*
X012215Y017066D01*
X011950Y017066D01*
X011912Y017056D01*
X011878Y017036D01*
X011850Y017008D01*
X011830Y016974D01*
X011820Y016936D01*
X011820Y016710D01*
X011820Y016782D02*
X011242Y016782D01*
X011242Y016692D02*
X011242Y016917D01*
X011232Y016956D01*
X011212Y016990D01*
X011184Y017018D01*
X011150Y017037D01*
X011112Y017048D01*
X010847Y017048D01*
X010847Y016692D01*
X011242Y016692D01*
X011242Y016880D02*
X011820Y016880D01*
X011833Y016979D02*
X011219Y016979D01*
X010847Y016979D02*
X010747Y016979D01*
X010747Y016880D02*
X010847Y016880D01*
X010847Y016782D02*
X010747Y016782D01*
X010747Y016683D02*
X008746Y016683D01*
X008870Y016585D02*
X009372Y016585D01*
X009309Y016486D02*
X008913Y016486D01*
X008919Y016388D02*
X009289Y016388D01*
X009272Y016289D02*
X008893Y016289D01*
X008821Y016191D02*
X009173Y016191D01*
X009133Y016092D02*
X008527Y016092D01*
X008668Y015994D02*
X008954Y015994D01*
X008947Y015895D02*
X008668Y015895D01*
X008668Y015797D02*
X008947Y015797D01*
X008947Y015698D02*
X008668Y015698D01*
X008668Y015600D02*
X008947Y015600D01*
X008947Y015501D02*
X008668Y015501D01*
X008613Y015403D02*
X008967Y015403D01*
X008993Y015206D02*
X008657Y015206D01*
X008668Y015107D02*
X008947Y015107D01*
X008947Y015009D02*
X008668Y015009D01*
X008668Y014910D02*
X008947Y014910D01*
X008947Y014812D02*
X008668Y014812D01*
X008748Y014713D02*
X008947Y014713D01*
X008753Y014482D02*
X008322Y014913D01*
X007976Y014910D02*
X007428Y014910D01*
X007369Y014812D02*
X007976Y014812D01*
X007976Y014713D02*
X007310Y014713D01*
X007144Y014516D02*
X006822Y014516D01*
X006761Y014615D02*
X007992Y014615D01*
X007976Y015009D02*
X007487Y015009D01*
X007546Y015107D02*
X007976Y015107D01*
X007976Y015797D02*
X007612Y015797D01*
X007612Y015895D02*
X007976Y015895D01*
X007976Y015994D02*
X007612Y015994D01*
X007101Y015797D02*
X006956Y015797D01*
X007046Y015698D02*
X007101Y015698D01*
X007101Y015600D02*
X007085Y015600D01*
X006787Y015545D02*
X006475Y015891D01*
X006129Y016388D02*
X005995Y016388D01*
X005995Y016486D02*
X006129Y016486D01*
X006160Y016585D02*
X005964Y016585D01*
X006791Y016585D02*
X006850Y016585D01*
X008322Y016113D02*
X008621Y016413D01*
X009293Y016084D02*
X009293Y015705D01*
X009639Y015698D02*
X010392Y015698D01*
X010392Y015600D02*
X009639Y015600D01*
X009639Y015797D02*
X010392Y015797D01*
X010233Y015206D02*
X011749Y015206D01*
X011651Y015107D02*
X010332Y015107D01*
X010430Y015009D02*
X011552Y015009D01*
X011502Y014910D02*
X010442Y014910D01*
X010282Y014931D02*
X010081Y015132D01*
X010046Y015132D01*
X009787Y014874D01*
X009298Y014874D01*
X009293Y014878D01*
X009639Y015107D02*
X009795Y015107D01*
X009893Y015206D02*
X009593Y015206D01*
X010282Y014931D02*
X010282Y014482D01*
X010082Y014482D02*
X008753Y014482D01*
X008493Y014516D02*
X007477Y014516D01*
X007310Y014263D02*
X006485Y014263D01*
X006475Y014272D01*
X006822Y014024D02*
X007128Y014024D01*
X007493Y014024D02*
X014434Y014024D01*
X014434Y014122D02*
X013183Y014122D01*
X013207Y014221D02*
X014434Y014221D01*
X014434Y014319D02*
X013207Y014319D01*
X012266Y015496D02*
X011662Y014893D01*
X011662Y014482D01*
X012659Y015600D02*
X012979Y015600D01*
X012670Y015698D02*
X014025Y015698D01*
X014123Y015797D02*
X012670Y015797D01*
X012670Y015895D02*
X014127Y015895D01*
X014127Y015994D02*
X012670Y015994D01*
X012670Y016092D02*
X014127Y016092D01*
X014127Y016191D02*
X012670Y016191D01*
X012657Y016289D02*
X014127Y016289D01*
X014447Y016289D02*
X014796Y016289D01*
X014796Y016334D02*
X014796Y016215D01*
X014841Y016106D01*
X014925Y016022D01*
X015035Y015977D01*
X015153Y015977D01*
X015263Y016022D01*
X015347Y016106D01*
X015392Y016215D01*
X015392Y016334D01*
X015347Y016443D01*
X015263Y016527D01*
X015195Y016556D01*
X015195Y016954D01*
X015316Y016954D01*
X015381Y017019D01*
X015381Y017582D01*
X015316Y017647D01*
X014753Y017647D01*
X014688Y017582D01*
X014688Y017019D01*
X014753Y016954D01*
X014875Y016954D01*
X014875Y016477D01*
X014841Y016443D01*
X014796Y016334D01*
X014818Y016388D02*
X014447Y016388D01*
X014447Y016486D02*
X014875Y016486D01*
X014875Y016585D02*
X014447Y016585D01*
X014447Y016683D02*
X014875Y016683D01*
X014875Y016782D02*
X014447Y016782D01*
X014447Y016880D02*
X014875Y016880D01*
X014728Y016979D02*
X014447Y016979D01*
X014447Y017077D02*
X014688Y017077D01*
X014688Y017176D02*
X014447Y017176D01*
X014447Y017274D02*
X014688Y017274D01*
X014688Y017373D02*
X014447Y017373D01*
X014447Y017471D02*
X014688Y017471D01*
X014688Y017570D02*
X014447Y017570D01*
X014447Y017668D02*
X015583Y017668D01*
X015583Y017570D02*
X015381Y017570D01*
X015381Y017471D02*
X015583Y017471D01*
X015583Y017373D02*
X015381Y017373D01*
X015381Y017274D02*
X015583Y017274D01*
X015583Y017176D02*
X015381Y017176D01*
X015381Y017077D02*
X015583Y017077D01*
X015583Y016979D02*
X015341Y016979D01*
X015195Y016880D02*
X015583Y016880D01*
X015583Y016782D02*
X015195Y016782D01*
X015195Y016683D02*
X015583Y016683D01*
X015583Y016585D02*
X015195Y016585D01*
X015304Y016486D02*
X015583Y016486D01*
X015583Y016388D02*
X015370Y016388D01*
X015392Y016289D02*
X015583Y016289D01*
X015583Y016191D02*
X015382Y016191D01*
X015333Y016092D02*
X015583Y016092D01*
X015583Y015994D02*
X015195Y015994D01*
X014993Y015994D02*
X014447Y015994D01*
X014447Y016092D02*
X014855Y016092D01*
X014806Y016191D02*
X014447Y016191D01*
X014447Y015895D02*
X015583Y015895D01*
X015577Y015797D02*
X014447Y015797D01*
X014447Y015698D02*
X015477Y015698D01*
X015376Y015600D02*
X014379Y015600D01*
X014280Y015501D02*
X015276Y015501D01*
X015532Y015304D02*
X015913Y015304D01*
X016011Y015403D02*
X015632Y015403D01*
X015733Y015501D02*
X016110Y015501D01*
X016208Y015600D02*
X015834Y015600D01*
X015903Y015698D02*
X016307Y015698D01*
X016405Y015797D02*
X015903Y015797D01*
X015903Y015895D02*
X016417Y015895D01*
X016417Y015994D02*
X015903Y015994D01*
X015903Y016092D02*
X016417Y016092D01*
X016417Y016191D02*
X015903Y016191D01*
X015903Y016289D02*
X016417Y016289D01*
X016417Y016388D02*
X015903Y016388D01*
X015903Y016486D02*
X016417Y016486D01*
X016417Y016585D02*
X015903Y016585D01*
X015903Y016683D02*
X016417Y016683D01*
X016417Y016782D02*
X015903Y016782D01*
X015903Y016880D02*
X016417Y016880D01*
X016417Y016979D02*
X015903Y016979D01*
X015903Y017077D02*
X016417Y017077D01*
X016417Y017176D02*
X015903Y017176D01*
X015903Y017274D02*
X016417Y017274D01*
X016417Y017373D02*
X015903Y017373D01*
X015903Y017471D02*
X016417Y017471D01*
X016417Y017570D02*
X015903Y017570D01*
X015903Y017668D02*
X016417Y017668D01*
X016417Y017767D02*
X015903Y017767D01*
X015903Y017865D02*
X016417Y017865D01*
X016417Y017964D02*
X015903Y017964D01*
X015809Y018062D02*
X016417Y018062D01*
X016417Y018161D02*
X015710Y018161D01*
X015612Y018259D02*
X016417Y018259D01*
X016417Y018358D02*
X015381Y018358D01*
X015333Y018456D02*
X016417Y018456D01*
X016417Y018555D02*
X015195Y018555D01*
X015167Y018653D02*
X016417Y018653D01*
X016417Y018752D02*
X015069Y018752D01*
X015006Y018815D02*
X015006Y018815D01*
X014970Y018850D02*
X016417Y018850D01*
X016417Y019343D02*
X015554Y019343D01*
X015607Y019441D02*
X016417Y019441D01*
X016417Y019540D02*
X015621Y019540D01*
X015602Y019638D02*
X016417Y019638D01*
X016417Y019737D02*
X015625Y019737D01*
X015682Y019835D02*
X016417Y019835D01*
X016417Y019934D02*
X015731Y019934D01*
X015863Y020032D02*
X016417Y020032D01*
X016417Y020131D02*
X015908Y020131D01*
X015908Y020229D02*
X016417Y020229D01*
X016417Y020328D02*
X015908Y020328D01*
X015908Y020426D02*
X016417Y020426D01*
X016417Y020525D02*
X015908Y020525D01*
X015908Y020623D02*
X016417Y020623D01*
X016577Y020868D02*
X016577Y015743D01*
X016344Y014910D02*
X017766Y014910D01*
X017766Y014812D02*
X016246Y014812D01*
X016147Y014713D02*
X017766Y014713D01*
X017766Y014615D02*
X014988Y014615D01*
X014890Y014516D02*
X017766Y014516D01*
X017766Y014418D02*
X016481Y014418D01*
X016478Y014421D02*
X016444Y014441D01*
X016405Y014451D01*
X016180Y014451D01*
X016180Y014056D01*
X016536Y014056D01*
X016536Y014321D01*
X016526Y014359D01*
X016506Y014393D01*
X016478Y014421D01*
X016536Y014319D02*
X017766Y014319D01*
X017766Y014221D02*
X016536Y014221D01*
X016536Y014122D02*
X017766Y014122D01*
X017766Y014024D02*
X016180Y014024D01*
X016130Y014006D02*
X016109Y013985D01*
X016109Y013179D01*
X016159Y013137D02*
X016888Y013137D01*
X016888Y013039D02*
X016475Y013039D01*
X016475Y012940D02*
X016888Y012940D01*
X016928Y012645D02*
X015713Y012645D01*
X015709Y012649D02*
X015675Y012669D01*
X015637Y012679D01*
X015450Y012679D01*
X015450Y012323D01*
X015767Y012323D01*
X015767Y012549D01*
X015757Y012587D01*
X015737Y012621D01*
X015709Y012649D01*
X015767Y012546D02*
X015782Y012546D01*
X015782Y012448D02*
X015767Y012448D01*
X015767Y012349D02*
X015782Y012349D01*
X015782Y012251D02*
X015450Y012251D01*
X015450Y012349D02*
X015350Y012349D01*
X015350Y012448D02*
X015450Y012448D01*
X015450Y012546D02*
X015350Y012546D01*
X015350Y012645D02*
X015450Y012645D01*
X015692Y012842D02*
X015766Y012842D01*
X015742Y012940D02*
X015727Y012940D01*
X015727Y013039D02*
X015742Y013039D01*
X015727Y013137D02*
X016059Y013137D01*
X016059Y013039D02*
X016159Y013039D01*
X016159Y012940D02*
X016059Y012940D01*
X016059Y012842D02*
X016159Y012842D01*
X016159Y013229D02*
X016475Y013229D01*
X016475Y013454D01*
X016465Y013492D01*
X016446Y013527D01*
X016418Y013554D01*
X016407Y013561D01*
X016444Y013571D01*
X016478Y013590D01*
X016506Y013618D01*
X016526Y013652D01*
X016536Y013691D01*
X016536Y013956D01*
X016180Y013956D01*
X016180Y013584D01*
X016159Y013584D01*
X016159Y013229D01*
X016159Y013236D02*
X016059Y013236D01*
X016059Y013334D02*
X016159Y013334D01*
X016159Y013433D02*
X016059Y013433D01*
X016059Y013531D02*
X016159Y013531D01*
X016180Y013630D02*
X016080Y013630D01*
X016080Y013728D02*
X016180Y013728D01*
X016180Y013827D02*
X016080Y013827D01*
X016080Y013925D02*
X016180Y013925D01*
X016180Y014122D02*
X016080Y014122D01*
X016080Y014221D02*
X016180Y014221D01*
X016180Y014319D02*
X016080Y014319D01*
X016080Y014418D02*
X016180Y014418D01*
X015779Y014418D02*
X014791Y014418D01*
X014754Y014319D02*
X015016Y014319D01*
X015016Y014221D02*
X014754Y014221D01*
X014754Y014122D02*
X015016Y014122D01*
X015016Y014024D02*
X014754Y014024D01*
X014754Y013925D02*
X015016Y013925D01*
X015016Y013827D02*
X014754Y013827D01*
X014754Y013728D02*
X015016Y013728D01*
X015051Y013630D02*
X014754Y013630D01*
X014754Y013531D02*
X015125Y013531D01*
X015074Y013433D02*
X014754Y013433D01*
X014739Y013334D02*
X014671Y013334D01*
X014640Y013236D02*
X014572Y013236D01*
X014542Y013137D02*
X014474Y013137D01*
X014684Y013053D02*
X014809Y013179D01*
X015400Y013179D01*
X015400Y013987D01*
X015382Y014006D01*
X015713Y013630D02*
X015747Y013630D01*
X015777Y013531D02*
X015676Y013531D01*
X015727Y013433D02*
X015742Y013433D01*
X015742Y013334D02*
X015727Y013334D01*
X015727Y013236D02*
X015742Y013236D01*
X016475Y013236D02*
X017284Y013236D01*
X017334Y013206D02*
X017334Y013577D01*
X017284Y013531D02*
X017384Y013531D01*
X017384Y013433D02*
X017284Y013433D01*
X017284Y013334D02*
X017384Y013334D01*
X017762Y013531D02*
X017766Y013531D01*
X017766Y013630D02*
X016513Y013630D01*
X016536Y013728D02*
X017766Y013728D01*
X017766Y013827D02*
X016536Y013827D01*
X016536Y013925D02*
X017766Y013925D01*
X016905Y013531D02*
X016441Y013531D01*
X016475Y013433D02*
X016888Y013433D01*
X016888Y013334D02*
X016475Y013334D01*
X016435Y012152D02*
X016932Y012152D01*
X017174Y012054D02*
X016435Y012054D01*
X015450Y012054D02*
X015350Y012054D01*
X015350Y012152D02*
X015450Y012152D01*
X015450Y011955D02*
X015350Y011955D01*
X015034Y012054D02*
X015012Y012054D01*
X015034Y012152D02*
X014798Y012152D01*
X014684Y012265D02*
X014585Y012166D01*
X014684Y012265D02*
X014684Y013053D01*
X014844Y012940D02*
X015074Y012940D01*
X015109Y012842D02*
X014844Y012842D01*
X014202Y011382D02*
X013772Y011382D01*
X013772Y011192D02*
X014113Y011192D01*
X014005Y010560D02*
X014005Y008785D01*
X013992Y008772D01*
X014512Y006735D02*
X014612Y006735D01*
X014612Y006636D02*
X014512Y006636D01*
X014512Y006538D02*
X014612Y006538D01*
X014612Y006439D02*
X014512Y006439D01*
X014512Y006341D02*
X014612Y006341D01*
X014612Y006242D02*
X014512Y006242D01*
X014512Y006144D02*
X014612Y006144D01*
X014612Y006045D02*
X014512Y006045D01*
X014512Y005947D02*
X014612Y005947D01*
X014612Y005848D02*
X014512Y005848D01*
X009352Y010285D02*
X009352Y010792D01*
X009352Y010992D02*
X008999Y010992D01*
X009352Y012572D02*
X006293Y012572D01*
X005960Y012906D01*
X009342Y012772D02*
X009352Y012762D01*
X009293Y016084D02*
X009587Y016378D01*
X010847Y016683D02*
X012215Y016683D01*
X012215Y016782D02*
X012315Y016782D01*
X012315Y016880D02*
X012215Y016880D01*
X012215Y016979D02*
X012315Y016979D01*
X012697Y016979D02*
X013120Y016979D01*
X013255Y016880D02*
X012710Y016880D01*
X013442Y016685D02*
X013442Y017285D01*
X013725Y017767D02*
X014061Y017767D01*
X013963Y017865D02*
X013788Y017865D01*
X014120Y018161D02*
X014688Y018161D01*
X014688Y018259D02*
X013788Y018259D01*
X013788Y018358D02*
X014688Y018358D01*
X014736Y018456D02*
X013725Y018456D01*
X013158Y018456D02*
X010534Y018456D01*
X010633Y018358D02*
X013095Y018358D01*
X014218Y018062D02*
X014688Y018062D01*
X014688Y017964D02*
X014317Y017964D01*
X014415Y017865D02*
X014688Y017865D01*
X014447Y017767D02*
X015583Y017767D01*
X015553Y017865D02*
X015381Y017865D01*
X015035Y017300D02*
X015035Y016334D01*
X015094Y016275D01*
X015431Y015206D02*
X015814Y015206D01*
X014434Y014418D02*
X014421Y014418D01*
X013461Y016666D02*
X013442Y016685D01*
X014813Y018555D02*
X010436Y018555D01*
X009786Y018752D02*
X009729Y018752D01*
X009562Y020342D02*
X009562Y022272D01*
X009062Y022772D01*
X008509Y022889D02*
X007655Y022889D01*
X007655Y022987D02*
X008509Y022987D01*
X008509Y023086D02*
X007655Y023086D01*
X007655Y023184D02*
X008509Y023184D01*
X008509Y023283D02*
X007652Y023283D01*
X007631Y023381D02*
X008532Y023381D01*
X008573Y023480D02*
X007593Y023480D01*
X007531Y023578D02*
X008643Y023578D01*
X008742Y023677D02*
X007435Y023677D01*
X007112Y022692D02*
X007012Y022692D01*
X007012Y022593D02*
X007112Y022593D01*
X007112Y022495D02*
X007012Y022495D01*
X007012Y022396D02*
X007112Y022396D01*
X007112Y022298D02*
X007012Y022298D01*
X007012Y022199D02*
X007112Y022199D01*
X007112Y022101D02*
X007012Y022101D01*
X007012Y022002D02*
X007112Y022002D01*
X007112Y021904D02*
X007012Y021904D01*
X007012Y021805D02*
X007112Y021805D01*
X009382Y023677D02*
X010742Y023677D01*
X010643Y023578D02*
X009481Y023578D01*
X009551Y023480D02*
X010573Y023480D01*
X010532Y023381D02*
X009592Y023381D01*
X009615Y023283D02*
X010509Y023283D01*
X010509Y023184D02*
X009615Y023184D01*
X009615Y023086D02*
X010509Y023086D01*
X010509Y022987D02*
X009615Y022987D01*
X009615Y022889D02*
X010509Y022889D01*
X011615Y022889D02*
X012969Y022889D01*
X012969Y022987D02*
X011615Y022987D01*
X011615Y023086D02*
X012969Y023086D01*
X012969Y023184D02*
X011615Y023184D01*
X011615Y023283D02*
X012972Y023283D01*
X012993Y023381D02*
X011592Y023381D01*
X011551Y023480D02*
X013031Y023480D01*
X013093Y023578D02*
X011481Y023578D01*
X011382Y023677D02*
X013189Y023677D01*
X013512Y022790D02*
X011615Y022790D01*
X011615Y022692D02*
X012969Y022692D01*
X012969Y022593D02*
X011615Y022593D01*
X011615Y022495D02*
X012969Y022495D01*
X012969Y022396D02*
X011615Y022396D01*
X011615Y022298D02*
X012969Y022298D01*
X012982Y022199D02*
X011607Y022199D01*
X011566Y022101D02*
X013013Y022101D01*
X013067Y022002D02*
X011517Y022002D01*
X011418Y021904D02*
X013149Y021904D01*
X013284Y021805D02*
X011242Y021805D01*
X010882Y021805D02*
X010851Y021805D01*
X010851Y021707D02*
X015402Y021707D01*
X015402Y021608D02*
X010851Y021608D01*
X010829Y021510D02*
X015258Y021510D01*
X015216Y021411D02*
X010731Y021411D01*
X010632Y021313D02*
X015216Y021313D01*
X015216Y021214D02*
X010534Y021214D01*
X010435Y021116D02*
X015216Y021116D01*
X015216Y021017D02*
X010337Y021017D01*
X010238Y020919D02*
X015216Y020919D01*
X015562Y021186D02*
X016259Y021186D01*
X016577Y020868D01*
X016300Y020919D02*
X015908Y020919D01*
X015908Y021017D02*
X016201Y021017D01*
X015908Y021411D02*
X017216Y021411D01*
X017258Y021510D02*
X015866Y021510D01*
X015722Y021608D02*
X017402Y021608D01*
X017402Y021707D02*
X015722Y021707D01*
X015742Y021805D02*
X017382Y021805D01*
X017206Y021904D02*
X015918Y021904D01*
X016017Y022002D02*
X017107Y022002D01*
X017058Y022101D02*
X016066Y022101D01*
X016107Y022199D02*
X017017Y022199D01*
X017009Y022298D02*
X016115Y022298D01*
X016115Y022396D02*
X017009Y022396D01*
X017009Y022495D02*
X016115Y022495D01*
X016115Y022593D02*
X017009Y022593D01*
X017009Y022692D02*
X016115Y022692D01*
X016115Y022790D02*
X017009Y022790D01*
X017009Y022889D02*
X016115Y022889D01*
X016115Y022987D02*
X017009Y022987D01*
X017009Y023086D02*
X016115Y023086D01*
X016115Y023184D02*
X017009Y023184D01*
X017009Y023283D02*
X016115Y023283D01*
X016092Y023381D02*
X017032Y023381D01*
X017073Y023480D02*
X016051Y023480D01*
X015981Y023578D02*
X017143Y023578D01*
X017242Y023677D02*
X015882Y023677D01*
X015562Y022772D02*
X015562Y021186D01*
X015382Y021805D02*
X013840Y021805D01*
X013975Y021904D02*
X015206Y021904D01*
X015107Y022002D02*
X014057Y022002D01*
X014111Y022101D02*
X015058Y022101D01*
X015017Y022199D02*
X014142Y022199D01*
X014155Y022298D02*
X015009Y022298D01*
X015009Y022396D02*
X014155Y022396D01*
X014155Y022495D02*
X015009Y022495D01*
X015009Y022593D02*
X014155Y022593D01*
X014155Y022692D02*
X015009Y022692D01*
X013612Y022692D02*
X013512Y022692D01*
X013512Y022593D02*
X013612Y022593D01*
X013612Y022495D02*
X013512Y022495D01*
X013512Y022396D02*
X013612Y022396D01*
X013612Y022298D02*
X013512Y022298D01*
X013512Y022199D02*
X013612Y022199D01*
X013612Y022101D02*
X013512Y022101D01*
X013512Y022002D02*
X013612Y022002D01*
X013612Y021904D02*
X013512Y021904D01*
X013512Y021805D02*
X013612Y021805D01*
X015562Y020359D02*
X015562Y019948D01*
X015323Y019533D01*
X017546Y019717D02*
X017562Y020072D01*
X017562Y020359D01*
X017562Y021186D02*
X017562Y022772D01*
X018374Y019932D02*
X018374Y019559D01*
X017739Y018924D01*
X017739Y017683D01*
X018718Y017471D02*
X020165Y017471D01*
X020137Y017373D02*
X018746Y017373D01*
X018844Y017274D02*
X020137Y017274D01*
X020137Y017176D02*
X018943Y017176D01*
X019041Y017077D02*
X020137Y017077D01*
X020137Y016979D02*
X019140Y016979D01*
X018758Y018062D02*
X020122Y018062D01*
X020097Y018161D02*
X018758Y018161D01*
X020512Y018161D02*
X020612Y018161D01*
X020612Y018259D02*
X020512Y018259D01*
X020512Y018358D02*
X020612Y018358D01*
X020612Y018456D02*
X020512Y018456D01*
X020512Y018555D02*
X020612Y018555D01*
X020612Y018653D02*
X020512Y018653D01*
X020512Y018062D02*
X020612Y018062D01*
X020959Y017471D02*
X021055Y017471D01*
X021297Y017176D02*
X022354Y017176D01*
X022354Y017274D02*
X021396Y017274D01*
X021494Y017373D02*
X022354Y017373D01*
X022354Y017471D02*
X021593Y017471D01*
X021691Y017570D02*
X022354Y017570D01*
X022354Y017668D02*
X021790Y017668D01*
X021888Y017767D02*
X022354Y017767D01*
X022354Y017865D02*
X021987Y017865D01*
X022085Y017964D02*
X022354Y017964D01*
X022354Y018062D02*
X022184Y018062D01*
X022282Y018161D02*
X022354Y018161D01*
X022354Y017077D02*
X021199Y017077D01*
X021100Y016979D02*
X022354Y016979D01*
X022354Y016880D02*
X021002Y016880D01*
X020987Y016782D02*
X022354Y016782D01*
X022354Y016683D02*
X020987Y016683D01*
X020987Y016585D02*
X022354Y016585D01*
X022354Y016486D02*
X020987Y016486D01*
X020987Y016388D02*
X022354Y016388D01*
X022354Y016289D02*
X020987Y016289D01*
X020987Y016191D02*
X022354Y016191D01*
X022354Y016092D02*
X020987Y016092D01*
X020987Y015994D02*
X022354Y015994D01*
X022354Y015698D02*
X022061Y015698D01*
X022160Y015600D02*
X022354Y015600D01*
X022354Y015501D02*
X022258Y015501D01*
X017926Y016159D02*
X017926Y012460D01*
X017926Y016159D02*
X017912Y016172D01*
X021698Y022298D02*
X021715Y022298D01*
X006954Y009197D02*
X006422Y009197D01*
X006504Y009099D02*
X006760Y009099D01*
X006661Y009000D02*
X006551Y009000D01*
X006576Y008902D02*
X006617Y008902D01*
X005702Y009197D02*
X005170Y009197D01*
X005364Y009099D02*
X005620Y009099D01*
X005573Y009000D02*
X005463Y009000D01*
X005507Y008902D02*
X005548Y008902D01*
X003805Y008409D02*
X002762Y008409D01*
X002762Y008508D02*
X003698Y008508D01*
X003632Y008606D02*
X002762Y008606D01*
X002762Y008705D02*
X003591Y008705D01*
X003582Y008803D02*
X002762Y008803D01*
X002762Y008902D02*
X003582Y008902D01*
X003616Y009000D02*
X002762Y009000D01*
X002762Y009099D02*
X003660Y009099D01*
X003758Y009197D02*
X002762Y009197D01*
X007400Y006341D02*
X007718Y006341D01*
X007689Y006439D02*
X007493Y006439D01*
X007692Y006662D02*
X008143Y006211D01*
X008506Y005848D02*
X008595Y005848D01*
X007718Y005257D02*
X007391Y005257D01*
X007497Y005159D02*
X007721Y005159D01*
M02*
